<svg xmlns="http://www.w3.org/2000/svg" viewBox="0 0 39.8 55.7"><g style="isolation:isolate"><g id="ac71d648-29ed-4790-9ab5-b10a97b9df24" data-name="Layer 1"><path d="M4.4,55.7A4.2,4.2,0,0,1,.1,51.5V4.2A4.2,4.2,0,0,1,4.3,0H35.5a4.2,4.2,0,0,1,4.3,4.2V51.5a4.2,4.2,0,0,1-4.3,4.2Z" style="fill:#c9c9c9"/><path d="M4.8,55.6A4.2,4.2,0,0,1,.6,51.4V4.2A4.2,4.2,0,0,1,4.8,0H35.6a4.2,4.2,0,0,1,4.2,4.2V51.4a4.2,4.2,0,0,1-4.2,4.2Z" style="fill:#fff"/><path d="M5.5,5.5c0,.1,0,.2-.1.2a.3.3,0,0,0-.1.2l-.5.6-.3.2v.2h0v.3a.1.1,0,0,0,.1.1H5l-.4.4a1.3,1.3,0,0,1-.7.4c-.2,0-.3-.3-.3-.7s-.1-.6-.2-.7H2l.2-.5L3,5l.4-.4.3-.3.4-.5.3-.2h.1V5.8h.6l.3-.3h.1Zm-2,.2V5.5h0V5.2l-.4.3-.2.3h.6Z" style="fill:#333"/><path d="M35.1,50.6c0-.1.1-.1.1-.2h.1l.5-.7.3-.2a.1.1,0,0,0,.1-.1h0c0-.1-.1-.2-.1-.3h-.2l-.2.2h0c0-.1.1-.2.3-.4a1,1,0,0,1,.8-.4q.2,0,.3.6c0,.5,0,.7.1.7h1.4a.1.1,0,0,0,.1.1h0l-.3.5c-.2.2-.4.6-.8,1l-.3.4-.3.4-.5.4c-.1.2-.2.2-.2.2h-.1V50.4h-.3l-.4.2-.3.2h0A.1.1,0,0,1,35.1,50.6Zm2-.2v.2h0a.4.4,0,0,0,.1.3c0-.1.2-.2.3-.4s.1-.1.2-.2h-.6Z" style="fill:#333"/><path d="M31.9,10.2c0-.9-4.2-5-4.2-5h0v9.9h2l-1.6-2.7a3.3,3.3,0,0,0,1.3.4A2.6,2.6,0,0,0,31.9,10.2Z" style="fill:#616161;opacity:0.2;mix-blend-mode:color-burn"/><path d="M9.4,10.2c0-.9,4.2-5,4.2-5h0v9.9h-2l1.6-2.7a2.8,2.8,0,0,1-1.3.4A2.6,2.6,0,0,1,9.4,10.2Z" style="fill:#616161;opacity:0.2;mix-blend-mode:color-burn"/><path d="M31.9,45.9c0,.9-4.2,5.1-4.2,5.1h0V41h2l-1.6,2.7a2.8,2.8,0,0,1,1.3-.3A2.5,2.5,0,0,1,31.9,45.9Z" style="fill:#616161;opacity:0.2;mix-blend-mode:color-burn"/><path d="M9.4,45.9c0,.9,4.2,5.1,4.2,5.1h0V41h-2l1.6,2.7a2.8,2.8,0,0,0-1.3-.3A2.5,2.5,0,0,0,9.4,45.9Z" style="fill:#616161;opacity:0.2;mix-blend-mode:color-burn"/><path d="M5,11c0-.2-1.1-1.3-1.1-1.3h0v2.6h.5L4,11.6h.3A.7.7,0,0,0,5,11Z" style="fill:#616161;opacity:0.2;mix-blend-mode:color-burn"/><path d="M35.8,45.2c0,.2,1.1,1.3,1.1,1.3h0V43.9h-.5l.4.7h-.3A.7.7,0,0,0,35.8,45.2Z" style="fill:#616161;opacity:0.2;mix-blend-mode:color-burn"/><path d="M9.9,9c.1,1.9,4,4.8,4,4.8s3.9-2.9,3.9-4.8a2.4,2.4,0,0,0-2.4-2.4,3.4,3.4,0,0,0-1.6.7,2.5,2.5,0,0,0-1.5-.7A2.4,2.4,0,0,0,9.9,9Z" style="fill:#d66142"/><path d="M12.3,6.6a2.5,2.5,0,0,1,1.5.7h.1v6.6h0S10,10.9,9.9,9A2.4,2.4,0,0,1,12.3,6.6Z" style="fill:#616161;opacity:0.2;mix-blend-mode:color-burn"/><path d="M31.9,9c-.1,1.9-3.9,4.8-3.9,4.8S24.1,10.9,24.1,9a2.4,2.4,0,0,1,2.4-2.4,2.9,2.9,0,0,1,1.5.7,2.9,2.9,0,0,1,1.6-.7A2.3,2.3,0,0,1,31.9,9Z" style="fill:#d66142"/><path d="M29.6,6.6a2.9,2.9,0,0,0-1.6.7h0v6.6h0s3.8-2.9,3.9-4.8A2.3,2.3,0,0,0,29.6,6.6Z" style="fill:#616161;opacity:0.2;mix-blend-mode:color-burn"/><path d="M9.9,46.7c.1-1.9,4-4.8,4-4.8s3.9,3,3.9,4.9a2.3,2.3,0,0,1-2.4,2.3,3.7,3.7,0,0,1-1.6-.6,2.7,2.7,0,0,1-1.5.6A2.4,2.4,0,0,1,9.9,46.7Z" style="fill:#d66142"/><path d="M12.3,49.1a2.7,2.7,0,0,0,1.5-.6h.1V41.9h0s-3.9,2.9-4,4.8A2.4,2.4,0,0,0,12.3,49.1Z" style="fill:#616161;opacity:0.2;mix-blend-mode:color-burn"/><path d="M31.9,46.7c-.1-1.9-3.9-4.8-3.9-4.8s-3.9,3-3.9,4.9a2.3,2.3,0,0,0,2.4,2.3,3.1,3.1,0,0,0,1.5-.6,3.2,3.2,0,0,0,1.6.6A2.2,2.2,0,0,0,31.9,46.7Z" style="fill:#d66142"/><path d="M29.6,49.1a3.2,3.2,0,0,1-1.6-.6h0V41.9h0s3.8,2.9,3.9,4.8A2.2,2.2,0,0,1,29.6,49.1Z" style="fill:#616161;opacity:0.2;mix-blend-mode:color-burn"/><path d="M5,10.8c0,.7-1.4,1.7-1.4,1.7s-1.4-1-1.4-1.7a.9.9,0,0,1,.9-.8l.5.2.6-.2A.9.9,0,0,1,5,10.8Z" style="fill:#d66142"/><path d="M4.2,10l-.6.2h0v2.3h0S5,11.5,5,10.8A.9.9,0,0,0,4.2,10Z" style="fill:#616161;opacity:0.2;mix-blend-mode:color-burn"/><path d="M34.9,45.5c.1-.7,1.4-1.7,1.4-1.7s1.5,1,1.5,1.7a.8.8,0,0,1-.9.8l-.6-.2a.8.8,0,0,1-.5.2A.8.8,0,0,1,34.9,45.5Z" style="fill:#d66142"/><path d="M35.8,46.3a.8.8,0,0,0,.5-.2h.1V43.8h-.1s-1.3,1-1.4,1.7A.8.8,0,0,0,35.8,46.3Z" style="fill:#616161;opacity:0.2;mix-blend-mode:color-burn"/></g></g></svg>