<svg xmlns="http://www.w3.org/2000/svg" viewBox="0 0 39.8 55.7"><g style="isolation:isolate"><g id="f53c8e14-72b7-48d4-9e9b-e0c2d7f27e98" data-name="Layer 1"><path d="M4.4,55.7A4.2,4.2,0,0,1,.1,51.5V4.2A4.2,4.2,0,0,1,4.3,0H35.5a4.2,4.2,0,0,1,4.3,4.2V51.5a4.2,4.2,0,0,1-4.3,4.2Z" style="fill:#c9c9c9"/><path d="M4.8,55.6A4.2,4.2,0,0,1,.6,51.4V4.2A4.2,4.2,0,0,1,4.8,0H35.6a4.2,4.2,0,0,1,4.2,4.2V51.4a4.2,4.2,0,0,1-4.2,4.2Z" style="fill:#fff"/><path d="M3.5,7.4l-.4.4-.7.3-.3-.2c0-.1-.1-.1-.1-.2V4.5H1.7L2,3.9l.3-.2h.2l.3.2.2.3V7.4h.5Z" style="fill:#333"/><path d="M7.4,5.9a1.9,1.9,0,0,1-.2.7,1.7,1.7,0,0,1-.8.9l-.5.3a1.1,1.1,0,0,1-.8.2,1.4,1.4,0,0,1-1.2-.6,1.8,1.8,0,0,1-.4-1.3,1.9,1.9,0,0,1,.3-1l.4-.6a1.3,1.3,0,0,1,.7-.6l.8-.3a1.3,1.3,0,0,1,1.2.7A3,3,0,0,1,7.4,5.9Zm-1,.7a2.8,2.8,0,0,0-.1-.9L6,4.9l-.5-.6H5.1a.5.5,0,0,0-.5.3,1.2,1.2,0,0,0-.2.8v.5l.3.8.5.7.5.2a.5.5,0,0,0,.5-.3C6.4,7.1,6.4,6.8,6.4,6.6Z" style="fill:#333"/><path d="M37.1,48.7c0-.1.2-.2.4-.3l.8-.3c.1,0,.2,0,.2.1a.4.4,0,0,1,.1.3v3.3H39c0,.1,0,.1-.1.2l-.3.2-.3.2h-.5a.4.4,0,0,1-.1-.3V48.7h-.1c-.1,0-.1,0-.1.1h-.4Z" style="fill:#333"/><path d="M33.3,50.3a1.5,1.5,0,0,1,.1-.7,2.5,2.5,0,0,1,.8-1l.5-.3.8-.2a1.4,1.4,0,0,1,1.2.6,2.1,2.1,0,0,1,.4,1.4,4.4,4.4,0,0,1-.2,1l-.5.6-.6.6a1.5,1.5,0,0,1-.9.2,1.3,1.3,0,0,1-1.2-.7A2.4,2.4,0,0,1,33.3,50.3Zm.9-.7a2.8,2.8,0,0,0,.1.9,2.5,2.5,0,0,0,.4.7,1,1,0,0,0,.5.6h.3a.5.5,0,0,0,.5-.3,1.1,1.1,0,0,0,.3-.7,4.3,4.3,0,0,0-.1-.5,1.3,1.3,0,0,0-.3-.8,2.2,2.2,0,0,0-.5-.8l-.5-.2a.5.5,0,0,0-.5.3A1.4,1.4,0,0,0,34.2,49.6Z" style="fill:#333"/><path d="M31.9,9.4c0-1-4.3-5.3-4.3-5.3h0V14.4h2L28,11.6a2,2,0,0,0,1.3.4A2.6,2.6,0,0,0,31.9,9.4Z" style="fill:#616161;opacity:0.2;mix-blend-mode:color-burn"/><path d="M31.9,21.8c0-1-4.3-5.3-4.3-5.3h0V26.8h2L28,24a2.8,2.8,0,0,0,1.3.4A2.6,2.6,0,0,0,31.9,21.8Z" style="fill:#616161;opacity:0.2;mix-blend-mode:color-burn"/><path d="M8.5,9.4c0-1,4.3-5.3,4.3-5.3h.1V14.4H10.8l1.6-2.8a2,2,0,0,1-1.3.4A2.6,2.6,0,0,1,8.5,9.4Z" style="fill:#616161;opacity:0.2;mix-blend-mode:color-burn"/><path d="M15.9,16.5c0-1,4.3-5.3,4.3-5.3h.1V21.5H18.2l1.6-2.8a2.5,2.5,0,0,1-1.3.4A2.6,2.6,0,0,1,15.9,16.5Z" style="fill:#616161;opacity:0.2;mix-blend-mode:color-burn"/><path d="M8.5,21.8c0-1,4.3-5.3,4.3-5.3h.1V26.8H10.8L12.4,24a2.8,2.8,0,0,1-1.3.4A2.6,2.6,0,0,1,8.5,21.8Z" style="fill:#616161;opacity:0.2;mix-blend-mode:color-burn"/><path d="M31.9,46.4c0,1-4.4,5.3-4.4,5.3h0V41.4h2.1L28,44.2a2.5,2.5,0,0,1,1.3-.4A2.6,2.6,0,0,1,31.9,46.4Z" style="fill:#616161;opacity:0.2;mix-blend-mode:color-burn"/><path d="M31.9,34.1c0,1-4.4,5.3-4.4,5.3h0V29.1h2.1L28,31.8a2.5,2.5,0,0,1,1.3-.3A2.6,2.6,0,0,1,31.9,34.1Z" style="fill:#616161;opacity:0.2;mix-blend-mode:color-burn"/><path d="M8.5,46.4c0,1,4.3,5.3,4.3,5.3h0V41.4h-2l1.6,2.8a2.8,2.8,0,0,0-1.3-.4A2.6,2.6,0,0,0,8.5,46.4Z" style="fill:#616161;opacity:0.2;mix-blend-mode:color-burn"/><path d="M15.9,39.3c0,1,4.3,5.3,4.3,5.3h0V34.3h-2L19.8,37a2.8,2.8,0,0,0-1.3-.3A2.5,2.5,0,0,0,15.9,39.3Z" style="fill:#616161;opacity:0.2;mix-blend-mode:color-burn"/><path d="M8.5,34.1c0,1,4.3,5.3,4.3,5.3h0V29.1h-2l1.6,2.7a2.8,2.8,0,0,0-1.3-.3A2.5,2.5,0,0,0,8.5,34.1Z" style="fill:#616161;opacity:0.2;mix-blend-mode:color-burn"/><path d="M5.2,11.3c0-.3-1.1-1.4-1.1-1.4h0v2.7h.5l-.4-.7h.3A.7.7,0,0,0,5.2,11.3Z" style="fill:#616161;opacity:0.2;mix-blend-mode:color-burn"/><path d="M35.6,45a8.7,8.7,0,0,0,1.2,1.4h0V43.6h-.6l.4.8h-.3A.7.7,0,0,0,35.6,45Z" style="fill:#616161;opacity:0.2;mix-blend-mode:color-burn"/><path d="M5.5,10.8c-.1.7-1.5,1.7-1.5,1.7s-1.4-1-1.4-1.7a.9.9,0,0,1,.9-.9l.5.2.6-.2A.9.9,0,0,1,5.5,10.8Z" style="fill:#d66142"/><path d="M4.6,9.9l-.6.2H4v2.4H4s1.4-1,1.5-1.7A.9.9,0,0,0,4.6,9.9Z" style="fill:#616161;opacity:0.2;mix-blend-mode:color-burn"/><path d="M8.8,8c.1,2,4,5,4,5s4.1-3,4.1-5a2.5,2.5,0,0,0-2.4-2.5,3.4,3.4,0,0,0-1.7.7,2.9,2.9,0,0,0-1.6-.7A2.5,2.5,0,0,0,8.8,8Z" style="fill:#d66142"/><path d="M11.2,5.5a2.9,2.9,0,0,1,1.6.7h.1V13h-.1s-3.9-3-4-5A2.5,2.5,0,0,1,11.2,5.5Z" style="fill:#616161;opacity:0.2;mix-blend-mode:color-burn"/><path d="M16.1,13.8c.1,1.9,4.1,5,4.1,5s4.1-3.1,4.1-5.1a2.5,2.5,0,0,0-2.5-2.4,2.9,2.9,0,0,0-1.6.7,2.9,2.9,0,0,0-1.6-.7A2.4,2.4,0,0,0,16.1,13.8Z" style="fill:#d66142"/><path d="M18.6,11.3a2.9,2.9,0,0,1,1.6.7h0v6.8h0s-4-3.1-4.1-5A2.4,2.4,0,0,1,18.6,11.3Z" style="fill:#616161;opacity:0.2;mix-blend-mode:color-burn"/><path d="M31.6,8c-.1,2-4,5-4,5s-4.1-3-4.1-5A2.5,2.5,0,0,1,26,5.5a3.4,3.4,0,0,1,1.6.7,2.9,2.9,0,0,1,1.6-.7A2.5,2.5,0,0,1,31.6,8Z" style="fill:#d66142"/><path d="M29.2,5.5a2.9,2.9,0,0,0-1.6.7h-.1V13h.1s3.9-3,4-5A2.5,2.5,0,0,0,29.2,5.5Z" style="fill:#616161;opacity:0.2;mix-blend-mode:color-burn"/><path d="M8.8,20.3c.1,1.9,4,5,4,5s4.1-3.1,4.1-5.1a2.4,2.4,0,0,0-2.4-2.4,3.4,3.4,0,0,0-1.7.7,2.9,2.9,0,0,0-1.6-.7A2.4,2.4,0,0,0,8.8,20.3Z" style="fill:#d66142"/><path d="M11.2,17.8a2.9,2.9,0,0,1,1.6.7h.1v6.8a.1.1,0,0,1-.1.1s-3.9-3.1-4-5A2.4,2.4,0,0,1,11.2,17.8Z" style="fill:#616161;opacity:0.2;mix-blend-mode:color-burn"/><path d="M31.6,20.3c-.1,1.9-4,5-4,5s-4.1-3.1-4.1-5.1A2.5,2.5,0,0,1,26,17.8a3.4,3.4,0,0,1,1.6.7,2.9,2.9,0,0,1,1.6-.7A2.4,2.4,0,0,1,31.6,20.3Z" style="fill:#d66142"/><path d="M29.2,17.8a2.9,2.9,0,0,0-1.6.7h-.1v6.8h.1s3.9-3.1,4-5A2.4,2.4,0,0,0,29.2,17.8Z" style="fill:#616161;opacity:0.2;mix-blend-mode:color-burn"/><path d="M8.8,47.2c.1-1.9,4-4.9,4-4.9s4.1,3,4.1,5a2.4,2.4,0,0,1-2.4,2.4,3.7,3.7,0,0,1-1.7-.6,3.2,3.2,0,0,1-1.6.6A2.4,2.4,0,0,1,8.8,47.2Z" style="fill:#d66142"/><path d="M11.2,49.7a3.2,3.2,0,0,0,1.6-.6h.1V42.3h-.1s-3.9,3-4,4.9A2.4,2.4,0,0,0,11.2,49.7Z" style="fill:#616161;opacity:0.2;mix-blend-mode:color-burn"/><path d="M16.1,41.5c.1-2,4.1-5,4.1-5s4.1,3,4.1,5A2.5,2.5,0,0,1,21.8,44a2.9,2.9,0,0,1-1.6-.7,2.9,2.9,0,0,1-1.6.7A2.4,2.4,0,0,1,16.1,41.5Z" style="fill:#d66142"/><path d="M18.6,44a2.9,2.9,0,0,0,1.6-.7h0V36.5h0s-4,3-4.1,5A2.4,2.4,0,0,0,18.6,44Z" style="fill:#616161;opacity:0.2;mix-blend-mode:color-burn"/><path d="M31.6,47.2c-.1-1.9-4-4.9-4-4.9s-4.1,3-4.1,5A2.5,2.5,0,0,0,26,49.7a3.7,3.7,0,0,0,1.6-.6,3.2,3.2,0,0,0,1.6.6A2.4,2.4,0,0,0,31.6,47.2Z" style="fill:#d66142"/><path d="M29.2,49.7a3.2,3.2,0,0,1-1.6-.6h-.1V42.3h.1s3.9,3,4,4.9A2.4,2.4,0,0,1,29.2,49.7Z" style="fill:#616161;opacity:0.2;mix-blend-mode:color-burn"/><path d="M8.8,35c.1-2,4-5,4-5s4.1,3,4.1,5a2.5,2.5,0,0,1-2.4,2.5,3.4,3.4,0,0,1-1.7-.7,2.9,2.9,0,0,1-1.6.7A2.4,2.4,0,0,1,8.8,35Z" style="fill:#d66142"/><path d="M11.2,37.5a2.9,2.9,0,0,0,1.6-.7h.1V30h-.1s-3.9,3-4,5A2.4,2.4,0,0,0,11.2,37.5Z" style="fill:#616161;opacity:0.2;mix-blend-mode:color-burn"/><path d="M31.6,35c-.1-2-4-5-4-5s-4.1,3-4.1,5A2.5,2.5,0,0,0,26,37.5a3.4,3.4,0,0,0,1.6-.7,2.9,2.9,0,0,0,1.6.7A2.4,2.4,0,0,0,31.6,35Z" style="fill:#d66142"/><path d="M29.2,37.5a2.9,2.9,0,0,1-1.6-.7h-.1V30h.1s3.9,3,4,5A2.4,2.4,0,0,1,29.2,37.5Z" style="fill:#616161;opacity:0.2;mix-blend-mode:color-burn"/><path d="M35.3,45.5c0-.8,1.5-1.8,1.5-1.8s1.4,1.1,1.4,1.8a.9.9,0,0,1-.9.9,1.6,1.6,0,0,1-.6-.3.5.5,0,0,1-.5.2A.9.9,0,0,1,35.3,45.5Z" style="fill:#d66142"/><path d="M36.2,46.3a.5.5,0,0,0,.5-.2h.1V43.7h0s-1.5,1-1.5,1.8A.9.9,0,0,0,36.2,46.3Z" style="fill:#616161;opacity:0.2;mix-blend-mode:color-burn"/></g></g></svg>