<svg xmlns="http://www.w3.org/2000/svg" viewBox="0 0 39.8 55.7"><g style="isolation:isolate"><g id="b68c7682-d26f-4148-af91-a346c4230c76" data-name="Layer 1"><path d="M4.4,55.7A4.2,4.2,0,0,1,.1,51.5V4.2A4.2,4.2,0,0,1,4.3,0H35.5a4.2,4.2,0,0,1,4.3,4.2V51.5a4.2,4.2,0,0,1-4.3,4.2Z" style="fill:#c9c9c9"/><path d="M4.8,55.6A4.2,4.2,0,0,1,.6,51.4V4.2A4.2,4.2,0,0,1,4.8,0H35.6a4.2,4.2,0,0,1,4.2,4.2V51.4a4.2,4.2,0,0,1-4.2,4.2Z" style="fill:#fff"/><path d="M5.5,5.1a4.4,4.4,0,0,1-.2,1,5.9,5.9,0,0,1-.4.8,4.6,4.6,0,0,0-.7.7,2.1,2.1,0,0,1-.9.5H3.2a3.4,3.4,0,0,0,.6-.6,3.5,3.5,0,0,0,.6-.9H3.6A.9.9,0,0,1,3,6.3a1.3,1.3,0,0,1-.4-1,2,2,0,0,1,.7-1.1c.4-.4.7-.6,1-.6a1,1,0,0,1,.8.4A1.5,1.5,0,0,1,5.5,5.1Zm-.9.6a1.2,1.2,0,0,0-.3-.9.7.7,0,0,0-.6-.4H3.6c-.1.1-.1.1-.1.2a1.1,1.1,0,0,0,.3.8c.2.2.3.4.5.4h.3Z" style="fill:#333"/><path d="M35.1,51a2.9,2.9,0,0,1,.2-.9l.4-.8.8-.7a1.5,1.5,0,0,1,.8-.5h.1a.1.1,0,0,0,.1.1l-.7.5-.6,1h.1l.4-.2h.4a.7.7,0,0,1,.6.4,1.4,1.4,0,0,1,.3.9,1.5,1.5,0,0,1-.7,1.2,1.4,1.4,0,0,1-1,.5,1.1,1.1,0,0,1-.7-.3A1.8,1.8,0,0,1,35.1,51Zm1-.5a1.6,1.6,0,0,0,.3.9.9.9,0,0,0,.6.3.1.1,0,0,0,.1-.1v-.2a1.4,1.4,0,0,0-.2-.7.7.7,0,0,0-.6-.4h-.2Z" style="fill:#333"/><path d="M31.9,9.4c0-1-4.3-5.3-4.3-5.3h-.1V14.4h2.1L28,11.6a1.8,1.8,0,0,0,1.3.4A2.6,2.6,0,0,0,31.9,9.4Z" style="fill:#616161;opacity:0.2;mix-blend-mode:color-burn"/><path d="M31.9,21.8c0-1-4.3-5.3-4.3-5.3h-.1V26.8h2.1L28,24a2.5,2.5,0,0,0,1.3.4A2.6,2.6,0,0,0,31.9,21.8Z" style="fill:#616161;opacity:0.2;mix-blend-mode:color-burn"/><path d="M8.5,9.4c0-1,4.3-5.3,4.3-5.3h0V14.4h-2l1.6-2.8a2,2,0,0,1-1.3.4A2.6,2.6,0,0,1,8.5,9.4Z" style="fill:#616161;opacity:0.2;mix-blend-mode:color-burn"/><path d="M15.9,27.9c0-1,4.3-5.3,4.3-5.3h0V32.9h-2l1.6-2.8a2.8,2.8,0,0,1-1.3.4A2.6,2.6,0,0,1,15.9,27.9Z" style="fill:#616161;opacity:0.2;mix-blend-mode:color-burn"/><path d="M8.5,21.8c0-1,4.3-5.3,4.3-5.3h0V26.8h-2L12.4,24a2.8,2.8,0,0,1-1.3.4A2.6,2.6,0,0,1,8.5,21.8Z" style="fill:#616161;opacity:0.2;mix-blend-mode:color-burn"/><path d="M31.9,46.4c0,1-4.4,5.3-4.4,5.3h0V41.4h2.1l-1.7,2.8a3.3,3.3,0,0,1,1.4-.4A2.6,2.6,0,0,1,31.9,46.4Z" style="fill:#616161;opacity:0.2;mix-blend-mode:color-burn"/><path d="M31.9,34.1c0,1-4.4,5.3-4.4,5.3h0V29.1h2.1l-1.7,2.8a3.2,3.2,0,0,1,1.4-.3A2.6,2.6,0,0,1,31.9,34.1Z" style="fill:#616161;opacity:0.2;mix-blend-mode:color-burn"/><path d="M8.5,46.4c-.1,1,4.3,5.3,4.3,5.3h0V41.4h-2l1.6,2.8a2.8,2.8,0,0,0-1.3-.4A2.6,2.6,0,0,0,8.5,46.4Z" style="fill:#616161;opacity:0.2;mix-blend-mode:color-burn"/><path d="M8.5,34.1c-.1,1,4.3,5.3,4.3,5.3h0V29.1h-2l1.6,2.8a2.8,2.8,0,0,0-1.3-.3A2.5,2.5,0,0,0,8.5,34.1Z" style="fill:#616161;opacity:0.2;mix-blend-mode:color-burn"/><path d="M5.1,11.3c0-.3-1.2-1.4-1.2-1.4h0v2.7h.5L4,11.9h.4A.8.8,0,0,0,5.1,11.3Z" style="fill:#616161;opacity:0.2;mix-blend-mode:color-burn"/><path d="M35.4,45a8.7,8.7,0,0,0,1.2,1.4h0V43.6h-.5l.4.8h-.4A.7.7,0,0,0,35.4,45Z" style="fill:#616161;opacity:0.2;mix-blend-mode:color-burn"/><path d="M5.4,10.8c0,.7-1.4,1.7-1.4,1.7s-1.5-1-1.5-1.7a.9.9,0,0,1,.9-.9l.6.2a.8.8,0,0,1,.5-.2A.9.9,0,0,1,5.4,10.8Z" style="fill:#d66142"/><path d="M4.5,9.9a.8.8,0,0,0-.5.2H4v2.4H4s1.4-1,1.4-1.7A.9.9,0,0,0,4.5,9.9Z" style="fill:#616161;opacity:0.2;mix-blend-mode:color-burn"/><path d="M34.9,45.4c.1-.7,1.5-1.8,1.5-1.8s1.4,1.1,1.4,1.8a.9.9,0,0,1-.8.9l-.6-.2a1.3,1.3,0,0,1-.6.2A.9.9,0,0,1,34.9,45.4Z" style="fill:#d66142"/><path d="M35.8,46.3a1.3,1.3,0,0,0,.6-.2h0V43.6h0s-1.4,1.1-1.5,1.8A.9.9,0,0,0,35.8,46.3Z" style="fill:#616161;opacity:0.2;mix-blend-mode:color-burn"/><path d="M8.8,8c.1,2,4.1,5,4.1,5S17,10,17,8a2.5,2.5,0,0,0-2.5-2.5,2.9,2.9,0,0,0-1.6.7,2.9,2.9,0,0,0-1.6-.7A2.5,2.5,0,0,0,8.8,8Z" style="fill:#d66142"/><path d="M11.3,5.5a2.9,2.9,0,0,1,1.6.7h0V13h0s-4-3-4.1-5A2.5,2.5,0,0,1,11.3,5.5Z" style="fill:#616161;opacity:0.2;mix-blend-mode:color-burn"/><path d="M16.1,26.2c.1,2,4.1,5,4.1,5s4.1-3,4.1-5a2.5,2.5,0,0,0-2.5-2.5,3.4,3.4,0,0,0-1.6.7,2.9,2.9,0,0,0-1.6-.7A2.5,2.5,0,0,0,16.1,26.2Z" style="fill:#d66142"/><path d="M18.6,23.7a2.9,2.9,0,0,1,1.6.7h0v6.8h0s-4-3-4.1-5A2.5,2.5,0,0,1,18.6,23.7Z" style="fill:#616161;opacity:0.2;mix-blend-mode:color-burn"/><path d="M31.7,8c-.1,2-4.1,5-4.1,5s-4.1-3-4.1-5A2.5,2.5,0,0,1,26,5.5a2.9,2.9,0,0,1,1.6.7,2.9,2.9,0,0,1,1.6-.7A2.5,2.5,0,0,1,31.7,8Z" style="fill:#d66142"/><path d="M29.2,5.5a2.9,2.9,0,0,0-1.6.7h0V13h0s4-3,4.1-5A2.5,2.5,0,0,0,29.2,5.5Z" style="fill:#616161;opacity:0.2;mix-blend-mode:color-burn"/><path d="M8.8,20.3c.1,1.9,4.1,5,4.1,5S17,22.2,17,20.2a2.5,2.5,0,0,0-2.5-2.4,2.9,2.9,0,0,0-1.6.7,2.9,2.9,0,0,0-1.6-.7A2.4,2.4,0,0,0,8.8,20.3Z" style="fill:#d66142"/><path d="M11.3,17.8a2.9,2.9,0,0,1,1.6.7h0v6.8h0s-4-3.1-4.1-5A2.4,2.4,0,0,1,11.3,17.8Z" style="fill:#616161;opacity:0.2;mix-blend-mode:color-burn"/><path d="M31.7,20.3c-.1,1.9-4.1,5-4.1,5s-4.1-3.1-4.1-5.1A2.5,2.5,0,0,1,26,17.8a2.9,2.9,0,0,1,1.6.7,2.9,2.9,0,0,1,1.6-.7A2.4,2.4,0,0,1,31.7,20.3Z" style="fill:#d66142"/><path d="M29.2,17.8a2.9,2.9,0,0,0-1.6.7h0v6.8h0s4-3.1,4.1-5A2.4,2.4,0,0,0,29.2,17.8Z" style="fill:#616161;opacity:0.2;mix-blend-mode:color-burn"/><path d="M8.8,47.2c.1-1.9,4.1-4.9,4.1-4.9s4.1,3,4.1,5a2.5,2.5,0,0,1-2.5,2.4,2.9,2.9,0,0,1-1.6-.7,2.9,2.9,0,0,1-1.6.7A2.4,2.4,0,0,1,8.8,47.2Z" style="fill:#d66142"/><path d="M11.3,49.7a2.9,2.9,0,0,0,1.6-.7h0V42.3h0s-4,3-4.1,4.9A2.4,2.4,0,0,0,11.3,49.7Z" style="fill:#616161;opacity:0.2;mix-blend-mode:color-burn"/><path d="M31.7,47.2c-.1-1.9-4.1-4.9-4.1-4.9s-4.1,3-4.1,5A2.5,2.5,0,0,0,26,49.7a2.9,2.9,0,0,0,1.6-.7,2.9,2.9,0,0,0,1.6.7A2.4,2.4,0,0,0,31.7,47.2Z" style="fill:#d66142"/><path d="M29.2,49.7a2.9,2.9,0,0,1-1.6-.7h0V42.3h0s4,3,4.1,4.9A2.4,2.4,0,0,1,29.2,49.7Z" style="fill:#616161;opacity:0.2;mix-blend-mode:color-burn"/><path d="M8.8,35c.1-2,4.1-5,4.1-5S17,33,17,35a2.5,2.5,0,0,1-2.5,2.5,2.9,2.9,0,0,1-1.6-.7,2.9,2.9,0,0,1-1.6.7A2.4,2.4,0,0,1,8.8,35Z" style="fill:#d66142"/><path d="M11.3,37.5a2.9,2.9,0,0,0,1.6-.7h0V30h0s-4,3-4.1,5A2.4,2.4,0,0,0,11.3,37.5Z" style="fill:#616161;opacity:0.2;mix-blend-mode:color-burn"/><path d="M31.7,35c-.1-2-4.1-5-4.1-5s-4.1,3-4.1,5A2.5,2.5,0,0,0,26,37.5a2.9,2.9,0,0,0,1.6-.7,2.9,2.9,0,0,0,1.6.7A2.4,2.4,0,0,0,31.7,35Z" style="fill:#d66142"/><path d="M29.2,37.5a2.9,2.9,0,0,1-1.6-.7h0V30h0s4,3,4.1,5A2.4,2.4,0,0,1,29.2,37.5Z" style="fill:#616161;opacity:0.2;mix-blend-mode:color-burn"/></g></g></svg>