<svg xmlns="http://www.w3.org/2000/svg" viewBox="0 0 39.8 55.7"><g style="isolation:isolate"><g id="a3207d46-e35d-46e6-bbf9-c2d5c48a1143" data-name="Layer 1"><path d="M4.4,55.7A4.2,4.2,0,0,1,.1,51.5V4.2A4.2,4.2,0,0,1,4.3,0H35.5a4.2,4.2,0,0,1,4.3,4.2V51.5a4.2,4.2,0,0,1-4.2,4.2Z" style="fill:#c9c9c9"/><path d="M4.8,55.6A4.2,4.2,0,0,1,.6,51.4V4.2A4.2,4.2,0,0,1,4.8,0H35.6a4.2,4.2,0,0,1,4.2,4.2V51.4a4.2,4.2,0,0,1-4.2,4.2Z" style="fill:#fff"/><polygon points="27.7 4 23.5 9.3 27.7 14.5 31.8 9.3 27.7 4" style="fill:#d66142"/><polygon points="27.6 4 27.7 4 31.8 9.3 27.7 14.5 27.6 14.5 27.6 4" style="fill:#616161;opacity:0.2;mix-blend-mode:color-burn"/><polygon points="12.7 22.6 16.9 27.8 12.7 33.1 8.6 27.8 12.7 22.6" style="fill:#d66142"/><polygon points="12.7 22.6 12.7 22.6 8.6 27.8 12.7 33.1 12.7 33 12.7 22.6" style="fill:#616161;opacity:0.2;mix-blend-mode:color-burn"/><polygon points="19.9 13.7 24.1 18.9 19.9 24.2 15.7 18.9 19.9 13.7" style="fill:#d66142"/><polygon points="19.9 13.7 19.9 13.7 15.7 18.9 19.9 24.2 19.9 24.2 19.9 13.7" style="fill:#616161;opacity:0.2;mix-blend-mode:color-burn"/><polygon points="12.7 41.1 16.9 46.4 12.7 51.6 8.6 46.4 12.7 41.1" style="fill:#d66142"/><polygon points="12.7 41.2 12.7 41.1 8.6 46.4 12.7 51.6 12.7 51.6 12.7 41.2" style="fill:#616161;opacity:0.2;mix-blend-mode:color-burn"/><polygon points="12.7 4 16.9 9.3 12.7 14.5 8.6 9.3 12.7 4" style="fill:#d66142"/><polygon points="12.7 4 12.7 4 8.6 9.3 12.7 14.5 12.7 14.5 12.7 4" style="fill:#616161;opacity:0.2;mix-blend-mode:color-burn"/><polygon points="27.7 22.6 23.5 27.8 27.7 33.1 31.8 27.8 27.7 22.6" style="fill:#d66142"/><polygon points="27.6 22.6 27.7 22.6 31.8 27.8 27.7 33.1 27.6 33 27.6 22.6" style="fill:#616161;opacity:0.2;mix-blend-mode:color-burn"/><polygon points="27.7 41.1 23.5 46.4 27.7 51.6 31.8 46.4 27.7 41.1" style="fill:#d66142"/><polygon points="27.6 41.2 27.7 41.1 31.8 46.4 27.7 51.6 27.6 51.6 27.6 41.2" style="fill:#616161;opacity:0.2;mix-blend-mode:color-burn"/><polygon points="3.9 12.7 2.7 11.1 3.9 9.6 5.1 11.1 3.9 12.7" style="fill:#d66142"/><polygon points="3.9 9.6 3.9 9.6 3.9 12.6 3.9 12.7 5.1 11.1 3.9 9.6" style="fill:#616161;opacity:0.2;mix-blend-mode:color-burn"/><path d="M5.5,3.6c-.1.1-.1.3-.2.4l-.4.7-.3.7-.2.5c0,.2-.1.3-.3.6s-.3.4-.3.6l-.5.5-.6.5H2.6l.3-.4.2-.4a.5.5,0,0,0,.2-.4.8.8,0,0,0,.2-.5,4.7,4.7,0,0,0,.5-1,1.4,1.4,0,0,0,.2-.7H2.7c.3-.4.5-.7.8-.8l.6-.2H5.5Z" style="fill:#333"/><path d="M35.1,52.6l.2-.4a5.9,5.9,0,0,0,.4-.8l.3-.7.2-.5.3-.5.4-.6.5-.6.6-.4h0a1.1,1.1,0,0,0-.2.4l-.3.3c-.1.2-.1.3-.2.4l-.2.5-.5,1c-.1.2-.1.5-.2.7s.3.1.8.1h.3a.2.2,0,0,0,.2-.2h.2v.2a6,6,0,0,1-.8.8h-2Z" style="fill:#333"/><polygon points="36.8 43.5 38 45 36.8 46.5 35.6 45 36.8 43.5" style="fill:#d66142"/><polygon points="36.8 43.5 36.8 43.5 35.6 45 36.8 46.5 36.8 46.5 36.8 43.5" style="fill:#616161;opacity:0.2;mix-blend-mode:color-burn"/></g></g></svg>