<svg xmlns="http://www.w3.org/2000/svg" viewBox="0 0 39.8 55.7"><g style="isolation:isolate"><g id="ad7cd10a-e19b-4155-8ee0-6101ab6029c5" data-name="Layer 1"><path d="M4.4,55.7A4.2,4.2,0,0,1,.1,51.5V4.2A4.2,4.2,0,0,1,4.3,0H35.5a4.2,4.2,0,0,1,4.3,4.2V51.5a4.2,4.2,0,0,1-4.2,4.2Z" style="fill:#c9c9c9"/><path d="M4.8,55.6A4.2,4.2,0,0,1,.6,51.4V4.2A4.2,4.2,0,0,1,4.8,0H35.6a4.2,4.2,0,0,1,4.2,4.2V51.4a4.2,4.2,0,0,1-4.2,4.2Z" style="fill:#fff"/><polygon points="27.6 4 31.8 9.3 27.6 14.5 23.5 9.3 27.6 4" style="fill:#d66142"/><polygon points="27.7 4 27.6 4 23.5 9.3 27.6 14.5 27.7 14.5 27.7 4" style="fill:#616161;opacity:0.2;mix-blend-mode:color-burn"/><polygon points="19.9 10.8 24.1 16.1 19.9 21.3 15.8 16.1 19.9 10.8" style="fill:#d66142"/><polygon points="20 10.9 19.9 10.8 15.8 16.1 19.9 21.3 20 21.3 20 10.9" style="fill:#616161;opacity:0.2;mix-blend-mode:color-burn"/><polygon points="20.4 34.8 16.3 40 20.4 45.3 24.6 40 20.4 34.8" style="fill:#d66142"/><polygon points="20.4 34.8 20.4 34.8 24.6 40 20.4 45.3 20.4 45.3 20.4 34.8" style="fill:#616161;opacity:0.2;mix-blend-mode:color-burn"/><polygon points="27.6 16.4 31.8 21.6 27.6 26.9 23.5 21.6 27.6 16.4" style="fill:#d66142"/><polygon points="27.7 16.4 27.6 16.4 23.5 21.6 27.6 26.9 27.7 26.8 27.7 16.4" style="fill:#616161;opacity:0.2;mix-blend-mode:color-burn"/><polygon points="12.7 28.7 8.6 34 12.7 39.2 16.9 34 12.7 28.7" style="fill:#d66142"/><polygon points="12.7 28.8 12.7 28.7 16.9 34 12.7 39.2 12.7 39.2 12.7 28.8" style="fill:#616161;opacity:0.2;mix-blend-mode:color-burn"/><polygon points="12.7 41.1 8.6 46.4 12.7 51.6 16.9 46.4 12.7 41.1" style="fill:#d66142"/><polygon points="12.7 41.2 12.7 41.1 16.9 46.4 12.7 51.6 12.7 51.6 12.7 41.2" style="fill:#616161;opacity:0.2;mix-blend-mode:color-burn"/><polygon points="12.7 4 16.9 9.3 12.7 14.5 8.6 9.3 12.7 4" style="fill:#d66142"/><polygon points="12.7 4 12.7 4 8.6 9.3 12.7 14.5 12.7 14.5 12.7 4" style="fill:#616161;opacity:0.2;mix-blend-mode:color-burn"/><polygon points="12.7 16.4 16.9 21.6 12.7 26.9 8.6 21.6 12.7 16.4" style="fill:#d66142"/><polygon points="12.7 16.4 12.7 16.4 8.6 21.6 12.7 26.9 12.7 26.8 12.7 16.4" style="fill:#616161;opacity:0.2;mix-blend-mode:color-burn"/><polygon points="27.6 28.7 23.5 34 27.6 39.2 31.8 34 27.6 28.7" style="fill:#d66142"/><polygon points="27.6 28.8 27.6 28.7 31.8 34 27.6 39.2 27.6 39.2 27.6 28.8" style="fill:#616161;opacity:0.2;mix-blend-mode:color-burn"/><polygon points="27.6 41.1 23.5 46.4 27.6 51.6 31.8 46.4 27.6 41.1" style="fill:#d66142"/><polygon points="27.6 41.2 27.6 41.1 31.8 46.4 27.6 51.6 27.6 51.6 27.6 41.2" style="fill:#616161;opacity:0.2;mix-blend-mode:color-burn"/><polygon points="3.9 12.7 2.7 11.1 3.9 9.6 5.1 11.1 3.9 12.7" style="fill:#d66142"/><polygon points="3.9 9.6 3.9 9.6 3.9 12.6 3.9 12.7 5.1 11.1 3.9 9.6" style="fill:#616161;opacity:0.2;mix-blend-mode:color-burn"/><path d="M3.5,7.4l-.4.4L2.4,8H2.1A.3.3,0,0,0,2,7.7V4.5H2a.1.1,0,1,0-.2,0H1.7L2,3.9l.3-.2h.2l.3.2.2.3V7.4h.5Z" style="fill:#333"/><path d="M7.4,5.9a2.5,2.5,0,0,1-.2.7,2.2,2.2,0,0,1-.8.9l-.5.3a1.1,1.1,0,0,1-.8.2,1.4,1.4,0,0,1-1.2-.6,2,2,0,0,1-.4-1.3,1.7,1.7,0,0,1,.3-1l.4-.7a1.8,1.8,0,0,1,.7-.5,1.3,1.3,0,0,1,.8-.3,1.3,1.3,0,0,1,1.2.7A3,3,0,0,1,7.4,5.9Zm-1,.6a2.2,2.2,0,0,0-.1-.8,2,2,0,0,0-.4-.8,1.5,1.5,0,0,0-.4-.6H5.1a.5.5,0,0,0-.5.3,1.2,1.2,0,0,0-.2.8v.5l.3.7a1.6,1.6,0,0,0,.5.8l.5.2a.5.5,0,0,0,.5-.3C6.4,7.1,6.4,6.8,6.4,6.5Z" style="fill:#333"/><path d="M37.2,48.7a.7.7,0,0,1,.3-.3l.8-.3a.2.2,0,0,1,.2.2c.1,0,.1.1.1.2v3.3h.5c0,.1-.1.1-.2.2l-.3.2-.3.3h-.5a.4.4,0,0,1-.1-.3V48.7h-.1a.1.1,0,0,0-.1.1h-.3Z" style="fill:#333"/><path d="M33.3,50.3a1.5,1.5,0,0,1,.1-.7,3.9,3.9,0,0,1,.8-1l.5-.3.9-.2a1.4,1.4,0,0,1,1.1.6,2.3,2.3,0,0,1,.4,1.4,4.4,4.4,0,0,1-.2,1l-.5.6-.6.6a1.6,1.6,0,0,1-.9.3,1.4,1.4,0,0,1-1.2-.8A2.4,2.4,0,0,1,33.3,50.3Zm.9-.7a2.8,2.8,0,0,0,.1.9,3,3,0,0,0,.4.8c.2.2.3.4.5.5h.3a.9.9,0,0,0,.6-.3,1.9,1.9,0,0,0,.2-.7.7.7,0,0,0-.1-.5,1.6,1.6,0,0,0-.3-.8,1.3,1.3,0,0,0-.5-.7c-.1-.2-.3-.2-.5-.2s-.4,0-.5.2A1.4,1.4,0,0,0,34.2,49.6Z" style="fill:#333"/><polygon points="36.8 43.5 38 45 36.8 46.5 35.6 45 36.8 43.5" style="fill:#d66142"/><polygon points="36.8 43.5 36.8 43.5 35.6 45 36.8 46.5 36.8 46.5 36.8 43.5" style="fill:#616161;opacity:0.2;mix-blend-mode:color-burn"/></g></g></svg>