<svg xmlns="http://www.w3.org/2000/svg" viewBox="0 0 39.8 55.7"><g style="isolation:isolate"><g id="ef75fda8-1690-451b-a91f-c957adfae2aa" data-name="Layer 1"><path d="M4.4,55.7A4.2,4.2,0,0,1,.1,51.5V4.2A4.2,4.2,0,0,1,4.2,0H35.5a4.2,4.2,0,0,1,4.3,4.2V51.5a4.2,4.2,0,0,1-4.3,4.2Z" style="fill:#c9c9c9"/><path d="M4.8,55.7A4.2,4.2,0,0,1,.6,51.5V4.3A4.2,4.2,0,0,1,4.8.1H35.6a4.2,4.2,0,0,1,4.2,4.2V51.5a4.2,4.2,0,0,1-4.2,4.2Z" style="fill:#fff"/><path d="M4.6,3a.8.8,0,0,1-.4.4H2.6c.1-.2.2-.4.3-.4l.5-.2H4.6Zm0,2.6a.7.7,0,0,1-.4.7,1.1,1.1,0,0,1-.8.3H2.9a.5.5,0,0,1-.3-.4.4.4,0,0,1,.1-.3h.5V6a.2.2,0,0,1-.2.2h.5c.1,0,.1-.1.1-.2V3.7l.4-.2a.5.5,0,0,0,.4-.2h.1Z" style="fill:#333"/><path d="M4.4,9.1c0,.1-.1.2-.1.4v.2l-.3.3-.3.3a.1.1,0,0,1-.1-.1H3.3c-.1-.2-.3-.3-.3-.4a1.7,1.7,0,0,1-.2-.5c0-.2.1-.3.1-.4s.1-.2.2-.3l.5-.7.3.2.3.4v.3A.6.6,0,0,1,4.4,9.1ZM4,9.6a1.4,1.4,0,0,0-.2-.7c-.2-.3-.4-.5-.5-.5H3.2v.2a1.4,1.4,0,0,0,.2.6l.5.5A.1.1,0,0,1,4,9.7Z" style="fill:#333"/><path d="M4.4,14.2H4.2l-.2.2q-.2,0-.3-.6c-.1-.2-.1-.4-.2-.4h0v1H2.8v-3H3l.4-.2h.1v1.2h.3l.2-.2.2.2a.4.4,0,0,1,.1.3.5.5,0,0,1-.2.4l-.2.2v.2l.2.2v.3h.2Zm-.6-1.3v-.2H3.5v.5h.2Z" style="fill:#333"/><path d="M4.3,16.9c0,.1-.2.3-.4.5l-.3.3c0,.1.1.3.5.6l-.2.2-.2.2H3.5c0-.1-.1-.1-.2-.2L3,17.9c0-.1-.1-.3-.1-.4s.1-.2.1-.3a.8.8,0,0,1,.2-.4l.3-.3q.2-.3.3-.3a.3.3,0,0,0,.1.2.3.3,0,0,1,.1.2h.2A.3.3,0,0,0,4.3,16.9Zm-.5.3a.3.3,0,0,1-.1-.2c-.1-.1-.2-.2-.2-.3H3.4V17a.1.1,0,0,0-.1.1.4.4,0,0,0,.1.3.1.1,0,0,0,.1.1v-.2Z" style="fill:#333"/><path d="M4.2,20.8h0l-.3.2h0l-.2-.2v2H3.1v-2h0a.1.1,0,0,1-.1-.1l.2-.2h.2a.1.1,0,0,1,.1.1l.2.2a.3.3,0,0,0,.1-.2H4a.1.1,0,0,0,.1.1A.4.4,0,0,1,4.2,20.8Z" style="fill:#333"/><path d="M36.6,49.9a.9.9,0,0,1,.3-.7,1.2,1.2,0,0,1,.9-.3h.5a.5.5,0,0,1,.3.5c0,.1-.1.1-.1.2H38a.3.3,0,0,1-.1-.2c0-.2,0-.3.2-.3h-.5a.4.4,0,0,0-.1.3v2.5H37l-.3.2h-.1Zm0,2.6c.1-.1.2-.3.3-.3l.5-.2h1a.1.1,0,0,1,.1-.1h.1l-.3.5H36.6Z" style="fill:#d66142"/><path d="M36.8,46.5c0-.2,0-.3.1-.4a.4.4,0,0,1,.1-.3c.1-.1.2-.2.2-.3l.3-.3h.2c0,.1.1.1.2.2l.3.4a.7.7,0,0,1,.1.5v.3c-.1.2-.1.3-.2.4s-.5.6-.6.6l-.2-.2c-.2-.2-.3-.3-.3-.4l-.2-.3Zm.4-.6a1.4,1.4,0,0,0,.2.7c.2.4.3.5.4.5s.1,0,.1-.1h0a1.5,1.5,0,0,0-.1-.7l-.5-.5h-.1Z" style="fill:#d66142"/><path d="M36.8,41.4a.3.3,0,0,1,.1-.2l.3-.2q.1,0,.3.6a4.3,4.3,0,0,0,.1.5h.1v-.9h.6v3h-.6V43.1l-.3.2h-.3a.1.1,0,0,1-.1-.1.8.8,0,0,1,0-.8c.2-.1.2-.1.2-.2h-.1A.3.3,0,0,1,37,42a.4.4,0,0,0-.1-.3h0c0-.1,0-.1-.1-.1Zm.6,1.2v.2c.1.1.1.2.2.2h0c.1,0,.1,0,.1-.1v-.5h-.3Z" style="fill:#d66142"/><path d="M36.9,38.6c0-.1.1-.2.3-.4a1.2,1.2,0,0,0,.4-.4c0-.1-.2-.3-.6-.5l.2-.3h.4l.2.2c.2.2.3.3.3.5a.8.8,0,0,1,.1.4v.3c-.1.2-.1.3-.2.4l-.3.3-.3.3h-.1c-.1-.1-.1-.2-.2-.2s0-.1-.1-.2A.3.3,0,0,1,36.9,38.6Zm.5-.2h.1c0,.1.1.2.2.3h0c0-.1.1-.1.1-.2v-.4a.1.1,0,0,0-.1-.1h-.2C37.4,38.3,37.4,38.3,37.4,38.4Z" style="fill:#d66142"/><path d="M36.9,34.7a.1.1,0,0,0,.1-.1l.2-.2a.1.1,0,0,1,.1.1h.1V32.7h.7v1.9h.1L38,35H37C37,34.9,36.9,34.8,36.9,34.7Z" style="fill:#d66142"/><path d="M20.2,16.9A13.6,13.6,0,0,0,9.3,38.6a16.4,16.4,0,0,0,3,2.9A13.3,13.3,0,0,0,20.2,44a13.7,13.7,0,0,0,8-2.6,15.7,15.7,0,0,0,3.1-3.2,13.8,13.8,0,0,0,2.4-7.8A13.6,13.6,0,0,0,20.2,16.9ZM30.8,37.3a9.6,9.6,0,0,1-2.3,2.6,12.3,12.3,0,0,1-8.3,3.2,12.8,12.8,0,0,1-7.7-2.6,10.6,10.6,0,0,1-2.7-2.9,11.9,11.9,0,0,1-2.3-7.2,12.7,12.7,0,0,1,25.3,0A12.4,12.4,0,0,1,30.8,37.3Z" style="fill:#d66142"/><path d="M21.5,25.4v2A1.5,1.5,0,0,1,20.2,29a1.4,1.4,0,0,1-1-.5,2.1,2.1,0,0,1-.4-1.1v-2a1.5,1.5,0,0,1,1.4-1.5,1.1,1.1,0,0,1,.9.4A1.5,1.5,0,0,1,21.5,25.4Z" style="fill:#ebb07a"/><path d="M21.5,25.4V26H20.2a3.4,3.4,0,0,1-1.4-.2v-.5a1.5,1.5,0,0,1,1.4-1.5,1.1,1.1,0,0,1,.9.4A1.5,1.5,0,0,1,21.5,25.4Z" style="fill:#616161;opacity:0.2;mix-blend-mode:color-burn"/><path d="M26,19.7a5.8,5.8,0,0,1-5.8,5.8,6,6,0,0,1-5.9-5.9,1.9,1.9,0,0,1,.1-.8,5.1,5.1,0,0,1,1.3-2.9,5.9,5.9,0,0,1,2.8-1.8l1.7-.2,1.6.2a5.3,5.3,0,0,1,2.8,1.8A6.1,6.1,0,0,1,26,18.8Z" style="fill:#ebb07a"/><polygon points="7.8 14.8 8.7 13.6 9.6 14.8 8.7 16 7.8 14.8" style="fill:#d66142"/><path d="M9.7,17.2c0-.3-.9-1.2-.9-1.2s-1,1-1,1.2a.6.6,0,0,0,.6.6h.3l-.4.6h.9l-.3-.6h.3A.6.6,0,0,0,9.7,17.2Z" style="fill:#333"/><path d="M21.5,14.1l-.5.4-.8-.6-5.8,4.7-.5-1.9L13.5,15l-.3-1.1-.3-.9-.4-1.1-.4-.9h-.2l-1.2.6-.9.4-.6.3-.3.7-.2.6L8.3,13l-.2-.7.6-1L9.9,9.4l.7-1.1h1.5l3.7.4,1.4.2.8,1,1.5,2,.5.6h.1Z" style="fill:#d66142"/><polygon points="8.7 13.7 8.1 12.3 9.2 12.6 8.7 13.7" style="fill:#333"/><polygon points="10.7 11.7 9.8 12.1 8.7 11.3 9.9 9.4 10.7 11.7" style="fill:#333"/><path d="M19.5,12l-6,3-.3-1.1-.3-.9L18,10Z" style="fill:#333"/><path d="M15.8,8.8l-3.3,3.1-.4-.9h-.2l.2-2.7Z" style="fill:#333"/><path d="M20.4,13.9l5.5,4.7.5-1.9.5-1.7.3-1.1.3-.9.4-1.1.3-.9h.3l1.1.6.9.4.6.3.3.7.3.6L32,13l.3-.7-.7-1L30.4,9.4l-.7-1.1H28.2l-3.6.4L23.2,9l-.8,1-1.5,2-.5.6h-.2Z" style="fill:#d66142"/><polygon points="31.2 12.6 32.3 12.3 31.7 13.7 31.2 12.6" style="fill:#333"/><polygon points="29.6 11.7 30.5 12.1 31.6 11.3 30.4 9.4 29.6 11.7" style="fill:#333"/><path d="M20.9,12l6,3,.3-1.1.3-.9-5.1-3Z" style="fill:#333"/><path d="M24.6,8.8c.9.9,2.3,2.3,3.3,3.1l.3-.9h.3l-.3-2.7Z" style="fill:#333"/><path d="M32.7,14c0,.2-1,1.2-1,1.2a6.2,6.2,0,0,1-.9-1.2.6.6,0,0,1,.6-.6h.7A.6.6,0,0,1,32.7,14Z" style="fill:#d66142"/><path d="M32.3,15.8h0a.6.6,0,0,0-.6-.5.5.5,0,0,0-.5.5v.2a.5.5,0,0,0-.4.5.5.5,0,0,0,.5.5h.4l-.4.6h.9l-.4-.6h.5a.5.5,0,0,0,.5-.5A.6.6,0,0,0,32.3,15.8Z" style="fill:#333"/><path d="M26,18.8h-.1L23,16.5l-2.8,2.1-2.8-2.1-3,2.4h0a5.1,5.1,0,0,1,1.3-2.9l2.8-1.8,1.7-.2,1.6.2,2.8,1.8A6.1,6.1,0,0,1,26,18.8Z" style="fill:#616161;opacity:0.2;mix-blend-mode:color-burn"/><polygon points="26.4 16.7 20.2 12.7 20.2 12.8 20.1 12.7 13.9 16.7 14.4 18.6 17.4 16.1 20.2 18.2 23 16.1 25.9 18.6 26.4 16.7" style="fill:#333"/><path d="M31.3,38.2a14.6,14.6,0,0,1-1.6,1.9l-1.5,1.3-.4-.2.7-1.3.4-.6L26.5,36v6.4l-1.5.7a12.8,12.8,0,0,1-4.8.9H18.8a12.4,12.4,0,0,1-3.9-1v-1l-.2-6.5L12.2,39l-.3.4.6,1.1.4.8-.6.2a16.4,16.4,0,0,1-3-2.9l.5-1L12,33l1.5-3.1,1.8-.9a3.6,3.6,0,0,1,2.6-1.4h5.3a3.7,3.7,0,0,1,2.7,1.6l1.3.6,1.6,3.3,2,4.2Z" style="fill:#333"/><path d="M18.8,43.9a12.4,12.4,0,0,1-3.9-1v-1l-.2-6.5L12.2,39l3-5.4.5,8.7Z" style="fill:#616161;opacity:0.2;mix-blend-mode:color-burn"/><path d="M29.8,39.2v.9l-1.5,1.3-.4-.2.7-1.3.4-.6L26.5,36v6.4l-1.5.7.9-.6.4-8.5Z" style="fill:#616161;opacity:0.2;mix-blend-mode:color-burn"/><g style="opacity:0.2;mix-blend-mode:color-burn"><path d="M15.3,29l-1.8.9L12,33l5.9-5.4A3.6,3.6,0,0,0,15.3,29Z" style="fill:#616161"/><path d="M20.9,27.6h-3L20,36.3a.8.8,0,0,0-.6.8.8.8,0,0,0,.8.8.9.9,0,0,0,.9-.8.8.8,0,0,0-.7-.8l2.5-8.7Z" style="fill:#616161"/><path d="M27.2,29.8l-1.3-.6a3.7,3.7,0,0,0-2.7-1.6h-.3l5.9,5.5Z" style="fill:#616161"/></g><polygon points="17.9 27.6 14.5 27.6 10.7 32.1 17.9 27.6 20.2 35 22.9 27.6 17.9 27.6 17.9 27.6" style="fill:#d66142"/><polygon points="26.3 27.6 22.9 27.6 30.1 32.1 26.3 27.6" style="fill:#d66142"/><path d="M11.1,32.7a.9.9,0,0,1-.9.9.9.9,0,0,1-.8-.9.9.9,0,0,1,.8-.8A.9.9,0,0,1,11.1,32.7Z" style="fill:#ffd675"/><path d="M21,35.8a.9.9,0,0,1-.8.9.9.9,0,0,1-.9-.9.9.9,0,0,1,.9-.8A.9.9,0,0,1,21,35.8Z" style="fill:#ffd675"/><path d="M31.5,32.7a.9.9,0,0,1-.9.9.8.8,0,0,1-.8-.9.8.8,0,0,1,.8-.8A.9.9,0,0,1,31.5,32.7Z" style="fill:#ffd675"/><path d="M18.1,20.3v-.2a.9.9,0,0,0-1-1,1,1,0,0,0-1,1,.3.3,0,0,1,.1.2Z" style="fill:#333"/><path d="M24.2,20.3v-.2a.9.9,0,0,0-1-1,1,1,0,0,0-1,1,.3.3,0,0,1,.1.2Z" style="fill:#333"/><path d="M21,21.4a.9.9,0,0,1-.8.8.9.9,0,0,1-.9-.8c0-.5.4-1.9.9-1.9S21,20.9,21,21.4Z" style="fill:#616161;opacity:0.2;mix-blend-mode:color-burn"/><path d="M32.3,15.8h0a.6.6,0,0,0-.6-.5.5.5,0,0,0-.5.5v.2a.5.5,0,0,0-.4.5.5.5,0,0,0,.5.5h.4l-.4.6h.9l-.4-.6h.5a.5.5,0,0,0,.5-.5A.6.6,0,0,0,32.3,15.8Z" style="fill:#616161;opacity:0.2;mix-blend-mode:color-burn"/><path d="M32.1,13.4h-.4L32,13l.3-.7h0l-.7-1L30.4,9.4l-.7-1.1H28.2l-3.6.4L23.2,9l-.8,1-1.5,2-.5.6h-.2V44h0a12.8,12.8,0,0,0,4.8-.9l1.5-.7V36l2.4,3.3-.4.6-.7,1.3.4.2,1.5-1.3a14.6,14.6,0,0,0,1.6-1.9l-.5-.9-2-4.2-1.2-2.5,2.5,1.5a.7.7,0,0,0-.3.6.8.8,0,0,0,.8.9.9.9,0,0,0,.9-.9.9.9,0,0,0-.9-.8l-.5.2-3.8-4.5H21.5V25.4h0A5.8,5.8,0,0,0,26,19.7v-.9c0-.1-.1-.2-.1-.3h0l.5-1.9.5-1.7.3-1.1.3-.9.4-1.1.3-.9h.3l1.1.6.9.4.6.3.3.7.2.4h-.2a.6.6,0,0,0-.6.6,6.2,6.2,0,0,0,.9,1.2s1-1,1-1.2A.6.6,0,0,0,32.1,13.4Z" style="fill:#616161;opacity:0.2;mix-blend-mode:color-burn"/><path d="M33.7,30.4a13.8,13.8,0,0,1-2.4,7.8,15.7,15.7,0,0,1-3.1,3.2,9.5,9.5,0,0,1-1.7,1A13.4,13.4,0,0,1,20.2,44a13.2,13.2,0,0,1-5.3-1.1,13,13,0,0,1-2.6-1.4,16.4,16.4,0,0,1-3-2.9,13.7,13.7,0,0,1-2.7-8.2,13.4,13.4,0,0,1,5.8-11v1.1a12.5,12.5,0,0,0-4.9,9.9,11.9,11.9,0,0,0,2.3,7.2,10.6,10.6,0,0,0,2.7,2.9,9.5,9.5,0,0,0,2.4,1.4,11.8,11.8,0,0,0,5.3,1.2,12.1,12.1,0,0,0,6.3-1.7,9.5,9.5,0,0,0,2-1.5,9.6,9.6,0,0,0,2.3-2.6,12.4,12.4,0,0,0,2-6.9,12.5,12.5,0,0,0-5.3-10.2V19.1A13.3,13.3,0,0,1,33.7,30.4Z" style="fill:#d66142"/><rect x="10.4" y="41.5" width="4.6" height="6.99" transform="translate(-12 5.3) rotate(-16.2)" style="fill:#fff"/><path d="M11.3,49.2,9.2,42.1l4.9-1.4,2.1,7.1ZM9.8,42.4l1.8,6.3,4.1-1.2-1.9-6.3Z" style="fill:#333"/><polygon points="11.4 45.5 12.2 43.4 14 44.8 13.2 46.8 11.4 45.5" style="fill:#d66142"/><rect x="16.1" y="39.7" width="4.6" height="6.99" transform="translate(-11.6 7) rotate(-16.6)" style="fill:#fff"/><path d="M17,47.5l-2.1-7.1L19.8,39l2.1,7.1Zm-1.6-6.8L17.3,47l4-1.2-1.8-6.3Z" style="fill:#333"/><path d="M19.8,43c-.1-.4-2-1.3-2-1.3a8.4,8.4,0,0,0-.8,2.1.9.9,0,0,0,1.1.6l.4-.3-.3,1.1,1.3-.4-.8-.7h.5A1.1,1.1,0,0,0,19.8,43Z" style="fill:#333"/><rect x="21.7" y="38.1" width="4.6" height="6.99" transform="translate(-10.6 8.3) rotate(-16.2)" style="fill:#fff"/><path d="M22.6,45.8l-2-7.1,4.8-1.4,2.1,7.1ZM21.1,39l1.8,6.3L27,44.1l-1.8-6.3Z" style="fill:#333"/><path d="M25.4,40.8a8.3,8.3,0,0,1-.9,2.1,8.9,8.9,0,0,1-1.8-1.3.8.8,0,0,1,.6-1,.3.3,0,0,1,.4,0H24l.4-.3A.9.9,0,0,1,25.4,40.8Z" style="fill:#d66142"/><rect x="27.4" y="36.3" width="4.6" height="6.99" transform="translate(-9.9 9.8) rotate(-16.2)" style="fill:#fff"/><path d="M28.3,44.1,26.2,37l4.9-1.5,2.1,7.2Zm-1.5-6.8,1.8,6.3,4-1.2-1.8-6.3Z" style="fill:#333"/><path d="M30.4,39.2c-.1-.1-.1-.1-.1-.2a.8.8,0,0,0-1.5.5.3.3,0,0,0,.1.2c-.4.2-.6.6-.4.9a.8.8,0,0,0,.9.6l.3-.2c.1,0,.1-.1.2-.2l-.2,1,1.2-.3-.8-.7h.7a.8.8,0,0,0-.4-1.5Z" style="fill:#333"/><polygon points="22.2 18.8 21.7 18.5 21.9 18.1 22.2 18.3 23.7 17.5 24.3 18 24.1 18.3 23.6 18 22.2 18.8" style="fill:#333"/><polygon points="18.1 18.8 16.7 18 16.3 18.3 16 18 16.7 17.5 18.1 18.3 18.5 18.1 18.7 18.5 18.1 18.8" style="fill:#333"/><polygon points="16.8 22.6 18.8 24.3 21.4 24.3 23.6 22.6 20.1 23.2 16.8 22.6" style="fill:#333"/></g></g></svg>