<svg xmlns="http://www.w3.org/2000/svg" viewBox="0 0 39.8 55.7"><g style="isolation:isolate"><g id="a53417f8-b817-424f-a6d3-57d90b747436" data-name="Layer 1"><path d="M4.4,55.7A4.2,4.2,0,0,1,.1,51.5V4.2A4.2,4.2,0,0,1,4.3,0H35.5a4.2,4.2,0,0,1,4.3,4.2V51.5a4.2,4.2,0,0,1-4.3,4.2Z" style="fill:#c9c9c9"/><path d="M4.8,55.6A4.2,4.2,0,0,1,.6,51.4V4.2A4.2,4.2,0,0,1,4.8,0H35.6a4.2,4.2,0,0,1,4.2,4.2V51.4a4.2,4.2,0,0,1-4.2,4.2Z" style="fill:#fff"/><path d="M5.5,6.4a.8.8,0,0,1-.1.4l-.5.6c-.3.3-.4.4-.4.5H3.9A1.4,1.4,0,0,1,3,7.7a.9.9,0,0,1-.3-.6c0-.2.1-.3.2-.5A2.1,2.1,0,0,0,3.3,6l-.2-.3a.5.5,0,0,1-.2-.4c0-.2.1-.3.2-.5l.4-.5L4,3.7h.4l.7.2c.2.1.2.3.2.6a1.1,1.1,0,0,1-.3.7.9.9,0,0,0-.3.5l.6.4A.8.8,0,0,1,5.5,6.4Zm-.8.5c0-.1-.1-.2-.4-.4l-.6-.3H3.6c0,.1-.1.2-.1.3a.9.9,0,0,0,.3.5l.6.2h.2A.4.4,0,0,0,4.7,6.9ZM4.5,5l-.2-.3-.4-.2H3.7c0,.2.1.3.3.5l.3.2V5Z" style="fill:#333"/><path d="M35.1,49.7a1,1,0,0,0,.1-.3c.2-.2.3-.5.6-.7a1.2,1.2,0,0,1,.4-.4.8.8,0,0,1,.6-.2.9.9,0,0,1,.8.4.9.9,0,0,1,.3.6,1.7,1.7,0,0,1-.2.5l-.4.5.3.3c0,.2.1.3.1.4a1.4,1.4,0,0,1-.2.6l-.3.4-.6.6-.4.2a.6.6,0,0,1-.6-.3.5.5,0,0,1-.3-.5.9.9,0,0,1,.3-.7c.2-.3.3-.4.3-.5l-.5-.4C35.2,50,35.1,49.9,35.1,49.7Zm.8-.5.5.5.5.2a.1.1,0,0,0,.1-.1.3.3,0,0,0,.1-.2.5.5,0,0,0-.3-.5.6.6,0,0,0-.5-.2H36C35.9,49.1,35.9,49.1,35.9,49.2Zm.2,1.9a.8.8,0,0,0,.2.4h.6c.1-.1.1-.1.1-.2a.5.5,0,0,0-.3-.4l-.4-.2a.1.1,0,0,0-.1.1A.3.3,0,0,1,36.1,51.1Z" style="fill:#333"/><path d="M29.8,7.5V6.9a2.4,2.4,0,0,0-2.4-2.4A2.4,2.4,0,0,0,25,6.9a1.9,1.9,0,0,0,.2.8A2.3,2.3,0,0,0,23.1,10a2.2,2.2,0,0,0,2.2,2.3,7.8,7.8,0,0,0,1.8-.5l-1.5,2.6h3.7l-1.5-2.6a6.7,6.7,0,0,0,1.9.5,2.4,2.4,0,0,0,.1-4.8Z" style="fill:#333"/><path d="M29.8,7.5V6.9a2.4,2.4,0,0,0-2.4-2.4h0v9.9h1.9l-1.5-2.6a6.7,6.7,0,0,0,1.9.5,2.4,2.4,0,0,0,.1-4.8Z" style="fill:#616161;opacity:0.2;mix-blend-mode:color-burn"/><path d="M29.8,19.6v-.5a2.4,2.4,0,0,0-2.4-2.4A2.4,2.4,0,0,0,25,19.1a1.9,1.9,0,0,0,.2.8,2.3,2.3,0,0,0-2.1,2.3,2.2,2.2,0,0,0,2.2,2.2,4.8,4.8,0,0,0,1.8-.5l-1.5,2.7h3.7l-1.5-2.7a6.7,6.7,0,0,0,1.9.5A2.3,2.3,0,0,0,32.1,22,2.4,2.4,0,0,0,29.8,19.6Z" style="fill:#333"/><path d="M29.8,19.6v-.5a2.4,2.4,0,0,0-2.4-2.4h0v9.9h1.9l-1.5-2.7a6.7,6.7,0,0,0,1.9.5A2.3,2.3,0,0,0,32.1,22,2.4,2.4,0,0,0,29.8,19.6Z" style="fill:#616161;opacity:0.2;mix-blend-mode:color-burn"/><path d="M10.6,7.5c0-.2-.1-.4-.1-.6a2.4,2.4,0,0,1,2.4-2.4,2.4,2.4,0,0,1,2.4,2.4,1.9,1.9,0,0,1-.1.8A2.3,2.3,0,0,1,17.3,10,2.3,2.3,0,0,1,15,12.3l-1.8-.5,1.6,2.6H11l1.6-2.6a7.3,7.3,0,0,1-2,.5,2.4,2.4,0,0,1,0-4.8Z" style="fill:#333"/><path d="M10.6,7.5c0-.2-.1-.4-.1-.6a2.4,2.4,0,0,1,2.4-2.4H13v9.9H11l1.6-2.6a7.3,7.3,0,0,1-2,.5,2.4,2.4,0,0,1,0-4.8Z" style="fill:#616161;opacity:0.2;mix-blend-mode:color-burn"/><path d="M10.6,19.6a4.3,4.3,0,0,1-.1-.5,2.4,2.4,0,0,1,2.4-2.4,2.4,2.4,0,0,1,2.4,2.4,1.9,1.9,0,0,1-.1.8,2.3,2.3,0,0,1,2.1,2.3A2.2,2.2,0,0,1,15,24.4a6.1,6.1,0,0,1-1.8-.5l1.6,2.7H11l1.6-2.7a7.3,7.3,0,0,1-2,.5A2.4,2.4,0,0,1,8.2,22,2.5,2.5,0,0,1,10.6,19.6Z" style="fill:#333"/><path d="M10.6,19.6a4.3,4.3,0,0,1-.1-.5,2.4,2.4,0,0,1,2.4-2.4H13v9.9H11l1.6-2.7a7.3,7.3,0,0,1-2,.5A2.4,2.4,0,0,1,8.2,22,2.5,2.5,0,0,1,10.6,19.6Z" style="fill:#616161;opacity:0.2;mix-blend-mode:color-burn"/><path d="M29.8,48.2v.5a2.4,2.4,0,0,1-2.4,2.4A2.4,2.4,0,0,1,25,48.7a1.9,1.9,0,0,1,.2-.8,2.3,2.3,0,0,1,.1-4.6,4.8,4.8,0,0,1,1.8.6l-1.5-2.7h3.7l-1.5,2.7a7,7,0,0,1,1.9-.6,2.5,2.5,0,0,1,.1,4.9Z" style="fill:#333"/><path d="M29.8,48.2v.5a2.4,2.4,0,0,1-2.4,2.4h0V41.2h1.9l-1.5,2.7a7,7,0,0,1,1.9-.6,2.5,2.5,0,0,1,.1,4.9Z" style="fill:#616161;opacity:0.2;mix-blend-mode:color-burn"/><path d="M29.8,36v.5a2.3,2.3,0,0,1-2.4,2.4,2.3,2.3,0,0,1-2.2-3.2,2.3,2.3,0,0,1-2.1-2.3,2.2,2.2,0,0,1,2.2-2.2,4.8,4.8,0,0,1,1.8.5L25.6,29h3.7l-1.5,2.6a6.7,6.7,0,0,1,1.9-.5,2.4,2.4,0,0,1,.1,4.8Z" style="fill:#333"/><path d="M29.8,36v.5a2.3,2.3,0,0,1-2.4,2.4h0V29h1.9l-1.5,2.6a6.7,6.7,0,0,1,1.9-.5,2.4,2.4,0,0,1,.1,4.8Z" style="fill:#616161;opacity:0.2;mix-blend-mode:color-burn"/><path d="M10.6,48.2a4.3,4.3,0,0,0-.1.5,2.4,2.4,0,0,0,2.4,2.4,2.4,2.4,0,0,0,2.4-2.4,1.9,1.9,0,0,0-.1-.8,2.3,2.3,0,0,0,2.1-2.3A2.3,2.3,0,0,0,15,43.3a6.4,6.4,0,0,0-1.8.6l1.6-2.7H11l1.6,2.7a7.6,7.6,0,0,0-2-.6,2.5,2.5,0,0,0-2.4,2.5A2.5,2.5,0,0,0,10.6,48.2Z" style="fill:#333"/><path d="M10.6,48.2a4.3,4.3,0,0,0-.1.5,2.4,2.4,0,0,0,2.4,2.4H13V41.2H11l1.6,2.7a7.6,7.6,0,0,0-2-.6,2.5,2.5,0,0,0-2.4,2.5A2.5,2.5,0,0,0,10.6,48.2Z" style="fill:#616161;opacity:0.2;mix-blend-mode:color-burn"/><path d="M10.6,36c0,.2-.1.3-.1.5a2.4,2.4,0,0,0,2.4,2.4,2.3,2.3,0,0,0,2.4-2.4,2.2,2.2,0,0,0-.1-.8,2.3,2.3,0,0,0,2.1-2.3A2.2,2.2,0,0,0,15,31.2a6.1,6.1,0,0,0-1.8.5L14.8,29H11l1.6,2.6a7.3,7.3,0,0,0-2-.5,2.4,2.4,0,1,0,0,4.8Z" style="fill:#333"/><path d="M10.6,36c0,.2-.1.3-.1.5a2.4,2.4,0,0,0,2.4,2.4H13V29H11l1.6,2.6a7.3,7.3,0,0,0-2-.5,2.4,2.4,0,1,0,0,4.8Z" style="fill:#616161;opacity:0.2;mix-blend-mode:color-burn"/><path d="M4.3,10.8h0a.6.6,0,0,0-.6-.5.5.5,0,0,0-.5.5v.2a.5.5,0,0,0-.5.5.6.6,0,0,0,.6.5h.4l-.4.6h.9l-.4-.6h.5a.5.5,0,0,0,.5-.5A.6.6,0,0,0,4.3,10.8Z" style="fill:#333"/><path d="M4.3,10.8h0a.6.6,0,0,0-.6-.5h0v2.2h.5l-.4-.6h.5a.5.5,0,0,0,.5-.5A.6.6,0,0,0,4.3,10.8Z" style="fill:#616161;opacity:0.2;mix-blend-mode:color-burn"/><path d="M37.1,46.1v.2a.5.5,0,0,1-.5.5.6.6,0,0,1-.6-.5v-.2c-.2,0-.4-.3-.4-.5a.6.6,0,0,1,.5-.6l.4.2-.4-.6H37l-.4.6.5-.2a.6.6,0,0,1,.5.6A.5.5,0,0,1,37.1,46.1Z" style="fill:#333"/><path d="M37.1,46.1v.2a.5.5,0,0,1-.5.5h0V44.6H37l-.4.6.5-.2a.6.6,0,0,1,.5.6A.5.5,0,0,1,37.1,46.1Z" style="fill:#616161;opacity:0.2;mix-blend-mode:color-burn"/></g></g></svg>