<svg xmlns="http://www.w3.org/2000/svg" viewBox="0 0 39.8 55.7"><g style="isolation:isolate"><g id="fd6937aa-45dd-4729-b274-e37436d1db18" data-name="Layer 1"><path d="M4.4,55.7A4.2,4.2,0,0,1,.1,51.5V4.2A4.2,4.2,0,0,1,4.3,0H35.5a4.2,4.2,0,0,1,4.3,4.2V51.5a4.2,4.2,0,0,1-4.3,4.2Z" style="fill:#c9c9c9"/><path d="M4.8,55.6A4.2,4.2,0,0,1,.6,51.4V4.2A4.2,4.2,0,0,1,4.8,0H35.6a4.2,4.2,0,0,1,4.2,4.2V51.4a4.2,4.2,0,0,1-4.2,4.2Z" style="fill:#fff"/><path d="M3.5,7.4l-.4.4-.7.3-.3-.2c0-.1-.1-.1-.1-.2V4.5H1.7L2,3.9l.3-.2h.2l.3.2.2.3V7.4h.5Z" style="fill:#333"/><path d="M7.4,5.9a1.9,1.9,0,0,1-.2.7,1.7,1.7,0,0,1-.8.9l-.5.3a1.1,1.1,0,0,1-.8.2,1.4,1.4,0,0,1-1.2-.6,1.8,1.8,0,0,1-.4-1.3,1.9,1.9,0,0,1,.3-1l.4-.6a1.3,1.3,0,0,1,.7-.6l.8-.3a1.3,1.3,0,0,1,1.2.7A3,3,0,0,1,7.4,5.9Zm-1,.7a2.8,2.8,0,0,0-.1-.9L6,4.9l-.5-.6H5.1a.5.5,0,0,0-.5.3,1.2,1.2,0,0,0-.2.8v.5l.3.8.5.7.5.2a.5.5,0,0,0,.5-.3C6.4,7.1,6.4,6.8,6.4,6.6Z" style="fill:#333"/><path d="M37.2,48.7a.7.7,0,0,1,.3-.3l.8-.3c.1,0,.2,0,.2.1a.4.4,0,0,1,.1.3v3.3H39c0,.1,0,.1-.1.2l-.3.2-.3.2h-.5a.4.4,0,0,1-.1-.3V48.7h-.1c-.1,0-.1,0-.1.1h-.3Z" style="fill:#333"/><path d="M33.3,50.3a1.5,1.5,0,0,1,.1-.7,2.5,2.5,0,0,1,.8-1l.5-.3.9-.2a1.4,1.4,0,0,1,1.1.6,2.1,2.1,0,0,1,.4,1.4,4.4,4.4,0,0,1-.2,1l-.5.6-.6.6a1.6,1.6,0,0,1-.9.3,1.4,1.4,0,0,1-1.2-.8A2.4,2.4,0,0,1,33.3,50.3Zm.9-.7a2.8,2.8,0,0,0,.1.9,2.5,2.5,0,0,0,.4.7,1,1,0,0,0,.5.6h.3a.5.5,0,0,0,.5-.3,1.1,1.1,0,0,0,.3-.7,4.3,4.3,0,0,0-.1-.5,1.3,1.3,0,0,0-.3-.8,2.2,2.2,0,0,0-.5-.8h-.5c-.2,0-.4,0-.5.2A1.4,1.4,0,0,0,34.2,49.6Z" style="fill:#333"/><path d="M29.8,7.5c0-.2.1-.4,0-.6a2.3,2.3,0,0,0-2.4-2.4A2.4,2.4,0,0,0,25,6.9a1.9,1.9,0,0,0,.2.8A2.3,2.3,0,0,0,23.1,10a2.3,2.3,0,0,0,2.3,2.3l1.7-.5-1.5,2.6h3.8l-1.6-2.6a6.7,6.7,0,0,0,1.9.5,2.4,2.4,0,1,0,.1-4.8Z" style="fill:#333"/><path d="M29.8,7.5c0-.2.1-.4,0-.6a2.3,2.3,0,0,0-2.4-2.4h0v9.9h2l-1.6-2.6a6.7,6.7,0,0,0,1.9.5,2.4,2.4,0,1,0,.1-4.8Z" style="fill:#616161;opacity:0.2;mix-blend-mode:color-burn"/><path d="M22.4,14.5a1.3,1.3,0,0,0,.1-.6,2.4,2.4,0,0,0-2.4-2.4,2.4,2.4,0,0,0-2.4,2.4,1.9,1.9,0,0,0,.1.8A2.3,2.3,0,0,0,15.7,17,2.3,2.3,0,0,0,18,19.3l1.8-.5-1.6,2.6H22l-1.6-2.6,2,.5a2.4,2.4,0,1,0,0-4.8Z" style="fill:#333"/><path d="M22.4,14.5a1.3,1.3,0,0,0,.1-.6,2.4,2.4,0,0,0-2.4-2.4h0v9.9H22l-1.6-2.6,2,.5a2.4,2.4,0,1,0,0-4.8Z" style="fill:#616161;opacity:0.2;mix-blend-mode:color-burn"/><path d="M29.8,19.6c0-.1.1-.3,0-.5a2.3,2.3,0,0,0-2.4-2.4A2.4,2.4,0,0,0,25,19.1a1.9,1.9,0,0,0,.2.8,2.3,2.3,0,0,0-2.1,2.3,2.2,2.2,0,0,0,2.3,2.2,3.4,3.4,0,0,0,1.7-.5l-1.5,2.7h3.8l-1.6-2.7a6.7,6.7,0,0,0,1.9.5A2.4,2.4,0,0,0,32.2,22,2.5,2.5,0,0,0,29.8,19.6Z" style="fill:#333"/><path d="M29.8,19.6c0-.1.1-.3,0-.5a2.3,2.3,0,0,0-2.4-2.4h0v9.9h2l-1.6-2.7a6.7,6.7,0,0,0,1.9.5A2.4,2.4,0,0,0,32.2,22,2.5,2.5,0,0,0,29.8,19.6Z" style="fill:#616161;opacity:0.2;mix-blend-mode:color-burn"/><path d="M10.6,7.5c0-.2-.1-.4-.1-.6a2.5,2.5,0,0,1,4.9,0,1.9,1.9,0,0,1-.2.8A2.3,2.3,0,0,1,17.3,10,2.3,2.3,0,0,1,15,12.3l-1.7-.5,1.5,2.6H11l1.6-2.6a6.5,6.5,0,0,1-2,.5,2.4,2.4,0,0,1,0-4.8Z" style="fill:#333"/><path d="M10.6,7.5c0-.2-.1-.4-.1-.6a2.4,2.4,0,0,1,2.4-2.4H13v9.9H11l1.6-2.6a6.5,6.5,0,0,1-2,.5,2.4,2.4,0,0,1,0-4.8Z" style="fill:#616161;opacity:0.2;mix-blend-mode:color-burn"/><path d="M10.6,19.6a4.3,4.3,0,0,1-.1-.5,2.5,2.5,0,0,1,4.9,0,1.9,1.9,0,0,1-.2.8,2.3,2.3,0,0,1,2.1,2.3A2.2,2.2,0,0,1,15,24.4a3.4,3.4,0,0,1-1.7-.5l1.5,2.7H11l1.6-2.7a6.5,6.5,0,0,1-2,.5A2.4,2.4,0,0,1,8.2,22,2.5,2.5,0,0,1,10.6,19.6Z" style="fill:#333"/><path d="M10.6,19.6a4.3,4.3,0,0,1-.1-.5,2.4,2.4,0,0,1,2.4-2.4H13v9.9H11l1.6-2.7a6.5,6.5,0,0,1-2,.5A2.4,2.4,0,0,1,8.2,22,2.5,2.5,0,0,1,10.6,19.6Z" style="fill:#616161;opacity:0.2;mix-blend-mode:color-burn"/><path d="M29.8,48.2c0,.1.1.3,0,.5a2.3,2.3,0,0,1-2.4,2.4A2.4,2.4,0,0,1,25,48.7a1.9,1.9,0,0,1,.2-.8,2.3,2.3,0,0,1-2.1-2.3,2.3,2.3,0,0,1,2.3-2.3,4.9,4.9,0,0,1,1.7.6l-1.5-2.7h3.8l-1.6,2.7a7,7,0,0,1,1.9-.6,2.5,2.5,0,0,1,2.5,2.5A2.5,2.5,0,0,1,29.8,48.2Z" style="fill:#333"/><path d="M29.8,48.2c0,.1.1.3,0,.5a2.3,2.3,0,0,1-2.4,2.4h0V41.2h2l-1.6,2.7a7,7,0,0,1,1.9-.6,2.5,2.5,0,0,1,2.5,2.5A2.5,2.5,0,0,1,29.8,48.2Z" style="fill:#616161;opacity:0.2;mix-blend-mode:color-burn"/><path d="M22.4,41.1a1.3,1.3,0,0,1,.1.6,2.4,2.4,0,0,1-2.4,2.4,2.4,2.4,0,0,1-2.4-2.4,1.9,1.9,0,0,1,.1-.8,2.3,2.3,0,0,1-2.1-2.3A2.3,2.3,0,0,1,18,36.3a6.4,6.4,0,0,1,1.8.6l-1.6-2.7H22l-1.6,2.7,2-.6a2.4,2.4,0,0,1,2.4,2.4A2.4,2.4,0,0,1,22.4,41.1Z" style="fill:#333"/><path d="M22.4,41.1a1.3,1.3,0,0,1,.1.6,2.4,2.4,0,0,1-2.4,2.4h0V34.2H22l-1.6,2.7,2-.6a2.4,2.4,0,0,1,2.4,2.4A2.4,2.4,0,0,1,22.4,41.1Z" style="fill:#616161;opacity:0.2;mix-blend-mode:color-burn"/><path d="M29.8,36c0,.2.1.3,0,.5a2.3,2.3,0,0,1-2.4,2.4,2.3,2.3,0,0,1-2.2-3.2,2.3,2.3,0,0,1-2.1-2.3,2.2,2.2,0,0,1,2.3-2.2,4.8,4.8,0,0,1,1.7.5l-1.5-2.6h3.8l-1.6,2.6a6.7,6.7,0,0,1,1.9-.5,2.4,2.4,0,1,1,.1,4.8Z" style="fill:#333"/><path d="M29.8,36c0,.2.1.3,0,.5a2.3,2.3,0,0,1-2.4,2.4h0V29.1h2l-1.6,2.6a6.7,6.7,0,0,1,1.9-.5,2.4,2.4,0,1,1,.1,4.8Z" style="fill:#616161;opacity:0.2;mix-blend-mode:color-burn"/><path d="M10.6,48.2a4.3,4.3,0,0,0-.1.5,2.5,2.5,0,0,0,4.9,0,1.9,1.9,0,0,0-.2-.8,2.3,2.3,0,0,0,2.1-2.3A2.3,2.3,0,0,0,15,43.3a4.9,4.9,0,0,0-1.7.6l1.5-2.7H11l1.6,2.7a6.6,6.6,0,0,0-2-.6,2.5,2.5,0,0,0-2.4,2.5A2.5,2.5,0,0,0,10.6,48.2Z" style="fill:#333"/><path d="M10.6,48.2a4.3,4.3,0,0,0-.1.5,2.4,2.4,0,0,0,2.4,2.4H13V41.2H11l1.6,2.7a6.6,6.6,0,0,0-2-.6,2.5,2.5,0,0,0-2.4,2.5A2.5,2.5,0,0,0,10.6,48.2Z" style="fill:#616161;opacity:0.2;mix-blend-mode:color-burn"/><path d="M10.6,36c0,.2-.1.3-.1.5a2.4,2.4,0,0,0,2.4,2.4,2.4,2.4,0,0,0,2.5-2.4,2.4,2.4,0,0,0-.2-.8,2.3,2.3,0,0,0,2.1-2.3A2.2,2.2,0,0,0,15,31.2a4.8,4.8,0,0,0-1.7.5l1.5-2.6H11l1.6,2.6a6.5,6.5,0,0,0-2-.5,2.4,2.4,0,1,0,0,4.8Z" style="fill:#333"/><path d="M10.6,36c0,.2-.1.3-.1.5a2.4,2.4,0,0,0,2.4,2.4H13V29.1H11l1.6,2.6a6.5,6.5,0,0,0-2-.5,2.4,2.4,0,1,0,0,4.8Z" style="fill:#616161;opacity:0.2;mix-blend-mode:color-burn"/><path d="M4.3,10.8h0a.5.5,0,0,0-.5-.5.5.5,0,0,0-.5.5v.2a.5.5,0,1,0,0,1h.4l-.3.6h.8l-.3-.6h.4a.6.6,0,0,0,.6-.5A.6.6,0,0,0,4.3,10.8Z" style="fill:#333"/><path d="M4.3,10.8h0a.5.5,0,0,0-.5-.5h0v2.2h.4l-.3-.6h.4a.6.6,0,0,0,.6-.5A.6.6,0,0,0,4.3,10.8Z" style="fill:#616161;opacity:0.2;mix-blend-mode:color-burn"/><path d="M37.2,46.1v.2a.6.6,0,0,1-.6.5.5.5,0,0,1-.5-.5v-.2a.5.5,0,0,1-.5-.5.6.6,0,0,1,.6-.6l.4.2-.4-.6h.9l-.4.6.5-.2a.6.6,0,0,1,.5.6A.5.5,0,0,1,37.2,46.1Z" style="fill:#333"/><path d="M37.2,46.1v.2a.6.6,0,0,1-.6.5h0V44.6h.5l-.4.6.5-.2a.6.6,0,0,1,.5.6A.5.5,0,0,1,37.2,46.1Z" style="fill:#616161;opacity:0.2;mix-blend-mode:color-burn"/></g></g></svg>