<svg xmlns="http://www.w3.org/2000/svg" viewBox="0 0 39.8 55.7"><g style="isolation:isolate"><g id="ae64252c-97a8-47ef-8bc8-839c2fa38ff2" data-name="Layer 1"><path d="M4.4,55.5A4.1,4.1,0,0,1,.2,51.4V4.2A4.2,4.2,0,0,1,4.3,0H35.5a4.2,4.2,0,0,1,4.2,4.2v47a4.2,4.2,0,0,1-4.2,4.2Z" style="fill:#c9c9c9"/><path d="M4.7,55.7A4.2,4.2,0,0,1,.5,51.5V4.5A4.2,4.2,0,0,1,4.7.3H35.4a4.2,4.2,0,0,1,4.2,4.2v47a4.2,4.2,0,0,1-4.2,4.2Z" style="fill:#fff"/><path d="M35.5,54.5H4.8a3.2,3.2,0,0,1-3.2-3.2V4.3A3.7,3.7,0,0,1,3.7.9H34.6c3.1.3,4.2,2,4.2,3.5v47A3.2,3.2,0,0,1,35.5,54.5ZM4,2.1A3,3,0,0,0,2.9,4.3v47a1.9,1.9,0,0,0,1.9,2H35.5a2,2,0,0,0,2-2V4.3c0-1.2-1.1-2-2.9-2.2Z" style="fill:#333"/><path d="M7.6,5.8a1.5,1.5,0,0,1-.1.7l-.4.6-.3.3-.6.4H5.9l.5.3.5.2H7l-.3.2H6.6l-.4-.3c-.3-.3-.5-.4-.7-.4l-.3.2H4.9l.2-.2.3-.2-.7-.4c-.2-.2-.4-.3-.5-.5a.9.9,0,0,1-.3-.6,1.5,1.5,0,0,1-.1-.7A1.1,1.1,0,0,1,4,5.1l.4-.5L5,4.1l.8-.5.4.2.8.8.5.6A1.3,1.3,0,0,1,7.6,5.8Zm-1,.6c0-.2-.1-.4-.1-.6l-.4-.6a1.7,1.7,0,0,0-.6-.6l-.4-.3c-.1,0-.2.1-.3.4a1,1,0,0,0-.1.4,3,3,0,0,0,.2,1,1.9,1.9,0,0,0,.6.7l.7.7a1.6,1.6,0,0,0,.3-.6C6.5,6.7,6.6,6.6,6.6,6.4Z" style="fill:#333"/><path d="M32.9,50.2a2.5,2.5,0,0,1,.2-.7l.3-.6.3-.2.6-.4h.3c0-.1-.1-.2-.4-.3l-.6-.2h-.1l.3-.2a.1.1,0,0,1,.1-.1l.5.3a.9.9,0,0,0,.6.3h.5c.1,0,.1,0,.1.1s0,.1-.2.2l-.3.2.7.4a1.2,1.2,0,0,1,.5.5,2.1,2.1,0,0,1,.4.6c0,.2.1.4.1.6a1.5,1.5,0,0,1-.2.8l-.5.6-.6.5-.7.5-.5-.2-.8-.8a2.1,2.1,0,0,1-.4-.6A1.4,1.4,0,0,1,32.9,50.2Zm1-.5a1.4,1.4,0,0,0,.2.6c0,.2.2.4.3.6a1.7,1.7,0,0,0,.6.6l.4.3c.1,0,.2-.1.3-.4a1.1,1.1,0,0,0,.1-.5,1.5,1.5,0,0,0-.2-.9l-.5-.7-.8-.7a1.6,1.6,0,0,0-.3.6C34,49.4,33.9,49.5,33.9,49.7Z" style="fill:#333"/><polygon points="26.2 15.7 26.1 16.6 26.1 17.1 25.9 19.3 25.9 19.8 25.8 20.5 25.8 20.5 25.8 21.1 25.3 21.1 25 21.1 24.5 21.1 24.3 21.2 23.9 21.2 23.3 21.2 22.7 21.2 19.6 21.3 19.6 21.3 16.4 21.2 15.8 21.2 15.2 21.2 14.9 21.2 14.6 21.1 14.3 21.1 14.1 21.1 13.8 21.1 13.4 21.1 13.3 20.5 13.3 20.5 13.3 19.8 13.2 19.3 13.1 17.1 13 16.6 13 15.7 26.2 15.7" style="fill:#c9c9c9"/><path d="M25.6,17.3a6.4,6.4,0,0,1-3.9,1.2h0a2.6,2.6,0,0,1-1.1,1l-.9.2h-.1V15.7Z" style="fill:#616161;opacity:0.2;mix-blend-mode:color-burn"/><path d="M28.3,24.3l-2.5.8h-.3a2.5,2.5,0,0,0-.5-.7h0a1.8,1.8,0,0,0-.4.9l-.7.2-4.3,1.3-2.7.8L16,28l-.2-.3c-1.5-.7-.8-1.8-1.6-3.1s0-.1-.1-.2A16.1,16.1,0,0,0,12,29.2h-.2l-1.8.5h0a13,13,0,0,1,2.2-8l.2-.3.2-.3h0l.2-.2h.1l.4-.4h0a.1.1,0,0,1,.1-.1h.3l.3-.2H25.2l.2.2h.2c0,.1,0,.1.1.1h.1a.1.1,0,0,1,.1.1H26c.1,0,.1.1.2.2a.1.1,0,0,1,.1.1h0l.2.2h0l.2.3c.1.1.2.2.2.3A11.7,11.7,0,0,1,28.3,24.3Z" style="fill:#fdd8ab"/><path d="M19.6,22.7h.5l-.2,2.1h-.3Z" style="fill:#616161;opacity:0.2;mix-blend-mode:color-burn"/><path d="M19.6,15.7l-6.4,1a5.3,5.3,0,0,0,4.3,1.8h0a2.5,2.5,0,0,0,2,1.2h.1Z" style="fill:#616161;opacity:0.2;mix-blend-mode:color-burn"/><path d="M19.6,22.7H19l.2,2.1h.4Z" style="fill:#616161;opacity:0.2;mix-blend-mode:color-burn"/><path d="M17.5,24.4c-2.9-.6-4.5-1.6-5.3-2.6a15.6,15.6,0,0,1,1.5-1.7Z" style="fill:#616161;opacity:0.2;mix-blend-mode:color-burn"/><path d="M19.6,18.8h-.1l-.8-.2v.6l.9.2h.1Z" style="fill:#fdd8ab"/><path d="M19.6,18h-.1a.8.8,0,0,0-.8.6l.8.2h.1Z" style="fill:#fdd8ab"/><path d="M24.7,19.8H20.5v-.6l-.9.2h-.1l-.9-.2v.6H14.5c-.3.5-.2.5-.2,1.1a3.7,3.7,0,0,0,2.4,3.2h0l.8.3,1.7.4h.7l1.7-.4.8-.3h.1a3.7,3.7,0,0,0,2.3-3.2C24.8,20.3,24.9,20.3,24.7,19.8Z" style="fill:#fdd8ab"/><path d="M17.5,24.4l-.8-.3h0a3.7,3.7,0,0,1-2.4-3.2c0-.6-.1-.6.2-1.1H16Z" style="fill:#616161;opacity:0.2;mix-blend-mode:color-burn"/><path d="M21.6,24.4l.8-.3h.1a3.7,3.7,0,0,0,2.3-3.2c0-.6.1-.6-.1-1.1H23.1Z" style="fill:#616161;opacity:0.2;mix-blend-mode:color-burn"/><path d="M19.6,18.8h0l.8-.2a.3.3,0,0,1,.1.2v.4l-.9.2h0Z" style="fill:#fdd8ab"/><path d="M19.6,18h0c.4,0,.8.2.8.6l-.8.2h0Z" style="fill:#fdd8ab"/><path d="M28.3,24.3l-2.5.8h-.3a2.5,2.5,0,0,0-.5-.7h0a1.8,1.8,0,0,0-.4.9l-.7.2-4.3,1.3-2.7.8L16,28l-.2-.3c-1.5-.7-.8-1.8-1.6-3.1s0-.1-.1-.2A16.1,16.1,0,0,0,12,29.2h-.2l-1.8.5h0a13,13,0,0,1,2.2-8l.2-.3.2-.3h0l.2-.2h.1l2,1.7.3.3v-.2h.8a13.2,13.2,0,0,0,3-.8h1.1a12.3,12.3,0,0,0,3.3.8H24l.2.3.5-.4L26.3,21h0l.2.2h0v.2a.1.1,0,0,1,.1.1c.1.1.2.2.2.3A11.7,11.7,0,0,1,28.3,24.3Z" style="fill:#333"/><path d="M26.9,21.8c-.8,1-2.4,2-5.3,2.6l1.6-1.7v-.2l1.2-1.4.3-.2.6-.8.2.2h.1c.1,0,.1,0,.1.1h0a.1.1,0,0,1,.1.1H26c.1,0,.1.1.2.2h.1l.2.2h0l.2.3C26.8,21.6,26.9,21.7,26.9,21.8Z" style="fill:#616161;opacity:0.2;mix-blend-mode:color-burn"/><path d="M27.3,18.8v.6a3.6,3.6,0,0,1-.8,1.8h0a5.9,5.9,0,0,1-2,1.8c0,.1-.1.1-.2.2l-1.8.9h-.2l-.4.2h-.3l1.7-3.2.6-1.1v-.3l2.2-4.1A5.6,5.6,0,0,1,27.3,18.8Z" style="fill:#ebebeb"/><path d="M17.5,24.4l-2.7-1.2-.2-.2a5.5,5.5,0,0,1-2.8-3.6v-.6A5.4,5.4,0,0,1,13,15.7Z" style="fill:#ebebeb"/><polygon points="13.7 20.9 14.2 21.6 14 20.8 13.7 20.9" style="fill:#333"/><polygon points="15.6 22.7 16.1 23.4 15.9 22.5 15.6 22.7" style="fill:#333"/><polygon points="12.7 16.6 13.2 17.3 13 16.4 12.7 16.6" style="fill:#333"/><polygon points="13.4 18.1 14 18.8 13.7 18 13.4 18.1" style="fill:#333"/><polygon points="14.1 19.6 14.7 20.4 14.4 19.5 14.1 19.6" style="fill:#333"/><polygon points="14.8 21.1 15.4 21.9 15.1 21 14.8 21.1" style="fill:#333"/><path d="M14.8,23.2l-.2-.2-.3-.4h.3Z" style="fill:#333"/><polygon points="12.2 17.9 12.8 18.6 12.5 17.7 12.2 17.9" style="fill:#333"/><polygon points="13 19.4 13.5 20.1 13.3 19.2 13 19.4" style="fill:#333"/><path d="M12.1,19.7l-.3-.3v-.6h0Z" style="fill:#333"/><polygon points="12.6 20.8 13.1 21.5 12.9 20.6 12.6 20.8" style="fill:#333"/><polygon points="25.4 20.9 24.9 21.6 25.1 20.8 25.4 20.9" style="fill:#333"/><polygon points="23.6 22.7 23 23.4 23.3 22.5 23.6 22.7" style="fill:#333"/><polygon points="26.4 16.6 25.9 17.3 26.1 16.4 26.4 16.6" style="fill:#333"/><polygon points="25.7 18.1 25.2 18.8 25.4 18 25.7 18.1" style="fill:#333"/><polygon points="25 19.6 24.4 20.4 24.7 19.5 25 19.6" style="fill:#333"/><polygon points="24.3 21.1 23.7 21.9 24 21 24.3 21.1" style="fill:#333"/><path d="M24.3,22.8l.5-.4-.3-.2Z" style="fill:#333"/><polygon points="26.9 17.9 26.3 18.6 26.6 17.7 26.9 17.9" style="fill:#333"/><polygon points="26.2 19.4 25.6 20.1 25.9 19.2 26.2 19.4" style="fill:#333"/><path d="M27.3,18.8v.6l-.3.3.3-.9Z" style="fill:#333"/><polygon points="26.6 20.8 26 21.5 26.3 20.6 26.6 20.8" style="fill:#333"/><path d="M19,16.8l-.4.6H16.7A4.6,4.6,0,0,0,19,16.8Z" style="fill:#333"/><path d="M22.3,17.4H20.5l-.4-.6A4.3,4.3,0,0,0,22.3,17.4Z" style="fill:#333"/><path d="M22.4,17.4h0Z" style="fill:#333"/><path d="M27.5,13.9a4,4,0,0,1-4,4.1,12.4,12.4,0,0,1-3.3-.9H19.1a9.5,9.5,0,0,1-3,.9,3.8,3.8,0,0,1-3.8-3.8,3.7,3.7,0,0,1,3.5-3.8A6.8,6.8,0,0,1,15.6,9V8.4h0a1.4,1.4,0,0,1,.2-.6h0A4,4,0,0,1,19.6,5a3.9,3.9,0,0,1,3.8,2.7l.2.6V9a2.8,2.8,0,0,1-.1.9A4,4,0,0,1,27.5,13.9Z" style="fill:#333"/><path d="M16.9,27.7,16,28l-.2-.3c-1.6-.7-.8-1.8-1.7-3.3A16.1,16.1,0,0,0,12,29.2h-.2c-.5-2.1,2.6-5.5,2.6-5.5S15.7,27.2,16.9,27.7Z" style="fill:#616161;opacity:0.2;mix-blend-mode:color-burn"/><path d="M25.8,25.1h-.3a2.5,2.5,0,0,0-.5-.7h0a2.6,2.6,0,0,0-.4,1l-.7.2.9-1.8Z" style="fill:#616161;opacity:0.2;mix-blend-mode:color-burn"/><path d="M21.3,18.6l-.8.6-.9.2h-.1l-.9-.2-.8-.6.3-.4,1.4.6h.1a5.7,5.7,0,0,0,1.3-.7Z" style="fill:#616161;opacity:0.2;mix-blend-mode:color-burn"/><path d="M20.6,9.8a1.2,1.2,0,0,0-1,.7,1.2,1.2,0,0,0-1.1-.7c-1.2.6-2,2.3-2,4.3a5.7,5.7,0,0,0,1.1,3.6h0a2.2,2.2,0,0,0,1.2.9l.8.2h0l.8-.2a2.3,2.3,0,0,0,1.1-.9h.1a6.4,6.4,0,0,0,1-3.6C22.6,12.1,21.8,10.4,20.6,9.8Z" style="fill:#fdd8ab"/><path d="M21.7,9.5c0-.6-2.2-2.7-2.2-2.7S17.4,9,17.4,9.4a1.3,1.3,0,0,0,1.3,1.3h1l.7.2A1.3,1.3,0,0,0,21.7,9.5Z" style="fill:#333"/><path d="M17.3,13.9h-.1c0,.2.3.4.7.4s.6-.2.6-.4H17.3Z" style="fill:#333"/><path d="M21.9,13.9h0c0,.2-.3.4-.7.4s-.6-.2-.6-.4h1.3Z" style="fill:#333"/><path d="M20.4,17.1H18.7a1.3,1.3,0,0,0,.9.4h0A1.2,1.2,0,0,0,20.4,17.1Z" style="fill:#454545"/><path d="M19.6,17.1c-.4-.5-1,.1-1,.1h1.9S20,16.6,19.6,17.1Z" style="fill:#333"/><polygon points="19.6 14.6 19.6 14.6 19.6 14.6 19.6 14.6 19.6 14.6 19.1 16.2 19.6 16.2 19.6 16.2 20.1 16.2 19.6 14.6" style="fill:#616161;opacity:0.2;mix-blend-mode:color-burn"/><polygon points="20.5 12.9 21.8 13 21.8 13 21.8 13 22.4 13.6 21.8 13.1 21.8 13.1 20.5 13.1 20.5 12.9" style="fill:#333"/><polygon points="18.7 13.1 17.4 13.1 17.5 13.1 16.9 13.6 17.4 13 17.4 13 17.4 13 18.7 12.9 18.7 13.1" style="fill:#333"/><path d="M20.6,5.4V5.1a1.1,1.1,0,0,0-1.1-1,1.3,1.3,0,0,0-1.1,1c0,.2.1.3.1.4a1.2,1.2,0,0,0-1.1,1.1,1.1,1.1,0,0,0,1.1,1.1l.9-.3-.8,1.5h1.9l-.8-1.4.9.2a1.1,1.1,0,0,0,1.1-1.2A1.2,1.2,0,0,0,20.6,5.4Z" style="fill:#616161;opacity:0.2;mix-blend-mode:color-burn"/><path d="M20.5,5.4V5.2a1,1,0,0,0-1-1.1,1,1,0,0,0-1,1v.4a.9.9,0,0,0-.9,1,1,1,0,0,0,1,.9l.8-.2-.7,1.1h1.6l-.7-1.1.9.2a1,1,0,0,0,1-1A1.1,1.1,0,0,0,20.5,5.4Z" style="fill:#ffd675"/><path d="M19.5,7.4l.4.7h-.8Zm-.9-.2a.8.8,0,0,1-.8-.7.9.9,0,0,1,.7-.8h.3V5.1a.8.8,0,0,1,.8-.8l.6.3a.8.8,0,0,1,.2.6h0v.3h.3a.9.9,0,0,1,.8.8A.9.9,0,0,1,21,7l-.5.2L19.7,7h-.5Z" style="fill:#616161;opacity:0.2;mix-blend-mode:color-burn"/><path d="M20.5,9.8h0Z" style="fill:#616161;opacity:0.2;mix-blend-mode:color-burn"/><path d="M20,10Z" style="fill:#616161;opacity:0.2;mix-blend-mode:color-burn"/><path d="M20.1,9.9h0Z" style="fill:#616161;opacity:0.2;mix-blend-mode:color-burn"/><path d="M20.3,9.9h0Z" style="fill:#616161;opacity:0.2;mix-blend-mode:color-burn"/><path d="M26.9,21.8c0-.1-.1-.2-.2-.3h-.1c0-.1-.1-.1-.1-.2h0a3.6,3.6,0,0,0,.8-1.8v-.6a4.3,4.3,0,0,0-.7-2.4,3.7,3.7,0,0,0,.9-2.5,4,4,0,0,0-4-4,2.8,2.8,0,0,0,.1-.9V8.3l-.2-.6a3.9,3.9,0,0,0-2.8-2.6,1.1,1.1,0,0,0-1.1-1h0V27h.1l4.3-1.3h0l.7-.2h0a1.6,1.6,0,0,1,.3-.8c0-.1.1-.1.1-.2h0a2.5,2.5,0,0,1,.5.7h.3l2.5-.8A11.7,11.7,0,0,0,26.9,21.8Z" style="fill:#616161;opacity:0.2;mix-blend-mode:color-burn"/><polygon points="12.1 40.5 12.1 39.6 12.2 39.1 12.3 36.9 12.4 36.4 12.4 35.7 12.4 35.7 12.4 35.1 12.9 35.1 13.2 35.1 13.7 35.1 13.9 35 14.3 35 14.9 35 15.5 35 18.7 35 18.7 35 21.8 35 22.4 35 23 35 23.4 35 23.6 35.1 23.9 35.1 24.1 35.1 24.4 35.1 24.9 35.1 24.9 35.7 24.9 35.7 25 36.4 25 36.9 25.2 39.1 25.2 39.6 25.3 40.5 12.1 40.5" style="fill:#c9c9c9"/><path d="M12.6,38.9a6.7,6.7,0,0,1,3.9-1.2h0a2.3,2.3,0,0,1,1.2-1l.8-.2h.1v3.9Z" style="fill:#616161;opacity:0.2;mix-blend-mode:color-burn"/><path d="M10,31.9l2.5-.8h.3l.4.7h0a1.2,1.2,0,0,0,.4-.9l.7-.2,4.4-1.3,2.7-.8.9-.3a.4.4,0,0,0,.1.3c1.5.7.8,1.8,1.6,3.1s.1.1.1.2A16.8,16.8,0,0,0,26.3,27h.2l1.7-.5h.1a13.6,13.6,0,0,1-2.3,8c0,.1-.1.2-.2.3l-.2.3h0c-.1,0-.1.1-.2.2h-.1c-.1.2-.3.3-.4.4h-.1a.1.1,0,0,1-.1.1h-.2l-.2.2H13.1l-.3-.2h-.2a.1.1,0,0,1-.1-.1h-.1a.1.1,0,0,1-.1-.1h-.1l-.2-.2h-.1c-.1-.1-.1-.2-.2-.2h0l-.2-.3c-.1-.1-.2-.2-.2-.3A8.4,8.4,0,0,1,10,31.9Z" style="fill:#fdd8ab"/><path d="M18.7,33.5h-.6l.2-2.1h.4Z" style="fill:#616161;opacity:0.2;mix-blend-mode:color-burn"/><path d="M18.7,40.5l6.3-1a5.3,5.3,0,0,0-4.2-1.8h-.1a2.5,2.5,0,0,0-2-1.2h0Z" style="fill:#616161;opacity:0.2;mix-blend-mode:color-burn"/><path d="M18.7,33.5h.5L19,31.4h-.3Z" style="fill:#616161;opacity:0.2;mix-blend-mode:color-burn"/><path d="M20.7,31.8c2.9.6,4.5,1.6,5.3,2.6a9.2,9.2,0,0,1-1.5,1.7Z" style="fill:#616161;opacity:0.2;mix-blend-mode:color-burn"/><path d="M18.7,37.4h0l.8.2a.3.3,0,0,0,.1-.2V37l-.9-.2h0Z" style="fill:#fdd8ab"/><path d="M18.7,38.2h0c.4,0,.8-.2.8-.6l-.8-.2h0Z" style="fill:#fdd8ab"/><path d="M13.6,36.4h4.1V37l.9-.2h.1l.9.2v-.6h4.2c.2-.5.1-.5.1-1.1a3.7,3.7,0,0,0-2.3-3.2h-.1l-.8-.3L19,31.4h-.7l-1.7.4-.8.3h0a3.7,3.7,0,0,0-2.4,3.2C13.4,35.9,13.3,35.9,13.6,36.4Z" style="fill:#fdd8ab"/><path d="M20.7,31.8l.8.3h.1a3.7,3.7,0,0,1,2.3,3.2c0,.6.1.6-.1,1.1H22.2Z" style="fill:#616161;opacity:0.2;mix-blend-mode:color-burn"/><path d="M16.6,31.8l-.8.3h0a3.7,3.7,0,0,0-2.4,3.2c0,.6-.1.6.2,1.1h1.5Z" style="fill:#616161;opacity:0.2;mix-blend-mode:color-burn"/><path d="M18.7,37.4h-.1l-.8.2a.3.3,0,0,0-.1-.2V37l.9-.2h.1Z" style="fill:#fdd8ab"/><path d="M18.7,38.2h-.1a.8.8,0,0,1-.8-.6l.8-.2h.1Z" style="fill:#fdd8ab"/><path d="M10,31.9l2.5-.8h.3l.4.7h0a1.2,1.2,0,0,0,.4-.9l.7-.2,4.4-1.3,2.7-.8.9-.3a.4.4,0,0,0,.1.3c1.5.7.8,1.8,1.6,3.1s.1.1.1.2A16.8,16.8,0,0,0,26.3,27h.2l1.7-.5h.1a13.6,13.6,0,0,1-2.3,8c0,.1-.1.2-.2.3l-.2.3h0c-.1,0-.1.1-.2.2h0l-2-1.7-.4-.3v.2h-.8a14.7,14.7,0,0,0-3,.8H18a12.5,12.5,0,0,0-3.2-.8h-.6L14,33l-.4.5-1.7,1.7h0c-.1-.1-.1-.2-.2-.2h0c0-.1-.1-.1-.1-.2h-.1c-.1-.1-.2-.2-.2-.3A8.4,8.4,0,0,1,10,31.9Z" style="fill:#333"/><path d="M11.3,34.4c.8-1,2.4-2,5.3-2.6L15,33.6h-.1l-1.2,1.4-.3.2-.6.8h-.2a.1.1,0,0,1-.1-.1h-.1a.1.1,0,0,1-.1-.1h-.1l-.2-.2h-.1c-.1-.1-.1-.2-.2-.2h0l-.2-.3C11.4,34.6,11.3,34.5,11.3,34.4Z" style="fill:#616161;opacity:0.2;mix-blend-mode:color-burn"/><path d="M10.9,37.4v-.6a4.8,4.8,0,0,1,.8-1.8h0a5.9,5.9,0,0,1,2-1.8h.2a6.7,6.7,0,0,1,1.9-1H16l.4-.2h.2L14.9,35l-.6,1.1v.3l-2.1,4.1A5.4,5.4,0,0,1,10.9,37.4Z" style="fill:#ebebeb"/><path d="M20.7,31.8a11.3,11.3,0,0,1,2.7,1.3c.1,0,.2,0,.2.1a5.5,5.5,0,0,1,2.8,3.6v.6a5.6,5.6,0,0,1-1.1,3.1Z" style="fill:#ebebeb"/><polygon points="24.5 35.3 24 34.6 24.2 35.4 24.5 35.3" style="fill:#333"/><polygon points="22.7 33.5 22.1 32.8 22.4 33.7 22.7 33.5" style="fill:#333"/><polygon points="25.5 39.6 25 38.9 25.2 39.8 25.5 39.6" style="fill:#333"/><polygon points="24.8 38.1 24.3 37.4 24.5 38.2 24.8 38.1" style="fill:#333"/><polygon points="24.1 36.6 23.5 35.9 23.8 36.7 24.1 36.6" style="fill:#333"/><polygon points="23.4 35.1 22.8 34.3 23.1 35.2 23.4 35.1" style="fill:#333"/><path d="M23.4,33.1c.1,0,.2,0,.2.1l.3.4h-.3Z" style="fill:#333"/><polygon points="26 38.3 25.4 37.6 25.7 38.5 26 38.3" style="fill:#333"/><polygon points="25.3 36.8 24.7 36.1 25 37 25.3 36.8" style="fill:#333"/><path d="M26.1,36.5l.3.3v.6h0Z" style="fill:#333"/><polygon points="25.7 35.4 25.1 34.7 25.4 35.6 25.7 35.4" style="fill:#333"/><polygon points="12.8 35.3 13.3 34.6 13.1 35.4 12.8 35.3" style="fill:#333"/><polygon points="14.7 33.5 15.2 32.8 15 33.7 14.7 33.5" style="fill:#333"/><polygon points="11.8 39.6 12.3 38.9 12.1 39.8 11.8 39.6" style="fill:#333"/><polygon points="12.5 38.1 13.1 37.4 12.8 38.2 12.5 38.1" style="fill:#333"/><polygon points="13.2 36.6 13.8 35.9 13.5 36.7 13.2 36.6" style="fill:#333"/><polygon points="13.9 35.1 14.5 34.3 14.2 35.2 13.9 35.1" style="fill:#333"/><path d="M13.9,33.4l-.5.4.3.2Z" style="fill:#333"/><polygon points="11.3 38.3 11.9 37.6 11.6 38.5 11.3 38.3" style="fill:#333"/><polygon points="12.1 36.8 12.6 36.1 12.4 37 12.1 36.8" style="fill:#333"/><path d="M10.9,37.4v-.6l.3-.3-.3.9Z" style="fill:#333"/><polygon points="11.7 35.4 12.2 34.7 12 35.6 11.7 35.4" style="fill:#333"/><path d="M19.3,39.4l.3-.6h1.9A4,4,0,0,0,19.3,39.4Z" style="fill:#333"/><path d="M15.9,38.8h1.8l.4.6A4.3,4.3,0,0,0,15.9,38.8Z" style="fill:#333"/><path d="M15.8,38.8h0Z" style="fill:#333"/><path d="M10.7,42.3a4.1,4.1,0,0,1,4.1-4.1,12.8,12.8,0,0,1,3.2.9h1.1a14.9,14.9,0,0,1,3-.9A3.8,3.8,0,0,1,25.9,42a3.7,3.7,0,0,1-3.5,3.8,3.5,3.5,0,0,1,.3,1.4c0,.2-.1.4-.1.6h0c0,.2-.1.4-.1.6h0a4.1,4.1,0,0,1-7.7.1c-.1-.2-.1-.4-.2-.6v-.7a2.8,2.8,0,0,1,.1-.9A4,4,0,0,1,10.7,42.3Z" style="fill:#333"/><path d="M21.4,28.5l.9-.3a.4.4,0,0,0,.1.3c1.6.7.8,1.8,1.7,3.3A16.8,16.8,0,0,0,26.3,27h.2c.4,2.1-2.6,5.5-2.6,5.5S22.5,29,21.4,28.5Z" style="fill:#616161;opacity:0.2;mix-blend-mode:color-burn"/><path d="M12.5,31.1h.3l.4.7h0a1.6,1.6,0,0,0,.4-1l.7-.2a12,12,0,0,0-.8,1.8A8,8,0,0,1,12.5,31.1Z" style="fill:#616161;opacity:0.2;mix-blend-mode:color-burn"/><path d="M16.9,37.6l.8-.6.9-.2h.1l.9.2.8.6-.3.4-1.4-.6h-.1a4.1,4.1,0,0,0-1.3.8Z" style="fill:#616161;opacity:0.2;mix-blend-mode:color-burn"/><path d="M17.6,46.4a1.2,1.2,0,0,0,1.1-.7,1.2,1.2,0,0,0,1,.7c1.2-.6,2-2.3,2-4.3a6.6,6.6,0,0,0-1-3.6h-.1a3.1,3.1,0,0,0-1.1-.9l-.8-.2h0l-.8.2a2.7,2.7,0,0,0-1.2.9h0a5.9,5.9,0,0,0-1.1,3.6C15.6,44.1,16.4,45.8,17.6,46.4Z" style="fill:#fdd8ab"/><path d="M16.5,46.8c0,.5,2.2,2.6,2.2,2.6s2.1-2.2,2.1-2.6a1.3,1.3,0,0,0-1.3-1.3H17.8A1.3,1.3,0,0,0,16.5,46.8Z" style="fill:#333"/><path d="M21,42.3h0c0-.2-.3-.4-.7-.4s-.6.2-.6.4H21Z" style="fill:#333"/><path d="M16.4,42.3h-.1c0-.2.3-.4.7-.4s.6.2.6.4H16.4Z" style="fill:#333"/><path d="M17.8,39.1h1.7a1.2,1.2,0,0,0-.8-.4h0A1.3,1.3,0,0,0,17.8,39.1Z" style="fill:#454545"/><path d="M18.7,39.2c.3.4.9-.2.9-.2H17.7S18.3,39.6,18.7,39.2Z" style="fill:#333"/><polygon points="18.7 41.6 18.7 41.6 18.7 41.6 18.7 41.6 18.7 41.6 19.2 40 18.7 40 18.7 40 18.2 40 18.7 41.6" style="fill:#616161;opacity:0.2;mix-blend-mode:color-burn"/><polygon points="17.7 43.3 16.4 43.2 16.4 43.2 16.4 43.2 15.9 42.6 16.4 43.1 16.4 43.1 17.7 43.1 17.7 43.3" style="fill:#333"/><polygon points="19.5 43.1 20.8 43.1 20.8 43.1 21.3 42.6 20.8 43.2 20.8 43.2 20.8 43.2 19.5 43.3 19.5 43.1" style="fill:#333"/><path d="M17.7,50.9c-.1,0-.1.1-.1.2a1.2,1.2,0,0,0,1.1,1,1.1,1.1,0,0,0,1.1-1c0-.2,0-.3-.1-.4a1.1,1.1,0,0,0,1.1-1.1,1,1,0,0,0-1.1-1.1l-.9.3.9-1.5h-2l.8,1.4-.9-.2a1.2,1.2,0,0,0-1.1,1.2A1.4,1.4,0,0,0,17.7,50.9Z" style="fill:#616161;opacity:0.2;mix-blend-mode:color-burn"/><path d="M17.7,50.8V51a1.1,1.1,0,1,0,2.1.1c0-.2-.1-.3-.1-.4a1,1,0,1,0-.1-1.9l-.7.2.6-1.1H17.9l.7,1.1-.8-.2a1,1,0,0,0-1.1,1A1.1,1.1,0,0,0,17.7,50.8Z" style="fill:#ffd675"/><path d="M18.7,48.8l-.4-.7h.9Zm.9.2a.8.8,0,0,1,.1,1.5h-.3v.6a.8.8,0,0,1-.8.8.5.5,0,0,1-.5-.3.6.6,0,0,1-.3-.6h0v-.3h-.3a.8.8,0,0,1-.5-1.4.8.8,0,0,1,.6-.2l.7.2H19Z" style="fill:#616161;opacity:0.2;mix-blend-mode:color-burn"/><path d="M17.8,46.4h0Z" style="fill:#616161;opacity:0.2;mix-blend-mode:color-burn"/><path d="M18.2,46.2Z" style="fill:#616161;opacity:0.2;mix-blend-mode:color-burn"/><path d="M18.1,46.3h0Z" style="fill:#616161;opacity:0.2;mix-blend-mode:color-burn"/><path d="M17.9,46.3h0Z" style="fill:#616161;opacity:0.2;mix-blend-mode:color-burn"/><path d="M11.3,34.4c0,.1.1.2.2.3h.1c0,.1.1.1.1.2h0a4.8,4.8,0,0,0-.8,1.8v.6a5.2,5.2,0,0,0,.7,2.4,3.7,3.7,0,0,0-.9,2.5,4,4,0,0,0,4,4,2.8,2.8,0,0,0-.1.9v.7c.1.2.1.4.2.6a4,4,0,0,0,2.8,2.6,1.2,1.2,0,0,0,1.1,1h0V29.3h0l-4.4,1.3h0l-.7.2h0a1.6,1.6,0,0,1-.3.8v.2h0l-.4-.7h-.3l-2.5.8A8.4,8.4,0,0,0,11.3,34.4Z" style="fill:#616161;opacity:0.2;mix-blend-mode:color-burn"/><path d="M7.2,11.1v-.3a1.1,1.1,0,1,0-2.2,0,.6.6,0,0,0,.1.4,1,1,0,0,0-1,1,1.1,1.1,0,0,0,1,1.1L6,13l-.8,1.3H7L6.3,13l.9.3a1.1,1.1,0,1,0,0-2.2Z" style="fill:#333"/><path d="M7.2,11.1v-.3A1.1,1.1,0,0,0,6.1,9.7h0v4.6H7L6.3,13l.9.3a1.1,1.1,0,1,0,0-2.2Z" style="fill:#616161;opacity:0.2;mix-blend-mode:color-burn"/><path d="M33.3,44.2v.3a1.1,1.1,0,0,0,2.2,0,.6.6,0,0,0-.1-.4,1,1,0,0,0,1-1A1.1,1.1,0,0,0,35.3,42l-.8.3.7-1.2H33.5l.7,1.2-.9-.3a1.1,1.1,0,1,0,0,2.2Z" style="fill:#333"/><path d="M33.3,44.2v.3a1.1,1.1,0,0,0,1.1,1.1h0V41.1h-.9l.7,1.2-.9-.3a1.1,1.1,0,1,0,0,2.2Z" style="fill:#616161;opacity:0.2;mix-blend-mode:color-burn"/></g></g></svg>