<svg xmlns="http://www.w3.org/2000/svg" viewBox="0 0 39.8 55.7"><g style="isolation:isolate"><g id="f975830a-7fb4-4f40-a82a-aa3020a01903" data-name="Layer 1"><path d="M4.4,55.7A4.2,4.2,0,0,1,.1,51.5V4.2A4.2,4.2,0,0,1,4.2,0H35.5a4.3,4.3,0,0,1,4.3,4.2V51.5a4.2,4.2,0,0,1-4.3,4.2Z" style="fill:#c9c9c9"/><path d="M4.8,55.6A4.1,4.1,0,0,1,.6,51.4V4.2A4.1,4.1,0,0,1,4.8,0H35.6a4.2,4.2,0,0,1,4.2,4.2V51.4a4.2,4.2,0,0,1-4.2,4.2Z" style="fill:#fff"/><path d="M5.5,5.5v.2a.3.3,0,0,0-.1.2l-.5.6-.3.2c0,.1-.1.1-.1.2h.1v.3h.2l.2-.2h0l-.3.4c-.3.2-.5.4-.7.4s-.3-.2-.4-.7,0-.6-.1-.7H2a.1.1,0,0,1-.1-.1.9.9,0,0,1,.3-.5L3,5l.4-.4.3-.3.4-.5.3-.2h0V5.8h.7l.3-.3h.1Zm-2,.3V5.5h0a.3.3,0,0,0-.1-.2l-.3.3-.2.3h.6Z" style="fill:#333"/><path d="M35.1,50.6c0-.1,0-.1.1-.2h.1a2.5,2.5,0,0,1,.5-.7l.3-.2h0v-.3c0-.1,0-.2-.1-.2h-.1c-.1.1-.2.1-.2.2a.1.1,0,0,0-.1-.1c0-.1.2-.2.4-.4a.9.9,0,0,1,.7-.4q.3,0,.3.6c.1.4.1.7.2.7h1.4l-.2.5-.8,1c-.2.1-.3.3-.4.4s-.1.2-.3.3l-.4.5c-.1.2-.2.2-.3.2h-.1V50.4a.1.1,0,0,0-.1-.1h-.1l-.4.2-.3.2h-.1Zm2-.2v.2h0V51l.4-.4c0-.1.1-.1.2-.3h-.6Z" style="fill:#333"/><path d="M29.7,8.3a.9.9,0,0,0,.1-.5,2.3,2.3,0,0,0-4.6,0,2.2,2.2,0,0,0,.1.8,2.2,2.2,0,0,0,.2,4.3,5.5,5.5,0,0,0,1.7-.5L25.7,15h3.6l-1.5-2.6a6.7,6.7,0,0,0,1.9.5A2.3,2.3,0,0,0,32,10.6,2.3,2.3,0,0,0,29.7,8.3Z" style="fill:#333"/><path d="M29.7,8.3a.9.9,0,0,0,.1-.5,2.3,2.3,0,0,0-2.3-2.3h0V15h1.8l-1.5-2.6a6.7,6.7,0,0,0,1.9.5A2.3,2.3,0,0,0,32,10.6,2.3,2.3,0,0,0,29.7,8.3Z" style="fill:#616161;opacity:0.2;mix-blend-mode:color-burn"/><path d="M29.7,47.4a1.3,1.3,0,0,1,.1.6,2.3,2.3,0,0,1-4.6,0,1.9,1.9,0,0,1,.1-.8,2.3,2.3,0,0,1-2-2.2,2.2,2.2,0,0,1,2.2-2.2l1.7.5-1.5-2.5h3.6l-1.5,2.5a6.7,6.7,0,0,1,1.9-.5,2.3,2.3,0,1,1,0,4.6Z" style="fill:#333"/><path d="M29.7,47.4a1.3,1.3,0,0,1,.1.6,2.3,2.3,0,0,1-2.3,2.3h0V40.8h1.8l-1.5,2.5a6.7,6.7,0,0,1,1.9-.5,2.3,2.3,0,1,1,0,4.6Z" style="fill:#616161;opacity:0.2;mix-blend-mode:color-burn"/><path d="M10.6,8.3V7.8a2.3,2.3,0,1,1,4.6,0,2.2,2.2,0,0,1-.1.8,2.2,2.2,0,0,1-.2,4.3,4.8,4.8,0,0,1-1.7-.5L14.7,15H11.1l1.5-2.6a6.7,6.7,0,0,1-1.9.5,2.3,2.3,0,0,1-2.3-2.3A2.3,2.3,0,0,1,10.6,8.3Z" style="fill:#333"/><path d="M10.6,8.3V7.8a2.3,2.3,0,0,1,2.3-2.3h0V15H11.1l1.5-2.6a6.7,6.7,0,0,1-1.9.5,2.3,2.3,0,0,1-2.3-2.3A2.3,2.3,0,0,1,10.6,8.3Z" style="fill:#616161;opacity:0.2;mix-blend-mode:color-burn"/><path d="M10.6,47.4V48a2.3,2.3,0,0,0,4.6,0,1.9,1.9,0,0,0-.1-.8,2.3,2.3,0,0,0,2-2.2,2.2,2.2,0,0,0-2.2-2.2l-1.7.5,1.5-2.5H11.1l1.5,2.5a6.7,6.7,0,0,0-1.9-.5,2.3,2.3,0,0,0-.1,4.6Z" style="fill:#333"/><path d="M10.6,47.4V48a2.3,2.3,0,0,0,2.3,2.3h0V40.8H11.1l1.5,2.5a6.7,6.7,0,0,0-1.9-.5,2.3,2.3,0,0,0-.1,4.6Z" style="fill:#616161;opacity:0.2;mix-blend-mode:color-burn"/><path d="M4.2,10.6h0a.5.5,0,0,0-.5-.5.5.5,0,0,0-.5.5v.2a.5.5,0,0,0-.5.5.6.6,0,0,0,.5.5l.4-.2-.3.6h.8l-.3-.6.4.2a.6.6,0,0,0,.5-.6A.5.5,0,0,0,4.2,10.6Z" style="fill:#333"/><path d="M4.2,10.6h0a.5.5,0,0,0-.5-.5h0v2.1h.4l-.3-.6.4.2a.6.6,0,0,0,.5-.6A.5.5,0,0,0,4.2,10.6Z" style="fill:#616161;opacity:0.2;mix-blend-mode:color-burn"/><path d="M37.3,45.6v.2a.5.5,0,0,1-.5.5.6.6,0,0,1-.6-.5c0-.1,0-.2.1-.2a.5.5,0,0,1,0-1h.4l-.3-.6h.8l-.4.6h.5a.5.5,0,0,1,0,1Z" style="fill:#333"/><path d="M37.3,45.6v.2a.5.5,0,0,1-.5.5h0V44.1h.4l-.4.6h.5a.5.5,0,0,1,0,1Z" style="fill:#616161;opacity:0.2;mix-blend-mode:color-burn"/></g></g></svg>