<svg xmlns="http://www.w3.org/2000/svg" viewBox="0 0 39.8 55.7"><g style="isolation:isolate"><g id="b95d92ed-4a55-460f-9b42-fe136dc9aa91" data-name="Layer 1"><path d="M4.4,55.7A4.2,4.2,0,0,1,.1,51.5V4.2A4.2,4.2,0,0,1,4.3,0H35.5a4.2,4.2,0,0,1,4.3,4.2V51.5a4.2,4.2,0,0,1-4.2,4.2Z" style="fill:#c9c9c9"/><path d="M4.8,55.6A4.2,4.2,0,0,1,.6,51.4V4.2A4.2,4.2,0,0,1,4.8,0H35.6a4.2,4.2,0,0,1,4.2,4.2V51.4a4.2,4.2,0,0,1-4.2,4.2Z" style="fill:#fff"/><polygon points="27.7 4 31.8 9.3 27.7 14.5 23.5 9.3 27.7 4" style="fill:#d66142"/><polygon points="27.7 4 27.7 4 23.5 9.3 27.7 14.5 27.7 14.5 27.7 4" style="fill:#616161;opacity:0.2;mix-blend-mode:color-burn"/><polygon points="19.9 22.6 24.1 27.8 19.9 33.1 15.8 27.8 19.9 22.6" style="fill:#d66142"/><polygon points="20 22.6 19.9 22.6 15.8 27.8 19.9 33.1 20 33 20 22.6" style="fill:#616161;opacity:0.2;mix-blend-mode:color-burn"/><polygon points="27.7 16.4 31.8 21.6 27.7 26.9 23.5 21.6 27.7 16.4" style="fill:#d66142"/><polygon points="27.7 16.4 27.7 16.4 23.5 21.6 27.7 26.9 27.7 26.8 27.7 16.4" style="fill:#616161;opacity:0.2;mix-blend-mode:color-burn"/><polygon points="12.7 28.7 8.6 34 12.7 39.2 16.9 34 12.7 28.7" style="fill:#d66142"/><polygon points="12.7 28.8 12.7 28.7 16.9 34 12.7 39.2 12.7 39.2 12.7 28.8" style="fill:#616161;opacity:0.2;mix-blend-mode:color-burn"/><polygon points="12.7 41.1 8.6 46.4 12.7 51.6 16.9 46.4 12.7 41.1" style="fill:#d66142"/><polygon points="12.7 41.2 12.7 41.1 16.9 46.4 12.7 51.6 12.7 51.6 12.7 41.2" style="fill:#616161;opacity:0.2;mix-blend-mode:color-burn"/><polygon points="12.7 4 16.9 9.3 12.7 14.5 8.6 9.3 12.7 4" style="fill:#d66142"/><polygon points="12.7 4 12.7 4 8.6 9.3 12.7 14.5 12.7 14.5 12.7 4" style="fill:#616161;opacity:0.2;mix-blend-mode:color-burn"/><polygon points="12.7 16.4 16.9 21.6 12.7 26.9 8.6 21.6 12.7 16.4" style="fill:#d66142"/><polygon points="12.7 16.4 12.7 16.4 8.6 21.6 12.7 26.9 12.7 26.8 12.7 16.4" style="fill:#616161;opacity:0.2;mix-blend-mode:color-burn"/><polygon points="27.7 28.7 23.5 34 27.7 39.2 31.8 34 27.7 28.7" style="fill:#d66142"/><polygon points="27.6 28.8 27.7 28.7 31.8 34 27.7 39.2 27.6 39.2 27.6 28.8" style="fill:#616161;opacity:0.2;mix-blend-mode:color-burn"/><polygon points="27.7 41.1 23.5 46.4 27.7 51.6 31.8 46.4 27.7 41.1" style="fill:#d66142"/><polygon points="27.6 41.2 27.7 41.1 31.8 46.4 27.7 51.6 27.6 51.6 27.6 41.2" style="fill:#616161;opacity:0.2;mix-blend-mode:color-burn"/><polygon points="3.9 12.7 2.7 11.1 3.9 9.6 5.1 11.1 3.9 12.7" style="fill:#d66142"/><polygon points="3.9 9.6 3.9 9.6 3.9 12.6 3.9 12.7 5.1 11.1 3.9 9.6" style="fill:#616161;opacity:0.2;mix-blend-mode:color-burn"/><path d="M5.5,5.1a4.4,4.4,0,0,1-.2,1,2.1,2.1,0,0,1-.4.7l-.7.8a1.6,1.6,0,0,1-.9.4H3.2l.6-.6a4.4,4.4,0,0,0,.6-1h0l-.5.2H3.6A.6.6,0,0,1,3,6.3a1.3,1.3,0,0,1-.4-1c0-.4.2-.7.7-1.2a1.9,1.9,0,0,1,1-.5,1.2,1.2,0,0,1,.8.4A1.5,1.5,0,0,1,5.5,5.1Zm-.9.5a1.2,1.2,0,0,0-.4-.9.9.9,0,0,0-.6-.3H3.5v.2a1.1,1.1,0,0,0,.3.8.5.5,0,0,0,.5.3h.2A.3.3,0,0,0,4.6,5.6Z" style="fill:#333"/><path d="M35.1,51a2.9,2.9,0,0,1,.2-.9l.4-.8.8-.7a1.4,1.4,0,0,1,.9-.5h.1l-.7.5-.6,1h.1l.4-.2h.4c.2,0,.4.2.6.4a1.4,1.4,0,0,1,.3.9,1.5,1.5,0,0,1-.7,1.2c-.4.4-.7.6-1,.6a1.3,1.3,0,0,1-.7-.4A1.7,1.7,0,0,1,35.1,51Zm1-.5a1.2,1.2,0,0,0,.3.9.9.9,0,0,0,.6.3.1.1,0,0,0,.1-.1v-.2a1.4,1.4,0,0,0-.2-.7.7.7,0,0,0-.6-.4h-.1C36.1,50.4,36.1,50.4,36.1,50.5Z" style="fill:#333"/><polygon points="36.8 43.5 38 45 36.8 46.5 35.6 45 36.8 43.5" style="fill:#d66142"/><polygon points="36.8 43.5 36.8 43.5 35.6 45 36.8 46.5 36.8 46.5 36.8 43.5" style="fill:#616161;opacity:0.2;mix-blend-mode:color-burn"/></g></g></svg>