<svg xmlns="http://www.w3.org/2000/svg" viewBox="0 0 39.8 55.7"><g style="isolation:isolate"><g id="a4e8b8dd-d185-4694-9e68-f985ca0c5fdf" data-name="Layer 1"><path d="M4.4,55.7A4.4,4.4,0,0,1,.1,51.5V4.3A4.2,4.2,0,0,1,4.3.1H35.5a4.2,4.2,0,0,1,4.3,4.2V51.5a4.2,4.2,0,0,1-4.3,4.2Z" style="fill:#c9c9c9"/><path d="M4.8,55.5A4.1,4.1,0,0,1,.6,51.4V4.2A4.2,4.2,0,0,1,4.8,0H35.6a4.2,4.2,0,0,1,4.2,4.2V51.4a4.1,4.1,0,0,1-4.2,4.1Z" style="fill:#fff"/><path d="M35.6,54.7H4.8a3.3,3.3,0,0,1-3.3-3.3V4.3A4.2,4.2,0,0,1,3.6.9H34.7c3,.2,4.1,1.9,4.1,3.4V51.4A3.2,3.2,0,0,1,35.6,54.7ZM4,2.2A3,3,0,0,0,2.8,4.3V51.4a2,2,0,0,0,2,2H35.6a2,2,0,0,0,1.9-2V4.3c0-1.2-1.1-2-2.9-2.1Z" style="fill:#333"/><path d="M7.5,4,7,4.4a.7.7,0,0,1-.6.2H5l-.2.2H4.7c.2-.3.3-.5.5-.6a.8.8,0,0,1,.7-.2H7.5Zm0,3.5a1.4,1.4,0,0,1-.5,1,2.1,2.1,0,0,1-1.1.4l-.8-.2a.6.6,0,0,1-.3-.6.4.4,0,0,1,.1-.3.5.5,0,0,1,.4-.2h.3V8c0,.2-.1.3-.2.3l-.2.2h.8l.2-.3V4.8l.6-.2c.2,0,.3-.1.5-.3h.1Z" style="fill:#333"/><path d="M33,48.8a1.2,1.2,0,0,1,.5-1,2.1,2.1,0,0,1,1.2-.4l.7.2a.6.6,0,0,1,.3.6.4.4,0,0,1-.1.3.5.5,0,0,1-.4.2H35c-.1-.1-.2-.2-.2-.3a.5.5,0,0,1,.2-.4h-.6c-.1.1-.2.2-.2.3v3.5l-.6.2-.5.3H33Zm.1,3.5.4-.5h2.3a1,1,0,0,1-.5.6c-.1.2-.4.2-.7.2H33.1Z" style="fill:#333"/><polygon points="17.2 17.4 15.8 17.9 16.1 18.5 21.6 18.5 22 17.9 20.8 17.4 17.2 17.4" style="fill:#757575"/><rect x="17.2" y="15.7" width="3.6" height="3.73" style="fill:#ebb07a"/><path d="M20.8,16.4v.9a2.6,2.6,0,0,1-1.5.7h-.7a2.1,2.1,0,0,1-1.4-.7v-.9l.3.5V15.7h2.8v1.2Z" style="fill:#616161;opacity:0.2;mix-blend-mode:color-burn"/><path d="M19.3,7.2h-.7a3,3,0,0,0-3.2,2.7s.1,3.6.1,3.8,1.5,4,3.1,4h.7c1.6,0,2.9-2.4,3.2-4V9.9A3,3,0,0,0,19.3,7.2Z" style="fill:#ebb07a"/><path d="M19.8,17.9a1.2,1.2,0,0,0,1.3-1.3A6.9,6.9,0,0,0,19,14a7,7,0,0,0-2.2,2.6,1.3,1.3,0,0,0,1.3,1.3h0a.8.8,0,0,0,.7-.2h.4a.7.7,0,0,0,.6.2Z" style="fill:#333"/><path d="M19.8,16.3h-2V16c.2-.3,1-1.5,1.3-1.5s1.1,1.2,1.3,1.5l-.2.2c0,.1-.1.1-.3.1Z" style="fill:#ebb07a"/><path d="M16.9,11.5c0,.1-.1.2-.1.3a.6.6,0,0,0,1.2,0,.4.4,0,0,0-.1-.3Z" style="fill:#333"/><polygon points="19.2 11 19 11 18.7 11 18.4 13.4 19 14 19.5 13.4 19.2 11" style="fill:#616161;opacity:0.2;mix-blend-mode:color-burn"/><path d="M21,11.5a.4.4,0,0,1,.1.3c0,.3-.2.5-.6.5a.6.6,0,0,1-.6-.5c0-.1.1-.2.1-.3Z" style="fill:#333"/><g style="opacity:0.2;mix-blend-mode:color-burn"><rect x="18.3" y="15.2" width="1.3" height="0.32" style="fill:#616161"/></g><polygon points="19.9 10.2 21.7 10.5 19.9 10.7 19.9 10.2" style="fill:#333"/><polygon points="18.1 10.7 16.3 10.5 18.1 10.2 18.1 10.7" style="fill:#333"/><path d="M27.9,18.4l-1.4,1.3-.6,1.8,2.1-.4Z" style="fill:#757575"/><path d="M10.2,18.4l1.3,1.3.6,1.8-2-.4Z" style="fill:#757575"/><path d="M11,19.4l-.2.4-.4,1.4,2.4-.6Z" style="fill:#1c1c1c"/><polygon points="29.5 23.4 28.2 23.8 25.7 24.5 25.6 24.5 22.5 25.5 22.4 25.5 22.2 25.6 21.2 25.8 20.9 25.9 19.7 26.3 19.1 26.5 16.8 27.2 16.3 27.3 16.2 27.3 15.6 27.5 15.2 27.6 14.1 28 12.5 28.4 12.5 28 12.5 26.6 11.4 28.5 11.4 28.8 10.2 29.1 7.5 29.9 7.5 26.1 7.5 25.9 7.5 25.9 7.5 25.9 7.5 25.3 7.6 25.1 8.2 23.8 8.7 22.5 9.3 21.1 9.5 20.6 9.7 20 10.1 20 10.8 19.8 10.8 19.8 10.9 19.8 11 19.8 11 19.7 11.2 19.7 11.4 19.7 11.4 19.7 11.4 19.7 11.5 19.6 13.3 19.2 13.5 19.1 13.6 19.1 13.8 19.1 15.2 18.7 15.3 18.7 15.4 18.7 16 18.5 16.1 18.5 17.2 18.2 20.8 18.2 21.6 18.5 21.8 18.5 21.9 18.5 23.2 18.8 24.4 19.1 26.6 19.7 26.7 19.7 27.2 19.8 27.9 20 27.9 20 28.2 20 28.7 21.4 29.3 22.8 29.4 23.1 29.5 23.4" style="fill:#ababab"/><polygon points="23.2 18.8 19.5 22.6 19.3 22.8 18.7 23.4 18.7 23.4 17.6 24.4 17.6 24.5 15.8 26.3 15.2 26.9 15 27.1 14.7 27.4 14.1 28 12.5 28.4 12.5 28 14.2 26.3 14.4 26 14.6 25.8 15.2 25.3 15.4 25.1 15.6 24.9 15.6 24.8 17.8 22.7 17.8 22.7 17.9 22.6 17.9 22.6 18.5 22 18.7 21.8 21.9 18.5 23.2 18.8" style="fill:#fff;opacity:0.2"/><polygon points="27.9 20 25.6 22.2 22.4 25.4 22.4 25.5 22.2 25.6 21.2 25.8 20.9 25.9 19.7 26.3 19.1 26.5 16.8 27.2 16.3 27.3 16.2 27.3 16.3 27.3 16.6 26.9 18.2 25.3 18.4 25.1 19.3 24.3 19.4 24.2 20.2 23.3 24.4 19.1 26.6 19.7 26.7 19.7 27.2 19.8 27.9 20" style="fill:#fff;opacity:0.2"/><path d="M22.5,25.5h-.3l-1,.2h-.3l-1.2.4-.6.2-2.3.7h-.6l-.6.2h-.4l-.2-.5L14.4,26l-1.6-3.5-.9-1.7v-.2h0l-.5-.9h.1l1.8-.4h.5l1.4-.4h.2l3.3,3.1a6,6,0,0,0,.8.8l.7.7,2.2,2.1A.1.1,0,0,0,22.5,25.5Z" style="fill:#616161;opacity:0.2;mix-blend-mode:color-burn"/><path d="M19.1,26.5l-2.3.7h-.6l-.6.2-.4-.6-.6-1.1-1.8-3.3-.7-1.2-.3-.5-.6-1.1-.2-.3h.2l3.8-1c0,.1.1.2.2.3L18.5,22a6,6,0,0,1,.8.8,2.3,2.3,0,0,1,.7.7l2.2,2.1-1,.2h-.3l-1.2.4Z" style="fill:#333"/><polygon points="15.8 17.9 16 18.5 18.8 20.2 18.7 18.2 15.8 17.9" style="fill:#ebebeb"/><polygon points="22 17.9 21.8 18.5 19 20.2 19.1 18.2 22 17.9" style="fill:#ebebeb"/><path d="M18.7,23.4l.5.6-.5-.6-.8-.8-.4-.5.4.5Z" style="fill:#616161;opacity:0.2;mix-blend-mode:color-burn"/><path d="M19.4,24.2l1.8,1.6h-.3l-1.6-1.6-.7-.8h-.1l-.7-.7-1.4-1.5h0l1.4,1.5.7.7c.1,0,.1,0,.1.1Z" style="fill:#616161;opacity:0.2;mix-blend-mode:color-burn"/><polygon points="16.8 27.2 16.3 27.3 16.3 27.3 15.8 26.3 15.2 25.3 14.6 24.1 13.9 22.8 15.4 25.1 16 26 16.6 26.9 16.8 27.2" style="fill:#616161;opacity:0.2;mix-blend-mode:color-burn"/><polygon points="19.7 26.3 19.1 26.5 18.6 25.8 18.2 25.3 17.6 24.5 17.3 24.1 17.6 24.4 18.4 25.1 19.7 26.3" style="fill:#616161;opacity:0.2;mix-blend-mode:color-burn"/><polygon points="12.5 26.6 11.4 28.5 11.4 28.8 10.2 29.1 9.4 28.9 10.6 28.4 12.5 26.6" style="fill:#616161;opacity:0.2;mix-blend-mode:color-burn"/><polygon points="29.5 23.4 28.2 23.8 25.7 24.5 25.6 24.5 25.4 22.7 25.6 22.2 25.9 21.5 26.7 19.7 27.2 19.8 27.9 20 27.9 20 28.2 20 28.7 21.4 29.3 22.8 29.4 23.1 29.5 23.4" style="fill:#616161;opacity:0.2;mix-blend-mode:color-burn"/><path d="M28.2,23.8l-2.5.7V22.8l.6-1.3h.1l.8-1.6.7-1.4,1.8,2.2a2.4,2.4,0,0,1,.1.7c.1.5.2,1.2.4,1.9h-.7Z" style="fill:#ababab"/><path d="M12.5,22.9V26l-4.2-.7v-.4l1.2-4.3.2-.6,1.1-.2H11Z" style="fill:#616161;opacity:0.2;mix-blend-mode:color-burn"/><path d="M12.5,26.3l-4-.3h-1a5.4,5.4,0,0,0,.1-.8c.2-1.5.7-4.5.7-4.5s1.9-2.2,1.9-2.2h0l.6,1.4,1.5,3Z" style="fill:#ababab"/><path d="M30.2,23.2h-1l-1,.3.5-2.4.2-.6-1-2.4c.1.1,1.7,2.2,1.8,2.2a2.4,2.4,0,0,1,.1.7h.1a1.1,1.1,0,0,0,.1.5v.2h0c0,.2,0,.3.1.4h0A.9.9,0,0,0,30.2,23.2Z" style="fill:#fff;opacity:0.2"/><path d="M10.2,18.4l-1,2.4v.3l.8,3.5L8.5,26l-.3.3s-.6,2.1-.6,2.2H7.5V25.9h0v-.8h0c.2-1,.4-2.7.6-3.7a4.5,4.5,0,0,0,.1-.8c.1,0,1.9-2.2,1.9-2.2Z" style="fill:#fff;opacity:0.2"/><path d="M22.2,7.2l-1.4-.9A9.8,9.8,0,0,0,19,4.9a11,11,0,0,0-2,1.5l-1.2.8-.9,1.4.4,3.4.4.2V9.1s0-1.1,1-1.1a6.1,6.1,0,0,1,2.2.7A6.1,6.1,0,0,1,21.2,8c.9,0,1,1.1,1,1.1v3.1l.5-.2L23,8.6Z" style="fill:#333"/><path d="M8.8,23.4a.9.9,0,0,1-.7.9l-.2-.2v1H7.6c.2-1,.4-2.7.6-3.7h0A7.6,7.6,0,0,1,8.8,23.4Z" style="fill:#333"/><path d="M30.1,23.2h-.9a14.2,14.2,0,0,1,.6-2.1h.1a1.1,1.1,0,0,0,.1.5v.2h0c0,.2,0,.3.1.4h0Z" style="fill:#333"/><path d="M16.1,20.2c-.2-.4-2.6-1.3-2.6-1.3s-1,2.4-.8,2.8a1.2,1.2,0,0,0,1.6.6,1,1,0,0,0,.5-.4l-.3,1.4,1.7-.6-1.1-1c.2.1.4,0,.6,0A1.1,1.1,0,0,0,16.1,20.2Z" style="fill:#616161;opacity:0.2;mix-blend-mode:color-burn"/><path d="M16,20.2a10.1,10.1,0,0,0-2.4-1.1s-.8,2.3-.6,2.6a1,1,0,0,0,1.8.1v1.3l1.4-.7L15,21.7h.6A1,1,0,0,0,16,20.2Z" style="fill:#ffd675"/><path d="M15,22.1l.5.3-.5.2ZM13.9,22a.8.8,0,0,1-.7-.4c0-.2.3-1.2.5-2.1a7.3,7.3,0,0,1,2.1.9c0,.1.1.3,0,.5a.8.8,0,0,1-.4.4H15l-.5.3-.3.2Z" style="fill:#616161;opacity:0.2;mix-blend-mode:color-burn"/><path d="M30.2,23.2a.4.4,0,0,1-.1-.3v-.4a.4.4,0,0,1-.1-.3h0v-.2a1.1,1.1,0,0,1-.1-.5h-.1v-.7c-.1,0-1.7-2.1-1.8-2.2h0l-1.3,1.3-2.2-.6-1.2-.3-1.3-.3h-.1l.2-.6-1.1-.5a1.9,1.9,0,0,0,.2-.8h0a7.1,7.1,0,0,0,1.4-2.9V12.1h.2L23,8.6l-.8-1.4-1.4-.9A9.8,9.8,0,0,0,19,4.9h-.1V26.5h.2l.6-.2,1.2-.4h.3l1-.2h.3l3.1-1h.1l2.5-.7h0l1-.3h1Z" style="fill:#616161;opacity:0.2;mix-blend-mode:color-burn"/><polygon points="20.5 38.6 21.8 38 21.5 37.5 16 37.5 15.7 38 16.9 38.6 20.5 38.6" style="fill:#757575"/><rect x="16.9" y="36.6" width="3.6" height="3.73" style="fill:#ebb07a"/><path d="M16.9,39.6v-.9a2.1,2.1,0,0,1,1.4-.7H19a2.6,2.6,0,0,1,1.5.7v.9l-.3-.5v1.2H17.3V39.1Z" style="fill:#616161;opacity:0.2;mix-blend-mode:color-burn"/><path d="M18.3,48.8H19a3,3,0,0,0,3.2-2.7V42.3c-.3-1.6-1.6-4-3.2-4h-.7c-1.5,0-2.9,2.4-3.1,4s-.1,3.8-.1,3.8A3,3,0,0,0,18.3,48.8Z" style="fill:#ebb07a"/><path d="M17.8,38.1a1.3,1.3,0,0,0-1.3,1.3A6.3,6.3,0,0,0,18.7,42a7.8,7.8,0,0,0,2.1-2.6,1.3,1.3,0,0,0-1.3-1.3H17.8Z" style="fill:#333"/><path d="M17.8,39.7H18l.3.2h.8l.2-.2h.5c.1.1.1.1.1.2s-.9,1.5-1.2,1.5-1.1-1.2-1.3-1.5a.3.3,0,0,1,.1-.2Z" style="fill:#ebb07a"/><path d="M20.7,44.5a.4.4,0,0,0,.1-.3c0-.3-.2-.5-.6-.5a.5.5,0,0,0-.5.5.4.4,0,0,0,.1.3Z" style="fill:#333"/><polygon points="18.5 45 18.7 45 18.9 45 19.2 42.6 18.7 42 18.1 42.6 18.5 45" style="fill:#616161;opacity:0.2;mix-blend-mode:color-burn"/><path d="M16.6,44.5c0-.1-.1-.2-.1-.3a.6.6,0,0,1,1.2,0,.4.4,0,0,1-.1.3Z" style="fill:#333"/><g style="opacity:0.2;mix-blend-mode:color-burn"><rect x="18" y="40.5" width="1.3" height="0.32" style="fill:#616161"/></g><polygon points="17.8 45.7 16 45.5 17.8 45.3 17.8 45.7" style="fill:#333"/><polygon points="19.6 45.3 21.3 45.5 19.6 45.7 19.6 45.3" style="fill:#333"/><path d="M9.8,37.6l1.3-1.3.6-1.8-2,.4Z" style="fill:#757575"/><path d="M27.5,37.6l-1.4-1.3-.6-1.8,2,.4Z" style="fill:#757575"/><path d="M26.6,36.6l.2-.4.5-1.4-2.4.6Z" style="fill:#1c1c1c"/><polygon points="8.1 32.6 9.5 32.2 11.9 31.5 12.1 31.4 15.2 30.5 15.3 30.5 15.5 30.4 16.4 30.1 16.8 30 18 29.7 18.6 29.5 20.9 28.8 21.4 28.7 21.5 28.6 22.1 28.5 22.4 28.4 23.5 28 25.2 27.5 25.2 28 25.2 29.4 26.3 27.5 26.3 27.2 27.4 26.9 30.2 26.1 30.2 29.9 30.1 30.1 30.1 30.1 30.1 30.1 30.1 30.7 30 30.9 29.5 32.2 28.9 33.5 28.4 34.8 28.1 35.4 27.9 35.9 27.5 36 26.8 36.2 26.8 36.2 26.8 36.2 26.7 36.2 26.6 36.2 26.5 36.3 26.3 36.3 26.3 36.3 26.3 36.3 26.2 36.4 24.3 36.8 24.1 36.8 24.1 36.9 23.9 36.9 22.4 37.3 22.4 37.3 22.2 37.3 21.7 37.5 21.5 37.5 20.5 37.7 16.9 37.7 16 37.5 15.8 37.5 15.7 37.5 14.4 37.1 13.2 36.9 11.1 36.3 10.9 36.3 10.4 36.2 9.8 36 9.7 36 9.5 35.9 8.9 34.6 8.4 33.2 8.2 32.9 8.1 32.6" style="fill:#ababab"/><polygon points="14.4 37.1 18.2 33.4 18.3 33.2 19 32.6 19 32.6 20 31.5 20.1 31.5 21.9 29.7 22.4 29.1 22.7 28.9 23 28.6 23.5 28 25.2 27.5 25.2 28 23.5 29.7 23.2 30 23 30.2 22.4 30.7 22.3 30.9 22.1 31.1 22 31.2 19.9 33.3 19.8 33.3 19.8 33.4 19.8 33.4 19.2 34 19 34.2 15.7 37.5 14.4 37.1" style="fill:#fff;opacity:0.2"/><polygon points="9.8 36 12 33.8 15.2 30.5 15.3 30.5 15.5 30.4 16.4 30.1 16.8 30 18 29.7 18.6 29.5 20.9 28.8 21.4 28.7 21.5 28.6 21.4 28.7 21 29.1 19.4 30.7 19.3 30.8 18.4 31.7 18.3 31.8 17.4 32.7 13.2 36.9 11.1 36.3 10.9 36.3 10.4 36.2 9.8 36" style="fill:#fff;opacity:0.2"/><path d="M15.2,30.5h.3l.9-.3h.4l1.2-.3.6-.2,2.3-.7h1.5l.3.5.5,1.1,1.7,3.5.8,1.7h.1l.5.9h-.1l-1.9.4h-.4l-1.5.4h-.2L19,34.2l-.8-.8-.8-.7c-.7-.7-1.4-1.5-2.2-2.2Z" style="fill:#616161;opacity:0.2;mix-blend-mode:color-burn"/><path d="M18.6,29.5l2.3-.7h1.2l.3.6.6,1.1,1.9,3.3.7,1.2.2.4.7,1.2v.3h-.1l-3.8,1-.3-.3L19.2,34l-.9-.8-.7-.7-2.1-2.1.9-.3h.4l1.2-.3Z" style="fill:#333"/><polygon points="21.8 38 21.7 37.4 18.8 35.8 18.9 37.7 21.8 38" style="fill:#ebebeb"/><polygon points="15.7 38 15.8 37.4 18.7 35.8 18.6 37.7 15.7 38" style="fill:#ebebeb"/><path d="M19,32.6l-.5-.6.5.6.8.8.4.4-.4-.4Z" style="fill:#616161;opacity:0.2;mix-blend-mode:color-burn"/><path d="M18.3,31.8l-1.9-1.7h.4l1.6,1.7.7.8h.1l.7.8,1.4,1.5h0l-1.5-1.5a4.6,4.6,0,0,0-.7-.7H19A4.6,4.6,0,0,1,18.3,31.8Z" style="fill:#616161;opacity:0.2;mix-blend-mode:color-burn"/><polygon points="20.9 28.8 21.4 28.7 21.4 28.7 21.9 29.7 22.4 30.7 23.1 31.9 23.8 33.2 22.3 30.9 21.6 29.9 21 29.1 20.9 28.8" style="fill:#616161;opacity:0.2;mix-blend-mode:color-burn"/><polygon points="18 29.7 18.6 29.5 19 30.2 19.4 30.7 20.1 31.5 20.4 31.9 20 31.5 19.3 30.8 18 29.7" style="fill:#616161;opacity:0.2;mix-blend-mode:color-burn"/><polygon points="25.2 29.4 26.3 27.5 26.3 27.2 27.4 26.9 28.2 27 27.1 27.6 25.2 29.4" style="fill:#616161;opacity:0.2;mix-blend-mode:color-burn"/><polygon points="8.1 32.6 9.5 32.2 11.9 31.5 12.1 31.4 12.2 33.3 12 33.8 11.7 34.5 10.9 36.3 10.4 36.2 9.8 36 9.7 36 9.5 35.9 8.9 34.6 8.4 33.2 8.2 32.9 8.1 32.6" style="fill:#616161;opacity:0.2;mix-blend-mode:color-burn"/><path d="M9.5,32.2l2.4-.7v1.7l-.6,1.3h-.1l-.8,1.6-.6,1.4a20,20,0,0,0-1.9-2.2,3.2,3.2,0,0,0-.1-.7c-.1-.5-.2-1.2-.3-1.9l.6-.2h0Z" style="fill:#ababab"/><path d="M25.1,33.1V30l4.2.7a1,1,0,0,1-.1.4l-1.2,4.3-.2.5-1.1.3h-.2Z" style="fill:#616161;opacity:0.2;mix-blend-mode:color-burn"/><path d="M25.2,29.7l3.9.3h1a3.2,3.2,0,0,1-.1.8c-.2,1.5-.6,4.5-.7,4.5a19.2,19.2,0,0,0-1.8,2.2h0l-.7-1.3-1.5-3Z" style="fill:#ababab"/><path d="M7.5,32.8h0l.6-.2h.3l1.1-.3-.6,2.4v.6l1,2.4c-.2-.2-1.8-2.2-1.9-2.2a3.2,3.2,0,0,0-.1-.7h0a4.3,4.3,0,0,1-.1-.5v-.3H7.6v-.5h0A.9.9,0,0,1,7.5,32.8Z" style="fill:#fff;opacity:0.2"/><path d="M27.5,37.5l.9-2.3v-.4l-.9-3.4L29.1,30l.4-.3s.5-2.1.6-2.2h.1v2.6h0v.8h0c-.1,1-.4,2.7-.5,3.7l-.2.8c-.1,0-1.8,2.2-1.8,2.2h0Z" style="fill:#fff;opacity:0.2"/><path d="M15.5,48.8l1.3.9a13.6,13.6,0,0,0,1.9,1.4,16.3,16.3,0,0,0,2-1.5l1.2-.8.8-1.4L22.4,44l-.4-.2v3.1s-.1,1.1-1,1.1a5.4,5.4,0,0,1-2.2-.7,6.1,6.1,0,0,1-2.2.7c-.9,0-1-1.1-1-1.1V43.8L15,44l-.4,3.4Z" style="fill:#333"/><path d="M28.8,32.6c.1-.5.4-.9.7-.9l.3.2-.2-1H30c-.1,1-.4,2.7-.5,3.7h-.1A16.7,16.7,0,0,1,28.8,32.6Z" style="fill:#333"/><path d="M7.5,32.8l.6-.2h.3a8,8,0,0,1-.6,2h0a4.3,4.3,0,0,1-.1-.5v-.3H7.6v-.5h0C7.6,33.1,7.5,33,7.5,32.8Z" style="fill:#333"/><path d="M21.5,35.8c.2.4,2.7,1.3,2.7,1.3a13.6,13.6,0,0,0,.8-2.8,1.3,1.3,0,0,0-1.7-.6.8.8,0,0,0-.4.4l.3-1.4-1.7.6,1.1.9H22A1.2,1.2,0,0,0,21.5,35.8Z" style="fill:#616161;opacity:0.2;mix-blend-mode:color-burn"/><path d="M21.6,35.8a12.8,12.8,0,0,0,2.5,1.1,14.3,14.3,0,0,0,.6-2.6,1.1,1.1,0,0,0-1.4-.5.8.8,0,0,0-.4.4V32.9l-1.4.7,1,.7h-.5A1.1,1.1,0,0,0,21.6,35.8Z" style="fill:#ffd675"/><path d="M22.6,33.9l-.4-.3.5-.2Zm1.2.1a.8.8,0,0,1,.6.4,6.4,6.4,0,0,1-.5,2.1,6.3,6.3,0,0,1-2-.9.8.8,0,0,1,.3-.9h.4l.6-.3.2-.2Z" style="fill:#616161;opacity:0.2;mix-blend-mode:color-burn"/><path d="M7.5,32.8V33a.9.9,0,0,1,.1.5v.3h.1v.3a4.3,4.3,0,0,0,.1.5h0a.4.4,0,0,0,.1.3v.4c.1,0,1.7,2,1.9,2.2h0l1.3-1.3,2.1.6,1.2.2,1.3.4h.1V38l1.1.6a1.1,1.1,0,0,0-.3.8h0a5.8,5.8,0,0,0-1.3,2.9v1.6H15l-.4,3.4.9,1.4,1.3.9a13.6,13.6,0,0,0,1.9,1.4h0V29.5h-.1l-.6.2-1.2.3h-.4l-.9.3h-.3l-3.1.9h-.2l-2.4.7h0l-1.1.3H8.1l-.6.2Z" style="fill:#616161;opacity:0.2;mix-blend-mode:color-burn"/><path d="M8.3,12.1c0-.5-2.2-2.6-2.2-2.6s-2.2,2.2-2.2,2.6a1.3,1.3,0,0,0,1.3,1.3l.7-.2-.8,1.4h2l-.8-1.4.6.2A1.3,1.3,0,0,0,8.3,12.1Z" style="fill:#333"/><path d="M8.3,12.1c0-.5-2.2-2.6-2.2-2.6h0v5.1h1l-.8-1.4.6.2A1.3,1.3,0,0,0,8.3,12.1Z" style="fill:#616161;opacity:0.2;mix-blend-mode:color-burn"/><path d="M32.4,44c0,.5,2.2,2.7,2.2,2.7s2.1-2.2,2.1-2.7a1.3,1.3,0,0,0-1.3-1.3l-.6.2.8-1.4h-2l.8,1.4-.7-.2A1.3,1.3,0,0,0,32.4,44Z" style="fill:#333"/><path d="M32.4,44c0,.5,2.2,2.7,2.2,2.7h0V41.5h-1l.8,1.4-.7-.2A1.3,1.3,0,0,0,32.4,44Z" style="fill:#616161;opacity:0.2;mix-blend-mode:color-burn"/></g></g></svg>