<svg xmlns="http://www.w3.org/2000/svg" viewBox="0 0 39.8 55.7"><g style="isolation:isolate"><g id="ec644580-b12a-407f-ad27-1ed1de90435d" data-name="Layer 1"><path d="M4.4,55.7A4.2,4.2,0,0,1,.1,51.5V4.2A4.2,4.2,0,0,1,4.2,0H35.5a4.3,4.3,0,0,1,4.3,4.2V51.5a4.2,4.2,0,0,1-4.3,4.2Z" style="fill:#c9c9c9"/><path d="M4.8,55.6A4.1,4.1,0,0,1,.6,51.4V4.2A4.1,4.1,0,0,1,4.8,0H35.6a4.2,4.2,0,0,1,4.2,4.2V51.4a4.2,4.2,0,0,1-4.2,4.2Z" style="fill:#fff"/><path d="M5.5,3.6,5.2,4c-.2.2-.3.3-.5.3H4.3c-.3,0-.4.1-.4.2s.1.2.2.3l.6.2.4.4a.9.9,0,0,1,.1.5,1.4,1.4,0,0,1-.2.6.8.8,0,0,1-.2.4L4,7.9,3,8.1H2.4c-.2-.1-.3-.2-.3-.4L2.4,7l.4-.4c.1,0,.1,0,.1.2a.8.8,0,0,1,.1.4h.5A.6.6,0,0,0,4,7.2a.8.8,0,0,0,.2-.6A1.9,1.9,0,0,0,4,5.9a1.5,1.5,0,0,0-.7-.3H3.1V4.5H3V4.2q0-.2.3-.3l.5-.3H5.5Z" style="fill:#333"/><path d="M35.1,52.6l.3-.5.5-.3h.4c.2,0,.3-.1.3-.2s0-.2-.2-.2l-.5-.3-.4-.4a.6.6,0,0,1-.1-.4,1.5,1.5,0,0,1,.1-.7l.3-.4a2.9,2.9,0,0,1,.8-.8,1.6,1.6,0,0,1,1-.2h.5c.2.1.3.2.3.4a1,1,0,0,1-.2.6l-.5.4a.4.4,0,0,1-.1-.3V49h-.2a.5.5,0,0,0-.4-.2l-.4.2c-.2.1-.2.3-.2.6a1.4,1.4,0,0,0,.2.7.9.9,0,0,0,.6.3h.3a.9.9,0,0,1-.1.5v.4c0,.1,0,.1.1.2h.1c0,.1-.2.2-.3.4l-.5.2H35.3a.1.1,0,0,0-.1.1Z" style="fill:#333"/><path d="M29.7,8.3c0-.2.1-.3.1-.5a2.4,2.4,0,0,0-4.7,0,2.4,2.4,0,0,0,.2.8,2.1,2.1,0,0,0-2,2.1,2.1,2.1,0,0,0,2.2,2.2,5.5,5.5,0,0,0,1.7-.5L25.7,15h3.6l-1.5-2.6a6.7,6.7,0,0,0,1.9.5A2.3,2.3,0,0,0,32,10.6,2.3,2.3,0,0,0,29.7,8.3Z" style="fill:#333"/><path d="M29.7,8.3c0-.2.1-.3.1-.5a2.3,2.3,0,0,0-2.3-2.3h-.1V15h1.9l-1.5-2.6a6.7,6.7,0,0,0,1.9.5A2.3,2.3,0,0,0,32,10.6,2.3,2.3,0,0,0,29.7,8.3Z" style="fill:#616161;opacity:0.2;mix-blend-mode:color-burn"/><path d="M11.3,8.3a.9.9,0,0,1-.1-.5,2.3,2.3,0,0,1,4.6,0,2.2,2.2,0,0,1-.1.8,2.2,2.2,0,0,1-.2,4.3,5.5,5.5,0,0,1-1.7-.5L15.3,15H11.7l1.5-2.6a6.7,6.7,0,0,1-1.9.5A2.3,2.3,0,0,1,9,10.6,2.3,2.3,0,0,1,11.3,8.3Z" style="fill:#333"/><path d="M11.3,8.3a.9.9,0,0,1-.1-.5,2.3,2.3,0,0,1,2.3-2.3h0V15H11.7l1.5-2.6a6.7,6.7,0,0,1-1.9.5A2.3,2.3,0,0,1,9,10.6,2.3,2.3,0,0,1,11.3,8.3Z" style="fill:#616161;opacity:0.2;mix-blend-mode:color-burn"/><path d="M18,25.6v-.5a2.3,2.3,0,0,1,4.6,0,2.4,2.4,0,0,1-.2.8A2.2,2.2,0,0,1,24.5,28a2.2,2.2,0,0,1-2.2,2.2,4.8,4.8,0,0,1-1.7-.5L22,32.3H18.4l1.5-2.6a6.1,6.1,0,0,1-1.8.5,2.3,2.3,0,1,1-.1-4.6Z" style="fill:#333"/><path d="M18,25.6v-.5a2.3,2.3,0,0,1,2.3-2.3h0v9.5H18.4l1.5-2.6a6.1,6.1,0,0,1-1.8.5,2.3,2.3,0,1,1-.1-4.6Z" style="fill:#616161;opacity:0.2;mix-blend-mode:color-burn"/><path d="M29.7,47.4c0,.2.1.4.1.6a2.4,2.4,0,0,1-4.7,0,1.9,1.9,0,0,1,.2-.8,2.2,2.2,0,0,1-2-2.2,2.2,2.2,0,0,1,2.2-2.2l1.7.5-1.5-2.5h3.6l-1.5,2.5a6.7,6.7,0,0,1,1.9-.5,2.3,2.3,0,1,1,0,4.6Z" style="fill:#333"/><path d="M29.7,47.4c0,.2.1.4.1.6a2.4,2.4,0,0,1-2.3,2.3h-.1V40.8h1.9l-1.5,2.5a6.7,6.7,0,0,1,1.9-.5,2.3,2.3,0,1,1,0,4.6Z" style="fill:#616161;opacity:0.2;mix-blend-mode:color-burn"/><path d="M11.3,47.4a1.3,1.3,0,0,0-.1.6,2.3,2.3,0,0,0,4.6,0,1.9,1.9,0,0,0-.1-.8,2.3,2.3,0,0,0,2-2.2,2.2,2.2,0,0,0-2.2-2.2l-1.7.5,1.5-2.5H11.7l1.5,2.5a6.7,6.7,0,0,0-1.9-.5,2.3,2.3,0,0,0,0,4.6Z" style="fill:#333"/><path d="M11.3,47.4a1.3,1.3,0,0,0-.1.6,2.3,2.3,0,0,0,2.3,2.3h0V40.8H11.7l1.5,2.5a6.7,6.7,0,0,0-1.9-.5,2.3,2.3,0,0,0,0,4.6Z" style="fill:#616161;opacity:0.2;mix-blend-mode:color-burn"/><path d="M4.2,10.6h0a.5.5,0,0,0-.5-.5.5.5,0,0,0-.5.5v.2a.5.5,0,0,0-.5.5.6.6,0,0,0,.6.5l.3-.2-.3.6h.8l-.3-.6.4.2a.6.6,0,0,0,.5-.6A.5.5,0,0,0,4.2,10.6Z" style="fill:#333"/><path d="M4.2,10.6h0a.5.5,0,0,0-.5-.5h0v2.1h.4l-.3-.6.4.2a.6.6,0,0,0,.5-.6A.5.5,0,0,0,4.2,10.6Z" style="fill:#616161;opacity:0.2;mix-blend-mode:color-burn"/><path d="M37.3,45.6v.2a.5.5,0,0,1-.5.5.6.6,0,0,1-.6-.5v-.2a.5.5,0,0,1,0-1h.4l-.3-.6h.8l-.3.6h.4a.5.5,0,0,1,0,1Z" style="fill:#333"/><path d="M37.3,45.6v.2a.5.5,0,0,1-.5.5h0V44.1h.4l-.3.6h.4a.5.5,0,0,1,0,1Z" style="fill:#616161;opacity:0.2;mix-blend-mode:color-burn"/></g></g></svg>