<svg xmlns="http://www.w3.org/2000/svg" viewBox="0 0 39.8 55.7"><g style="isolation:isolate"><g id="aaf7cc7b-75f1-4f5d-a8eb-80ec315229de" data-name="Layer 1"><path d="M4.4,55.7A4.2,4.2,0,0,1,.1,51.5V4.2A4.2,4.2,0,0,1,4.3,0H35.5a4.2,4.2,0,0,1,4.3,4.2V51.5a4.2,4.2,0,0,1-4.3,4.2Z" style="fill:#c9c9c9"/><path d="M4.8,55.6A4.2,4.2,0,0,1,.6,51.4V4.2A4.2,4.2,0,0,1,4.8,0H35.6a4.2,4.2,0,0,1,4.2,4.2V51.4a4.2,4.2,0,0,1-4.2,4.2Z" style="fill:#fff"/><path d="M33.3,49.4a2.1,2.1,0,0,1,.3-.7c.3-.4.4-.5.6-.5H36c.1,0,.1,0,.1-.1h.2v.2l-.2.2c-.2.2-.4.6-.8,1l-.5.7-.2.6a.4.4,0,0,0,.1.3.4.4,0,0,0,.1.3l.3.2h.3l.5-.2.3-.3h.1c0,.1,0,.2-.2.4l-.5.5-.4.2-.5.2a1.1,1.1,0,0,1-.7-.3,1.3,1.3,0,0,1-.3-.8,1.9,1.9,0,0,1,.2-.7l.4-.5a2.5,2.5,0,0,1,.5-.7l.3-.4c0-.1,0-.1-.1-.1h-.5l-.8.2-.3.3h-.1Z" style="fill:#333"/><polygon points="6.2 12.8 4.9 11.1 6.2 9.5 7.5 11.1 6.2 12.8" style="fill:#d66142"/><polygon points="6.2 9.5 6.2 9.5 6.2 12.7 6.2 12.8 7.5 11.1 6.2 9.5" style="fill:#616161;opacity:0.2;mix-blend-mode:color-burn"/><path d="M7.8,6.8c0,.2-.2.4-.3.7s-.4.5-.6.5H4.8c0-.1.1-.1.2-.2l.7-1c.3-.3.4-.6.6-.7a2.5,2.5,0,0,0,.2-.7A.4.4,0,0,0,6.4,5V4.7L6,4.5H5.7l-.5.3-.3.2c-.1,0-.1,0-.1-.1s0-.2.2-.4L5.5,4l.4-.3h.5a1.1,1.1,0,0,1,.7.3.9.9,0,0,1,.3.7,2.4,2.4,0,0,1-.2.8c-.1,0-.2.2-.4.4a2.5,2.5,0,0,1-.5.7L6,7H7.3l.4-.3h.1Z" style="fill:#333"/><polygon points="34.9 43.4 36.2 45 34.9 46.6 33.6 45 34.9 43.4" style="fill:#d66142"/><polygon points="34.9 43.4 34.9 43.4 33.6 45 34.9 46.6 34.9 46.6 34.9 43.4" style="fill:#616161;opacity:0.2;mix-blend-mode:color-burn"/><polygon points="20.2 14 16 19.3 20.2 24.5 24.3 19.3 20.2 14" style="fill:#d66142"/><polygon points="20.2 14.1 20.2 14 24.3 19.3 20.2 24.5 20.2 24.5 20.2 14.1" style="fill:#616161;opacity:0.2;mix-blend-mode:color-burn"/><polygon points="20.2 32.2 24.3 37.4 20.2 42.6 16 37.4 20.2 32.2" style="fill:#d66142"/><polygon points="20.2 32.2 20.2 32.2 16 37.4 20.2 42.6 20.2 42.6 20.2 32.2" style="fill:#616161;opacity:0.2;mix-blend-mode:color-burn"/></g></g></svg>