<svg xmlns="http://www.w3.org/2000/svg" viewBox="0 0 39.8 55.7"><g style="isolation:isolate"><g id="ede6384e-0437-48cf-a039-1fc40d49c219" data-name="Layer 1"><path d="M4.4,55.7A4.2,4.2,0,0,1,.1,51.5V4.2A4.2,4.2,0,0,1,4.3,0H35.5a4.2,4.2,0,0,1,4.3,4.2V51.5a4.2,4.2,0,0,1-4.3,4.2Z" style="fill:#c9c9c9"/><path d="M4.8,55.6A4.2,4.2,0,0,1,.6,51.4V4.2A4.2,4.2,0,0,1,4.8,0H35.6a4.2,4.2,0,0,1,4.2,4.2V51.4a4.2,4.2,0,0,1-4.2,4.2Z" style="fill:#fff"/><path d="M33.3,50.3a1.3,1.3,0,0,1,.1-.6l.6-.8.6-.5a1.3,1.3,0,0,1,.8-.3l.6.2c.2.1.3.2.3.4l-.4.7c-.2.3-.4.4-.5.4h-.2l.2-.3v-.2c0-.1,0-.2-.1-.2l-.5-.2-.5.2a.8.8,0,0,0-.2.6.6.6,0,0,0,.1.4l.3.3h.5c.1,0,.2,0,.2.1l-.3.4-.5.7h1.3l.3-.2a.1.1,0,0,1,.1.1c0,.1,0,.1-.1.2l-.4.5-.4.3-.3.2H33.4c0-.2.2-.4.4-.6s.5-.5.5-.6l-.4-.2-.4-.2c0-.1-.1-.2-.2-.3Z" style="fill:#333"/><polygon points="6.2 12.8 4.9 11.1 6.2 9.5 7.5 11.1 6.2 12.8" style="fill:#d66142"/><polygon points="6.2 9.5 6.2 9.5 6.2 12.7 6.2 12.8 7.5 11.1 6.2 9.5" style="fill:#616161;opacity:0.2;mix-blend-mode:color-burn"/><path d="M7.8,5.9a.9.9,0,0,1-.1.5,2.1,2.1,0,0,1-.6.8l-.7.6L5.7,8H5.1a.5.5,0,0,1-.3-.5c0-.1.2-.3.4-.6s.4-.5.5-.5h.2l-.2.4V7h.1c.1.2.3.2.5.2a.6.6,0,0,0,.5-.2.8.8,0,0,0,.2-.5.9.9,0,0,0-.1-.5l-.3-.2H5.8c0-.1.1-.2.3-.5l.5-.6H5.5l-.2.2H4.9A.3.3,0,0,1,5,4.5l.4-.4a1.2,1.2,0,0,0,.4-.4H7.7l-.4.6c-.3.3-.5.4-.5.6h.4l.4.2.2.3Z" style="fill:#333"/><polygon points="34.9 43.4 36.2 45 34.9 46.6 33.6 45 34.9 43.4" style="fill:#d66142"/><polygon points="34.9 43.4 34.9 43.4 33.6 45 34.9 46.6 34.9 46.6 34.9 43.4" style="fill:#616161;opacity:0.2;mix-blend-mode:color-burn"/><polygon points="20.2 4.3 16 9.5 20.2 14.8 24.3 9.5 20.2 4.3" style="fill:#d66142"/><polygon points="20.2 4.3 20.2 4.3 24.3 9.5 20.2 14.8 20.2 14.7 20.2 4.3" style="fill:#616161;opacity:0.2;mix-blend-mode:color-burn"/><polygon points="20.2 22.8 16 28.1 20.2 33.3 24.3 28.1 20.2 22.8" style="fill:#d66142"/><polygon points="20.2 22.8 20.2 22.8 24.3 28.1 20.2 33.3 20.2 33.3 20.2 22.8" style="fill:#616161;opacity:0.2;mix-blend-mode:color-burn"/><polygon points="20.2 41.4 24.3 46.6 20.2 51.9 16 46.6 20.2 41.4" style="fill:#d66142"/><polygon points="20.2 41.4 20.2 41.4 16 46.6 20.2 51.9 20.2 51.8 20.2 41.4" style="fill:#616161;opacity:0.2;mix-blend-mode:color-burn"/></g></g></svg>