<svg xmlns="http://www.w3.org/2000/svg" viewBox="0 0 39.8 55.7"><g style="isolation:isolate"><g id="f596c5da-c0be-4519-baef-e0e4de0a6018" data-name="Layer 1"><path d="M4.4,55.7A4.2,4.2,0,0,1,.1,51.5V4.2A4.2,4.2,0,0,1,4.3,0H35.5a4.2,4.2,0,0,1,4.3,4.2V51.5a4.2,4.2,0,0,1-4.3,4.2Z" style="fill:#c9c9c9"/><path d="M4.8,55.6A4.2,4.2,0,0,1,.6,51.4V4.2A4.2,4.2,0,0,1,4.8,0H35.6a4.2,4.2,0,0,1,4.2,4.2V51.4a4.2,4.2,0,0,1-4.2,4.2Z" style="fill:#fff"/><path d="M5.5,3.6c-.1.1-.1.3-.2.4s-.3.5-.4.8l-.3.6a1.2,1.2,0,0,1-.2.5.9.9,0,0,1-.3.6,3.3,3.3,0,0,1-.3.6l-.5.5-.6.5H2.6l.3-.4.2-.4.3-.4.2-.4c.1-.4.3-.8.4-1.1l.3-.6c0-.1-.3-.2-.9-.2H2.7a2.9,2.9,0,0,1,.8-.8l.6-.2H5l.4-.2h.1Z" style="fill:#333"/><path d="M35.1,52.5a.5.5,0,0,0,.2-.4l.4-.7.3-.7.2-.5.3-.5a1.5,1.5,0,0,1,.4-.6l.5-.6.6-.4h0l-.3.4c-.1.1-.2.2-.2.3l-.2.4c-.1.2-.2.3-.2.5l-.5,1a6.4,6.4,0,0,0-.2.7c0,.1.3.1.8.1h.3c.1-.1.2-.1.2-.2h.2v.2c-.3.3-.5.6-.8.7a.7.7,0,0,1-.6.2H35.1Z" style="fill:#333"/><path d="M31.9,9.4c0-1-4.3-5.3-4.3-5.3s-4.3,4.4-4.3,5.3A2.6,2.6,0,0,0,25.9,12a2.3,2.3,0,0,0,1.4-.4l-1.7,2.8h4L28,11.6a1.8,1.8,0,0,0,1.3.4A2.6,2.6,0,0,0,31.9,9.4Z" style="fill:#333"/><path d="M31.9,9.4c0-1-4.3-5.3-4.3-5.3h-.1V14.4h2.1L28,11.6a1.8,1.8,0,0,0,1.3.4A2.6,2.6,0,0,0,31.9,9.4Z" style="fill:#616161;opacity:0.2;mix-blend-mode:color-burn"/><path d="M31.9,28.4c0-1-4.3-5.3-4.3-5.3s-4.3,4.5-4.3,5.3A2.6,2.6,0,0,0,25.9,31a2.3,2.3,0,0,0,1.4-.4l-1.7,2.8h4L28,30.7a2.5,2.5,0,0,0,1.3.3A2.6,2.6,0,0,0,31.9,28.4Z" style="fill:#333"/><path d="M31.9,28.4c0-1-4.3-5.3-4.3-5.3h-.1V33.4h2.1L28,30.7a2.5,2.5,0,0,0,1.3.3A2.6,2.6,0,0,0,31.9,28.4Z" style="fill:#616161;opacity:0.2;mix-blend-mode:color-burn"/><path d="M8.5,9.4c0-1,4.3-5.3,4.3-5.3s4.3,4.4,4.3,5.3A2.6,2.6,0,0,1,14.5,12a2.3,2.3,0,0,1-1.4-.4l1.7,2.8h-4l1.6-2.8a2,2,0,0,1-1.3.4A2.6,2.6,0,0,1,8.5,9.4Z" style="fill:#333"/><path d="M8.5,9.4c0-1,4.3-5.3,4.3-5.3h0V14.4h-2l1.6-2.8a2,2,0,0,1-1.3.4A2.6,2.6,0,0,1,8.5,9.4Z" style="fill:#616161;opacity:0.2;mix-blend-mode:color-burn"/><path d="M15.6,19.1c0-1,4.4-5.3,4.4-5.3s4.2,4.4,4.2,5.3a2.6,2.6,0,0,1-2.6,2.6,2.8,2.8,0,0,1-1.3-.4l1.6,2.8h-4l1.7-2.8a3.3,3.3,0,0,1-1.4.4A2.6,2.6,0,0,1,15.6,19.1Z" style="fill:#333"/><path d="M15.6,19.1c0-1,4.4-5.3,4.4-5.3h0V24.1H17.9l1.7-2.8a3.3,3.3,0,0,1-1.4.4A2.6,2.6,0,0,1,15.6,19.1Z" style="fill:#616161;opacity:0.2;mix-blend-mode:color-burn"/><path d="M8.5,27.5c0-1,4.3-5.3,4.3-5.3s4.3,4.4,4.3,5.3a2.6,2.6,0,0,1-2.6,2.6,2.3,2.3,0,0,1-1.4-.4l1.7,2.8h-4l1.6-2.8a2,2,0,0,1-1.3.4A2.6,2.6,0,0,1,8.5,27.5Z" style="fill:#333"/><path d="M8.5,27.5c0-1,4.3-5.3,4.3-5.3h0V32.5h-2l1.6-2.8a2,2,0,0,1-1.3.4A2.6,2.6,0,0,1,8.5,27.5Z" style="fill:#616161;opacity:0.2;mix-blend-mode:color-burn"/><path d="M31.9,46.4c0,1-4.4,5.3-4.4,5.3s-4.2-4.4-4.2-5.2a2.6,2.6,0,0,1,2.6-2.7,2.8,2.8,0,0,1,1.3.4l-1.6-2.8h4l-1.7,2.8a3.3,3.3,0,0,1,1.4-.4A2.6,2.6,0,0,1,31.9,46.4Z" style="fill:#333"/><path d="M31.9,46.4c0,1-4.4,5.3-4.4,5.3h0V41.4h2.1l-1.7,2.8a3.3,3.3,0,0,1,1.4-.4A2.6,2.6,0,0,1,31.9,46.4Z" style="fill:#616161;opacity:0.2;mix-blend-mode:color-burn"/><path d="M8.5,46.4c-.1,1,4.3,5.3,4.3,5.3s4.3-4.4,4.3-5.2a2.7,2.7,0,0,0-2.6-2.7,3.3,3.3,0,0,0-1.4.4l1.7-2.8h-4l1.6,2.8a2.8,2.8,0,0,0-1.3-.4A2.6,2.6,0,0,0,8.5,46.4Z" style="fill:#333"/><path d="M8.5,46.4c-.1,1,4.3,5.3,4.3,5.3h0V41.4h-2l1.6,2.8a2.8,2.8,0,0,0-1.3-.4A2.6,2.6,0,0,0,8.5,46.4Z" style="fill:#616161;opacity:0.2;mix-blend-mode:color-burn"/><path d="M5.1,11.3C5.1,11,4,9.9,4,9.9a8.7,8.7,0,0,0-1.2,1.4.7.7,0,0,0,.7.7h.4l-.5.7H4.5l-.4-.7h.3A.7.7,0,0,0,5.1,11.3Z" style="fill:#333"/><path d="M5.1,11.3C5.1,11,4,9.9,4,9.9H4v2.7h.5l-.4-.7h.3A.7.7,0,0,0,5.1,11.3Z" style="fill:#616161;opacity:0.2;mix-blend-mode:color-burn"/><path d="M35.7,45.4c0,.3,1.2,1.4,1.2,1.4A8.5,8.5,0,0,0,38,45.4a.7.7,0,0,0-.7-.7H37l.4-.7h-1l.4.7h-.4A.7.7,0,0,0,35.7,45.4Z" style="fill:#333"/><path d="M35.7,45.4c0,.3,1.2,1.4,1.2,1.4h0V44.1h-.5l.4.7h-.4A.7.7,0,0,0,35.7,45.4Z" style="fill:#616161;opacity:0.2;mix-blend-mode:color-burn"/></g></g></svg>