<svg xmlns="http://www.w3.org/2000/svg" viewBox="0 0 39.8 55.7"><g style="isolation:isolate"><g id="a5db5cca-53df-481c-815f-8c9da3f0f2e5" data-name="Layer 1"><path d="M4.4,55.7A4.2,4.2,0,0,1,.1,51.5V4.2A4.2,4.2,0,0,1,4.3,0H35.5a4.2,4.2,0,0,1,4.3,4.2V51.5a4.2,4.2,0,0,1-4.2,4.2Z" style="fill:#c9c9c9"/><path d="M4.8,55.6A4.2,4.2,0,0,1,.6,51.4V4.2A4.2,4.2,0,0,1,4.8,0H35.6a4.2,4.2,0,0,1,4.2,4.2V51.4a4.2,4.2,0,0,1-4.2,4.2Z" style="fill:#fff"/><path d="M33.3,48.1h1.3v2.1h.8a1.1,1.1,0,0,0,.2-.4,10.4,10.4,0,0,1,.4-1.3l.3-.3.4-.2H37q.3.1.3.3c0,.1-.1.1-.1.2h-.1c-.2,0-.2,0-.2-.2a.2.2,0,0,0-.2-.2.4.4,0,0,0-.4.4c-.1.1-.1.3-.1.6v.6a2,2,0,0,0,.1.7,1.9,1.9,0,0,1-.2.7l-.4.6-.6.5h1.8a.3.3,0,0,0-.1.2l-.2.2H33.3Zm1.3,2.5v1.7c.2,0,.3-.2.4-.4l.2-.3a.8.8,0,0,1,.1-.4.6.6,0,0,1,.1-.4v-.2Z" style="fill:#333"/><polygon points="6.2 12.7 5 11.1 6.2 9.6 7.4 11.1 6.2 12.7" style="fill:#d66142"/><polygon points="6.2 9.6 6.2 9.6 6.2 12.6 6.2 12.7 7.4 11.1 6.2 9.6" style="fill:#616161;opacity:0.2;mix-blend-mode:color-burn"/><path d="M7.8,8H6.5V5.9H5.7l-.2.4a6.8,6.8,0,0,1-.4,1.3L4.8,8H4.1l-.3-.3H4c.2,0,.2.1.2.2s.1.2.2.2.4-.1.4-.3a1.5,1.5,0,0,0,.1-.7V6.4a1.5,1.5,0,0,0-.1-.7A2.4,2.4,0,0,1,5,4.9l.4-.6L6,3.8H4.2c.1-.1.1-.1.1-.2H7.8ZM6.4,5.6V3.8l-.3.4-.2.3c0,.2,0,.3-.1.4a1.2,1.2,0,0,1-.1.5v.2Z" style="fill:#333"/><polygon points="34.9 43.5 36.1 45 34.9 46.5 33.7 45 34.9 43.5" style="fill:#d66142"/><polygon points="34.9 43.5 34.9 43.5 33.7 45 34.9 46.5 34.9 46.5 34.9 43.5" style="fill:#616161;opacity:0.2;mix-blend-mode:color-burn"/><polygon points="20.2 17.3 11.9 27.8 20.2 38.3 28.5 27.8 20.2 17.3" style="fill:#d66142"/><polygon points="20.1 17.4 20.2 17.3 28.5 27.8 20.2 38.3 20.1 38.2 20.1 17.4" style="fill:#616161;opacity:0.2;mix-blend-mode:color-burn"/></g></g></svg>