<svg xmlns="http://www.w3.org/2000/svg" viewBox="0 0 39.8 55.7"><g style="isolation:isolate"><g id="e09f84d9-39e7-4668-9d9b-858553183051" data-name="Layer 1"><path d="M4.4,55.7A4.2,4.2,0,0,1,.1,51.5V4.2A4.2,4.2,0,0,1,4.2,0H35.5a4.3,4.3,0,0,1,4.3,4.2V51.5a4.2,4.2,0,0,1-4.3,4.2Z" style="fill:#c9c9c9"/><path d="M4.8,55.6A4.1,4.1,0,0,1,.6,51.4V4.2A4.1,4.1,0,0,1,4.8,0H35.6a4.2,4.2,0,0,1,4.2,4.2V51.4a4.2,4.2,0,0,1-4.2,4.2Z" style="fill:#fff"/><path d="M33.2,50.2a1.7,1.7,0,0,1,.2-.5l.6-.8.6-.6.8-.2h.5a.5.5,0,0,1,.3.5,1.5,1.5,0,0,1-.3.6l-.6.5h-.1c0-.1.1-.2.2-.4s.1-.1.1-.2h-.1l-.5-.2-.5.2a.5.5,0,0,0-.3.5.8.8,0,0,0,.2.5.2.2,0,0,0,.2.2l.5.2c.2,0,.3,0,.3.1l-.3.4-.5.6a.1.1,0,0,0,.1.1h1.2l.2-.2c.1,0,.2,0,.2.1l-.2.2-.4.5-.4.3H33.4c0-.1.1-.3.4-.6s.4-.4.4-.5l-.3-.2a.5.5,0,0,1-.4-.2l-.2-.3C33.3,50.5,33.2,50.4,33.2,50.2Z" style="fill:#333"/><path d="M7.8,5.9a.9.9,0,0,1-.1.5,1.8,1.8,0,0,1-.7.9l-.6.5a1,1,0,0,1-.7.2H5.1a.5.5,0,0,1-.3-.4c0-.2.1-.4.4-.7s.4-.5.5-.5a.1.1,0,0,1,.1.1c0,.1,0,.2-.2.4a.3.3,0,0,1-.1.2l.2.2h1a1.4,1.4,0,0,0,.2-.6.9.9,0,0,0-.1-.5l-.3-.2H5.8c0-.1.1-.2.3-.5l.4-.6h-1l-.2.2H4.9A.3.3,0,0,1,5,4.5l.4-.4.4-.4H7.7l-.5.6c-.2.3-.4.5-.4.6h.4l.3.3.2.2A.6.6,0,0,1,7.8,5.9Z" style="fill:#333"/><path d="M17.7,7.8V7.3a2.3,2.3,0,1,1,4.6,0,1.7,1.7,0,0,1-.1.7,2.3,2.3,0,0,1,2,2.2A2.2,2.2,0,0,1,22,12.4a4.8,4.8,0,0,1-1.7-.5l1.5,2.5H18.2l1.4-2.5a6.1,6.1,0,0,1-1.8.5,2.3,2.3,0,0,1-.1-4.6Z" style="fill:#333"/><path d="M17.7,7.8V7.3A2.3,2.3,0,0,1,20,4.9h0v9.5H18.2l1.4-2.5a6.1,6.1,0,0,1-1.8.5,2.3,2.3,0,0,1-.1-4.6Z" style="fill:#616161;opacity:0.2;mix-blend-mode:color-burn"/><path d="M17.7,25.9v-.5A2.3,2.3,0,0,1,20,23.1a2.3,2.3,0,0,1,2.3,2.3,1.9,1.9,0,0,1-.1.8,2.2,2.2,0,0,1,2,2.2A2.2,2.2,0,0,1,22,30.6l-1.7-.5,1.5,2.5H18.2l1.4-2.5a6.1,6.1,0,0,1-1.8.5,2.3,2.3,0,0,1-2.3-2.3A2.4,2.4,0,0,1,17.7,25.9Z" style="fill:#333"/><path d="M17.7,25.9v-.5A2.3,2.3,0,0,1,20,23.1h0v9.5H18.2l1.4-2.5a6.1,6.1,0,0,1-1.8.5,2.3,2.3,0,0,1-2.3-2.3A2.4,2.4,0,0,1,17.7,25.9Z" style="fill:#616161;opacity:0.2;mix-blend-mode:color-burn"/><path d="M18.1,47.4c0,.2-.1.4-.1.6a2.4,2.4,0,0,0,4.7,0,1.9,1.9,0,0,0-.2-.8A2.4,2.4,0,0,0,24.6,45a2.3,2.3,0,0,0-2.2-2.2,6.9,6.9,0,0,0-1.7.5l1.4-2.5H18.5L20,43.3a6.7,6.7,0,0,0-1.9-.5,2.3,2.3,0,0,0-2.3,2.3A2.3,2.3,0,0,0,18.1,47.4Z" style="fill:#333"/><path d="M18.1,47.4c0,.2-.1.4-.1.6a2.4,2.4,0,0,0,2.4,2.3h0V40.8H18.5L20,43.3a6.7,6.7,0,0,0-1.9-.5,2.3,2.3,0,0,0-2.3,2.3A2.3,2.3,0,0,0,18.1,47.4Z" style="fill:#616161;opacity:0.2;mix-blend-mode:color-burn"/><path d="M6.5,10.6h0a.5.5,0,0,0-1,0v.2a.5.5,0,0,0-.5.5.6.6,0,0,0,.5.5l.4-.2-.3.6h.8l-.3-.6.4.2a.6.6,0,0,0,.5-.6A.5.5,0,0,0,6.5,10.6Z" style="fill:#333"/><path d="M6.5,10.6h0A.5.5,0,0,0,6,10H6v2.1h.4l-.3-.6.4.2a.6.6,0,0,0,.5-.6A.5.5,0,0,0,6.5,10.6Z" style="fill:#616161;opacity:0.2;mix-blend-mode:color-burn"/><path d="M35.2,45.6v.2a.5.5,0,0,1-.5.5.6.6,0,0,1-.6-.5v-.2a.5.5,0,0,1,0-1h.4l-.3-.6h.8l-.4.6h.5a.5.5,0,0,1,0,1Z" style="fill:#333"/><path d="M35.2,45.6v.2a.5.5,0,0,1-.5.5h0V44.1h.4l-.4.6h.5a.5.5,0,0,1,0,1Z" style="fill:#616161;opacity:0.2;mix-blend-mode:color-burn"/></g></g></svg>