<svg xmlns="http://www.w3.org/2000/svg" viewBox="0 0 39.8 55.7"><g style="isolation:isolate"><g id="e680f1e2-7cda-4ef4-8113-f52c562b14cf" data-name="Layer 1"><path d="M4.4,55.7A4.2,4.2,0,0,1,.1,51.5V4.2A4.2,4.2,0,0,1,4.3,0H35.5a4.2,4.2,0,0,1,4.3,4.2V51.5a4.2,4.2,0,0,1-4.3,4.2Z" style="fill:#c9c9c9"/><path d="M4.8,55.6A4.2,4.2,0,0,1,.6,51.4V4.2A4.2,4.2,0,0,1,4.8,0H35.6a4.2,4.2,0,0,1,4.2,4.2V51.4a4.2,4.2,0,0,1-4.2,4.2Z" style="fill:#fff"/><path d="M5.5,6.4a1.6,1.6,0,0,1-.3.8,1.4,1.4,0,0,1-.6.7H3.8a1.1,1.1,0,0,1-.9-.5,1.7,1.7,0,0,1-.3-1,2.5,2.5,0,0,1,.1-.8,2.5,2.5,0,0,1,.4-.9l.4-.6L4,3.9l.4-.3h.2a.1.1,0,0,1,.1.1L4.4,4,4,4.5l-.3.4a1.1,1.1,0,0,0-.1.5h0L4,5.2h.5a.7.7,0,0,1,.6.4A1.1,1.1,0,0,1,5.5,6.4Zm-.9.7a1.3,1.3,0,0,0-.3-.8c-.2-.2-.3-.4-.5-.4H3.5a1.3,1.3,0,0,0,.3.8.8.8,0,0,0,.7.4h.1Z" style="fill:#333"/><path d="M35.1,49.7a2,2,0,0,1,.4-.8,1.7,1.7,0,0,1,.6-.6l.3-.2h.4a1.3,1.3,0,0,1,1,.4,1.7,1.7,0,0,1,.3,1,3.7,3.7,0,0,1-.2.9l-.3.8-.5.6c0,.1-.2.2-.5.4l-.4.4H36c-.1,0-.1,0-.1-.1l.3-.3.5-.5c0-.1.1-.2.2-.4s.2-.4.2-.5H37l-.3.2-.5.2a1.3,1.3,0,0,1-.7-.4A1.8,1.8,0,0,1,35.1,49.7ZM36,49a1.1,1.1,0,0,0,.3.8.7.7,0,0,0,.6.4h.2c0-.1.1-.1.1-.2a1.6,1.6,0,0,0-.3-.8c-.3-.2-.5-.4-.8-.4h0A.1.1,0,0,0,36,49Z" style="fill:#333"/><path d="M31.9,9.4c0-1-4.3-5.3-4.3-5.3s-4.3,4.4-4.3,5.3A2.6,2.6,0,0,0,25.9,12a2.3,2.3,0,0,0,1.4-.4l-1.7,2.8h4L28,11.6a2,2,0,0,0,1.3.4A2.6,2.6,0,0,0,31.9,9.4Z" style="fill:#333"/><path d="M31.9,9.4c0-1-4.3-5.3-4.3-5.3h-.1V14.4h2.1L28,11.6a2,2,0,0,0,1.3.4A2.6,2.6,0,0,0,31.9,9.4Z" style="fill:#616161;opacity:0.2;mix-blend-mode:color-burn"/><path d="M31.9,28.4c0-1-4.3-5.3-4.3-5.3s-4.3,4.5-4.3,5.3A2.6,2.6,0,0,0,25.9,31a2.3,2.3,0,0,0,1.4-.4l-1.7,2.8h4L28,30.7a2.8,2.8,0,0,0,1.3.3A2.6,2.6,0,0,0,31.9,28.4Z" style="fill:#333"/><path d="M31.9,28.4c0-1-4.3-5.3-4.3-5.3h-.1V33.4h2.1L28,30.7a2.8,2.8,0,0,0,1.3.3A2.6,2.6,0,0,0,31.9,28.4Z" style="fill:#616161;opacity:0.2;mix-blend-mode:color-burn"/><path d="M8.5,9.4c0-1,4.3-5.3,4.3-5.3s4.3,4.4,4.3,5.3A2.6,2.6,0,0,1,14.5,12a2.3,2.3,0,0,1-1.4-.4l1.7,2.8h-4l1.6-2.8a2,2,0,0,1-1.3.4A2.6,2.6,0,0,1,8.5,9.4Z" style="fill:#333"/><path d="M8.5,9.4c0-1,4.3-5.3,4.3-5.3h0V14.4h-2l1.6-2.8a2,2,0,0,1-1.3.4A2.6,2.6,0,0,1,8.5,9.4Z" style="fill:#616161;opacity:0.2;mix-blend-mode:color-burn"/><path d="M8.5,27.5c0-1,4.3-5.3,4.3-5.3s4.3,4.4,4.3,5.3a2.6,2.6,0,0,1-2.6,2.6,2.3,2.3,0,0,1-1.4-.4l1.7,2.8h-4l1.6-2.8a2,2,0,0,1-1.3.4A2.6,2.6,0,0,1,8.5,27.5Z" style="fill:#333"/><path d="M8.5,27.5c0-1,4.3-5.3,4.3-5.3h0V32.5h-2l1.6-2.8a2,2,0,0,1-1.3.4A2.6,2.6,0,0,1,8.5,27.5Z" style="fill:#616161;opacity:0.2;mix-blend-mode:color-burn"/><path d="M31.9,46.4c0,1-4.4,5.3-4.4,5.3s-4.2-4.4-4.2-5.2a2.6,2.6,0,0,1,2.6-2.7,2.8,2.8,0,0,1,1.3.4l-1.6-2.8h4l-1.7,2.8a3.3,3.3,0,0,1,1.4-.4A2.6,2.6,0,0,1,31.9,46.4Z" style="fill:#333"/><path d="M31.9,46.4c0,1-4.4,5.3-4.4,5.3h0V41.4h2.1l-1.7,2.8a3.3,3.3,0,0,1,1.4-.4A2.6,2.6,0,0,1,31.9,46.4Z" style="fill:#616161;opacity:0.2;mix-blend-mode:color-burn"/><path d="M8.5,46.4c-.1,1,4.3,5.3,4.3,5.3s4.3-4.4,4.3-5.2a2.7,2.7,0,0,0-2.6-2.7,3.3,3.3,0,0,0-1.4.4l1.7-2.8h-4l1.6,2.8a2.8,2.8,0,0,0-1.3-.4A2.6,2.6,0,0,0,8.5,46.4Z" style="fill:#333"/><path d="M8.5,46.4c-.1,1,4.3,5.3,4.3,5.3h0V41.4h-2l1.6,2.8a2.8,2.8,0,0,0-1.3-.4A2.6,2.6,0,0,0,8.5,46.4Z" style="fill:#616161;opacity:0.2;mix-blend-mode:color-burn"/><path d="M5,11.3C5,11,3.9,9.9,3.9,9.9a8.7,8.7,0,0,0-1.2,1.4.7.7,0,0,0,.7.7h.4l-.5.7H4.4L4,11.9h.3A.7.7,0,0,0,5,11.3Z" style="fill:#333"/><path d="M5,11.3C5,11,3.9,9.9,3.9,9.9h0v2.7h.5L4,11.9h.3A.7.7,0,0,0,5,11.3Z" style="fill:#616161;opacity:0.2;mix-blend-mode:color-burn"/><path d="M35.6,45.4c0,.3,1.2,1.4,1.2,1.4a8.5,8.5,0,0,0,1.1-1.4.7.7,0,0,0-.7-.7h-.3l.4-.7H36.2l.5.7h-.4A.7.7,0,0,0,35.6,45.4Z" style="fill:#333"/><path d="M35.6,45.4c0,.3,1.2,1.4,1.2,1.4h0V44.1h-.6l.5.7h-.4A.7.7,0,0,0,35.6,45.4Z" style="fill:#616161;opacity:0.2;mix-blend-mode:color-burn"/></g></g></svg>