<svg xmlns="http://www.w3.org/2000/svg" viewBox="0 0 39.8 55.7"><g style="isolation:isolate"><g id="e87d38b0-8859-4066-af26-077022f2a6ec" data-name="Layer 1"><path d="M4.4,55.7A4.2,4.2,0,0,1,.1,51.5V4.2A4.2,4.2,0,0,1,4.3,0H35.5a4.2,4.2,0,0,1,4.3,4.2V51.5a4.2,4.2,0,0,1-4.3,4.2Z" style="fill:#c9c9c9"/><path d="M4.8,55.6A4.2,4.2,0,0,1,.6,51.4V4.2A4.2,4.2,0,0,1,4.8,0H35.6a4.2,4.2,0,0,1,4.2,4.2V51.4a4.2,4.2,0,0,1-4.2,4.2Z" style="fill:#fff"/><path d="M5.5,3.6c-.1.1-.1.3-.2.4s-.3.5-.4.8l-.3.6-.2.5a.9.9,0,0,1-.3.6,3.3,3.3,0,0,1-.3.6l-.5.5-.6.5H2.6l.3-.4.2-.4.3-.4.2-.4c.1-.4.3-.8.4-1.1l.3-.6c0-.1-.3-.2-.9-.2H2.7a2.9,2.9,0,0,1,.8-.8l.6-.2H5l.4-.2h.1Z" style="fill:#333"/><path d="M35.1,52.5a.5.5,0,0,0,.2-.4l.4-.7.3-.7.2-.5.3-.5a1.5,1.5,0,0,1,.4-.6l.5-.6.6-.4h0l-.3.4c-.1.1-.2.2-.2.3l-.2.4c-.1.2-.2.3-.2.5l-.5,1a6.4,6.4,0,0,0-.2.7c0,.1.3.1.8.1h.3c.1-.1.2-.1.2-.2h.2v.2c-.3.3-.5.6-.8.7a.7.7,0,0,1-.6.2H35.1Z" style="fill:#333"/><path d="M29.8,7.5V6.9a2.4,2.4,0,0,0-2.4-2.4A2.4,2.4,0,0,0,25,6.9a1.9,1.9,0,0,0,.2.8A2.3,2.3,0,0,0,23.1,10a2.2,2.2,0,0,0,2.2,2.3,7.8,7.8,0,0,0,1.8-.5l-1.5,2.6h3.7l-1.5-2.6a6.7,6.7,0,0,0,1.9.5,2.3,2.3,0,0,0,2.4-2.4A2.3,2.3,0,0,0,29.8,7.5Z" style="fill:#333"/><path d="M29.8,7.5V6.9a2.4,2.4,0,0,0-2.4-2.4h0v9.9h1.9l-1.5-2.6a6.7,6.7,0,0,0,1.9.5,2.3,2.3,0,0,0,2.4-2.4A2.3,2.3,0,0,0,29.8,7.5Z" style="fill:#616161;opacity:0.2;mix-blend-mode:color-burn"/><path d="M29.8,26.3v-.6a2.4,2.4,0,0,0-2.4-2.4A2.4,2.4,0,0,0,25,25.7a2.9,2.9,0,0,0,.2.9,2.2,2.2,0,0,0-2.1,2.2,2.2,2.2,0,0,0,2.2,2.3,7.8,7.8,0,0,0,1.8-.5l-1.5,2.6h3.7l-1.5-2.6a6.7,6.7,0,0,0,1.9.5,2.3,2.3,0,0,0,2.4-2.4A2.3,2.3,0,0,0,29.8,26.3Z" style="fill:#333"/><path d="M29.8,26.3v-.6a2.4,2.4,0,0,0-2.4-2.4h0v9.9h1.9l-1.5-2.6a6.7,6.7,0,0,0,1.9.5,2.3,2.3,0,0,0,2.4-2.4A2.3,2.3,0,0,0,29.8,26.3Z" style="fill:#616161;opacity:0.2;mix-blend-mode:color-burn"/><path d="M22.2,16.9v-.5a2.4,2.4,0,0,0-4.8,0,1.9,1.9,0,0,0,.1.8,2.4,2.4,0,0,0-2.1,2.3,2.4,2.4,0,0,0,2.3,2.3,5.5,5.5,0,0,0,1.8-.6L18,23.9h3.7l-1.5-2.7a7,7,0,0,0,1.9.6,2.5,2.5,0,0,0,2.4-2.5A2.4,2.4,0,0,0,22.2,16.9Z" style="fill:#333"/><path d="M22.2,16.9v-.5A2.4,2.4,0,0,0,19.8,14h0v9.9h1.9l-1.5-2.7a7,7,0,0,0,1.9.6,2.5,2.5,0,0,0,2.4-2.5A2.4,2.4,0,0,0,22.2,16.9Z" style="fill:#616161;opacity:0.2;mix-blend-mode:color-burn"/><path d="M10.6,7.5c0-.2-.1-.4-.1-.6a2.4,2.4,0,0,1,2.4-2.4,2.4,2.4,0,0,1,2.4,2.4,1.9,1.9,0,0,1-.1.8A2.3,2.3,0,0,1,17.3,10,2.3,2.3,0,0,1,15,12.3l-1.8-.5,1.6,2.6H11l1.6-2.6a6.5,6.5,0,0,1-2,.5,2.4,2.4,0,0,1,0-4.8Z" style="fill:#333"/><path d="M10.6,7.5c0-.2-.1-.4-.1-.6a2.4,2.4,0,0,1,2.4-2.4h0v9.9H11l1.6-2.6a6.5,6.5,0,0,1-2,.5,2.4,2.4,0,0,1,0-4.8Z" style="fill:#616161;opacity:0.2;mix-blend-mode:color-burn"/><path d="M10.6,26.3c0-.2-.1-.4-.1-.6a2.4,2.4,0,0,1,2.4-2.4,2.4,2.4,0,0,1,2.4,2.4,2.8,2.8,0,0,1-.1.9,2.2,2.2,0,0,1,2.1,2.2A2.3,2.3,0,0,1,15,31.1l-1.8-.5,1.6,2.6H11l1.6-2.6a6.5,6.5,0,0,1-2,.5,2.4,2.4,0,1,1,0-4.8Z" style="fill:#333"/><path d="M10.6,26.3c0-.2-.1-.4-.1-.6a2.4,2.4,0,0,1,2.4-2.4h0v9.9H11l1.6-2.6a6.5,6.5,0,0,1-2,.5,2.4,2.4,0,1,1,0-4.8Z" style="fill:#616161;opacity:0.2;mix-blend-mode:color-burn"/><path d="M29.8,48.2v.5a2.4,2.4,0,0,1-2.4,2.4A2.4,2.4,0,0,1,25,48.7a1.9,1.9,0,0,1,.2-.8,2.3,2.3,0,0,1,.1-4.6,4.8,4.8,0,0,1,1.8.6l-1.5-2.7h3.7l-1.5,2.7a7,7,0,0,1,1.9-.6,2.5,2.5,0,0,1,.1,4.9Z" style="fill:#333"/><path d="M29.8,48.2v.5a2.4,2.4,0,0,1-2.4,2.4h0V41.2h1.9l-1.5,2.7a7,7,0,0,1,1.9-.6,2.5,2.5,0,0,1,.1,4.9Z" style="fill:#616161;opacity:0.2;mix-blend-mode:color-burn"/><path d="M10.6,48.2a4.3,4.3,0,0,0-.1.5,2.4,2.4,0,0,0,2.4,2.4,2.4,2.4,0,0,0,2.4-2.4,1.9,1.9,0,0,0-.1-.8,2.3,2.3,0,0,0,2.1-2.3A2.3,2.3,0,0,0,15,43.3a6.4,6.4,0,0,0-1.8.6l1.6-2.7H11l1.6,2.7a6.6,6.6,0,0,0-2-.6,2.5,2.5,0,0,0-2.4,2.5A2.5,2.5,0,0,0,10.6,48.2Z" style="fill:#333"/><path d="M10.6,48.2a4.3,4.3,0,0,0-.1.5,2.4,2.4,0,0,0,2.4,2.4h0V41.2H11l1.6,2.7a6.6,6.6,0,0,0-2-.6,2.5,2.5,0,0,0-2.4,2.5A2.5,2.5,0,0,0,10.6,48.2Z" style="fill:#616161;opacity:0.2;mix-blend-mode:color-burn"/><path d="M4.7,10.8h0a.6.6,0,0,0-.6-.5.5.5,0,0,0-.5.5v.2a.5.5,0,0,0-.5.5.5.5,0,0,0,.5.5h.5l-.4.6h.9l-.4-.6h.4c.4,0,.6-.2.6-.5A.6.6,0,0,0,4.7,10.8Z" style="fill:#333"/><path d="M4.7,10.8h0a.6.6,0,0,0-.6-.5h0v2.2h.5l-.4-.6h.4c.4,0,.6-.2.6-.5A.6.6,0,0,0,4.7,10.8Z" style="fill:#616161;opacity:0.2;mix-blend-mode:color-burn"/><path d="M37.5,46.1v.2a.5.5,0,0,1-.5.5c-.4,0-.6-.2-.6-.5v-.2c-.2,0-.4-.3-.4-.5a.6.6,0,0,1,.5-.6l.4.2-.4-.6h.9l-.4.6.5-.2a.6.6,0,0,1,.5.6A.5.5,0,0,1,37.5,46.1Z" style="fill:#333"/><path d="M37.5,46.1v.2a.5.5,0,0,1-.5.5h-.1V44.6h.5l-.4.6.5-.2a.6.6,0,0,1,.5.6A.5.5,0,0,1,37.5,46.1Z" style="fill:#616161;opacity:0.2;mix-blend-mode:color-burn"/></g></g></svg>