<svg xmlns="http://www.w3.org/2000/svg" viewBox="0 0 39.8 55.7"><g style="isolation:isolate"><g id="b3fba940-8b0d-4eee-8c39-2df17cd1b667" data-name="Layer 1"><path d="M4.4,55.7A4.2,4.2,0,0,1,.1,51.5V4.2A4.2,4.2,0,0,1,4.3,0H35.5a4.2,4.2,0,0,1,4.3,4.2V51.5a4.2,4.2,0,0,1-4.3,4.2Z" style="fill:#c9c9c9"/><path d="M4.8,55.6A4.2,4.2,0,0,1,.6,51.4V4.2A4.2,4.2,0,0,1,4.8,0H35.6a4.2,4.2,0,0,1,4.2,4.2V51.4a4.2,4.2,0,0,1-4.2,4.2Z" style="fill:#fff"/><path d="M33.3,48.1h1.3v2.1h.8a1,1,0,0,0,.1-.4,8.9,8.9,0,0,1,.5-1.3l.3-.3a.4.4,0,0,1,.4-.2H37c.2.1.2.2.2.3H37c-.1,0-.1-.1-.1-.2l-.2-.2c-.2,0-.4.1-.4.3a1.5,1.5,0,0,0-.1.7v.6a1.3,1.3,0,0,0,.1.6,1.9,1.9,0,0,1-.2.8l-.4.6-.6.5h1.4l.4-.2h0c-.1.1-.1.1-.1.2l-.2.2H33.3Zm1.3,2.5v1.7c.2,0,.3-.2.4-.4s.1-.2.1-.3.1-.2.2-.4a.6.6,0,0,1,.1-.4v-.2Z" style="fill:#333"/><path d="M7.8,8H6.5V5.9H5.7c0,.1-.1.2-.1.4a5.9,5.9,0,0,1-.5,1.3L4.8,8l-.4.2L4.1,8c-.2,0-.2-.1-.2-.3h.2c.1,0,.1.1.1.2s.1.2.2.2.4-.1.4-.3A1.3,1.3,0,0,0,4.9,7V6.4a1.7,1.7,0,0,0-.1-.7A2.4,2.4,0,0,1,5,4.9l.4-.6L6,3.8H4.3l.2-.2H7.8ZM6.5,5.6V3.9c-.2,0-.3.1-.4.3s-.1.2-.1.4l-.2.3a1.2,1.2,0,0,1-.1.5v.2Z" style="fill:#333"/><path d="M29,28c0-2.1-8.8-10.7-8.8-10.7h0V38.1h4.1L21,32.4a5,5,0,0,0,2.7.8A5.2,5.2,0,0,0,29,28Z" style="fill:#616161;opacity:0.2;mix-blend-mode:color-burn"/><path d="M7.4,11c0-.2-1.2-1.3-1.2-1.3h0v2.6h.6l-.5-.7h.4A.7.7,0,0,0,7.4,11Z" style="fill:#616161;opacity:0.2;mix-blend-mode:color-burn"/><path d="M33.8,45.2c0,.2,1.1,1.3,1.1,1.3h0V43.9h-.5l.4.7h-.3A.7.7,0,0,0,33.8,45.2Z" style="fill:#616161;opacity:0.2;mix-blend-mode:color-burn"/><path d="M29.1,26C28.8,30.3,20,37,20,37s-9-6.7-9-11.1a5.5,5.5,0,0,1,5.5-5.5A7,7,0,0,1,20.1,22s1.8-1.6,3.5-1.5A5.4,5.4,0,0,1,29.1,26Z" style="fill:#d66142"/><path d="M23.6,20.5c-1.7-.1-3.5,1.5-3.5,1.5H20V37h0s8.8-6.7,9.1-11A5.4,5.4,0,0,0,23.6,20.5Z" style="fill:#616161;opacity:0.2;mix-blend-mode:color-burn"/><path d="M7.3,10.8c0,.7-1.3,1.7-1.3,1.7s-1.4-1-1.4-1.7a.9.9,0,0,1,.8-.8l.6.2a.8.8,0,0,1,.5-.2C7,10,7.4,10.4,7.3,10.8Z" style="fill:#d66142"/><path d="M6.5,10a.8.8,0,0,0-.5.2H6v2.3H6s1.3-1,1.3-1.7S7,10,6.5,10Z" style="fill:#616161;opacity:0.2;mix-blend-mode:color-burn"/><path d="M33.2,45.5c0-.7,1.4-1.7,1.4-1.7s1.4,1,1.4,1.7a.8.8,0,0,1-.8.8,1.3,1.3,0,0,1-.6-.2l-.6.2A.8.8,0,0,1,33.2,45.5Z" style="fill:#d66142"/><path d="M34,46.3l.6-.2h0V43.8h0s-1.4,1-1.4,1.7A.8.8,0,0,0,34,46.3Z" style="fill:#616161;opacity:0.2;mix-blend-mode:color-burn"/></g></g></svg>