<svg xmlns="http://www.w3.org/2000/svg" viewBox="0 0 39.8 55.7"><g style="isolation:isolate"><g id="e4a9487e-5bdd-4149-b921-9eee19df2b4d" data-name="Layer 1"><path d="M4.4,55.7A4.2,4.2,0,0,1,.1,51.5V4.2A4.2,4.2,0,0,1,4.3,0H35.5a4.2,4.2,0,0,1,4.3,4.2V51.5a4.2,4.2,0,0,1-4.2,4.2Z" style="fill:#c9c9c9"/><path d="M4.8,55.6A4.2,4.2,0,0,1,.6,51.4V4.2A4.2,4.2,0,0,1,4.8,0H35.6a4.2,4.2,0,0,1,4.2,4.2V51.4a4.2,4.2,0,0,1-4.2,4.2Z" style="fill:#fff"/><path d="M33.3,48.1h1.3v2.1h.8a1.1,1.1,0,0,0,.2-.4,4,4,0,0,1,.4-1.3l.3-.3.4-.2H37q.3.1.3.3c0,.1-.1.1-.1.2h-.1c-.2,0-.2,0-.2-.2a.2.2,0,0,0-.2-.2.4.4,0,0,0-.4.4c-.1.1-.1.3-.1.6v.6a2,2,0,0,0,.1.7,1.9,1.9,0,0,1-.2.7l-.4.6-.6.5h1.8a.3.3,0,0,0-.1.2l-.2.2H33.3Zm1.3,2.5v1.7c.2,0,.3-.2.4-.4l.2-.3a.8.8,0,0,1,.1-.4.6.6,0,0,1,.1-.4v-.2Z" style="fill:#333"/><path d="M7.8,8H6.5V5.9H5.7l-.2.4a6.8,6.8,0,0,1-.4,1.3L4.8,8H4.1l-.3-.3H4c.2,0,.2.1.2.2s.1.2.2.2.4-.1.4-.3a1.5,1.5,0,0,0,.1-.7V6.4a1.5,1.5,0,0,0-.1-.7A2.4,2.4,0,0,1,5,4.9l.4-.6L6,3.8H4.2c.1-.1.1-.1.1-.2H7.8ZM6.4,5.6V3.8l-.3.4-.2.3c0,.2,0,.3-.1.4a1.2,1.2,0,0,1-.1.5v.2Z" style="fill:#333"/><path d="M29,28c0-2.1-8.8-10.7-8.8-10.7s-8.6,8.9-8.6,10.6a5.3,5.3,0,0,0,5.3,5.3,5,5,0,0,0,2.7-.8l-3.3,5.7h8L21,32.5a6,6,0,0,0,2.7.7A5.2,5.2,0,0,0,29,28Z" style="fill:#333"/><path d="M29,28c0-2.1-8.8-10.7-8.8-10.7h0V38.1h4.1L21,32.5a6,6,0,0,0,2.7.7A5.2,5.2,0,0,0,29,28Z" style="fill:#616161;opacity:0.2;mix-blend-mode:color-burn"/><path d="M7.3,11c0-.2-1.1-1.3-1.1-1.3S5.1,10.8,5.1,11a.7.7,0,0,0,.7.7h.3l-.4.7h1l-.4-.7h.4A.7.7,0,0,0,7.3,11Z" style="fill:#333"/><path d="M7.3,11c0-.2-1.1-1.3-1.1-1.3h0v2.6h.5l-.4-.7h.4A.7.7,0,0,0,7.3,11Z" style="fill:#616161;opacity:0.2;mix-blend-mode:color-burn"/><path d="M33.8,45.2c0,.2,1.1,1.3,1.1,1.3S36,45.4,36,45.2a.7.7,0,0,0-.7-.7H35l.4-.7h-1l.4.7h-.3A.7.7,0,0,0,33.8,45.2Z" style="fill:#333"/><path d="M33.8,45.2c0,.2,1.1,1.3,1.1,1.3h0V43.9h-.5l.4.7h-.3A.7.7,0,0,0,33.8,45.2Z" style="fill:#616161;opacity:0.2;mix-blend-mode:color-burn"/></g></g></svg>