<svg xmlns="http://www.w3.org/2000/svg" viewBox="0 0 39.8 55.7"><g style="isolation:isolate"><g id="bf5c3fc0-38d2-4af7-ad4a-3049b2e36811" data-name="Layer 1"><path d="M4.4,55.6A4.1,4.1,0,0,1,.2,51.5L0,4.3A4.2,4.2,0,0,1,4.3.1H35.5a4.2,4.2,0,0,1,4.2,4.2v47a4.2,4.2,0,0,1-4.2,4.2Z" style="fill:#c9c9c9"/><path d="M4.9,55.5A4.2,4.2,0,0,1,.7,51.3V4.3A4.2,4.2,0,0,1,4.9.1H35.6a4.2,4.2,0,0,1,4.2,4.2v47a4.2,4.2,0,0,1-4.2,4.2Z" style="fill:#fff"/><path d="M35.5,54.7H4.8a3.3,3.3,0,0,1-3.3-3.3V4.4A4,4,0,0,1,3.6,1h31c3.1.3,4.2,2,4.2,3.5v47A3.3,3.3,0,0,1,35.5,54.7ZM4,2.2A3,3,0,0,0,2.8,4.4v47a2,2,0,0,0,2,2H35.5a2,2,0,0,0,2-2V4.4c0-1.2-1.1-2-3-2.2Z" style="fill:#333"/><path d="M7.4,4a1,1,0,0,1-.4.5l-.6.2-.6-.2H4.7a1,1,0,0,1,.5-.6l.7-.2H7.4Zm.1,3.6a1.1,1.1,0,0,1-.5.9,1.5,1.5,0,0,1-1.1.4l-.8-.2a.6.6,0,0,1-.3-.6.4.4,0,0,1,.1-.3.5.5,0,0,1,.4-.2h.3V8a.5.5,0,0,1-.2.4h.6l.2-.3V4.9l.6-.2.5-.3h.1Z" style="fill:#333"/><path d="M33,48.7a1.1,1.1,0,0,1,.5-.9,1.4,1.4,0,0,1,1.1-.4l.7.2a.5.5,0,0,1,.4.6c0,.1-.1.2-.1.3h-.7c-.1,0-.1-.1-.1-.2a.5.5,0,0,1,.2-.4h.1c0-.1-.2-.1-.3-.1h-.4c-.2.1-.2.2-.2.3v3.4l-.6.2-.5.3H33Zm0,3.6a1.2,1.2,0,0,1,.5-.5l.6-.2.6.2h1a.9.9,0,0,1-.4.6l-.7.2H33Z" style="fill:#333"/><polygon points="17.2 17.4 15.8 18 16.1 18.5 21.6 18.5 22 18 20.7 17.4 17.2 17.4" style="fill:#757575"/><rect x="17.2" y="15.7" width="3.6" height="3.72" style="fill:#ebb07a"/><path d="M20.7,16.4v.9a2.1,2.1,0,0,1-1.4.7h-.7a2.1,2.1,0,0,1-1.4-.7v-.8l.3.4V15.7h2.7v1.2Z" style="fill:#616161;opacity:0.2;mix-blend-mode:color-burn"/><path d="M20.9,6.6a.9.9,0,0,0,.1-.5C20.9,5.6,19.9,5,18.9,5s-2,.5-2,1.1a.9.9,0,0,0,.1.7,1.9,1.9,0,0,0-1.8,1.9,2,2,0,0,0,1.9,2,4.3,4.3,0,0,0,1.6-.5h.5a5.5,5.5,0,0,0,1.7.5A2.1,2.1,0,0,0,23,8.6,2,2,0,0,0,20.9,6.6Z" style="fill:#333"/><path d="M19.3,7.2h-.7a3,3,0,0,0-3.2,2.7s0,3.6.1,3.8,1.5,4,3.1,4h.7c1.6,0,2.9-2.4,3.1-4s.1-3.8.1-3.8A3,3,0,0,0,19.3,7.2Z" style="fill:#ebb07a"/><path d="M18.2,17.2v.2a.8.8,0,0,0,.8.9.9.9,0,0,0,.9-.9v-.3a.9.9,0,0,0,.8-.8.9.9,0,0,0-.9-.8l-.6.2h-.2l-.7-.2a.9.9,0,0,0-.9.9A.9.9,0,0,0,18.2,17.2Z" style="fill:#333"/><path d="M19.8,16.3h-.2l-.2-.2h-.9l-.2.2h-.5c-.2-.2.9-1.7,1.1-1.7s1.4,1.4,1.2,1.7Z" style="fill:#ebb07a"/><path d="M16.9,11.5a.4.4,0,0,0-.1.3.6.6,0,0,0,1.2,0c0-.1-.1-.2-.1-.3Z" style="fill:#333"/><polygon points="19.2 11 18.9 11 18.7 11 18.4 13.4 18.9 14 19.5 13.4 19.2 11" style="fill:#616161;opacity:0.2;mix-blend-mode:color-burn"/><path d="M21,11.5a.4.4,0,0,1,.1.3.6.6,0,0,1-1.2,0c0-.1.1-.2.1-.3Z" style="fill:#333"/><g style="opacity:0.2;mix-blend-mode:color-burn"><rect x="18.3" y="15.2" width="1.3" height="0.32" style="fill:#616161"/></g><polygon points="19.9 10.3 21.6 10.5 19.9 10.7 19.9 10.3" style="fill:#333"/><polygon points="18 10.7 16.3 10.5 18 10.3 18 10.7" style="fill:#333"/><path d="M27.9,18.4l-1.4,1.3-.6,1.8,2-.4Z" style="fill:#757575"/><path d="M10.2,18.4l1.3,1.3.6,1.8-2-.4Z" style="fill:#757575"/><path d="M11,19.4l-.2.4-.4,1.4,2.3-.6Z" style="fill:#1c1c1c"/><polygon points="29.5 23.4 28.1 23.8 25.7 24.5 25.5 24.5 22.4 25.5 22.3 25.5 22.2 25.6 21.2 25.8 20.8 26 19.6 26.3 19.1 26.5 16.8 27.2 16.3 27.3 16.2 27.3 15.6 27.5 15.2 27.6 14.1 28 12.5 28.4 12.5 28 12.5 26.6 11.4 28.5 11.4 28.8 10.2 29.1 7.5 29.9 7.5 26.1 7.5 25.9 7.5 25.9 7.5 25.9 7.5 25.3 7.6 25.1 8.2 23.8 8.7 22.5 9.3 21.2 9.5 20.6 9.7 20.1 10.1 20 10.8 19.8 10.8 19.8 10.9 19.8 11 19.8 11 19.8 11.2 19.7 11.3 19.7 11.4 19.7 11.4 19.7 11.5 19.6 13.3 19.2 13.5 19.2 13.6 19.1 13.8 19.1 15.2 18.7 15.3 18.7 15.4 18.7 16 18.6 16.1 18.5 17.2 18.3 20.7 18.3 21.6 18.5 21.8 18.5 21.9 18.5 23.2 18.9 24.4 19.1 26.5 19.7 26.7 19.7 27.2 19.8 27.9 20 27.9 20 28.2 20.1 28.7 21.4 29.2 22.8 29.4 23.1 29.5 23.4" style="fill:#ababab"/><polygon points="23.2 18.9 19.4 22.6 19.3 22.8 18.7 23.4 18.6 23.4 17.6 24.5 17.6 24.5 15.8 26.3 15.2 26.9 14.9 27.1 14.7 27.4 14.1 28 12.5 28.4 12.5 28 14.1 26.3 14.4 26 14.6 25.8 15.2 25.3 15.4 25.1 15.5 24.9 15.6 24.8 17.7 22.7 17.8 22.7 17.9 22.6 17.9 22.6 18.5 22 18.6 21.8 21.9 18.5 23.2 18.9" style="fill:#fff;opacity:0.2"/><polygon points="27.9 20 25.6 22.2 22.4 25.4 22.3 25.5 22.2 25.6 21.2 25.8 20.8 26 19.6 26.3 19.1 26.5 16.8 27.2 16.3 27.3 16.2 27.3 16.3 27.3 16.6 26.9 18.2 25.3 18.4 25.1 19.2 24.3 19.3 24.2 20.2 23.3 24.4 19.1 26.5 19.7 26.7 19.7 27.2 19.8 27.9 20" style="fill:#fff;opacity:0.2"/><path d="M22.4,25.5h-.2l-1,.2-.4.2-1.2.3-.5.2-2.3.7h-.6l-.6.2h-.4l-.3-.5L14.4,26l-1.7-3.5-.8-1.7h-.1l-.4-.9h.1l1.8-.4h.5l1.4-.4h.2l3.2,3.1a6,6,0,0,1,.8.8l.8.7,2.2,2.1Z" style="fill:#616161;opacity:0.2;mix-blend-mode:color-burn"/><path d="M19.1,26.5l-2.3.7h-.6l-.6.2-.4-.6-.6-1.1-1.9-3.3-.6-1.2-.3-.5-.6-1.1-.2-.3h.2l3.8-1c0,.1.1.2.2.3L18.5,22l.8.8.7.7,2.2,2.1-1,.2-.4.2-1.2.3Z" style="fill:#333"/><polygon points="15.8 18 16 18.6 18.8 20.2 18.7 18.3 15.8 18" style="fill:#ebebeb"/><polygon points="22 18 21.8 18.6 19 20.2 19 18.3 22 18" style="fill:#ebebeb"/><path d="M18.7,23.4l.5.6-.6-.6-.7-.8-.5-.4.5.4Z" style="fill:#616161;opacity:0.2;mix-blend-mode:color-burn"/><path d="M19.3,24.2l1.9,1.6-.4.2-1.6-1.7-.7-.8h0l-.8-.8-1.4-1.5h0l1.5,1.5.7.7a.1.1,0,0,1,.1.1A4.6,4.6,0,0,1,19.3,24.2Z" style="fill:#616161;opacity:0.2;mix-blend-mode:color-burn"/><polygon points="16.8 27.2 16.3 27.3 16.3 27.3 15.8 26.3 15.2 25.3 14.6 24.1 13.8 22.8 15.4 25.1 16 26 16.6 26.9 16.8 27.2" style="fill:#616161;opacity:0.2;mix-blend-mode:color-burn"/><polygon points="19.6 26.3 19.1 26.5 18.6 25.8 18.2 25.3 17.6 24.5 17.2 24.1 17.6 24.5 18.4 25.1 19.6 26.3" style="fill:#616161;opacity:0.2;mix-blend-mode:color-burn"/><polygon points="12.5 26.6 11.4 28.5 11.4 28.8 10.2 29.1 9.4 28.9 10.5 28.4 12.5 26.6" style="fill:#616161;opacity:0.2;mix-blend-mode:color-burn"/><polygon points="29.5 23.4 28.1 23.8 25.7 24.5 25.5 24.5 25.4 22.7 25.6 22.2 25.9 21.5 26.7 19.7 27.2 19.8 27.9 20 27.9 20 28.2 20.1 28.7 21.4 29.2 22.8 29.4 23.1 29.5 23.4" style="fill:#616161;opacity:0.2;mix-blend-mode:color-burn"/><path d="M28.1,23.8l-2.4.7V22.8l.6-1.3h.1l.8-1.6.7-1.4a19.2,19.2,0,0,0,1.8,2.2,3.2,3.2,0,0,0,.1.7c.1.5.2,1.2.3,1.9l-.6.2h0Z" style="fill:#ababab"/><path d="M12.5,22.9V26l-4.2-.7v-.4l1.2-4.3.2-.5,1.1-.3H11Z" style="fill:#616161;opacity:0.2;mix-blend-mode:color-burn"/><path d="M12.5,26.3l-4-.3h-1a5.4,5.4,0,0,0,.1-.8c.2-1.5.7-4.5.7-4.5a20,20,0,0,0,1.9-2.2h0l.6,1.3,1.5,3Z" style="fill:#ababab"/><path d="M30.1,23.2H28.9l-.8.2.6-2.4v-.6l-.9-2.4a21.3,21.3,0,0,0,1.8,2.2,2.8,2.8,0,0,0,.1.6h0a.7.7,0,0,1,.1.5c0,.1,0,.2.1.2h0v.4h0A.9.9,0,0,1,30.1,23.2Z" style="fill:#fff;opacity:0.2"/><path d="M10.2,18.5l-1,2.3v.3l.8,3.5L8.5,26l-.3.3s-.6,2.1-.6,2.2H7.5V25.9h0v-.8h0c.2-1,.4-2.7.6-3.7v-.2a2.8,2.8,0,0,0,.1-.6c.1,0,1.9-2.2,1.9-2.2h0Z" style="fill:#fff;opacity:0.2"/><path d="M18.9,6.5l-2.3.7L15.2,9v3l.5.2V9.1a1.1,1.1,0,0,1,1.1-1,5.9,5.9,0,0,1,2.1.6,6.8,6.8,0,0,1,2.2-.6,1,1,0,0,1,1,1v3.1l.4-.2.3-2.8-1.3-2Z" style="fill:#333"/><path d="M8.8,23.4c-.1.5-.4.9-.7.9l-.2-.2v1H7.6c.2-1,.4-2.7.6-3.7h0A7.6,7.6,0,0,1,8.8,23.4Z" style="fill:#333"/><path d="M14.9,19.7c-.1-.1-.1-.1-.1-.2a.9.9,0,0,0-1.2-.4.8.8,0,0,0-.6,1.1c.1.1.1.2.2.2a1.1,1.1,0,0,0-.6,1.2.9.9,0,0,0,1.3.5c.2,0,.6-.4.7-.5L14.4,23l1.5-.7-1.1-.8h.8a.9.9,0,0,0,.5-1.2A.9.9,0,0,0,14.9,19.7Z" style="fill:#616161;opacity:0.2;mix-blend-mode:color-burn"/><path d="M14.8,19.9v-.2a.9.9,0,0,0-1.2-.5.9.9,0,0,0-.4,1.2c0,.1.1.1.1.2a.9.9,0,0,0-.3,1.1.7.7,0,0,0,1,.4c.2,0,.5-.3.6-.4l-.2,1.1,1.3-.6-.9-.6h.7a.9.9,0,0,0,.5-1.2A.9.9,0,0,0,14.8,19.9Z" style="fill:#ffd675"/><path d="M14.8,21.8l.5.4-.6.2Zm-1.1.2a.7.7,0,0,1-.5-.4c-.2-.3,0-.6.2-.8h.3l-.2-.2v-.2a.7.7,0,0,1,.3-.9H14a.6.6,0,0,1,.6.4h0v.3h.5a.8.8,0,0,1,.6.4v.5a.8.8,0,0,1-.4.4h-.6l-.4.2-.4.3Z" style="fill:#616161;opacity:0.2;mix-blend-mode:color-burn"/><path d="M30.1,23.2c0-.2,0-.3-.1-.4h0v-.4h0c-.1,0-.1-.1-.1-.2a.7.7,0,0,0-.1-.5h0a2.8,2.8,0,0,1-.1-.6,21.3,21.3,0,0,1-1.8-2.2h0l-1.4,1.3-2.1-.6-1.2-.2-1.3-.4h-.1L22,18l-1.3-.6V17a5.6,5.6,0,0,0,1.7-3.3c0-.1.1-.8.1-1.6h.1l.3-2.8h0a4.3,4.3,0,0,0,.1-.5,2,2,0,0,0-2.1-2,.9.9,0,0,0,.1-.5C20.9,5.6,19.9,5,18.9,5V26.5h.2l.5-.2,1.2-.3.4-.2,1-.2h.2l3.1-1h.2l2.4-.7,1.2-.4h.2l.6-.2Z" style="fill:#616161;opacity:0.2;mix-blend-mode:color-burn"/><polygon points="20.4 38.5 21.8 37.9 21.5 37.3 16 37.4 15.6 37.9 16.9 38.5 20.4 38.5" style="fill:#757575"/><rect x="16.9" y="36.5" width="3.6" height="3.72" style="fill:#ebb07a"/><path d="M16.9,39.5v-.9a1.7,1.7,0,0,1,1.4-.7H19a2,2,0,0,1,1.4.6v.9l-.3-.5v1.3H17.3V38.9Z" style="fill:#616161;opacity:0.2;mix-blend-mode:color-burn"/><path d="M16.7,49.3a.9.9,0,0,0-.1.5c.1.5,1.1,1.1,2.1,1.1s2-.6,2-1.1a.8.8,0,0,0-.1-.7,2,2,0,0,0-.1-3.9l-1.6.4h-.5l-1.7-.4a2.1,2.1,0,0,0-2.1,2.1A2,2,0,0,0,16.7,49.3Z" style="fill:#333"/><path d="M18.3,48.7H19A3,3,0,0,0,22.2,46s0-3.7-.1-3.8c-.2-1.6-1.5-4-3.1-4h-.7c-1.6,0-2.9,2.4-3.1,4-.1.1-.1,3.8-.1,3.8A3,3,0,0,0,18.3,48.7Z" style="fill:#ebb07a"/><path d="M19.4,38.7v-.2a.8.8,0,0,0-.8-.9.9.9,0,0,0-.9.9c0,.1.1.2.1.3a.7.7,0,0,0-.7.8.8.8,0,0,0,.8.8l.6-.2h.2l.7.2a.9.9,0,0,0,.9-.9A.9.9,0,0,0,19.4,38.7Z" style="fill:#333"/><path d="M17.8,39.6H18l.2.2h.9l.2-.2h.5c.2.2-.9,1.7-1.1,1.7s-1.4-1.4-1.2-1.7Z" style="fill:#ebb07a"/><path d="M20.7,44.4a.4.4,0,0,0,.1-.3.6.6,0,0,0-1.2,0c0,.1.1.2.1.3Z" style="fill:#333"/><polygon points="18.4 44.8 18.7 44.8 18.9 44.8 19.2 42.5 18.7 41.9 18.1 42.5 18.4 44.8" style="fill:#616161;opacity:0.2;mix-blend-mode:color-burn"/><path d="M16.6,44.4a.4.4,0,0,1-.1-.3.6.6,0,0,1,1.2,0c0,.1-.1.2-.1.3Z" style="fill:#333"/><g style="opacity:0.2;mix-blend-mode:color-burn"><rect x="18" y="40.4" width="1.3" height="0.32" style="fill:#616161"/></g><polygon points="17.7 45.6 16 45.4 17.7 45.2 17.7 45.6" style="fill:#333"/><polygon points="19.6 45.2 21.3 45.4 19.6 45.6 19.6 45.2" style="fill:#333"/><path d="M9.7,37.5l1.4-1.3.6-1.8-2,.3Z" style="fill:#757575"/><path d="M27.4,37.5l-1.3-1.3-.6-1.8,2,.3Z" style="fill:#757575"/><path d="M26.6,36.5l.2-.4.4-1.5-2.3.7Z" style="fill:#1c1c1c"/><polygon points="8.1 32.5 9.5 32.1 11.9 31.4 12.1 31.3 15.2 30.4 15.3 30.4 15.5 30.3 16.4 30 16.8 29.9 18 29.6 18.5 29.4 20.8 28.7 21.3 28.6 21.4 28.5 22 28.4 22.4 28.2 23.5 27.9 25.1 27.4 25.1 27.9 25.2 29.3 26.2 27.4 26.2 27.1 27.4 26.8 30.1 25.9 30.1 29.8 30.1 30 30.1 30 30.1 30 30.1 30.6 30 30.8 29.4 32.1 28.9 33.4 28.3 34.7 28.1 35.2 27.9 35.8 27.5 35.9 26.8 36.1 26.8 36.1 26.7 36.1 26.6 36.1 26.6 36.1 26.5 36.2 26.3 36.2 26.3 36.2 26.2 36.2 26.1 36.2 24.3 36.7 24.1 36.7 24 36.8 23.8 36.8 22.4 37.2 22.4 37.2 22.2 37.2 21.6 37.3 21.5 37.4 20.4 37.6 16.9 37.6 16 37.4 15.8 37.4 15.7 37.3 14.4 37 13.2 36.7 11.1 36.2 10.9 36.2 10.4 36.1 9.7 35.9 9.7 35.9 9.4 35.8 8.9 34.5 8.4 33.1 8.2 32.7 8.1 32.5" style="fill:#ababab"/><polygon points="14.4 37 18.2 33.3 18.3 33.1 19 32.5 19 32.5 20 31.4 20 31.4 21.8 29.6 22.4 29 22.7 28.8 22.9 28.5 23.5 27.9 25.1 27.4 25.1 27.9 23.5 29.6 23.2 29.9 23 30 22.4 30.6 22.2 30.8 22.1 31 22 31.1 19.9 33.2 19.8 33.2 19.7 33.3 19.7 33.3 19.1 33.9 19 34.1 15.7 37.3 14.4 37" style="fill:#fff;opacity:0.2"/><polygon points="9.7 35.9 12 33.6 15.2 30.4 15.3 30.4 15.5 30.3 16.4 30 16.8 29.9 18 29.6 18.5 29.4 20.8 28.7 21.3 28.6 21.4 28.5 21.3 28.6 21 29 19.4 30.6 19.2 30.7 18.4 31.6 18.3 31.7 17.4 32.6 13.2 36.7 11.1 36.2 10.9 36.2 10.4 36.1 9.7 35.9" style="fill:#fff;opacity:0.2"/><path d="M15.2,30.4h.3l.9-.3h.4l1.2-.3.5-.2,2.3-.7H22l.4-.2.3.6.5,1.1,1.7,3.5.8,1.7h.1l.4,1h-.1l-1.8.5h-.5l-1.4.4h-.2L19,34.1l-.8-.8-.8-.7-2.2-2.2Z" style="fill:#616161;opacity:0.2;mix-blend-mode:color-burn"/><path d="M18.5,29.4l2.3-.7H22l.4.6.6,1,1.9,3.4.6,1.1.3.5.7,1.2v.3h-.2l-3.8,1c0-.1-.1-.2-.2-.3l-3.3-3.3-.8-.8-.7-.7-2.1-2.1.9-.3h.4l1.2-.3Z" style="fill:#333"/><polygon points="21.8 37.9 21.6 37.3 18.8 35.7 18.9 37.6 21.8 37.9" style="fill:#ebebeb"/><polygon points="15.6 37.9 15.8 37.3 18.6 35.7 18.6 37.6 15.6 37.9" style="fill:#ebebeb"/><path d="M19,32.5l-.6-.6.6.6.7.8.5.4-.5-.4Z" style="fill:#616161;opacity:0.2;mix-blend-mode:color-burn"/><path d="M18.3,31.7,16.4,30h.4l1.6,1.7.7.8h.1l.7.8,1.4,1.5h0l-1.5-1.5-.7-.7H19Z" style="fill:#616161;opacity:0.2;mix-blend-mode:color-burn"/><polygon points="20.8 28.7 21.3 28.6 21.3 28.6 21.8 29.6 22.4 30.6 23 31.8 23.8 33.1 22.2 30.8 21.6 29.8 21 29 20.8 28.7" style="fill:#616161;opacity:0.2;mix-blend-mode:color-burn"/><polygon points="18 29.6 18.5 29.4 19 30.1 19.4 30.6 20 31.4 20.4 31.8 20 31.4 19.2 30.7 18 29.6" style="fill:#616161;opacity:0.2;mix-blend-mode:color-burn"/><polygon points="25.2 29.3 26.2 27.4 26.2 27.1 27.4 26.8 28.2 26.9 27.1 27.5 25.2 29.3" style="fill:#616161;opacity:0.2;mix-blend-mode:color-burn"/><polygon points="8.1 32.5 9.5 32.1 11.9 31.4 12.1 31.3 12.2 33.2 12 33.6 11.7 34.4 10.9 36.2 10.4 36.1 9.7 35.9 9.7 35.9 9.4 35.8 8.9 34.5 8.4 33.1 8.2 32.7 8.1 32.5" style="fill:#616161;opacity:0.2;mix-blend-mode:color-burn"/><path d="M9.5,32.1l2.4-.7v1.7l-.6,1.2v.2l-.8,1.6-.7,1.4a19.2,19.2,0,0,0-1.8-2.2,3.2,3.2,0,0,0-.1-.7c-.1-.5-.2-1.2-.3-1.9l.6-.2h0Z" style="fill:#ababab"/><path d="M25.1,33V29.9l4.1.7v.3l-1.2,4.3-.2.6-1.1.3h-.2Z" style="fill:#616161;opacity:0.2;mix-blend-mode:color-burn"/><path d="M25.2,29.5l3.9.4h1a5.4,5.4,0,0,0-.1.8c-.2,1.5-.7,4.5-.7,4.5a20,20,0,0,0-1.9,2.2h0l-.6-1.3-1.5-3Z" style="fill:#ababab"/><path d="M7.5,32.7h0l.6-.2h.6l.8-.2-.6,2.4V35l.9,2.5a21.3,21.3,0,0,0-1.8-2.2,2.1,2.1,0,0,0-.1-.6h0c0-.2-.1-.3-.1-.5v-.3a.1.1,0,0,1-.1-.1v-.4h0A.9.9,0,0,1,7.5,32.7Z" style="fill:#fff;opacity:0.2"/><path d="M27.4,37.4l1-2.4v-.3l-.8-3.4,1.6-1.4.3-.3s.6-2.1.6-2.2h.1V30h0v.8h0c-.2,1-.4,2.7-.6,3.7v.2a2.8,2.8,0,0,0-.1.6c-.1,0-1.9,2.2-1.9,2.2h0Z" style="fill:#fff;opacity:0.2"/><path d="M18.7,49.4l2.3-.7,1.4-1.8v-3l-.5-.3v3.1s-.1,1.1-1,1.1a6,6,0,0,1-2.2-.6,6.8,6.8,0,0,1-2.2.6c-.9,0-1-1.1-1-1.1V43.6l-.4.3-.3,2.8,1.3,2Z" style="fill:#333"/><path d="M28.8,32.5c.1-.5.4-.9.7-.9l.3.2-.2-1H30c-.2,1-.4,2.7-.6,3.7h0A8,8,0,0,1,28.8,32.5Z" style="fill:#333"/><path d="M22.7,36.2c.1,0,.1.1.1.2a.9.9,0,0,0,1.2.4c.5-.2.8-.6.6-1.1s-.1-.2-.2-.3a1,1,0,0,0,.6-1.1.9.9,0,0,0-1.3-.5c-.2,0-.6.4-.7.5l.2-1.4-1.5.7,1.1.8H22a.9.9,0,0,0-.5,1.2A1.2,1.2,0,0,0,22.7,36.2Z" style="fill:#616161;opacity:0.2;mix-blend-mode:color-burn"/><path d="M22.8,36v.2a1,1,0,0,0,1.2.5.9.9,0,0,0,.4-1.2.3.3,0,0,0-.1-.2.9.9,0,0,0,.3-1.1.7.7,0,0,0-1-.4c-.2,0-.5.3-.6.4l.2-1.1-1.3.5.9.7h-.7a1,1,0,0,0-.5,1.2A.9.9,0,0,0,22.8,36Z" style="fill:#ffd675"/><path d="M22.8,34.1l-.4-.4.5-.3Zm1.1-.2c.2,0,.5.2.5.4a.5.5,0,0,1-.2.8h-.3l.2.2c.1.1.1.1.1.2a.7.7,0,0,1-.3.9h-.3a.6.6,0,0,1-.6-.4h0v-.3h-.5a.8.8,0,0,1-.6-.4V35a.8.8,0,0,1,.4-.4h.6l.4-.2.4-.3Z" style="fill:#616161;opacity:0.2;mix-blend-mode:color-burn"/><path d="M7.5,32.7a.6.6,0,0,0,.1.4h0v.4a.1.1,0,0,0,.1.1V34c0,.2.1.3.1.5h0a2.1,2.1,0,0,1,.1.6,21.3,21.3,0,0,1,1.8,2.2h0l1.4-1.3,2.1.5,1.2.3,1.3.3h.1l-.2.5,1.3.6v.3a6.1,6.1,0,0,0-1.7,3.4,14.8,14.8,0,0,0-.1,1.6H15l-.3,2.8h0c0,.2-.1.4-.1.6a2,2,0,0,0,2.1,2,.9.9,0,0,0-.1.5c.1.5,1.1,1.1,2.1,1.1V29.4h-.2l-.5.2-1.2.3h-.4l-.9.3h-.3l-3.1.9h-.2l-2.4.7-1.2.3H8.1l-.6.2Z" style="fill:#616161;opacity:0.2;mix-blend-mode:color-burn"/><path d="M7.1,11.2v-.3a1.1,1.1,0,0,0-2.2,0v.4a1,1,0,0,0-.9,1,1,1,0,0,0,1,1.1l.8-.3-.7,1.3H6.9l-.8-1.3.9.3a1.1,1.1,0,0,0,1.1-1.1A1,1,0,0,0,7.1,11.2Z" style="fill:#333"/><path d="M9.2,23.5c-.1.5-.5.9-.9.8l-.5-.2.3,1.1H7.6c.2-1,.4-2.7.6-3.7v-.2a.8.8,0,0,1,.5,1c0,.1,0,.2-.1.2S9.2,23,9.2,23.5Z" style="fill:#333"/><path d="M30.1,23.2H28.9a.9.9,0,0,1,.5-1.1v-.2a1,1,0,0,1,.5-1h0a.7.7,0,0,1,.1.5c0,.1,0,.2.1.2h0v.4h0A.9.9,0,0,1,30.1,23.2Z" style="fill:#333"/><path d="M7.1,11.2v-.3A1.1,1.1,0,0,0,6,9.8H6v4.6h.9l-.8-1.3.9.3a1.1,1.1,0,0,0,1.1-1.1A1,1,0,0,0,7.1,11.2Z" style="fill:#616161;opacity:0.2;mix-blend-mode:color-burn"/><path d="M33.6,44.3v.3a1.1,1.1,0,0,0,2.2,0v-.4a1,1,0,0,0,.9-1,1,1,0,0,0-1-1.1l-.8.3.7-1.2H33.8l.8,1.2-.9-.3a1.1,1.1,0,0,0-1.1,1.1A1,1,0,0,0,33.6,44.3Z" style="fill:#333"/><path d="M33.6,44.3v.3a1.1,1.1,0,0,0,1.1,1.1h0V41.2h-.9l.8,1.2-.9-.3a1.1,1.1,0,0,0-1.1,1.1A1,1,0,0,0,33.6,44.3Z" style="fill:#616161;opacity:0.2;mix-blend-mode:color-burn"/></g></g></svg>