<svg xmlns="http://www.w3.org/2000/svg" viewBox="0 0 39.8 55.7"><g style="isolation:isolate"><g id="ee68eb29-c313-49f5-87ec-b0edbf35976d" data-name="Layer 1"><path d="M4.4,55.5A4.4,4.4,0,0,1,.1,51.3V4.4A4.2,4.2,0,0,1,4.3.3H35.2a4.2,4.2,0,0,1,4.3,4.1V51.3a4.2,4.2,0,0,1-4.3,4.1Z" style="fill:#c9c9c9"/><path d="M4.7,55.4A4.1,4.1,0,0,1,.5,51.3V4.4A4.1,4.1,0,0,1,4.6.3h31a4.2,4.2,0,0,1,4.2,4.2V51.3a4.2,4.2,0,0,1-4.2,4.1Z" style="fill:#fff"/><path d="M35.3,54.5H4.8a3.3,3.3,0,0,1-3.3-3.2V4.5A3.2,3.2,0,0,1,4.8,1.3H35.3a3.2,3.2,0,0,1,3.2,3.2V51.3A3.2,3.2,0,0,1,35.3,54.5ZM4.8,2.6a1.9,1.9,0,0,0-2,1.9V51.3a2,2,0,0,0,2,1.9H35.3a1.9,1.9,0,0,0,1.9-1.9V4.5a1.8,1.8,0,0,0-1.9-1.9Z" style="fill:#d66142"/><path d="M7.5,7.9l-.3.2c-.3.2-.5.4-.7.4l-1-1.9H5.4V8.3H4.1V3.9H5.4V6.4c.2,0,.4-.2.6-.4a2.5,2.5,0,0,0,.2-.7c0-.2,0-.3-.1-.4S6,4.7,6,4.6l.4-.4.5-.4c0,.1.1.2.2.4v.4a.8.8,0,0,1-.1.4l-.2.4-.3.4-.3.3Z" style="fill:#333"/><path d="M32.7,48.4l.3-.3.7-.3,1.1,1.9h0V48h1.3v4.4H34.8V49.9a.7.7,0,0,0-.6.4,2.5,2.5,0,0,0-.2.7c0,.2,0,.3.1.4s.1.2.1.3l-.4.4-.5.3-.2-.3c0-.1-.1-.3-.1-.4s.1-.2.1-.4l.2-.4.3-.4.3-.3Z" style="fill:#333"/><path d="M31.3,17.9v5.5l-5.7,1.7L14.8,28.3l-1.1.4-5,1.4V17.6l.4-.2h.1l4-2.2.3-.2.3-.2.4-.2.8-.4h.1l.3-.2h0l.4-.2H24l.3.2.4.2h.9l3.4,2h.3l.5.3.3.2h.2l.3.2h.2l.4.2Z" style="fill:#d66142"/><path d="M20,19.9l-2-3.6h4.1Zm-1.6-3.4L20,19.4l1.7-2.9Z" style="fill:#ffd675"/><path d="M17.3,13.4,9.8,17.6l-1,3.2v9.3l4.9-1.4,1.1-.4,2.9-9.6.4-1.3.6-1.2L20,13.4H17.3Z" style="fill:#616161;opacity:0.2;mix-blend-mode:color-burn"/><path d="M16.2,13.4h-.4l-.4.2h0l-.3.2H15l-.8.4-.4.2-.3.2-.3.2-1.5.8-.4.3L9.2,17.3H9.1l-.3.2V30.1l.8-.2.5-.2,3.5-1h.1a11.2,11.2,0,0,1,.5-1.3c1.2-2.8,2.6-6.4,3.5-8.7l1-2.4h0l.2-2.8Z" style="fill:#ebebeb"/><path d="M31.3,21.4l-1.1-3.8-7.5-4.2H20l1.8,4,2.4,8.2,7.1-2.5Z" style="fill:#616161;opacity:0.2;mix-blend-mode:color-burn"/><path d="M31.3,17.9v5.5l-5.7,1.7c-.9-1.7-3-6-3.9-7.9l-.4-.9L21,13.4h3l.3.2.4.2h.9l3.4,2h.3l.5.3.3.2h.2l.3.2h.2l.4.2Z" style="fill:#ebebeb"/><polygon points="24.3 11.5 24.2 10.5 24.2 10.5 24 7.4 22.9 6.8 20.6 5.6 20 6 19.4 5.6 17.2 6.8 16 7.4 15.8 10.5 15.8 10.5 15.7 11.5 16 14.4 20 17.4 20 17.4 20 17.4 20 17.4 20 17.4 20 17.4 20 17.4 24 14.4 24.3 11.5" style="fill:#ebbe9f"/><path d="M20,13.4h1.4l-1-.6h-.7l-1.1.6Z" style="fill:#ebbe9f"/><polygon points="20.8 11.4 20.3 9.5 20 9.5 20 9.5 19.7 9.5 19.2 11.4 19.7 12 20 12 20 12 20 12 20 12 20 12 20.3 12 20.8 11.4" style="fill:#616161;opacity:0.2;mix-blend-mode:color-burn"/><polygon points="20.6 8.9 22.4 8.7 22.4 8.7 22.4 8.7 23.2 9.2 22.3 8.9 22.4 8.9 20.7 9.4 20.6 8.9" style="fill:#9c9c9c"/><path d="M21.2,9.7v.2a.5.5,0,0,0,.5.5.5.5,0,0,0,.5-.5V9.7Z" style="fill:#333"/><polygon points="19.4 8.9 17.7 8.7 17.6 8.7 17.6 8.7 16.8 9.2 17.7 8.9 17.6 8.9 19.3 9.4 19.4 8.9" style="fill:#9c9c9c"/><path d="M18.8,9.7v.2a.5.5,0,0,1-.5.5.5.5,0,0,1-.5-.5V9.7Z" style="fill:#333"/><path d="M24.2,10.5h0l-.8-2.8-.5-.9,1.1.6.2,3.1Z" style="fill:#9c9c9c"/><path d="M15.8,10.5h0l.8-2.8.6-.9L16,7.4l-.2,3.1Z" style="fill:#9c9c9c"/><path d="M24.1,6.2V7.4a17.5,17.5,0,0,1-3.3.5H16.9l-1-.2V6.4L20,4.2l1.2.6.6.3.7.4,1.4.7Z" style="fill:#ffd675"/><path d="M21.8,5.1l-4,2.7h-.9l4.3-2.9Z" style="fill:#fff;opacity:0.2"/><path d="M23.9,6.2,20.8,7.9H18.7l3.8-2.3Z" style="fill:#fff;opacity:0.2"/><polygon points="11.9 21.6 11.8 22.5 12.3 21.7 11.9 21.6" style="fill:#333"/><polygon points="13.8 21.6 13.7 22.5 14.1 21.7 13.8 21.6" style="fill:#333"/><polygon points="15.7 21.6 15.6 22.5 16 21.7 15.7 21.6" style="fill:#333"/><polygon points="9.6 24.7 9.4 25.6 9.9 24.8 9.6 24.7" style="fill:#333"/><polygon points="11.4 24.7 11.3 25.6 11.8 24.8 11.4 24.7" style="fill:#333"/><polygon points="13.3 24.7 13.2 25.6 13.7 24.8 13.3 24.7" style="fill:#333"/><polygon points="10.1 27.8 10 28.7 10.5 27.9 10.1 27.8" style="fill:#333"/><polygon points="12 27.8 11.9 28.7 12.4 27.9 12 27.8" style="fill:#333"/><path d="M14,27.7a1.4,1.4,0,0,1-.2.6h0v-.6Z" style="fill:#333"/><polygon points="15.2 16.2 15.1 17.2 15.6 16.3 15.2 16.2" style="fill:#333"/><polygon points="13.3 15.8 13.2 16.8 13.7 15.9 13.3 15.8" style="fill:#333"/><path d="M11.6,16.2l-.3.4v-.3C11.4,16.2,11.5,16.2,11.6,16.2Z" style="fill:#333"/><polygon points="10 29.7 9.8 29.8 9.8 29.7 10 29.7" style="fill:#333"/><polygon points="9.6 18.5 9.5 19.4 9.9 18.6 9.6 18.5" style="fill:#333"/><polygon points="11.7 18.5 11.6 19.4 12 18.6 11.7 18.5" style="fill:#333"/><polygon points="13.6 18.5 13.5 19.4 13.9 18.6 13.6 18.5" style="fill:#333"/><polygon points="15.5 18.5 15.3 19.4 15.8 18.6 15.5 18.5" style="fill:#333"/><polygon points="17.4 16.7 17.3 17.7 17.7 16.8 17.4 16.7" style="fill:#333"/><polygon points="9.8 21.6 9.7 22.5 10.2 21.7 9.8 21.6" style="fill:#333"/><polygon points="28.5 21.6 28.6 22.5 28.2 21.7 28.5 21.6" style="fill:#333"/><polygon points="26.6 21.6 26.7 22.5 26.3 21.7 26.6 21.6" style="fill:#333"/><polygon points="24.7 21.6 24.9 22.5 24.4 21.7 24.7 21.6" style="fill:#333"/><polygon points="25.2 16.2 25.3 17.2 24.9 16.3 25.2 16.2" style="fill:#333"/><polygon points="27.1 15.8 27.2 16.8 26.7 15.9 27.1 15.8" style="fill:#333"/><path d="M28.8,16.2l.3.4v-.3Z" style="fill:#333"/><polygon points="30.8 18.5 30.9 19.4 30.5 18.6 30.8 18.5" style="fill:#333"/><polygon points="28.7 18.5 28.8 19.4 28.4 18.6 28.7 18.5" style="fill:#333"/><polygon points="26.8 18.5 27 19.4 26.5 18.6 26.8 18.5" style="fill:#333"/><polygon points="24.9 18.5 25.1 19.4 24.6 18.6 24.9 18.5" style="fill:#333"/><polygon points="23 16.7 23.1 17.7 22.7 16.8 23 16.7" style="fill:#333"/><polygon points="30.6 21.6 30.7 22.5 30.3 21.7 30.6 21.6" style="fill:#333"/><path d="M24.9,14h0c-.1.9-1.8,2.2-3.2,3.2L20,18.3s-4.9-2.6-5-4.3h.1l.3-.2h0l.4-.2H24l.3.2.4.2h.2Z" style="fill:#616161;opacity:0.2;mix-blend-mode:color-burn"/><path d="M24.2,14c-.2,1.4-4.3,3.5-4.3,3.5s-4.2-2.3-4.1-3.7S17,12,18.4,12a3.7,3.7,0,0,1,1.6.6,4.2,4.2,0,0,1,1.7-.5C23.1,12.1,24.3,13,24.2,14Z" style="fill:#9c9c9c"/><polygon points="19.1 12.7 20 12.9 20.9 12.7 21.2 13.9 18.9 13.8 19.1 12.7" style="fill:#ebbe9f"/><rect x="19.2" y="13.1" width="1.8" height="0.35" style="fill:#616161;opacity:0.2;mix-blend-mode:color-burn"/><path d="M22,20.9c0,1-2.1,2.6-2.1,2.6s-2.1-1.6-1.9-2.7a1.3,1.3,0,0,1,1.3-1.2,1.6,1.6,0,0,1,.8.3,1.1,1.1,0,0,1,.7-.3A1.4,1.4,0,0,1,22,20.9Z" style="fill:#616161;opacity:0.2;mix-blend-mode:color-burn"/><path d="M21.8,20.7c0,.9-1.9,2.3-1.9,2.3s-1.8-1.5-1.8-2.4a1.2,1.2,0,0,1,1.2-1.1c.3,0,.7.4.7.4a1.5,1.5,0,0,1,.7-.3A1,1,0,0,1,21.8,20.7Z" style="fill:#ffd675"/><path d="M19.9,22.3c-.6-.6-1.3-1.3-1.3-1.7a.5.5,0,0,1,.7-.5l.4.2.3.2.3-.2.4-.2.5.2c.1.1.1.2.1.4S20.6,21.7,19.9,22.3Z" style="fill:#616161;opacity:0.2;mix-blend-mode:color-burn"/><path d="M20.7,5.3a3,3,0,0,1-.7.8s-.7-.5-.7-.9a.4.4,0,0,1,.4-.4A.4.4,0,0,1,20,5a.2.2,0,0,1,.3-.1A.4.4,0,0,1,20.7,5.3Z" style="fill:#d66142"/><path d="M31.3,21.4V17.6l-.4-.2h-.2l-.3-.2h-.2l-.3-.2-.5-.3h-.4l-3.3-1.9h-.9l-.4-.2h-.2l.2-2v-1h0l-.2-3h.1V6.2h-.2l-1.4-.7-.7-.4-.6-.3L20,4.2h-.1V26.8l4.3-1.3h0l2.5-.8,4.6-1.4v-.3h0V21.4Z" style="fill:#616161;opacity:0.2;mix-blend-mode:color-burn"/><path d="M31.3,25.5V38c0,.1-.2.1-.4.2h-.1l-.3.2h-.1l-.3.2-.5.3-.5.3-.3.2-.5.2-1.4.9h-.4l-.3.2-.3.2-.8.5h-.5l-.3.2H15.9l-.2-.2h-.5a.1.1,0,0,0-.1-.1h0a.1.1,0,0,1-.1-.1h-.3l-.3-.2-1.7-.9-.7-.5h-.2l-.7-.4H11l-.3-.2-.4-.3H10l-.3-.2H9.4a.1.1,0,0,0-.1-.1L8.8,38V32.3l4.7-1.4h0l1-.3,1.4-.4h0l4.3-1.2,5.2-1.6h0l1.1-.3h0l3.5-1.1h.5Z" style="fill:#d66142"/><path d="M18.6,39.1v.2h2.7v-.2Zm3.1-.4h0l-.4-.5h0L20.1,36v-.2h0l-1.4,2.5h0l-.2.3h0l-.4.8h4.1Zm-3.4.4.2-.2h0L19,38l1-1.7h.1l.8,1.5h0l.6,1H18.3Zm.3,0v.2h2.7v-.2Z" style="fill:#ffd675"/><path d="M22.8,42.3,30.3,38l1-3.2V25.5L26.4,27l-1.1.3-3,9.7-.4,1.3-.5,1.2-1.3,2.7h2.7Z" style="fill:#616161;opacity:0.2;mix-blend-mode:color-burn"/><path d="M23.8,42.3h.5l.3-.2H25c0-.1,0-.1.1-.1l.8-.5.3-.2.4-.2h.3l1.4-.9.5-.2,2-1.2H31c.1-.1.3-.1.3-.2V25.5l-.9.3h-.5L26.4,27h0a6.1,6.1,0,0,0-.5,1.2c-1.2,2.8-2.6,6.4-3.6,8.8a25,25,0,0,0-.9,2.4h0l-.3,2.8Z" style="fill:#ebebeb"/><path d="M20.1,42.2H17.4L16,41.5h-.1l-.6-.4L13,39.8h0L9.9,38,8.7,34.2V32.6l4.7-1.7h0l1-.3,1.4-.4h0l2.4,8h0v.2h.1v.3h.1v.2h.1l1.1,2.3.2.4Z" style="fill:#616161;opacity:0.2;mix-blend-mode:color-burn"/><path d="M19,42.3H15.9l-.2-.2h-.5a.1.1,0,0,0-.1-.1h0a.1.1,0,0,1-.1-.1h-.3l-.3-.2-1.7-.9-.7-.5h-.2l-.7-.4H11l-.3-.2-.4-.3H10l-.3-.2H9.4a.1.1,0,0,0-.1-.1L8.8,38V32.3l4.7-1.4h0l1-.3c.9,1.6,2.8,5.5,3.8,7.6,0,.1.1.2.1.3a.1.1,0,0,1,.1.1.3.3,0,0,0,.1.2h0a.3.3,0,0,1,.1.2c0,.1,0,.1.1.1h0c0,.1.1.1.1.2h0l.2,2.3Z" style="fill:#ebebeb"/><polygon points="15.7 44.1 15.8 45.1 15.8 45.2 16 48.3 17.2 48.9 19.4 50 20 49.7 20.7 50 22.9 48.9 24.1 48.3 24.3 45.2 24.3 45.1 24.4 44.1 24 41.2 20.1 38.3 20.1 38.2 20.1 38.2 20 38.3 20 38.2 20 38.2 20 38.3 16 41.2 15.7 44.1" style="fill:#ebbe9f"/><path d="M20,42.3H18.7l1,.7h.7l1-.7H20Z" style="fill:#ebbe9f"/><polygon points="19.2 44.2 19.8 46.2 20 46.2 20.1 46.2 20.3 46.2 20.9 44.2 20.3 43.6 20.1 43.6 20.1 43.6 20 43.6 20 43.6 20 43.6 19.8 43.6 19.2 44.2" style="fill:#616161;opacity:0.2;mix-blend-mode:color-burn"/><polygon points="19.5 46.7 17.7 46.9 17.7 46.9 17.6 46.9 16.8 46.5 17.7 46.7 17.7 46.7 19.4 46.3 19.5 46.7" style="fill:#9c9c9c"/><path d="M18.8,46a.3.3,0,0,0,.1-.2.5.5,0,0,0-1,0V46Z" style="fill:#333"/><polygon points="20.6 46.7 22.4 46.9 22.4 46.9 22.5 46.9 23.3 46.5 22.4 46.7 22.4 46.7 20.7 46.3 20.6 46.7" style="fill:#9c9c9c"/><path d="M21.3,46a.3.3,0,0,1-.1-.2.5.5,0,0,1,1,0V46Z" style="fill:#333"/><path d="M15.8,45.1h.1l.8,2.9.5.9L16,48.3l-.2-3.1Z" style="fill:#9c9c9c"/><path d="M24.3,45.1h-.1L23.4,48l-.5.9,1.2-.6.2-3.1Z" style="fill:#9c9c9c"/><path d="M16,49.4V48.2a11.9,11.9,0,0,1,3.3-.4h4.9v1.1l-4.1,2.2-1.2-.6-.7-.3-.6-.3-1.5-.7Z" style="fill:#ffd675"/><path d="M18.2,50.5l4.1-2.6h.9l-4.3,2.8Z" style="fill:#fff;opacity:0.2"/><path d="M16.1,49.5l3.2-1.7h2.1l-3.8,2.4Z" style="fill:#fff;opacity:0.2"/><polygon points="28.1 34.1 28.3 33.1 27.8 33.9 28.1 34.1" style="fill:#333"/><polygon points="26.2 34.1 26.4 33.1 25.9 33.9 26.2 34.1" style="fill:#333"/><polygon points="24.4 34.1 24.5 33.1 24 33.9 24.4 34.1" style="fill:#333"/><polygon points="30.5 31 30.6 30 30.2 30.9 30.5 31" style="fill:#333"/><polygon points="28.6 31 28.7 30 28.3 30.9 28.6 31" style="fill:#333"/><polygon points="26.7 31 26.9 30 26.4 30.9 26.7 31" style="fill:#333"/><polygon points="29.9 27.9 30 26.9 29.6 27.7 29.9 27.9" style="fill:#333"/><polygon points="28 27.9 28.2 26.9 27.7 27.7 28 27.9" style="fill:#333"/><path d="M26,27.9l.3-.6h0V28Z" style="fill:#333"/><polygon points="24.8 39.4 25 38.5 24.5 39.3 24.8 39.4" style="fill:#333"/><polygon points="26.7 39.8 26.9 38.9 26.4 39.7 26.7 39.8" style="fill:#333"/><path d="M28.5,39.5l.2-.5v.4Z" style="fill:#333"/><polygon points="30.1 25.9 30.3 25.8 30.3 26 30.1 25.9" style="fill:#333"/><polygon points="30.4 37.2 30.6 36.2 30.1 37.1 30.4 37.2" style="fill:#333"/><polygon points="28.3 37.2 28.5 36.2 28 37.1 28.3 37.2" style="fill:#333"/><polygon points="26.5 37.2 26.6 36.2 26.1 37.1 26.5 37.2" style="fill:#333"/><polygon points="24.6 37.2 24.7 36.2 24.2 37.1 24.6 37.2" style="fill:#333"/><polygon points="22.6 38.9 22.8 38 22.3 38.8 22.6 38.9" style="fill:#333"/><polygon points="30.2 34.1 30.4 33.1 29.9 33.9 30.2 34.1" style="fill:#333"/><polygon points="11.6 34.1 11.4 33.1 11.9 33.9 11.6 34.1" style="fill:#333"/><polygon points="13.4 34.1 13.3 33.1 13.8 33.9 13.4 34.1" style="fill:#333"/><polygon points="15.3 34.1 15.2 33.1 15.7 33.9 15.3 34.1" style="fill:#333"/><polygon points="14.9 39.4 14.7 38.5 15.2 39.3 14.9 39.4" style="fill:#333"/><polygon points="13 39.8 12.8 38.9 13.3 39.7 13 39.8" style="fill:#333"/><path d="M11.2,39.5l-.3-.5v.4Z" style="fill:#333"/><polygon points="9.2 37.2 9.1 36.2 9.6 37.1 9.2 37.2" style="fill:#333"/><polygon points="11.3 37.2 11.2 36.2 11.7 37.1 11.3 37.2" style="fill:#333"/><polygon points="13.2 37.2 13.1 36.2 13.6 37.1 13.2 37.2" style="fill:#333"/><polygon points="15.1 37.2 15 36.2 15.5 37.1 15.1 37.2" style="fill:#333"/><polygon points="17 38.9 16.9 38 17.4 38.8 17 38.9" style="fill:#333"/><polygon points="9.5 34.1 9.3 33.1 9.8 33.9 9.5 34.1" style="fill:#333"/><path d="M15.1,41.6h0c.2-.8,1.9-2.2,3.2-3.1L20,37.4s5,2.5,5,4.2h-.4l-.3.2H16.1l-.4-.2h-.5A.1.1,0,0,0,15.1,41.6Z" style="fill:#616161;opacity:0.2;mix-blend-mode:color-burn"/><path d="M15.9,41.7c.1-1.4,4.2-3.6,4.2-3.6s4.2,2.3,4.2,3.8-1.2,1.8-2.6,1.7a4.2,4.2,0,0,1-1.7-.5,2.8,2.8,0,0,1-1.6.4C17,43.5,15.8,42.7,15.9,41.7Z" style="fill:#9c9c9c"/><polygon points="20.9 43 20 42.8 19.1 43 18.9 41.8 21.1 41.8 20.9 43" style="fill:#ebbe9f"/><rect x="19.1" y="42.2" width="1.8" height="0.35" style="fill:#616161;opacity:0.2;mix-blend-mode:color-burn"/><path d="M18,34.7c0-1,2.2-2.5,2.2-2.5s2,1.6,1.9,2.7a1.4,1.4,0,0,1-1.4,1.2,1.5,1.5,0,0,1-.7-.3s-.4.3-.7.2A1.5,1.5,0,0,1,18,34.7Z" style="fill:#616161;opacity:0.2;mix-blend-mode:color-burn"/><path d="M18.2,34.9c.1-.9,1.9-2.2,1.9-2.2s1.8,1.4,1.8,2.3a1.1,1.1,0,0,1-1.1,1.1,1.6,1.6,0,0,1-.8-.3,1.1,1.1,0,0,1-.7.3A1.2,1.2,0,0,1,18.2,34.9Z" style="fill:#ffd675"/><path d="M20.1,33.3A3.9,3.9,0,0,1,21.4,35a.6.6,0,0,1-.6.6l-.4-.2-.4-.3-.3.3-.4.2a.5.5,0,0,1-.4-.2.8.8,0,0,1-.2-.4C18.7,34.6,19.4,33.9,20.1,33.3Z" style="fill:#616161;opacity:0.2;mix-blend-mode:color-burn"/><path d="M19.4,50.4c0-.3.7-.8.7-.8s.6.5.6.8a.4.4,0,0,1-.4.4h-.5A.4.4,0,0,1,19.4,50.4Z" style="fill:#d66142"/><path d="M15.8,30.2l-1.4.4-1,.3h0L8.7,32.3V38l.5.3a.1.1,0,0,1,.1.1h.3l.3.2h.3l.4.3.3.2h.2v-.2l.7.4H12l.7.5,1.7.9.3.2H15a.1.1,0,0,0,.1.1h0a.1.1,0,0,1,.1.1h.5l.2.2h0l-.2,1.9v1h0l.2,3h0v1.2h.1l1.5.7.6.3.7.3,1.2.6h0V49.7h0V43.1h0v-.7h0V38.3h0V36h0V28.9l-4.3,1.3h0Z" style="fill:#616161;opacity:0.2;mix-blend-mode:color-burn"/><path d="M8.7,11.4c-.1,1.3-2.6,3.2-2.6,3.2s-2.7-1.9-2.7-3.2A1.6,1.6,0,0,1,5,9.8a2.2,2.2,0,0,1,1.1.5,1.7,1.7,0,0,1,1-.5A1.6,1.6,0,0,1,8.7,11.4Z" style="fill:#d66142"/><path d="M7.1,9.8a1.7,1.7,0,0,0-1,.5h0v4.3h0s2.5-1.9,2.6-3.2A1.6,1.6,0,0,0,7.1,9.8Z" style="fill:#616161;opacity:0.2;mix-blend-mode:color-burn"/><path d="M31.5,44.6c.1-1.3,2.7-3.3,2.7-3.3s2.6,2,2.6,3.3a1.6,1.6,0,0,1-1.6,1.6,1.7,1.7,0,0,1-1-.5,1.6,1.6,0,0,1-1.1.4A1.6,1.6,0,0,1,31.5,44.6Z" style="fill:#d66142"/><path d="M33.1,46.1a1.6,1.6,0,0,0,1.1-.4h0V41.3h0s-2.6,2-2.7,3.3A1.6,1.6,0,0,0,33.1,46.1Z" style="fill:#616161;opacity:0.2;mix-blend-mode:color-burn"/></g></g></svg>