<svg xmlns="http://www.w3.org/2000/svg" xmlns:xlink="http://www.w3.org/1999/xlink" viewBox="0 0 39.8 55.7"><defs><clipPath id="e53fd30c-5794-4b5d-a859-d279b40db0d0"><path d="M4.8,121.4a4.2,4.2,0,0,1-4.2-4.2V70a4.1,4.1,0,0,1,4.2-4.1H35.6A4.1,4.1,0,0,1,39.8,70v47.2a4.2,4.2,0,0,1-4.2,4.2Z" style="fill:none"/></clipPath><linearGradient id="ed93fd1b-0d45-4d8a-a9b0-fcf0a7096792" x1="0.07" y1="73.57" x2="39.7" y2="73.57" gradientUnits="userSpaceOnUse"><stop offset="0" stop-color="#be965d"/><stop offset="0.28" stop-color="#976f40"/><stop offset="0.43" stop-color="#c99b61"/><stop offset="0.56" stop-color="#f0be7b"/><stop offset="0.63" stop-color="#ffcb85"/><stop offset="0.71" stop-color="#eebc79"/><stop offset="0.87" stop-color="#c0935b"/><stop offset="1" stop-color="#976f40"/></linearGradient></defs><g style="isolation:isolate"><g id="b372d016-592b-4c1a-a420-f335932b0d32" data-name="Layer 1"><path d="M4.5,55.6A4.2,4.2,0,0,1,.2,51.4V4.3A4.1,4.1,0,0,1,4.3.2H35.5a4.2,4.2,0,0,1,4.2,4.2v47a4.2,4.2,0,0,1-4.2,4.2Z" style="fill:#c9c9c9"/><path d="M4.5,55.5A4.2,4.2,0,0,1,.3,51.3V4.3A4.2,4.2,0,0,1,4.5.1H35.2a4.1,4.1,0,0,1,4.1,4.2v47a4.1,4.1,0,0,1-4.1,4.2Z" style="fill:#fff"/><path d="M35.5,54.6H4.9a3.3,3.3,0,0,1-3.3-3.2V4.4A4.2,4.2,0,0,1,3.7,1H34.6c3.1.2,4.2,1.9,4.2,3.4v47A3.3,3.3,0,0,1,35.5,54.6ZM4.1,2.3A2.5,2.5,0,0,0,2.9,4.4v47a2,2,0,0,0,2,1.9H35.5a2,2,0,0,0,2-1.9V4.4c0-1.2-1.1-2-3-2.1Z" style="fill:#d66142"/><path d="M7.6,6a2,2,0,0,1-.1.7l-.4.6-.3.2-.6.4H6.1l-.2.2.5.2.6.2H7L6.8,9H6.6l-.4-.3a.9.9,0,0,0-.6-.3H4.9l.2-.2.3-.2-.6-.4-.6-.5-.3-.6a1.3,1.3,0,0,1-.1-.6A1.5,1.5,0,0,1,4,5.3l.4-.5.7-.6.7-.5.4.3.8.7.5.6A1.5,1.5,0,0,1,7.6,6Zm-1,.5a1.5,1.5,0,0,0-.1-.6l-.3-.6-.7-.6-.4-.3-.2.4-.2.5a2.9,2.9,0,0,0,.2.9,1.9,1.9,0,0,0,.6.7l.7.7a.5.5,0,0,0,.3-.5A1.3,1.3,0,0,0,6.6,6.5Z" style="fill:#333"/><path d="M32.9,50.3a2,2,0,0,1,.1-.7l.4-.6.3-.3.6-.4h.3l-.5-.2-.5-.2h-.3a.1.1,0,0,1-.1-.1h.3l.3-.3h.1l.4.3.7.3h.3l.2-.2a.1.1,0,0,1,.1.1c0,.1-.1.1-.2.2l-.3.2.7.5c.2.1.3.3.5.5a3.3,3.3,0,0,1,.3.6,1.3,1.3,0,0,1,.1.6,1.1,1.1,0,0,1-.2.8c0,.1-.2.2-.4.5l-.6.5a1.5,1.5,0,0,1-.8.5.6.6,0,0,1-.4-.2l-.8-.7L33,51A1.7,1.7,0,0,1,32.9,50.3Zm1-.6c0,.2.1.4.1.6a1.6,1.6,0,0,0,.4.7l.6.5.4.3c.1,0,.1-.1.2-.3s.2-.4.2-.5a2.9,2.9,0,0,0-.2-.9,2.1,2.1,0,0,0-.6-.8l-.7-.7-.3.6A1.1,1.1,0,0,0,33.9,49.7Z" style="fill:#333"/><polygon points="26.1 15.8 26.1 16.7 26.1 17.2 25.9 19.4 25.9 19.9 25.8 20.6 25.8 20.6 25.8 21.2 25.3 21.2 25 21.2 24.5 21.3 24.3 21.3 23.9 21.3 23.3 21.3 22.7 21.3 19.6 21.4 19.6 21.4 16.5 21.3 15.8 21.3 15.2 21.3 14.9 21.3 14.6 21.3 14.3 21.2 14.1 21.2 13.9 21.2 13.4 21.2 13.3 20.6 13.3 20.6 13.3 19.9 13.2 19.4 13.1 17.2 13 16.7 13 15.8 26.1 15.8" style="fill:#c9c9c9"/><path d="M25.5,15.8l-3.8,2.8h-.1a2.6,2.6,0,0,1-1.1,1l-.9.2h0v-4Z" style="fill:#616161;opacity:0.2;mix-blend-mode:color-burn"/><path d="M28.3,24.4l-2.5.8h-.4a1.4,1.4,0,0,0-.4-.7h-.1a1.6,1.6,0,0,0-.3.9l-.7.2L19.6,27l-2.7.8-.9.3-.2-.3c-1.5-.7-.8-1.8-1.6-3.1h-.1c0,.1-1.8,2.8-2.1,4.8h-.2l-1.8.5h0a13,13,0,0,1,2.2-8l.2-.3.2-.3h0l.2-.2h.1l.4-.4h.3v-.2L14,20H25.2l.2.2.2.2h0a.1.1,0,0,1,.1.1h.2a.1.1,0,0,1,.1.1l.2.2h.1c.1.1.1.2.2.2h0l.2.3.2.3A11.7,11.7,0,0,1,28.3,24.4Z" style="fill:#fdd8ab"/><path d="M19.6,22.8h.5l-.2,2.1h-.3Z" style="fill:#616161;opacity:0.2;mix-blend-mode:color-burn"/><path d="M19.6,15.8h-6l3.9,2.8h0s1.2,1.2,2,1.2h.1Z" style="fill:#616161;opacity:0.2;mix-blend-mode:color-burn"/><path d="M19.6,22.8H19l.2,2.1h.4Z" style="fill:#616161;opacity:0.2;mix-blend-mode:color-burn"/><path d="M17.5,24.5c-2.9-.6-4.5-1.6-5.3-2.6a15.6,15.6,0,0,1,1.5-1.7Z" style="fill:#616161;opacity:0.2;mix-blend-mode:color-burn"/><path d="M24.8,21a3.2,3.2,0,0,1-.8,2,3.6,3.6,0,0,1-1.5,1.2h-.1l-.8.3-1.7.4h-.7l-1.7-.4-.8-.3h0A4,4,0,0,1,15.1,23a3.2,3.2,0,0,1-.8-2c0-.6-.1-.6.2-1.1h4.1v-.6l.9.2h.1l.9-.2v.6h4.1C24.9,20.4,24.8,20.4,24.8,21Z" style="fill:#fdd8ab"/><path d="M24.6,19.9H23.1l-.7,2.3h-.6a3.5,3.5,0,0,0-2.2.9,4.4,4.4,0,0,0-2.3-1h-.6L16,19.9H14.5c-.3.5-.2.5-.2,1.1a3.2,3.2,0,0,0,.8,2h0a.1.1,0,0,0,.1.1l.2.2.2.2h.1l.4.2h.1l.5.3h0l.8.3,1.7.4h.7l1.7-.4.8-.3h.1l.5-.3h0l.4-.3h.1l.3-.2a.3.3,0,0,1,.1-.2H24a3.2,3.2,0,0,0,.8-2C24.8,20.4,24.9,20.4,24.6,19.9Z" style="fill:#616161;opacity:0.2;mix-blend-mode:color-burn"/><path d="M20.5,19v.3l-.9.2h-.1l-.9-.2V19c0-.1.1-.2.1-.3h0a1,1,0,0,1,.8-.5h.1a1.2,1.2,0,0,1,.8.4v.2A.4.4,0,0,1,20.5,19Z" style="fill:#fdd8ab"/><path d="M20.5,19v.3l-.9.2h-.1l-.9-.2V19c0-.1.1-.2.1-.3h0l.8.3h.1l.8-.4v.2A.4.4,0,0,1,20.5,19Z" style="fill:#616161;opacity:0.2;mix-blend-mode:color-burn"/><path d="M26.9,21.9c-.8,1-2.4,2-5.3,2.6l1.6-1.7v-.2l1.2-1.3.3-.3.6-.8.2.2h0a.1.1,0,0,1,.1.1h.2a.1.1,0,0,1,.1.1l.2.2h.1c.1.1.1.2.2.2h0l.2.3Z" style="fill:#616161;opacity:0.2;mix-blend-mode:color-burn"/><path d="M27.3,18.9v.6a3.6,3.6,0,0,1-.8,1.8h0a5.9,5.9,0,0,1-2,1.8h-.2a7.7,7.7,0,0,1-1.8,1h-.2l-.4.2h-.3l1.7-3.2.6-1.1v-.3l2.1-4.1A5.4,5.4,0,0,1,27.3,18.9Z" style="fill:#ebebeb"/><path d="M17.5,24.5a11.3,11.3,0,0,1-2.7-1.3h-.2c-1.9-1.2-2.6-2.5-2.7-3.6a1.3,1.3,0,0,1-.1-.6A5.4,5.4,0,0,1,13,15.8Z" style="fill:#ebebeb"/><polygon points="13.7 21 14.2 21.7 14 20.9 13.7 21" style="fill:#333"/><polygon points="15.6 22.8 16.1 23.5 15.9 22.6 15.6 22.8" style="fill:#333"/><polygon points="12.7 16.7 13.2 17.4 13 16.6 12.7 16.7" style="fill:#333"/><polygon points="13.4 18.2 14 18.9 13.7 18.1 13.4 18.2" style="fill:#333"/><polygon points="14.1 19.7 14.7 20.5 14.4 19.6 14.1 19.7" style="fill:#333"/><polygon points="14.9 21.2 15.4 22 15.2 21.1 14.9 21.2" style="fill:#333"/><path d="M14.8,23.2h-.2l-.3-.4h.3Z" style="fill:#333"/><polygon points="12.3 18 12.8 18.7 12.6 17.8 12.3 18" style="fill:#333"/><polygon points="13 19.5 13.5 20.2 13.3 19.3 13 19.5" style="fill:#333"/><path d="M12.1,19.8l-.2-.3a1.3,1.3,0,0,1-.1-.6h0Z" style="fill:#333"/><polygon points="12.6 20.9 13.1 21.6 12.9 20.7 12.6 20.9" style="fill:#333"/><polygon points="25.4 21 24.9 21.7 25.1 20.9 25.4 21" style="fill:#333"/><polygon points="23.6 22.8 23 23.5 23.3 22.6 23.6 22.8" style="fill:#333"/><polygon points="26.4 16.7 25.9 17.4 26.1 16.6 26.4 16.7" style="fill:#333"/><polygon points="25.7 18.2 25.2 18.9 25.4 18.1 25.7 18.2" style="fill:#333"/><polygon points="25 19.7 24.4 20.5 24.7 19.6 25 19.7" style="fill:#333"/><polygon points="24.3 21.2 23.7 22 24 21.1 24.3 21.2" style="fill:#333"/><path d="M24.3,23.2h.2l.3-.4h-.3Z" style="fill:#333"/><polygon points="26.9 18 26.3 18.7 26.6 17.8 26.9 18" style="fill:#333"/><polygon points="26.1 19.5 25.6 20.2 25.9 19.3 26.1 19.5" style="fill:#333"/><path d="M27.3,18.9v.6l-.3.3.3-.9Z" style="fill:#333"/><polygon points="26.5 20.9 26 21.6 26.3 20.7 26.5 20.9" style="fill:#333"/><path d="M24.9,24.6a1.6,1.6,0,0,0-.3.9l-.7.2L19.6,27l-2.7.8-.9.3-.2-.3c-1.5-.7-.8-1.8-1.6-3.1h0a3.7,3.7,0,0,1,1.2-1.3,3.2,3.2,0,0,1,1.9-.7,4.4,4.4,0,0,1,2.3,1,3.5,3.5,0,0,1,2.2-.9,3.6,3.6,0,0,1,2,.6A2.8,2.8,0,0,1,24.9,24.6Z" style="fill:#d66142"/><path d="M27,9.4c-.2,3.6-7.4,9.1-7.4,9.1S12.1,13,12.1,9.4a4.5,4.5,0,0,1,4.5-4.5,6,6,0,0,1,3,1.3,5.5,5.5,0,0,1,2.9-1.3A4.5,4.5,0,0,1,27,9.4Z" style="fill:#d66142"/><path d="M16.9,27.8l-.9.3-.2-.3c-1.6-.7-.8-1.8-1.7-3.3A14.9,14.9,0,0,0,12,29.3h-.2c-.5-2.1,2.8-5.6,2.8-5.6S15.8,27.3,16.9,27.8Z" style="fill:#616161;opacity:0.2;mix-blend-mode:color-burn"/><path d="M25.8,25.2h-.4a1.4,1.4,0,0,0-.4-.7h0a2.6,2.6,0,0,0-.4,1l-.7.2a4.7,4.7,0,0,0,.5-2A11.4,11.4,0,0,1,25.8,25.2Z" style="fill:#616161;opacity:0.2;mix-blend-mode:color-burn"/><path d="M20.6,9.9c-.8,0-.8.4-1,.8s-.3-.8-1.1-.8-2,2.4-2,4.4a5.6,5.6,0,0,0,1.1,3.5h0a2.2,2.2,0,0,0,1.2.9l.8.2h0l.8-.2a2.3,2.3,0,0,0,1.1-.9h.1a6.3,6.3,0,0,0,1-3.5C22.6,12.3,21.6,10,20.6,9.9Z" style="fill:#fdd8ab"/><path d="M17.3,14h-.1c0,.2.3.4.7.4s.6-.2.6-.4H17.3Z" style="fill:#333"/><path d="M21.9,14h0c0,.2-.3.4-.7.4s-.6-.2-.6-.4h1.3Z" style="fill:#333"/><path d="M20.4,17.2H18.7a1.3,1.3,0,0,0,.9.4h0A1.2,1.2,0,0,0,20.4,17.2Z" style="fill:#d66f53"/><path d="M19.6,17.2c-.4-.5-1,.1-1,.1h1.9S20,16.7,19.6,17.2Z" style="fill:#d66142"/><path d="M19.6,14.7h0l-.5,1.6h1Z" style="fill:#616161;opacity:0.2;mix-blend-mode:color-burn"/><polygon points="20.5 13 21.8 13.1 21.8 13.1 21.8 13.1 22.3 13.7 21.8 13.2 21.8 13.2 20.5 13.3 20.5 13" style="fill:#d66142"/><polygon points="18.7 13.3 17.4 13.2 17.5 13.2 16.9 13.7 17.4 13.1 17.4 13.1 17.4 13.1 18.7 13 18.7 13.3" style="fill:#d66142"/><path d="M24.9,24.6a1.6,1.6,0,0,0-.3.9l-.7.2L19.6,27l-2.7.8-.9.3-.2-.3c-1.5-.7-.8-1.8-1.6-3.1h0a3.7,3.7,0,0,1,1.2-1.3,3.2,3.2,0,0,1,1.9-.7,4.4,4.4,0,0,1,2.3,1,3.5,3.5,0,0,1,2.2-.9,3.6,3.6,0,0,1,2,.6A2.8,2.8,0,0,1,24.9,24.6Z" style="fill:#d66142"/><path d="M27,9.4c-.2,3.6-7.4,9.1-7.4,9.1S12.1,13,12.1,9.4a4.5,4.5,0,0,1,4.5-4.5,6,6,0,0,1,3,1.3,5.5,5.5,0,0,1,2.9-1.3A4.5,4.5,0,0,1,27,9.4Z" style="fill:#d66142"/><path d="M16.9,27.8l-.9.3-.2-.3c-1.6-.7-.8-1.8-1.7-3.3A14.9,14.9,0,0,0,12,29.3h-.2c-.5-2.1,2.8-5.6,2.8-5.6S15.8,27.3,16.9,27.8Z" style="fill:#616161;opacity:0.2;mix-blend-mode:color-burn"/><path d="M25.8,25.2h-.4a1.4,1.4,0,0,0-.4-.7h0a2.6,2.6,0,0,0-.4,1l-.7.2a4.7,4.7,0,0,0,.5-2A11.4,11.4,0,0,1,25.8,25.2Z" style="fill:#616161;opacity:0.2;mix-blend-mode:color-burn"/><path d="M20.6,9.9c-.8,0-.8.4-1,.8s-.3-.8-1.1-.8-2,2.4-2,4.4a5.6,5.6,0,0,0,1.1,3.5h0a2.2,2.2,0,0,0,1.2.9l.8.2h0l.8-.2a2.3,2.3,0,0,0,1.1-.9h.1a6.3,6.3,0,0,0,1-3.5C22.6,12.3,21.6,10,20.6,9.9Z" style="fill:#fdd8ab"/><path d="M17.3,14h-.1c0,.2.3.4.7.4s.6-.2.6-.4H17.3Z" style="fill:#333"/><path d="M21.9,14h0c0,.2-.3.4-.7.4s-.6-.2-.6-.4h1.3Z" style="fill:#333"/><path d="M20.4,17.2H18.7a1.3,1.3,0,0,0,.9.4h0A1.2,1.2,0,0,0,20.4,17.2Z" style="fill:#d66f53"/><path d="M19.6,17.2c-.4-.5-1,.1-1,.1h1.9S20,16.7,19.6,17.2Z" style="fill:#d66142"/><path d="M19.6,14.7h0l-.5,1.6h1Z" style="fill:#616161;opacity:0.2;mix-blend-mode:color-burn"/><polygon points="20.5 13 21.8 13.1 21.8 13.1 21.8 13.1 22.3 13.7 21.8 13.2 21.8 13.2 20.5 13.3 20.5 13" style="fill:#d66142"/><polygon points="18.7 13.3 17.4 13.2 17.5 13.2 16.9 13.7 17.4 13.1 17.4 13.1 17.4 13.1 18.7 13 18.7 13.3" style="fill:#d66142"/><path d="M20.5,9.9h0Z" style="fill:#616161;opacity:0.2;mix-blend-mode:color-burn"/><path d="M20,10.1Z" style="fill:#616161;opacity:0.2;mix-blend-mode:color-burn"/><path d="M20.1,10.1h0Z" style="fill:#616161;opacity:0.2;mix-blend-mode:color-burn"/><path d="M20.3,10h0Z" style="fill:#616161;opacity:0.2;mix-blend-mode:color-burn"/><path d="M21.6,7.5c.1,1-2,2.6-2,2.6s-2.2-1.6-2-2.7a1.3,1.3,0,0,1,1.3-1.2,1.6,1.6,0,0,1,.8.3,1.1,1.1,0,0,1,.7-.3A1.3,1.3,0,0,1,21.6,7.5Z" style="fill:#616161;opacity:0.2;mix-blend-mode:color-burn"/><path d="M21.5,7.6c-.1.9-1.9,2.2-1.9,2.2s-1.8-1.3-1.8-2.3a1.1,1.1,0,0,1,1.1-1.1,1.5,1.5,0,0,1,.7.3,1.6,1.6,0,0,1,.8-.3A1.1,1.1,0,0,1,21.5,7.6Z" style="fill:#ffd675"/><path d="M19.6,9.2c-.7-.6-1.3-1.3-1.3-1.7a.6.6,0,0,1,.6-.6l.4.2.3.3.4-.3.4-.2.4.2a.5.5,0,0,1,.2.4C21,7.9,20.3,8.6,19.6,9.2Z" style="fill:#616161;opacity:0.2;mix-blend-mode:color-burn"/><path d="M26.9,21.9l-.2-.3a.1.1,0,0,0-.1-.1v-.2h0a3.6,3.6,0,0,0,.8-1.8v-.6a5.4,5.4,0,0,0-1.2-3.1H22.7c1.9-1.8,4.2-4.4,4.3-6.4a4.5,4.5,0,0,0-4.5-4.5,5.5,5.5,0,0,0-2.9,1.3h0V27l4.3-1.3h.7a2.6,2.6,0,0,1,.4-1h0a1.4,1.4,0,0,1,.4.7h.4l2.5-.8A11.7,11.7,0,0,0,26.9,21.9Z" style="fill:#616161;opacity:0.2;mix-blend-mode:color-burn"/><polygon points="12.1 40.6 12.1 39.7 12.2 39.2 12.3 37 12.4 36.5 12.4 35.8 12.4 35.8 12.5 35.2 13 35.2 13.2 35.2 13.7 35.1 14 35.1 14.3 35.1 14.9 35.1 15.5 35.1 18.7 35 18.7 35 21.8 35.1 22.4 35.1 23 35.1 23.4 35.1 23.6 35.1 23.9 35.1 24.1 35.2 24.4 35.2 24.9 35.2 24.9 35.8 24.9 35.8 25 36.5 25 37 25.1 39.2 25.2 39.7 25.2 40.6 12.1 40.6" style="fill:#c9c9c9"/><path d="M12.7,40.6l3.9-2.9h0a3.1,3.1,0,0,1,1.1-.9l.9-.2h.1v4Z" style="fill:#616161;opacity:0.2;mix-blend-mode:color-burn"/><path d="M10,32l2.5-.8h.3l.4.7h.1a3.6,3.6,0,0,0,.4-.9l.6-.2,4.4-1.3,2.7-.8.9-.3a.4.4,0,0,0,.1.3c1.5.7.8,1.8,1.6,3.1h.1a16.1,16.1,0,0,0,2.1-4.8h.3l1.7-.5h.1a13.6,13.6,0,0,1-2.3,8c0,.1-.1.2-.2.3l-.2.3h-.2v.2l-.4.4h-.1a.1.1,0,0,1-.1.1h0l-.2.2-.2.2H13.1l-.3-.2c-.1-.1-.1-.1-.1-.2h-.5l-.2-.2a.1.1,0,0,0-.1-.1h-.2c0-.1-.1-.2-.2-.3l-.2-.3A11.7,11.7,0,0,1,10,32Z" style="fill:#fdd8ab"/><path d="M18.7,33.6h-.6l.2-2.1h.4Z" style="fill:#616161;opacity:0.2;mix-blend-mode:color-burn"/><path d="M18.7,40.6h5.9l-3.9-2.9h0s-1.2-1.1-2-1.1h0Z" style="fill:#616161;opacity:0.2;mix-blend-mode:color-burn"/><path d="M18.7,33.6h.5L19,31.5h-.3Z" style="fill:#616161;opacity:0.2;mix-blend-mode:color-burn"/><path d="M20.7,31.9c2.9.6,4.5,1.6,5.3,2.6a9.2,9.2,0,0,1-1.5,1.7Z" style="fill:#616161;opacity:0.2;mix-blend-mode:color-burn"/><path d="M13.4,35.4a3.2,3.2,0,0,1,.8-2,4,4,0,0,1,1.6-1.2h0l.8-.3,1.7-.4H19l1.7.4.8.3h.1a4.4,4.4,0,0,1,1.5,1.2,3.2,3.2,0,0,1,.8,2c0,.6.1.6-.2,1.1H19.6v.6l-.9-.2h-.1l-.9.2v-.6H13.6C13.3,36,13.4,36,13.4,35.4Z" style="fill:#fdd8ab"/><path d="M13.6,36.5h1.5l.7-2.3h.6a3.5,3.5,0,0,0,2.2-.9,4.4,4.4,0,0,0,2.3,1h.6l.7,2.3h1.5c.3-.5.2-.5.2-1.1a3.2,3.2,0,0,0-.8-2h0a.1.1,0,0,0-.1-.1c0-.1-.1-.1-.1-.2l-.3-.2h-.1l-.3-.3H22l-.4-.3h-.1l-.8-.3L19,31.5h-.7l-1.7.4-.8.3h0l-.5.3h-.1l-.4.3h-.1c-.1.1-.2.1-.2.2l-.2.2h-.1a3.2,3.2,0,0,0-.8,2C13.4,36,13.3,36,13.6,36.5Z" style="fill:#616161;opacity:0.2;mix-blend-mode:color-burn"/><path d="M17.7,37.4v-.3l.9-.2h.1l.9.2v.3a.4.4,0,0,1-.1.3h0a.9.9,0,0,1-.8.5h-.1a.8.8,0,0,1-.7-.4v-.2C17.8,37.6,17.7,37.5,17.7,37.4Z" style="fill:#fdd8ab"/><path d="M17.7,37.4v-.3l.9-.2h.1l.9.2v.3a.4.4,0,0,1-.1.3h0l-.8-.3h-.1l-.7.4v-.2C17.8,37.6,17.7,37.5,17.7,37.4Z" style="fill:#616161;opacity:0.2;mix-blend-mode:color-burn"/><path d="M11.3,34.5c.8-1,2.4-2,5.3-2.6L15,33.6h-.1l-1.2,1.4-.3.3-.6.8c-.1-.1-.1-.1-.1-.2h-.1a.1.1,0,0,0-.1-.1h-.3l-.2-.2a.1.1,0,0,0-.1-.1h0c-.1-.1-.1-.2-.2-.2h0c0-.1-.1-.2-.2-.3Z" style="fill:#616161;opacity:0.2;mix-blend-mode:color-burn"/><path d="M10.9,37.5a1.3,1.3,0,0,1,.1-.6,3.4,3.4,0,0,1,.7-1.8h0a5.9,5.9,0,0,1,2-1.8l.2-.2,1.9-.9H16l.4-.2h.2l-1.7,3.2-.6,1.1v.3l-2.1,4.1A5.4,5.4,0,0,1,10.9,37.5Z" style="fill:#ebebeb"/><path d="M20.7,31.9l2.7,1.2.2.2a5.5,5.5,0,0,1,2.8,3.6v.6a5.4,5.4,0,0,1-1.2,3.1Z" style="fill:#ebebeb"/><polygon points="24.5 35.4 24 34.7 24.2 35.5 24.5 35.4" style="fill:#333"/><polygon points="22.6 33.6 22.1 32.9 22.3 33.8 22.6 33.6" style="fill:#333"/><polygon points="25.5 39.7 25 39 25.2 39.8 25.5 39.7" style="fill:#333"/><polygon points="24.8 38.2 24.3 37.5 24.5 38.3 24.8 38.2" style="fill:#333"/><polygon points="24.1 36.7 23.5 35.9 23.8 36.8 24.1 36.7" style="fill:#333"/><polygon points="23.4 35.1 22.8 34.4 23.1 35.3 23.4 35.1" style="fill:#333"/><path d="M23.4,33.1l.2.2.3.4h-.3Z" style="fill:#333"/><polygon points="26 38.4 25.4 37.7 25.7 38.6 26 38.4" style="fill:#333"/><polygon points="25.2 36.9 24.7 36.2 24.9 37 25.2 36.9" style="fill:#333"/><path d="M26.1,36.6l.3.3v.6h0Z" style="fill:#333"/><polygon points="25.6 35.5 25.1 34.8 25.3 35.7 25.6 35.5" style="fill:#333"/><polygon points="12.8 35.4 13.3 34.7 13.1 35.5 12.8 35.4" style="fill:#333"/><polygon points="14.7 33.6 15.2 32.9 15 33.8 14.7 33.6" style="fill:#333"/><polygon points="11.8 39.7 12.3 39 12.1 39.8 11.8 39.7" style="fill:#333"/><polygon points="12.5 38.2 13.1 37.5 12.8 38.3 12.5 38.2" style="fill:#333"/><polygon points="13.2 36.7 13.8 35.9 13.5 36.8 13.2 36.7" style="fill:#333"/><polygon points="14 35.1 14.5 34.4 14.2 35.3 14 35.1" style="fill:#333"/><path d="M13.9,33.1l-.2.2-.3.4h.3Z" style="fill:#333"/><polygon points="11.4 38.4 11.9 37.7 11.7 38.6 11.4 38.4" style="fill:#333"/><polygon points="12.1 36.9 12.6 36.2 12.4 37 12.1 36.9" style="fill:#333"/><path d="M10.9,37.5a1.3,1.3,0,0,1,.1-.6l.2-.3-.3.9Z" style="fill:#333"/><polygon points="11.7 35.5 12.2 34.8 12 35.7 11.7 35.5" style="fill:#333"/><path d="M13.3,31.8a3.6,3.6,0,0,0,.4-.9l.6-.2,4.4-1.3,2.7-.8.9-.3a.4.4,0,0,0,.1.3c1.5.7.8,1.8,1.6,3.1h0a2.8,2.8,0,0,1-1.1,1.3,3.6,3.6,0,0,1-2,.6,4.7,4.7,0,0,1-2.3-.9,4.2,4.2,0,0,1-2.2.9,3.6,3.6,0,0,1-2-.6A2.8,2.8,0,0,1,13.3,31.8Z" style="fill:#d66142"/><path d="M11.2,47c.2-3.6,7.5-9.1,7.5-9.1s7.4,5.5,7.4,9.1a4.5,4.5,0,0,1-4.5,4.5,6,6,0,0,1-3-1.3,5.1,5.1,0,0,1-2.9,1.3A4.5,4.5,0,0,1,11.2,47Z" style="fill:#d66142"/><path d="M21.4,28.6l.9-.3a.4.4,0,0,0,.1.3c1.6.7.8,1.8,1.7,3.3a16.1,16.1,0,0,0,2.1-4.8h.3c.4,2.1-2.9,5.6-2.9,5.6S22.5,29.1,21.4,28.6Z" style="fill:#616161;opacity:0.2;mix-blend-mode:color-burn"/><path d="M12.5,31.2h.3l.4.7h0a3.1,3.1,0,0,0,.5-1l.6-.2a4.7,4.7,0,0,0-.5,2A7.9,7.9,0,0,1,12.5,31.2Z" style="fill:#616161;opacity:0.2;mix-blend-mode:color-burn"/><path d="M17.6,46.5c.8,0,.8-.4,1-.8s.3.8,1.1.8,2-2.4,2-4.4a5.6,5.6,0,0,0-1.1-3.5h0a2.3,2.3,0,0,0-1.1-.9l-.8-.2h0l-.8.2a2.2,2.2,0,0,0-1.2.9h0a5.6,5.6,0,0,0-1.1,3.5C15.6,44.1,16.6,46.4,17.6,46.5Z" style="fill:#fdd8ab"/><path d="M21,42.4h0c0-.2-.3-.4-.7-.4s-.6.2-.6.4H21Z" style="fill:#333"/><path d="M16.4,42.4a.1.1,0,0,1-.1-.1c0-.2.3-.4.7-.4s.6.2.6.4H16.4Z" style="fill:#333"/><path d="M17.8,39.2h1.7a1.2,1.2,0,0,0-.8-.4h0A1.3,1.3,0,0,0,17.8,39.2Z" style="fill:#d66f53"/><path d="M18.7,39.2c.3.5.9-.1.9-.1H17.7S18.3,39.7,18.7,39.2Z" style="fill:#d66142"/><path d="M18.7,41.7h0l.5-1.6h-1Z" style="fill:#616161;opacity:0.2;mix-blend-mode:color-burn"/><polygon points="17.7 43.3 16.4 43.3 16.4 43.3 16.4 43.3 15.9 42.7 16.4 43.2 16.4 43.2 17.7 43.1 17.7 43.3" style="fill:#d66142"/><polygon points="19.5 43.1 20.8 43.2 20.8 43.2 21.3 42.7 20.8 43.3 20.8 43.3 20.8 43.3 19.5 43.3 19.5 43.1" style="fill:#d66142"/><path d="M13.3,31.8a3.6,3.6,0,0,0,.4-.9l.6-.2,4.4-1.3,2.7-.8.9-.3a.4.4,0,0,0,.1.3c1.5.7.8,1.8,1.6,3.1h0a2.8,2.8,0,0,1-1.1,1.3,3.6,3.6,0,0,1-2,.6,4.7,4.7,0,0,1-2.3-.9,4.2,4.2,0,0,1-2.2.9,3.6,3.6,0,0,1-2-.6A2.8,2.8,0,0,1,13.3,31.8Z" style="fill:#d66142"/><path d="M11.2,47c.2-3.6,7.5-9.1,7.5-9.1s7.4,5.5,7.4,9.1a4.5,4.5,0,0,1-4.5,4.5,6,6,0,0,1-3-1.3,5.1,5.1,0,0,1-2.9,1.3A4.5,4.5,0,0,1,11.2,47Z" style="fill:#d66142"/><path d="M21.4,28.6l.9-.3a.4.4,0,0,0,.1.3c1.6.7.8,1.8,1.7,3.3a16.1,16.1,0,0,0,2.1-4.8h.3c.4,2.1-2.9,5.6-2.9,5.6S22.5,29.1,21.4,28.6Z" style="fill:#616161;opacity:0.2;mix-blend-mode:color-burn"/><path d="M12.5,31.2h.3l.4.7h0a3.1,3.1,0,0,0,.5-1l.6-.2a4.7,4.7,0,0,0-.5,2A7.9,7.9,0,0,1,12.5,31.2Z" style="fill:#616161;opacity:0.2;mix-blend-mode:color-burn"/><path d="M17.6,46.5c.8,0,.8-.4,1-.8s.3.8,1.1.8,2-2.4,2-4.4a5.6,5.6,0,0,0-1.1-3.5h0a2.3,2.3,0,0,0-1.1-.9l-.8-.2h0l-.8.2a2.2,2.2,0,0,0-1.2.9h0a5.6,5.6,0,0,0-1.1,3.5C15.6,44.1,16.6,46.4,17.6,46.5Z" style="fill:#fdd8ab"/><path d="M21,42.4h0c0-.2-.3-.4-.7-.4s-.6.2-.6.4H21Z" style="fill:#333"/><path d="M16.4,42.4a.1.1,0,0,1-.1-.1c0-.2.3-.4.7-.4s.6.2.6.4H16.4Z" style="fill:#333"/><path d="M17.8,39.2h1.7a1.2,1.2,0,0,0-.8-.4h0A1.3,1.3,0,0,0,17.8,39.2Z" style="fill:#d66f53"/><path d="M18.7,39.2c.3.5.9-.1.9-.1H17.7S18.3,39.7,18.7,39.2Z" style="fill:#d66142"/><path d="M18.7,41.7h0l.5-1.6h-1Z" style="fill:#616161;opacity:0.2;mix-blend-mode:color-burn"/><polygon points="17.7 43.3 16.4 43.3 16.4 43.3 16.4 43.3 15.9 42.7 16.4 43.2 16.4 43.2 17.7 43.1 17.7 43.3" style="fill:#d66142"/><polygon points="19.5 43.1 20.8 43.2 20.8 43.2 21.3 42.7 20.8 43.3 20.8 43.3 20.8 43.3 19.5 43.3 19.5 43.1" style="fill:#d66142"/><path d="M17.8,46.5h0Z" style="fill:#616161;opacity:0.2;mix-blend-mode:color-burn"/><path d="M18.2,46.3Z" style="fill:#616161;opacity:0.2;mix-blend-mode:color-burn"/><path d="M18.1,46.3h0Z" style="fill:#616161;opacity:0.2;mix-blend-mode:color-burn"/><path d="M17.9,46.4Z" style="fill:#616161;opacity:0.2;mix-blend-mode:color-burn"/><path d="M16.6,48.9c-.1-1,2-2.6,2-2.6s2.2,1.6,2.1,2.7a1.4,1.4,0,0,1-1.4,1.2,1.6,1.6,0,0,1-.8-.3,1.1,1.1,0,0,1-.7.3A1.3,1.3,0,0,1,16.6,48.9Z" style="fill:#616161;opacity:0.2;mix-blend-mode:color-burn"/><path d="M16.7,48.8c.1-.9,1.9-2.2,1.9-2.2s1.9,1.3,1.9,2.3A1.1,1.1,0,0,1,19.3,50a1.5,1.5,0,0,1-.7-.3,1.5,1.5,0,0,1-.7.3A1.2,1.2,0,0,1,16.7,48.8Z" style="fill:#ffd675"/><path d="M18.6,47.2c.7.6,1.4,1.3,1.4,1.7a.7.7,0,0,1-.7.6l-.4-.2-.3-.3-.3.3-.4.2-.5-.2a.8.8,0,0,1-.2-.4A4.7,4.7,0,0,1,18.6,47.2Z" style="fill:#616161;opacity:0.2;mix-blend-mode:color-burn"/><path d="M11.3,34.5l.2.3a.1.1,0,0,1,.1.1.3.3,0,0,1,.1.2h0a3.4,3.4,0,0,0-.7,1.8,1.3,1.3,0,0,0-.1.6,5.4,5.4,0,0,0,1.2,3.1h3.5c-2,1.8-4.3,4.4-4.4,6.4a4.5,4.5,0,0,0,4.5,4.5,5.1,5.1,0,0,0,2.9-1.3h0V29.4l-4.3,1.3h-.7a1.6,1.6,0,0,1-.4,1h0l-.4-.7h-.3L10,32A11.7,11.7,0,0,0,11.3,34.5Z" style="fill:#616161;opacity:0.2;mix-blend-mode:color-burn"/><path d="M8.7,11.3c0,1.3-2.6,3.3-2.6,3.3s-2.6-2-2.6-3.3A1.6,1.6,0,0,1,5.1,9.7a1.7,1.7,0,0,1,1,.5,1.8,1.8,0,0,1,1.1-.5A1.6,1.6,0,0,1,8.7,11.3Z" style="fill:#d66142"/><path d="M7.2,9.7a1.8,1.8,0,0,0-1.1.5h0v4.4h0s2.6-2,2.6-3.3A1.6,1.6,0,0,0,7.2,9.7Z" style="fill:#616161;opacity:0.2;mix-blend-mode:color-burn"/><path d="M31.7,44.6c.1-1.3,2.6-3.2,2.6-3.2S37,43.3,37,44.6a1.6,1.6,0,0,1-1.6,1.6,2.5,2.5,0,0,1-1.1-.4,1.9,1.9,0,0,1-1,.4A1.6,1.6,0,0,1,31.7,44.6Z" style="fill:#d66142"/><path d="M33.3,46.2a1.9,1.9,0,0,0,1-.4h0V41.4h0s-2.5,1.9-2.6,3.2A1.6,1.6,0,0,0,33.3,46.2Z" style="fill:#616161;opacity:0.2;mix-blend-mode:color-burn"/><g style="clip-path:url(#e53fd30c-5794-4b5d-a859-d279b40db0d0)"><path d="M39.7,53.8h0L38,55.4l-1.6-1.6h-.1l-1.6,1.6-1.6-1.6H33l-1.6,1.6-1.6-1.6h-.1l-1.6,1.6-1.6-1.6h-.1l-1.6,1.6-1.6-1.6h-.1l-1.6,1.6-1.6-1.6h-.1l-1.6,1.6-1.6-1.6h-.1l-1.6,1.6-1.6-1.6h-.1l-1.6,1.6L10,53.8H9.9L8.3,55.4,6.7,53.8H6.6L5,55.4,3.4,53.8H3.3L1.7,55.4.1,53.8h0l1.6,1.6L.1,57v3.4L1.7,62,.1,63.6V67l1.6,1.6L.1,70.2v3.4l1.6,1.6L.1,76.8v3.4l1.6,1.6L.1,83.4v3.4l1.6,1.6L.1,90v3.4h0V90.2l1.6,1.5,1.6,1.7h.1l1.7-1.7,1.5-1.5v3.2h.1V90.2l1.6,1.5,1.6,1.7H10l1.7-1.7,1.5-1.5v3.2h.1V90.2l1.6,1.5,1.6,1.7h.1l1.7-1.7,1.5-1.5v3.2h.1V90.2l1.6,1.5,1.6,1.7h.1l1.7-1.7,1.6-1.5v3.2h0V90.2l1.6,1.5,1.6,1.7h.1l1.7-1.7,1.6-1.5v3.2h0V90.2l1.6,1.5,1.6,1.7h.1l1.7-1.7,1.6-1.5v3.2h0V90l-1.6-1.6,1.6-1.6V83.4l-1.6-1.6,1.6-1.6V76.8l-1.6-1.6,1.6-1.6V70.2l-1.6-1.6L39.7,67V63.6L38.1,62l1.6-1.6V57l-1.6-1.6,1.6-1.6Zm-5,28-1.6-1.6V76.9l1.6,1.6,1.6,1.7Zm1.7-1.6v3.3l-1.7,1.6-1.6-1.6,1.7-1.7Zm-33,0,1.7-1.7,1.5-1.6v3.3L5,81.8Zm3.2,3.3L5,85.1,3.4,83.5V80.2L5,81.8Zm23.2-9.9,1.7-1.7,1.6-1.6v3.3l-1.7,1.6ZM33,76.9l-1.6,1.6-1.6-1.6V73.6l1.6,1.6Zm.1-10-1.7,1.7L29.8,67l1.7-1.7,1.6-1.6Zm0,.1,1.6,1.6-1.6,1.6-1.6-1.6Zm-1.7,1.6L33,70.3l-1.6,1.6-1.6-1.7V67Zm0,3.3-1.6,1.6-1.6-1.6,1.6-1.6Zm-3.2,3.3,1.6-1.6v3.3l-1.7,1.6-1.6-1.6Zm-.1,0-1.6-1.6V70.3l1.6,1.6,1.6,1.7Zm1.7-5-1.7,1.7-1.6-1.6,1.7-1.7L29.8,67Zm-1.7-1.6-1.6-1.7V63.7l1.6,1.6L29.7,67Zm0,0-1.6,1.6-1.6-1.6L26.5,67Zm-4.9,5,1.7-1.7,1.6-1.6v3.3l-1.7,1.6Zm3.2,3.3-1.6,1.6-1.6-1.6V73.6l1.6,1.6Zm.1-10-1.7,1.7L23.2,67l1.7-1.7,1.6-1.6Zm-1.7,1.7,1.6,1.7-1.6,1.6-1.6-1.7V67Zm0,3.3-1.6,1.6-1.6-1.6,1.6-1.6Zm-3.2,3.3,1.6-1.6v3.3l-1.7,1.6-1.6-1.6Zm-.1,0-1.6-1.6V70.3l1.6,1.6,1.6,1.7Zm1.7-5-1.7,1.7-1.6-1.6,1.7-1.7L23.2,67Zm-1.7-1.6-1.6-1.7V63.7l1.6,1.6L23.1,67Zm0,0-1.6,1.6-1.6-1.6L19.9,67Zm-4.9,5,1.7-1.7,1.5-1.6v3.3l-1.6,1.6Zm3.2,3.3-1.6,1.6-1.6-1.6V73.6l1.6,1.6Zm0-10-1.6,1.7L16.6,67l1.7-1.7,1.5-1.6Zm-1.6,1.7,1.6,1.7-1.6,1.6-1.6-1.7V67Zm0,3.3-1.6,1.6L15,71.9l1.6-1.6ZM15,75.2l1.5-1.6v3.3l-1.6,1.6-1.6-1.6Zm-.1,0-1.6-1.6V70.3l1.6,1.6,1.6,1.7Zm1.6-5-1.6,1.7-1.6-1.6L15,68.6,16.5,67Zm-1.6-1.6-1.6-1.7V63.7l1.6,1.6L16.5,67Zm0,0-1.6,1.6-1.6-1.6L13.3,67Zm-4.9,5,1.7-1.7,1.5-1.6v3.3l-1.6,1.6Zm3.2,3.3-1.6,1.6L10,76.9V73.6l1.6,1.6Zm0-10-1.6,1.7L10,67l1.7-1.7,1.5-1.6Zm-1.6,1.7,1.6,1.7-1.6,1.6L10,70.2V67Zm0,3.3L10,73.5,8.4,71.9,10,70.3ZM8.4,75.2l1.5-1.6v3.3L8.3,78.5,6.7,76.9Zm-.1,0L6.7,73.6V70.3l1.6,1.6,1.6,1.7Zm1.6-5L8.3,71.9,6.7,70.3l1.7-1.7L9.9,67ZM8.3,68.6,6.7,66.9V63.7l1.6,1.6L9.9,67Zm0,0L6.7,70.2,5.1,68.6,6.7,67ZM6.6,66.9,5,68.6,3.4,67l1.7-1.7,1.5-1.6ZM5,68.6l1.6,1.7L5,71.9,3.4,70.2V67Zm.1,3.3,1.5-1.6v3.3L5,75.2,3.4,73.6ZM5,75.2l1.6,1.7L5,78.5,3.4,76.9V73.6Zm.1,0,1.6-1.6,1.6,1.6L6.7,76.8Zm1.6,1.7,1.6,1.6,1.6,1.7L8.3,81.8,6.7,80.2Zm1.7,4.9,1.5-1.6v3.3L8.3,85.1,6.7,83.5Zm0-3.3L10,76.9l1.6,1.6L10,80.1ZM10,80.2l1.6,1.6,1.6,1.7-1.6,1.6L10,83.5Zm0,0,1.7-1.7,1.5-1.6v3.3l-1.6,1.6Zm1.7-5,1.6-1.6,1.6,1.6-1.6,1.6Zm1.6,1.7,1.6,1.6,1.6,1.7-1.6,1.6-1.6-1.6ZM15,81.8l1.5-1.6v3.3l-1.6,1.6-1.6-1.6Zm0-3.3,1.6-1.6,1.6,1.6-1.6,1.6Zm1.6,1.7,1.6,1.6,1.6,1.7-1.6,1.6-1.6-1.6Zm0,0,1.7-1.7,1.5-1.6v3.3l-1.6,1.6Zm1.7-5,1.6-1.6,1.6,1.6-1.6,1.6Zm1.6,1.7,1.6,1.6,1.6,1.7-1.6,1.6-1.6-1.6Zm1.7,4.9,1.6-1.6v3.3l-1.7,1.6-1.6-1.6Zm0-3.3,1.6-1.6,1.6,1.6-1.6,1.6Zm1.6,1.7,1.6,1.6,1.6,1.7-1.6,1.6-1.6-1.6Zm0,0,1.7-1.7,1.6-1.6v3.3l-1.7,1.6Zm1.7-5,1.6-1.6,1.6,1.6-1.6,1.6Zm1.6,1.7,1.6,1.6,1.6,1.7-1.6,1.6-1.6-1.6Zm1.7,4.9,1.6-1.6v3.3l-1.7,1.6-1.6-1.6Zm0-3.3,1.6-1.6,1.6,1.6-1.6,1.6Zm1.6,1.7,1.6,1.6L33,83.5l-1.6,1.6-1.6-1.6Zm0,0,1.7-1.7,1.6-1.6v3.3l-1.7,1.6Zm1.7-5,1.6-1.6,1.6,1.6-1.6,1.6Zm1.6,1.7,1.7-1.7,1.6-1.6v3.3l-1.7,1.6Zm1.6-1.7-1.6-1.6V70.3l1.6,1.6,1.6,1.7Zm-1.6-4.9,1.7-1.7L36.4,67v3.2l-1.7,1.7Zm1.6-1.7-1.6-1.7V63.7l1.6,1.6L36.3,67Zm-1.6-4.9L34.8,62l1.6-1.6v3.2l-1.7,1.7ZM34.7,62l-1.6-1.7V57.1l1.6,1.6,1.6,1.7Zm0,0-1.6,1.6L31.5,62l1.6-1.6Zm-1.6-1.7L31.4,62l-1.6-1.6,1.7-1.7,1.6-1.6ZM31.4,62,33,63.7l-1.6,1.6-1.6-1.7V60.4Zm0,3.3-1.6,1.6-1.6-1.6,1.6-1.6Zm-1.6-1.7-1.7,1.7-1.6-1.6L28.2,62l1.6-1.6ZM28.1,62l-1.6-1.7V57.1l1.6,1.6,1.6,1.7Zm0,0-1.6,1.6L24.9,62l1.6-1.6Zm-1.6-1.7L24.8,62l-1.6-1.6,1.7-1.7,1.6-1.6ZM24.8,62l1.6,1.7-1.6,1.6-1.6-1.7V60.4Zm0,3.3-1.6,1.6-1.6-1.6,1.6-1.6Zm-1.6-1.7-1.7,1.7-1.6-1.6L21.6,62l1.6-1.6ZM21.5,62l-1.6-1.7V57.1l1.6,1.6,1.6,1.7Zm0,0-1.6,1.6L18.3,62l1.6-1.6Zm-1.7-1.7L18.2,62l-1.6-1.6,1.7-1.7,1.5-1.6ZM18.2,62l1.6,1.7-1.6,1.6-1.6-1.7V60.4Zm0,3.3-1.6,1.6L15,65.3l1.6-1.6Zm-1.7-1.7-1.6,1.7-1.6-1.6L15,62l1.5-1.6ZM14.9,62l-1.6-1.7V57.1l1.6,1.6,1.6,1.7Zm0,0-1.6,1.6L11.7,62l1.6-1.6Zm-1.7-1.7L11.6,62,10,60.4l1.7-1.7,1.5-1.6ZM11.6,62l1.6,1.7-1.6,1.6L10,63.6V60.4Zm0,3.3L10,66.9,8.4,65.3,10,63.7ZM9.9,63.6,8.3,65.3,6.7,63.7,8.4,62l1.5-1.6ZM8.3,62,6.7,60.3V57.1l1.6,1.6,1.6,1.7Zm0,0L6.7,63.6,5.1,62l1.6-1.6ZM6.6,60.3,5,62,3.4,60.4l1.7-1.7,1.5-1.6ZM5,62l1.6,1.7L5,65.3,3.4,63.6V60.4Zm0,3.3L3.4,66.9,1.8,65.3l1.6-1.6Zm0,6.6L3.4,73.5,1.8,71.9l1.6-1.6Zm0,6.6L3.4,80.1,1.8,78.5l1.6-1.6Zm0,6.6L3.4,86.7,1.8,85.1l1.6-1.6Zm.1,0,1.5-1.5v3.2L5,88.4,3.4,86.8Zm0-3.3,1.6-1.6,1.6,1.6L6.7,83.4Zm1.6,1.8,1.6,1.5,1.6,1.7L8.3,88.4,6.7,86.8Zm1.7,1.5L10,83.5l1.6,1.6L10,86.7Zm3.3,0,1.5-1.5v3.2l-1.6,1.6L10,86.8Zm0-3.3,1.6-1.6,1.6,1.6-1.6,1.6Zm1.6,1.8,1.6,1.5,1.6,1.7-1.6,1.6-1.6-1.6ZM15,85.1l1.6-1.6,1.6,1.6-1.6,1.6Zm3.3,0,1.5-1.5v3.2l-1.6,1.6-1.6-1.6Zm0-3.3,1.6-1.6,1.6,1.6-1.6,1.6Zm1.6,1.8,1.6,1.5,1.6,1.7-1.6,1.6-1.6-1.6Zm1.7,1.5,1.6-1.6,1.6,1.6-1.6,1.6Zm3.3,0,1.6-1.5v3.2l-1.7,1.6-1.6-1.6Zm0-3.3,1.6-1.6,1.6,1.6-1.6,1.6Zm1.6,1.8,1.6,1.5,1.6,1.7-1.6,1.6-1.6-1.6Zm1.7,1.5,1.6-1.6,1.6,1.6-1.6,1.6Zm3.3,0,1.6-1.5v3.2l-1.7,1.6-1.6-1.6Zm0-3.3,1.6-1.6,1.6,1.6-1.6,1.6Zm1.6,1.8,1.6,1.5,1.6,1.7-1.6,1.6-1.6-1.6Zm1.7,1.5,1.6-1.6L38,85.1l-1.6,1.6Zm0-6.6,1.6-1.6L38,78.5l-1.6,1.6Zm0-6.6,1.6-1.6L38,71.9l-1.6,1.6Zm0-6.6,1.6-1.6L38,65.3l-1.6,1.6Zm0-6.6,1.6-1.6L38,58.7l-1.6,1.6Zm0-3.3,1.6-1.6V57l-1.7,1.7-1.6-1.6Zm-1.7-1.6,1.6,1.6L33.1,57l-1.6-1.6Zm-3.3,0,1.6,1.6L33,57.1l-1.6,1.6L29.8,57Zm1.6,4.9-1.6,1.6-1.6-1.6,1.6-1.6Zm-3.2-3.3,1.6-1.6V57l-1.7,1.7-1.6-1.6Zm-1.7-1.6,1.6,1.6L26.5,57l-1.6-1.6Zm-3.3,0,1.6,1.6,1.6,1.7-1.6,1.6L23.2,57Zm1.6,4.9-1.6,1.6-1.6-1.6,1.6-1.6Zm-3.2-3.3,1.6-1.6V57l-1.7,1.7-1.6-1.6Zm-1.7-1.6,1.6,1.6L19.9,57l-1.6-1.6Zm-3.3,0,1.6,1.6,1.6,1.7-1.6,1.6L16.6,57Zm1.6,4.9-1.6,1.6L15,58.7l1.6-1.6ZM15,55.4l1.5-1.6V57l-1.6,1.7-1.6-1.6Zm-1.7-1.6,1.6,1.6L13.3,57l-1.6-1.6Zm-3.3,0,1.6,1.6,1.6,1.7-1.6,1.6L10,57Zm1.6,4.9L10,60.3,8.4,58.7,10,57.1ZM8.4,55.4l1.5-1.6V57L8.3,58.7,6.7,57.1ZM6.7,53.8l1.6,1.6L6.7,57,5.1,55.4Zm-3.3,0L5,55.4l1.6,1.7L5,58.7,3.4,57ZM5,58.7,3.4,60.3,1.8,58.7l1.6-1.6ZM1.8,55.4l1.5-1.6V57L1.7,58.7.1,57.1ZM.1,60.3V57.1l1.6,1.6,1.6,1.7L1.7,62ZM1.8,62l1.5-1.6v3.2L1.7,65.3.1,63.7ZM.1,66.9V63.7l1.6,1.6L3.3,67,1.7,68.6Zm1.7,1.7L3.3,67v3.2L1.7,71.9.1,70.3Zm-1.7,5V70.3l1.6,1.6,1.6,1.7L1.7,75.2Zm1.7,1.6,1.5-1.6v3.3L1.7,78.5.1,76.9Zm-1.7,5V76.9l1.6,1.6,1.6,1.7L1.7,81.8Zm1.7,1.6,1.5-1.6v3.3L1.7,85.1.1,83.5Zm-1.7,5V83.6l1.6,1.5,1.6,1.7L1.7,88.4Zm0,3.3,1.7-1.7,1.5-1.5v3.2L1.7,91.7Zm3.3,3.2L1.8,91.7l1.6-1.6L5,91.7ZM5,91.7,3.4,90.1V86.9L5,88.4l1.6,1.7ZM6.7,90,5.1,88.4l1.6-1.6,1.6,1.6Zm0,.1,1.7-1.7,1.5-1.5v3.2L8.3,91.7ZM10,93.3,8.4,91.7,10,90.1l1.6,1.6Zm1.6-1.6L10,90.1V86.9l1.6,1.5,1.6,1.7ZM13.3,90l-1.6-1.6,1.6-1.6,1.6,1.6Zm0,.1L15,88.4l1.5-1.5v3.2l-1.6,1.6Zm3.3,3.2L15,91.7l1.6-1.6,1.6,1.6Zm1.6-1.6-1.6-1.6V86.9l1.6,1.5,1.6,1.7ZM19.9,90l-1.6-1.6,1.6-1.6,1.6,1.6Zm0,.1,1.7-1.7,1.6-1.5v3.2l-1.7,1.6Zm3.3,3.2-1.6-1.6,1.6-1.6,1.6,1.6Zm1.6-1.6-1.6-1.6V86.9l1.6,1.5,1.6,1.7ZM26.5,90l-1.6-1.6,1.6-1.6,1.6,1.6Zm0,.1,1.7-1.7,1.6-1.5v3.2l-1.7,1.6Zm3.3,3.2-1.6-1.6,1.6-1.6,1.6,1.6Zm1.6-1.6-1.6-1.6V86.9l1.6,1.5L33,90.1ZM33.1,90l-1.6-1.6,1.6-1.6,1.6,1.6Zm0,.1,1.7-1.7,1.6-1.5v3.2l-1.7,1.6Zm3.3,3.2-1.6-1.6,1.6-1.6L38,91.7Zm3.3-3.2L38,91.7l-1.6-1.6V86.9L38,88.4Zm0-3.3L38,88.4l-1.6-1.6,1.7-1.7,1.6-1.5Zm0-3.3L38,85.1l-1.6-1.6V80.2L38,81.8Zm0-3.3L38,81.8l-1.6-1.6,1.7-1.7,1.6-1.6Zm0-3.3L38,78.5l-1.6-1.6V73.6L38,75.2Zm0-3.3L38,75.2l-1.6-1.6,1.7-1.7,1.6-1.6Zm0-3.3L38,71.9l-1.6-1.7V67L38,68.6Zm0-3.4L38,68.6,36.4,67l1.7-1.7,1.6-1.6Zm0-3.2L38,65.3l-1.6-1.7V60.4L38,62Zm0-3.4L38,62l-1.6-1.6,1.7-1.7,1.6-1.6Zm0-3.2L38,58.7,36.4,57V53.8L38,55.4Z" style="fill:url(#ed93fd1b-0d45-4d8a-a9b0-fcf0a7096792)"/></g></g></g></svg>