<svg xmlns="http://www.w3.org/2000/svg" xmlns:xlink="http://www.w3.org/1999/xlink" viewBox="0 0 39.8 55.7"><defs><clipPath id="aa949dae-25f3-4757-88a1-3951392a9314"><rect x="0.6" width="39.1" height="55.65" rx="4.2" style="fill:none"/></clipPath><clipPath id="f6238a61-7943-41a3-989b-1123ef2c8fd4"><path d="M7.1,5.3c0,.1,0,.3-.2.3H.9a.5.5,0,0,1-.3-.3v-6A.5.5,0,0,1,.9-1h6c.2,0,.2.2.2.3Z" style="fill:none"/></clipPath><clipPath id="b849f032-34c6-4a3b-8ad9-0437ce65589a"><path d="M13.7,5.3a.3.3,0,0,1-.3.3h-6a.5.5,0,0,1-.3-.3v-6A.5.5,0,0,1,7.4-1h6a.3.3,0,0,1,.3.3Z" style="fill:none"/></clipPath><clipPath id="ad5280e0-6e20-42f2-9470-850b1c86deab"><path d="M20.2,5.3c0,.1-.1.3-.2.3H14a.3.3,0,0,1-.3-.3v-6A.3.3,0,0,1,14-1h6c.1,0,.2.2.2.3Z" style="fill:none"/></clipPath><clipPath id="b876649e-c2a4-4861-b2ea-9bfa46ff954d"><path d="M26.7,5.3c0,.1-.1.3-.2.3h-6a.3.3,0,0,1-.3-.3v-6a.3.3,0,0,1,.3-.3h6c.1,0,.2.2.2.3Z" style="fill:none"/></clipPath><clipPath id="b129e0fd-5573-4755-83fe-9db03122e2a5"><path d="M33.2,5.3c0,.1,0,.3-.2.3H27a.5.5,0,0,1-.3-.3v-6A.5.5,0,0,1,27-1h6c.2,0,.2.2.2.3Z" style="fill:none"/></clipPath><clipPath id="a0dff0bb-4dff-4bcf-a80e-0bc946bd678a"><path d="M39.8,5.3a.3.3,0,0,1-.3.3h-6a.5.5,0,0,1-.3-.3v-6a.5.5,0,0,1,.3-.3h6a.3.3,0,0,1,.3.3Z" style="fill:none"/></clipPath><clipPath id="e9c852c3-5bd6-481f-afd4-2e4f287d9d67"><path d="M7.1,11.8c0,.2,0,.3-.2.3H.9a.3.3,0,0,1-.3-.3v-6l.3-.2h6c.2,0,.2.1.2.2Z" style="fill:none"/></clipPath><clipPath id="a006fd93-d777-4d50-b123-0c64c51b3ec7"><path d="M13.7,11.8a.3.3,0,0,1-.3.3h-6a.3.3,0,0,1-.3-.3v-6l.3-.2h6c.2,0,.3.1.3.2Z" style="fill:none"/></clipPath><clipPath id="b67dbc8a-8f02-4042-9cb6-c8271b3eaec8"><path d="M20.2,11.8c0,.2-.1.3-.2.3H14a.3.3,0,0,1-.3-.3v-6c0-.1.1-.2.3-.2h6a.2.2,0,0,1,.2.2Z" style="fill:none"/></clipPath><clipPath id="b823c6b4-bfa7-4471-8cb7-8afac7f50582"><path d="M26.7,11.8c0,.2-.1.3-.2.3h-6a.3.3,0,0,1-.3-.3v-6c0-.1.1-.2.3-.2h6a.2.2,0,0,1,.2.2Z" style="fill:none"/></clipPath><clipPath id="a158f457-b1cb-4ee3-9d23-92d9319eeda3"><path d="M33.2,11.8c0,.2,0,.3-.2.3H27a.3.3,0,0,1-.3-.3v-6l.3-.2h6c.2,0,.2.1.2.2Z" style="fill:none"/></clipPath><clipPath id="b0cecce6-5727-4078-947a-3b2e5ee2b9b3"><path d="M39.8,11.8a.3.3,0,0,1-.3.3h-6a.3.3,0,0,1-.3-.3v-6l.3-.2h6c.2,0,.3.1.3.2Z" style="fill:none"/></clipPath><clipPath id="bac5dbdd-d6d0-4516-b2bf-bfdca1cbc4c2"><path d="M7.1,18.3c0,.2,0,.3-.2.3H.9a.3.3,0,0,1-.3-.3V12.4a.3.3,0,0,1,.3-.3h6c.2,0,.2.1.2.3Z" style="fill:none"/></clipPath><clipPath id="b8a8502f-b242-4783-b877-913d62f88356"><path d="M13.7,18.3a.3.3,0,0,1-.3.3h-6a.3.3,0,0,1-.3-.3V12.4a.3.3,0,0,1,.3-.3h6a.3.3,0,0,1,.3.3Z" style="fill:none"/></clipPath><clipPath id="f03c1a9d-164b-45f3-b157-db7b2ac78570"><path d="M20.2,18.3c0,.2-.1.3-.2.3H14a.3.3,0,0,1-.3-.3V12.4a.3.3,0,0,1,.3-.3h6c.1,0,.2.1.2.3Z" style="fill:none"/></clipPath><clipPath id="b4954be1-a15d-48d3-b057-bf2a2b4ede83"><path d="M26.7,18.3c0,.2-.1.3-.2.3h-6a.3.3,0,0,1-.3-.3V12.4a.3.3,0,0,1,.3-.3h6c.1,0,.2.1.2.3Z" style="fill:none"/></clipPath><clipPath id="b2419acf-65d0-46c9-95c1-f03addbea547"><path d="M33.2,18.3c0,.2,0,.3-.2.3H27a.3.3,0,0,1-.3-.3V12.4a.3.3,0,0,1,.3-.3h6c.2,0,.2.1.2.3Z" style="fill:none"/></clipPath><clipPath id="a80a4d58-bccb-4fc7-a2cc-3af59a441e32"><path d="M39.8,18.3a.3.3,0,0,1-.3.3h-6a.3.3,0,0,1-.3-.3V12.4a.3.3,0,0,1,.3-.3h6a.3.3,0,0,1,.3.3Z" style="fill:none"/></clipPath><clipPath id="a07af95b-209b-4525-a373-5c97bf446818"><path d="M7.1,24.9c0,.1,0,.2-.2.2H.9c-.1,0-.3-.1-.3-.2v-6a.3.3,0,0,1,.3-.3h6c.2,0,.2.1.2.3Z" style="fill:none"/></clipPath><clipPath id="f6ad0036-7de1-42fe-941e-83270ea7dfb1"><path d="M13.7,24.9c0,.1-.1.2-.3.2h-6c-.1,0-.3-.1-.3-.2v-6a.3.3,0,0,1,.3-.3h6a.3.3,0,0,1,.3.3Z" style="fill:none"/></clipPath><clipPath id="ac868404-4eeb-498a-b4df-5808dd61015f"><path d="M20.2,24.9a.2.2,0,0,1-.2.2H14c-.2,0-.3-.1-.3-.2v-6a.3.3,0,0,1,.3-.3h6c.1,0,.2.1.2.3Z" style="fill:none"/></clipPath><clipPath id="a171b66b-b380-41ea-bd92-15b9e1efacb9"><path d="M26.7,24.9a.2.2,0,0,1-.2.2h-6c-.2,0-.3-.1-.3-.2v-6a.3.3,0,0,1,.3-.3h6c.1,0,.2.1.2.3Z" style="fill:none"/></clipPath><clipPath id="a2e8c456-c7b8-4502-b2ee-b7bdef6cef55"><path d="M33.2,24.9c0,.1,0,.2-.2.2H27c-.1,0-.3-.1-.3-.2v-6a.3.3,0,0,1,.3-.3h6c.2,0,.2.1.2.3Z" style="fill:none"/></clipPath><clipPath id="b4dc546b-533a-454e-b35b-5f783f9595ff"><path d="M39.8,24.9c0,.1-.1.2-.3.2h-6c-.1,0-.3-.1-.3-.2v-6a.3.3,0,0,1,.3-.3h6a.3.3,0,0,1,.3.3Z" style="fill:none"/></clipPath><clipPath id="bc699f70-64fa-43e9-b4e1-9a6b689a1df3"><path d="M7.1,31.4c0,.1,0,.3-.2.3H.9a.5.5,0,0,1-.3-.3v-6l.3-.3h6c.2,0,.2.2.2.3Z" style="fill:none"/></clipPath><clipPath id="a626370e-f14c-49c3-ab20-658ebdd7d428"><path d="M13.7,31.4a.3.3,0,0,1-.3.3h-6a.5.5,0,0,1-.3-.3v-6l.3-.3h6a.3.3,0,0,1,.3.3Z" style="fill:none"/></clipPath><clipPath id="ad68300f-928f-43e1-a724-81c399aeb99e"><path d="M20.2,31.4c0,.1-.1.3-.2.3H14a.3.3,0,0,1-.3-.3v-6a.3.3,0,0,1,.3-.3h6c.1,0,.2.2.2.3Z" style="fill:none"/></clipPath><clipPath id="f2025d38-7d7e-4803-b90f-38ea8ca4effe"><path d="M26.7,31.4c0,.1-.1.3-.2.3h-6a.3.3,0,0,1-.3-.3v-6a.3.3,0,0,1,.3-.3h6c.1,0,.2.2.2.3Z" style="fill:none"/></clipPath><clipPath id="ad94cd76-4e19-42f3-b910-89ea5b9a7ea0"><path d="M33.2,31.4c0,.1,0,.3-.2.3H27a.5.5,0,0,1-.3-.3v-6a.5.5,0,0,1,.3-.3h6c.2,0,.2.2.2.3Z" style="fill:none"/></clipPath><clipPath id="b0670f1c-5ed7-4119-b86f-d25494b24ec7"><path d="M39.8,31.4a.3.3,0,0,1-.3.3h-6a.5.5,0,0,1-.3-.3v-6a.5.5,0,0,1,.3-.3h6a.3.3,0,0,1,.3.3Z" style="fill:none"/></clipPath><clipPath id="a1f2295a-1919-49dd-a4ac-2f1e4c50c74c"><path d="M7.1,37.9c0,.2,0,.3-.2.3H.9a.3.3,0,0,1-.3-.3v-6l.3-.2h6c.2,0,.2.1.2.2Z" style="fill:none"/></clipPath><clipPath id="f4ff15f1-6cb2-4c84-9074-4ec76c5e8a2b"><path d="M13.7,37.9a.3.3,0,0,1-.3.3h-6a.3.3,0,0,1-.3-.3v-6l.3-.2h6c.2,0,.3.1.3.2Z" style="fill:none"/></clipPath><clipPath id="f14c49e0-29ae-4818-9999-48073c5e9458"><path d="M20.2,37.9c0,.2-.1.3-.2.3H14a.3.3,0,0,1-.3-.3v-6c0-.1.1-.2.3-.2h6a.2.2,0,0,1,.2.2Z" style="fill:none"/></clipPath><clipPath id="bff92d6d-7aca-45a5-a06b-1fab926fdc21"><path d="M26.7,37.9c0,.2-.1.3-.2.3h-6a.3.3,0,0,1-.3-.3v-6c0-.1.1-.2.3-.2h6a.2.2,0,0,1,.2.2Z" style="fill:none"/></clipPath><clipPath id="a42e1898-092a-47d3-831d-5754277d5c70"><path d="M33.2,37.9c0,.2,0,.3-.2.3H27a.3.3,0,0,1-.3-.3v-6l.3-.2h6c.2,0,.2.1.2.2Z" style="fill:none"/></clipPath><clipPath id="af3c9457-a1cd-4e7b-9ab5-414b3935d417"><path d="M39.8,37.9a.3.3,0,0,1-.3.3h-6a.3.3,0,0,1-.3-.3v-6l.3-.2h6c.2,0,.3.1.3.2Z" style="fill:none"/></clipPath><clipPath id="e6516539-a75d-464b-a1f0-96bcc3333fd8"><path d="M7.1,44.4c0,.2,0,.3-.2.3H.9a.3.3,0,0,1-.3-.3v-6c0-.1.2-.2.3-.2h6c.2,0,.2.1.2.2Z" style="fill:none"/></clipPath><clipPath id="a0042a21-0a4e-4825-b6f8-a9b2727341ed"><path d="M13.7,44.4a.3.3,0,0,1-.3.3h-6a.3.3,0,0,1-.3-.3v-6c0-.1.2-.2.3-.2h6c.2,0,.3.1.3.2Z" style="fill:none"/></clipPath><clipPath id="fce71a74-db9c-4a50-bc82-77c0e5bfa9e0"><path d="M20.2,44.4c0,.2-.1.3-.2.3H14a.3.3,0,0,1-.3-.3v-6c0-.1.1-.2.3-.2h6a.2.2,0,0,1,.2.2Z" style="fill:none"/></clipPath><clipPath id="a89a59ce-4857-4ef5-a33c-826c66321ad0"><path d="M26.7,44.4c0,.2-.1.3-.2.3h-6a.3.3,0,0,1-.3-.3v-6c0-.1.1-.2.3-.2h6a.2.2,0,0,1,.2.2Z" style="fill:none"/></clipPath><clipPath id="e5e47920-3037-45d6-9b56-68acd6358f2a"><path d="M33.2,44.4c0,.2,0,.3-.2.3H27a.3.3,0,0,1-.3-.3v-6c0-.1.2-.2.3-.2h6c.2,0,.2.1.2.2Z" style="fill:none"/></clipPath><clipPath id="bc57ac27-a8c3-46ce-ab07-abcfdc0eb9f9"><path d="M39.8,44.4a.3.3,0,0,1-.3.3h-6a.3.3,0,0,1-.3-.3v-6c0-.1.2-.2.3-.2h6c.2,0,.3.1.3.2Z" style="fill:none"/></clipPath><clipPath id="bf8738ad-ca55-4899-bf9d-18610d78ff18"><path d="M7.1,51c0,.1,0,.2-.2.2H.9c-.1,0-.3-.1-.3-.2V45a.3.3,0,0,1,.3-.3h6c.2,0,.2.1.2.3Z" style="fill:none"/></clipPath><clipPath id="fee5dfeb-c709-4f90-8dbf-c077013dd9b8"><path d="M13.7,51c0,.1-.1.2-.3.2h-6c-.1,0-.3-.1-.3-.2V45a.3.3,0,0,1,.3-.3h6a.3.3,0,0,1,.3.3Z" style="fill:none"/></clipPath><clipPath id="b557c227-ad73-4997-8b22-f0e6811f681d"><path d="M20.2,51a.2.2,0,0,1-.2.2H14c-.2,0-.3-.1-.3-.2V45a.3.3,0,0,1,.3-.3h6c.1,0,.2.1.2.3Z" style="fill:none"/></clipPath><clipPath id="bc49ad70-0288-4a5d-ab5a-455296379c76"><path d="M26.7,51a.2.2,0,0,1-.2.2h-6c-.2,0-.3-.1-.3-.2V45a.3.3,0,0,1,.3-.3h6c.1,0,.2.1.2.3Z" style="fill:none"/></clipPath><clipPath id="b2647093-3e41-4e3b-bdcb-447eea04efe2"><path d="M33.2,51c0,.1,0,.2-.2.2H27c-.1,0-.3-.1-.3-.2V45a.3.3,0,0,1,.3-.3h6c.2,0,.2.1.2.3Z" style="fill:none"/></clipPath><clipPath id="ab41f19f-6fb0-4708-91e3-19332813cc25"><path d="M39.8,51c0,.1-.1.2-.3.2h-6c-.1,0-.3-.1-.3-.2V45a.3.3,0,0,1,.3-.3h6a.3.3,0,0,1,.3.3Z" style="fill:none"/></clipPath><clipPath id="efc4135b-fe16-4e73-b6bb-ff6f7833ee2a"><path d="M7.1,57.5c0,.1,0,.3-.2.3H.9a.5.5,0,0,1-.3-.3v-6a.5.5,0,0,1,.3-.3h6c.2,0,.2.2.2.3Z" style="fill:none"/></clipPath><clipPath id="b09c367f-ea9c-40d7-a625-e466335559eb"><path d="M13.7,57.5a.3.3,0,0,1-.3.3h-6a.5.5,0,0,1-.3-.3v-6a.5.5,0,0,1,.3-.3h6a.3.3,0,0,1,.3.3Z" style="fill:none"/></clipPath><clipPath id="b005f62c-146c-431f-b9f8-3d9b37b0117a"><path d="M20.2,57.5c0,.1-.1.3-.2.3H14a.3.3,0,0,1-.3-.3v-6a.3.3,0,0,1,.3-.3h6c.1,0,.2.2.2.3Z" style="fill:none"/></clipPath><clipPath id="f9d3b151-7d09-4dd9-8ba7-fa9600221874"><path d="M26.7,57.5c0,.1-.1.3-.2.3h-6a.3.3,0,0,1-.3-.3v-6a.3.3,0,0,1,.3-.3h6c.1,0,.2.2.2.3Z" style="fill:none"/></clipPath><clipPath id="a092b53c-7b2c-4eba-ae13-34a56ba48521"><path d="M33.2,57.5c0,.1,0,.3-.2.3H27a.5.5,0,0,1-.3-.3v-6a.5.5,0,0,1,.3-.3h6c.2,0,.2.2.2.3Z" style="fill:none"/></clipPath><clipPath id="f9a9a62a-c004-436e-aeda-ecbaf47582f4"><path d="M39.8,57.5a.3.3,0,0,1-.3.3h-6a.5.5,0,0,1-.3-.3v-6a.5.5,0,0,1,.3-.3h6a.3.3,0,0,1,.3.3Z" style="fill:none"/></clipPath></defs><g style="isolation:isolate"><g id="b183e15c-8f71-4218-b659-e992a6c36891" data-name="Layer 1"><path d="M4.4,55.7A4.3,4.3,0,0,1,.1,51.5V4.3A4.2,4.2,0,0,1,4.3.1H35.5a4.2,4.2,0,0,1,4.2,4.2V51.5a4.1,4.1,0,0,1-4.2,4.1Z" style="fill:#616161;opacity:0.72;mix-blend-mode:color-burn"/><path d="M4.8,55.6A4.2,4.2,0,0,1,.6,51.4V4.3A4.2,4.2,0,0,1,4.8.1H35.6a4.2,4.2,0,0,1,4.2,4.2V51.4a4.2,4.2,0,0,1-4.2,4.2Z" style="fill:#fffdfd"/><g style="clip-path:url(#aa949dae-25f3-4757-88a1-3951392a9314)"><rect x="0.6" y="-1" width="6.5" height="6.52" rx="0.2" style="fill:#fff"/><g style="clip-path:url(#f6238a61-7943-41a3-989b-1123ef2c8fd4)"><polygon points="0.7 -1 0.7 1.2 2.9 -1 0.7 -1" style="fill:#e5b97a"/><polygon points="7.2 -1 7.2 1.2 5 -1 7.2 -1" style="fill:#e5b97a"/><polygon points="7.2 5.6 7.2 3.3 5 5.6 7.2 5.6" style="fill:#e5b97a"/><polygon points="0.7 5.6 0.7 3.3 2.9 5.6 0.7 5.6" style="fill:#e5b97a"/><polygon points="3.9 -0.2 2.9 -1 2.8 0.4 3.9 1.8 3.9 -0.2" style="fill:#f9e0bd"/><polygon points="3.9 -0.2 5 -1 5.1 0.4 3.9 1.8 3.9 -0.2" style="fill:#e5b97a"/><polygon points="6.4 2.3 7.2 1.3 5.8 1.1 4.4 2.3 6.4 2.3" style="fill:#f9e0bd"/><polygon points="6.4 2.3 7.2 3.4 5.8 3.5 4.4 2.3 6.4 2.3" style="fill:#e5b97a"/><polygon points="3.9 4.8 5 5.6 5.1 4.2 3.9 2.8 3.9 4.8" style="fill:#f9e0bd"/><polygon points="3.9 4.8 2.8 5.6 2.7 4.2 3.9 2.8 3.9 4.8" style="fill:#e5b97a"/><polygon points="1.4 2.3 0.6 3.3 2 3.4 3.4 2.3 1.4 2.3" style="fill:#f9e0bd"/><polygon points="1.4 2.3 0.6 1.2 2 1.1 3.4 2.3 1.4 2.3" style="fill:#e5b97a"/><circle cx="3.9" cy="2.3" r="1" style="fill:#fcce0b"/><circle cx="3.9" cy="2.3" r="0.6" style="fill:#e5b97a"/></g><rect x="7.1" y="-1" width="6.5" height="6.52" rx="0.2" style="fill:#fff"/><g style="clip-path:url(#b849f032-34c6-4a3b-8ad9-0437ce65589a)"><polygon points="7.2 -1 7.2 1.2 9.4 -1 7.2 -1" style="fill:#e5b97a"/><polygon points="13.7 -1 13.7 1.2 11.5 -1 13.7 -1" style="fill:#e5b97a"/><polygon points="13.7 5.6 13.7 3.3 11.5 5.6 13.7 5.6" style="fill:#e5b97a"/><polygon points="7.2 5.6 7.2 3.3 9.4 5.6 7.2 5.6" style="fill:#e5b97a"/><polygon points="10.5 -0.2 9.4 -1 9.3 0.4 10.5 1.8 10.5 -0.2" style="fill:#f9e0bd"/><polygon points="10.5 -0.2 11.5 -1 11.6 0.4 10.5 1.8 10.5 -0.2" style="fill:#e5b97a"/><polygon points="12.9 2.3 13.7 1.3 12.3 1.1 11 2.3 12.9 2.3" style="fill:#f9e0bd"/><polygon points="12.9 2.3 13.7 3.4 12.3 3.5 11 2.3 12.9 2.3" style="fill:#e5b97a"/><polygon points="10.4 4.8 11.5 5.6 11.6 4.2 10.4 2.8 10.4 4.8" style="fill:#f9e0bd"/><polygon points="10.4 4.8 9.4 5.6 9.3 4.2 10.4 2.8 10.4 4.8" style="fill:#e5b97a"/><polygon points="8 2.3 7.2 3.3 8.6 3.4 9.9 2.3 8 2.3" style="fill:#f9e0bd"/><polygon points="8 2.3 7.2 1.2 8.6 1.1 9.9 2.3 8 2.3" style="fill:#e5b97a"/><circle cx="10.4" cy="2.3" r="1" style="fill:#fcce0b"/><circle cx="10.4" cy="2.3" r="0.6" style="fill:#e5b97a"/></g><rect x="13.7" y="-1" width="6.5" height="6.52" rx="0.2" style="fill:#fff"/><g style="clip-path:url(#ad5280e0-6e20-42f2-9470-850b1c86deab)"><polygon points="13.7 -1 13.7 1.2 15.9 -1 13.7 -1" style="fill:#e5b97a"/><polygon points="20.2 -1 20.2 1.2 18 -1 20.2 -1" style="fill:#e5b97a"/><polygon points="20.2 5.6 20.2 3.3 18 5.6 20.2 5.6" style="fill:#e5b97a"/><polygon points="13.7 5.6 13.7 3.3 15.9 5.6 13.7 5.6" style="fill:#e5b97a"/><polygon points="17 -0.2 15.9 -1 15.8 0.4 17 1.8 17 -0.2" style="fill:#f9e0bd"/><polygon points="17 -0.2 18 -1 18.1 0.4 17 1.8 17 -0.2" style="fill:#e5b97a"/><polygon points="19.4 2.3 20.2 1.3 18.8 1.1 17.5 2.3 19.4 2.3" style="fill:#f9e0bd"/><polygon points="19.4 2.3 20.2 3.4 18.8 3.5 17.5 2.3 19.4 2.3" style="fill:#e5b97a"/><polygon points="16.9 4.8 18 5.6 18.1 4.2 16.9 2.8 16.9 4.8" style="fill:#f9e0bd"/><polygon points="16.9 4.8 15.9 5.6 15.8 4.2 16.9 2.8 16.9 4.8" style="fill:#e5b97a"/><polygon points="14.5 2.3 13.7 3.3 15.1 3.4 16.4 2.3 14.5 2.3" style="fill:#f9e0bd"/><polygon points="14.5 2.3 13.7 1.2 15.1 1.1 16.4 2.3 14.5 2.3" style="fill:#e5b97a"/><circle cx="17" cy="2.3" r="1" style="fill:#fcce0b"/><circle cx="17" cy="2.3" r="0.6" style="fill:#e5b97a"/></g><rect x="20.2" y="-1" width="6.5" height="6.52" rx="0.2" style="fill:#fff"/><g style="clip-path:url(#b876649e-c2a4-4861-b2ea-9bfa46ff954d)"><polygon points="20.2 -1 20.2 1.2 22.4 -1 20.2 -1" style="fill:#e5b97a"/><polygon points="26.7 -1 26.7 1.2 24.5 -1 26.7 -1" style="fill:#e5b97a"/><polygon points="26.7 5.6 26.7 3.3 24.5 5.6 26.7 5.6" style="fill:#e5b97a"/><polygon points="20.2 5.6 20.2 3.3 22.4 5.6 20.2 5.6" style="fill:#e5b97a"/><polygon points="23.5 -0.2 22.4 -1 22.3 0.4 23.5 1.8 23.5 -0.2" style="fill:#f9e0bd"/><polygon points="23.5 -0.2 24.6 -1 24.7 0.4 23.5 1.8 23.5 -0.2" style="fill:#e5b97a"/><polygon points="26 2.3 26.8 1.3 25.4 1.1 24 2.3 26 2.3" style="fill:#f9e0bd"/><polygon points="26 2.3 26.8 3.4 25.4 3.5 24 2.3 26 2.3" style="fill:#e5b97a"/><polygon points="23.5 4.8 24.5 5.6 24.6 4.2 23.5 2.8 23.5 4.8" style="fill:#f9e0bd"/><polygon points="23.5 4.8 22.4 5.6 22.3 4.2 23.5 2.8 23.5 4.8" style="fill:#e5b97a"/><polygon points="21 2.3 20.2 3.3 21.6 3.4 23 2.3 21 2.3" style="fill:#f9e0bd"/><polygon points="21 2.3 20.2 1.2 21.6 1.1 23 2.3 21 2.3" style="fill:#e5b97a"/><circle cx="23.5" cy="2.3" r="1" style="fill:#fcce0b"/><circle cx="23.5" cy="2.3" r="0.6" style="fill:#e5b97a"/></g><rect x="26.7" y="-1" width="6.5" height="6.52" rx="0.2" style="fill:#fff"/><g style="clip-path:url(#b129e0fd-5573-4755-83fe-9db03122e2a5)"><polygon points="26.8 -1 26.8 1.2 29 -1 26.8 -1" style="fill:#e5b97a"/><polygon points="33.3 -1 33.3 1.2 31.1 -1 33.3 -1" style="fill:#e5b97a"/><polygon points="33.3 5.6 33.3 3.3 31.1 5.6 33.3 5.6" style="fill:#e5b97a"/><polygon points="26.8 5.6 26.8 3.3 29 5.6 26.8 5.6" style="fill:#e5b97a"/><polygon points="30 -0.2 29 -1 28.9 0.4 30 1.8 30 -0.2" style="fill:#f9e0bd"/><polygon points="30 -0.2 31.1 -1 31.2 0.4 30 1.8 30 -0.2" style="fill:#e5b97a"/><polygon points="32.5 2.3 33.3 1.3 31.9 1.1 30.5 2.3 32.5 2.3" style="fill:#f9e0bd"/><polygon points="32.5 2.3 33.3 3.4 31.9 3.5 30.5 2.3 32.5 2.3" style="fill:#e5b97a"/><polygon points="30 4.8 31.1 5.6 31.2 4.2 30 2.8 30 4.8" style="fill:#f9e0bd"/><polygon points="30 4.8 28.9 5.6 28.8 4.2 30 2.8 30 4.8" style="fill:#e5b97a"/><polygon points="27.5 2.3 26.7 3.3 28.1 3.4 29.5 2.3 27.5 2.3" style="fill:#f9e0bd"/><polygon points="27.5 2.3 26.7 1.2 28.1 1.1 29.5 2.3 27.5 2.3" style="fill:#e5b97a"/><circle cx="30" cy="2.3" r="1" style="fill:#fcce0b"/><circle cx="30" cy="2.3" r="0.6" style="fill:#e5b97a"/></g><rect x="33.2" y="-1" width="6.5" height="6.52" rx="0.2" style="fill:#fff"/><g style="clip-path:url(#a0dff0bb-4dff-4bcf-a80e-0bc946bd678a)"><polygon points="33.3 -1 33.3 1.2 35.5 -1 33.3 -1" style="fill:#e5b97a"/><polygon points="39.8 -1 39.8 1.2 37.6 -1 39.8 -1" style="fill:#e5b97a"/><polygon points="39.8 5.6 39.8 3.3 37.6 5.6 39.8 5.6" style="fill:#e5b97a"/><polygon points="33.3 5.6 33.3 3.3 35.5 5.6 33.3 5.6" style="fill:#e5b97a"/><polygon points="36.6 -0.2 35.5 -1 35.4 0.4 36.6 1.8 36.6 -0.2" style="fill:#f9e0bd"/><polygon points="36.6 -0.2 37.6 -1 37.7 0.4 36.6 1.8 36.6 -0.2" style="fill:#e5b97a"/><polygon points="39 2.3 39.8 1.3 38.4 1.1 37.1 2.3 39 2.3" style="fill:#f9e0bd"/><polygon points="39 2.3 39.8 3.4 38.4 3.5 37.1 2.3 39 2.3" style="fill:#e5b97a"/><polygon points="36.5 4.8 37.6 5.6 37.7 4.2 36.5 2.8 36.5 4.8" style="fill:#f9e0bd"/><polygon points="36.5 4.8 35.5 5.6 35.4 4.2 36.5 2.8 36.5 4.8" style="fill:#e5b97a"/><polygon points="34.1 2.3 33.3 3.3 34.7 3.4 36 2.3 34.1 2.3" style="fill:#f9e0bd"/><polygon points="34.1 2.3 33.3 1.2 34.7 1.1 36 2.3 34.1 2.3" style="fill:#e5b97a"/><circle cx="36.5" cy="2.3" r="1" style="fill:#fcce0b"/><circle cx="36.5" cy="2.3" r="0.6" style="fill:#e5b97a"/></g><rect x="0.6" y="5.6" width="6.5" height="6.52" rx="0.2" style="fill:#fff"/><g style="clip-path:url(#e9c852c3-5bd6-481f-afd4-2e4f287d9d67)"><polygon points="0.7 5.6 0.7 7.8 2.9 5.6 0.7 5.6" style="fill:#e5b97a"/><polygon points="7.2 5.6 7.2 7.8 5 5.6 7.2 5.6" style="fill:#e5b97a"/><polygon points="7.2 12.1 7.2 9.9 5 12.1 7.2 12.1" style="fill:#e5b97a"/><polygon points="0.7 12.1 0.7 9.9 2.9 12.1 0.7 12.1" style="fill:#e5b97a"/><polygon points="3.9 6.3 2.9 5.5 2.8 6.9 3.9 8.3 3.9 6.3" style="fill:#f9e0bd"/><polygon points="3.9 6.3 5 5.5 5.1 6.9 3.9 8.3 3.9 6.3" style="fill:#e5b97a"/><polygon points="6.4 8.8 7.2 7.8 5.8 7.7 4.4 8.8 6.4 8.8" style="fill:#f9e0bd"/><polygon points="6.4 8.8 7.2 9.9 5.8 10 4.4 8.8 6.4 8.8" style="fill:#e5b97a"/><polygon points="3.9 11.3 5 12.1 5.1 10.7 3.9 9.3 3.9 11.3" style="fill:#f9e0bd"/><polygon points="3.9 11.3 2.8 12.1 2.7 10.7 3.9 9.3 3.9 11.3" style="fill:#e5b97a"/><polygon points="1.4 8.8 0.6 9.9 2 10 3.4 8.8 1.4 8.8" style="fill:#f9e0bd"/><polygon points="1.4 8.8 0.6 7.7 2 7.6 3.4 8.8 1.4 8.8" style="fill:#e5b97a"/><circle cx="3.9" cy="8.8" r="1" style="fill:#fcce0b"/><circle cx="3.9" cy="8.8" r="0.6" style="fill:#e5b97a"/></g><rect x="7.1" y="5.6" width="6.5" height="6.52" rx="0.2" style="fill:#fff"/><g style="clip-path:url(#a006fd93-d777-4d50-b123-0c64c51b3ec7)"><polygon points="7.2 5.6 7.2 7.8 9.4 5.6 7.2 5.6" style="fill:#e5b97a"/><polygon points="13.7 5.6 13.7 7.8 11.5 5.6 13.7 5.6" style="fill:#e5b97a"/><polygon points="13.7 12.1 13.7 9.9 11.5 12.1 13.7 12.1" style="fill:#e5b97a"/><polygon points="7.2 12.1 7.2 9.9 9.4 12.1 7.2 12.1" style="fill:#e5b97a"/><polygon points="10.5 6.3 9.4 5.5 9.3 6.9 10.5 8.3 10.5 6.3" style="fill:#f9e0bd"/><polygon points="10.5 6.3 11.5 5.5 11.6 6.9 10.5 8.3 10.5 6.3" style="fill:#e5b97a"/><polygon points="12.9 8.8 13.7 7.8 12.3 7.7 11 8.8 12.9 8.8" style="fill:#f9e0bd"/><polygon points="12.9 8.8 13.7 9.9 12.3 10 11 8.8 12.9 8.8" style="fill:#e5b97a"/><polygon points="10.4 11.3 11.5 12.1 11.6 10.7 10.4 9.3 10.4 11.3" style="fill:#f9e0bd"/><polygon points="10.4 11.3 9.4 12.1 9.3 10.7 10.4 9.3 10.4 11.3" style="fill:#e5b97a"/><polygon points="8 8.8 7.2 9.9 8.6 10 9.9 8.8 8 8.8" style="fill:#f9e0bd"/><polygon points="8 8.8 7.2 7.7 8.6 7.6 9.9 8.8 8 8.8" style="fill:#e5b97a"/><circle cx="10.4" cy="8.8" r="1" style="fill:#fcce0b"/><circle cx="10.4" cy="8.8" r="0.6" style="fill:#e5b97a"/></g><rect x="13.7" y="5.6" width="6.5" height="6.52" rx="0.2" style="fill:#fff"/><g style="clip-path:url(#b67dbc8a-8f02-4042-9cb6-c8271b3eaec8)"><polygon points="13.7 5.6 13.7 7.8 15.9 5.6 13.7 5.6" style="fill:#e5b97a"/><polygon points="20.2 5.6 20.2 7.8 18 5.6 20.2 5.6" style="fill:#e5b97a"/><polygon points="20.2 12.1 20.2 9.9 18 12.1 20.2 12.1" style="fill:#e5b97a"/><polygon points="13.7 12.1 13.7 9.9 15.9 12.1 13.7 12.1" style="fill:#e5b97a"/><polygon points="17 6.3 15.9 5.5 15.8 6.9 17 8.3 17 6.3" style="fill:#f9e0bd"/><polygon points="17 6.3 18 5.5 18.1 6.9 17 8.3 17 6.3" style="fill:#e5b97a"/><polygon points="19.4 8.8 20.2 7.8 18.8 7.7 17.5 8.8 19.4 8.8" style="fill:#f9e0bd"/><polygon points="19.4 8.8 20.2 9.9 18.8 10 17.5 8.8 19.4 8.8" style="fill:#e5b97a"/><polygon points="16.9 11.3 18 12.1 18.1 10.7 16.9 9.3 16.9 11.3" style="fill:#f9e0bd"/><polygon points="16.9 11.3 15.9 12.1 15.8 10.7 16.9 9.3 16.9 11.3" style="fill:#e5b97a"/><polygon points="14.5 8.8 13.7 9.9 15.1 10 16.4 8.8 14.5 8.8" style="fill:#f9e0bd"/><polygon points="14.5 8.8 13.7 7.7 15.1 7.6 16.4 8.8 14.5 8.8" style="fill:#e5b97a"/><circle cx="17" cy="8.8" r="1" style="fill:#fcce0b"/><circle cx="17" cy="8.8" r="0.6" style="fill:#e5b97a"/></g><rect x="20.2" y="5.6" width="6.5" height="6.52" rx="0.2" style="fill:#fff"/><g style="clip-path:url(#b823c6b4-bfa7-4471-8cb7-8afac7f50582)"><polygon points="20.2 5.6 20.2 7.8 22.4 5.6 20.2 5.6" style="fill:#e5b97a"/><polygon points="26.7 5.6 26.7 7.8 24.5 5.6 26.7 5.6" style="fill:#e5b97a"/><polygon points="26.7 12.1 26.7 9.9 24.5 12.1 26.7 12.1" style="fill:#e5b97a"/><polygon points="20.2 12.1 20.2 9.9 22.4 12.1 20.2 12.1" style="fill:#e5b97a"/><polygon points="23.5 6.3 22.4 5.5 22.3 6.9 23.5 8.3 23.5 6.3" style="fill:#f9e0bd"/><polygon points="23.5 6.3 24.6 5.5 24.7 6.9 23.5 8.3 23.5 6.3" style="fill:#e5b97a"/><polygon points="26 8.8 26.8 7.8 25.4 7.7 24 8.8 26 8.8" style="fill:#f9e0bd"/><polygon points="26 8.8 26.8 9.9 25.4 10 24 8.8 26 8.8" style="fill:#e5b97a"/><polygon points="23.5 11.3 24.5 12.1 24.6 10.7 23.5 9.3 23.5 11.3" style="fill:#f9e0bd"/><polygon points="23.5 11.3 22.4 12.1 22.3 10.7 23.5 9.3 23.5 11.3" style="fill:#e5b97a"/><polygon points="21 8.8 20.2 9.9 21.6 10 23 8.8 21 8.8" style="fill:#f9e0bd"/><polygon points="21 8.8 20.2 7.7 21.6 7.6 23 8.8 21 8.8" style="fill:#e5b97a"/><circle cx="23.5" cy="8.8" r="1" style="fill:#fcce0b"/><circle cx="23.5" cy="8.8" r="0.6" style="fill:#e5b97a"/></g><rect x="26.7" y="5.6" width="6.5" height="6.52" rx="0.2" style="fill:#fff"/><g style="clip-path:url(#a158f457-b1cb-4ee3-9d23-92d9319eeda3)"><polygon points="26.8 5.6 26.8 7.8 29 5.6 26.8 5.6" style="fill:#e5b97a"/><polygon points="33.3 5.6 33.3 7.8 31.1 5.6 33.3 5.6" style="fill:#e5b97a"/><polygon points="33.3 12.1 33.3 9.9 31.1 12.1 33.3 12.1" style="fill:#e5b97a"/><polygon points="26.8 12.1 26.8 9.9 29 12.1 26.8 12.1" style="fill:#e5b97a"/><polygon points="30 6.3 29 5.5 28.9 6.9 30 8.3 30 6.3" style="fill:#f9e0bd"/><polygon points="30 6.3 31.1 5.5 31.2 6.9 30 8.3 30 6.3" style="fill:#e5b97a"/><polygon points="32.5 8.8 33.3 7.8 31.9 7.7 30.5 8.8 32.5 8.8" style="fill:#f9e0bd"/><polygon points="32.5 8.8 33.3 9.9 31.9 10 30.5 8.8 32.5 8.8" style="fill:#e5b97a"/><polygon points="30 11.3 31.1 12.1 31.2 10.7 30 9.3 30 11.3" style="fill:#f9e0bd"/><polygon points="30 11.3 28.9 12.1 28.8 10.7 30 9.3 30 11.3" style="fill:#e5b97a"/><polygon points="27.5 8.8 26.7 9.9 28.1 10 29.5 8.8 27.5 8.8" style="fill:#f9e0bd"/><polygon points="27.5 8.8 26.7 7.7 28.1 7.6 29.5 8.8 27.5 8.8" style="fill:#e5b97a"/><circle cx="30" cy="8.8" r="1" style="fill:#fcce0b"/><circle cx="30" cy="8.8" r="0.6" style="fill:#e5b97a"/></g><rect x="33.2" y="5.6" width="6.5" height="6.52" rx="0.2" style="fill:#fff"/><g style="clip-path:url(#b0cecce6-5727-4078-947a-3b2e5ee2b9b3)"><polygon points="33.3 5.6 33.3 7.8 35.5 5.6 33.3 5.6" style="fill:#e5b97a"/><polygon points="39.8 5.6 39.8 7.8 37.6 5.6 39.8 5.6" style="fill:#e5b97a"/><polygon points="39.8 12.1 39.8 9.9 37.6 12.1 39.8 12.1" style="fill:#e5b97a"/><polygon points="33.3 12.1 33.3 9.9 35.5 12.1 33.3 12.1" style="fill:#e5b97a"/><polygon points="36.6 6.3 35.5 5.5 35.4 6.9 36.6 8.3 36.6 6.3" style="fill:#f9e0bd"/><polygon points="36.6 6.3 37.6 5.5 37.7 6.9 36.6 8.3 36.6 6.3" style="fill:#e5b97a"/><polygon points="39 8.8 39.8 7.8 38.4 7.7 37.1 8.8 39 8.8" style="fill:#f9e0bd"/><polygon points="39 8.8 39.8 9.9 38.4 10 37.1 8.8 39 8.8" style="fill:#e5b97a"/><polygon points="36.5 11.3 37.6 12.1 37.7 10.7 36.5 9.3 36.5 11.3" style="fill:#f9e0bd"/><polygon points="36.5 11.3 35.5 12.1 35.4 10.7 36.5 9.3 36.5 11.3" style="fill:#e5b97a"/><polygon points="34.1 8.8 33.3 9.9 34.7 10 36 8.8 34.1 8.8" style="fill:#f9e0bd"/><polygon points="34.1 8.8 33.3 7.7 34.7 7.6 36 8.8 34.1 8.8" style="fill:#e5b97a"/><circle cx="36.5" cy="8.8" r="1" style="fill:#fcce0b"/><circle cx="36.5" cy="8.8" r="0.6" style="fill:#e5b97a"/></g><rect x="0.6" y="12.1" width="6.5" height="6.52" rx="0.2" style="fill:#fff"/><g style="clip-path:url(#bac5dbdd-d6d0-4516-b2bf-bfdca1cbc4c2)"><polygon points="0.7 12.1 0.7 14.3 2.9 12.1 0.7 12.1" style="fill:#e5b97a"/><polygon points="7.2 12.1 7.2 14.3 5 12.1 7.2 12.1" style="fill:#e5b97a"/><polygon points="7.2 18.6 7.2 16.4 5 18.6 7.2 18.6" style="fill:#e5b97a"/><polygon points="0.7 18.6 0.7 16.4 2.9 18.6 0.7 18.6" style="fill:#e5b97a"/><polygon points="3.9 12.9 2.9 12.1 2.8 13.5 3.9 14.8 3.9 12.9" style="fill:#f9e0bd"/><polygon points="3.9 12.9 5 12.1 5.1 13.5 3.9 14.8 3.9 12.9" style="fill:#e5b97a"/><polygon points="6.4 15.4 7.2 14.3 5.8 14.2 4.4 15.4 6.4 15.4" style="fill:#f9e0bd"/><polygon points="6.4 15.4 7.2 16.4 5.8 16.5 4.4 15.4 6.4 15.4" style="fill:#e5b97a"/><polygon points="3.9 17.8 5 18.6 5.1 17.2 3.9 15.9 3.9 17.8" style="fill:#f9e0bd"/><polygon points="3.9 17.8 2.8 18.6 2.7 17.2 3.9 15.9 3.9 17.8" style="fill:#e5b97a"/><polygon points="1.4 15.3 0.6 16.4 2 16.5 3.4 15.3 1.4 15.3" style="fill:#f9e0bd"/><polygon points="1.4 15.3 0.6 14.3 2 14.2 3.4 15.3 1.4 15.3" style="fill:#e5b97a"/><circle cx="3.9" cy="15.3" r="1" style="fill:#fcce0b"/><circle cx="3.9" cy="15.3" r="0.6" style="fill:#e5b97a"/></g><rect x="7.1" y="12.1" width="6.5" height="6.52" rx="0.2" style="fill:#fff"/><g style="clip-path:url(#b8a8502f-b242-4783-b877-913d62f88356)"><polygon points="7.2 12.1 7.2 14.3 9.4 12.1 7.2 12.1" style="fill:#e5b97a"/><polygon points="13.7 12.1 13.7 14.3 11.5 12.1 13.7 12.1" style="fill:#e5b97a"/><polygon points="13.7 18.6 13.7 16.4 11.5 18.6 13.7 18.6" style="fill:#e5b97a"/><polygon points="7.2 18.6 7.2 16.4 9.4 18.6 7.2 18.6" style="fill:#e5b97a"/><polygon points="10.5 12.9 9.4 12.1 9.3 13.5 10.5 14.8 10.5 12.9" style="fill:#f9e0bd"/><polygon points="10.5 12.9 11.5 12.1 11.6 13.5 10.5 14.8 10.5 12.9" style="fill:#e5b97a"/><polygon points="12.9 15.4 13.7 14.3 12.3 14.2 11 15.4 12.9 15.4" style="fill:#f9e0bd"/><polygon points="12.9 15.4 13.7 16.4 12.3 16.5 11 15.4 12.9 15.4" style="fill:#e5b97a"/><polygon points="10.4 17.8 11.5 18.6 11.6 17.2 10.4 15.9 10.4 17.8" style="fill:#f9e0bd"/><polygon points="10.4 17.8 9.4 18.6 9.3 17.2 10.4 15.9 10.4 17.8" style="fill:#e5b97a"/><polygon points="8 15.3 7.2 16.4 8.6 16.5 9.9 15.3 8 15.3" style="fill:#f9e0bd"/><polygon points="8 15.3 7.2 14.3 8.6 14.2 9.9 15.3 8 15.3" style="fill:#e5b97a"/><circle cx="10.4" cy="15.3" r="1" style="fill:#fcce0b"/><circle cx="10.4" cy="15.3" r="0.6" style="fill:#e5b97a"/></g><rect x="13.7" y="12.1" width="6.5" height="6.52" rx="0.2" style="fill:#fff"/><g style="clip-path:url(#f03c1a9d-164b-45f3-b157-db7b2ac78570)"><polygon points="13.7 12.1 13.7 14.3 15.9 12.1 13.7 12.1" style="fill:#e5b97a"/><polygon points="20.2 12.1 20.2 14.3 18 12.1 20.2 12.1" style="fill:#e5b97a"/><polygon points="20.2 18.6 20.2 16.4 18 18.6 20.2 18.6" style="fill:#e5b97a"/><polygon points="13.7 18.6 13.7 16.4 15.9 18.6 13.7 18.6" style="fill:#e5b97a"/><polygon points="17 12.9 15.9 12.1 15.8 13.5 17 14.8 17 12.9" style="fill:#f9e0bd"/><polygon points="17 12.9 18 12.1 18.1 13.5 17 14.8 17 12.9" style="fill:#e5b97a"/><polygon points="19.4 15.4 20.2 14.3 18.8 14.2 17.5 15.4 19.4 15.4" style="fill:#f9e0bd"/><polygon points="19.4 15.4 20.2 16.4 18.8 16.5 17.5 15.4 19.4 15.4" style="fill:#e5b97a"/><polygon points="16.9 17.8 18 18.6 18.1 17.2 16.9 15.9 16.9 17.8" style="fill:#f9e0bd"/><polygon points="16.9 17.8 15.9 18.6 15.8 17.2 16.9 15.9 16.9 17.8" style="fill:#e5b97a"/><polygon points="14.5 15.3 13.7 16.4 15.1 16.5 16.4 15.3 14.5 15.3" style="fill:#f9e0bd"/><polygon points="14.5 15.3 13.7 14.3 15.1 14.2 16.4 15.3 14.5 15.3" style="fill:#e5b97a"/><circle cx="17" cy="15.3" r="1" style="fill:#fcce0b"/><circle cx="17" cy="15.3" r="0.6" style="fill:#e5b97a"/></g><rect x="20.2" y="12.1" width="6.5" height="6.52" rx="0.2" style="fill:#fff"/><g style="clip-path:url(#b4954be1-a15d-48d3-b057-bf2a2b4ede83)"><polygon points="20.2 12.1 20.2 14.3 22.4 12.1 20.2 12.1" style="fill:#e5b97a"/><polygon points="26.7 12.1 26.7 14.3 24.5 12.1 26.7 12.1" style="fill:#e5b97a"/><polygon points="26.7 18.6 26.7 16.4 24.5 18.6 26.7 18.6" style="fill:#e5b97a"/><polygon points="20.2 18.6 20.2 16.4 22.4 18.6 20.2 18.6" style="fill:#e5b97a"/><polygon points="23.5 12.9 22.4 12.1 22.3 13.5 23.5 14.8 23.5 12.9" style="fill:#f9e0bd"/><polygon points="23.5 12.9 24.6 12.1 24.7 13.5 23.5 14.8 23.5 12.9" style="fill:#e5b97a"/><polygon points="26 15.4 26.8 14.3 25.4 14.2 24 15.4 26 15.4" style="fill:#f9e0bd"/><polygon points="26 15.4 26.8 16.4 25.4 16.5 24 15.4 26 15.4" style="fill:#e5b97a"/><polygon points="23.5 17.8 24.5 18.6 24.6 17.2 23.5 15.9 23.5 17.8" style="fill:#f9e0bd"/><polygon points="23.5 17.8 22.4 18.6 22.3 17.2 23.5 15.9 23.5 17.8" style="fill:#e5b97a"/><polygon points="21 15.3 20.2 16.4 21.6 16.5 23 15.3 21 15.3" style="fill:#f9e0bd"/><polygon points="21 15.3 20.2 14.3 21.6 14.2 23 15.3 21 15.3" style="fill:#e5b97a"/><circle cx="23.5" cy="15.3" r="1" style="fill:#fcce0b"/><circle cx="23.5" cy="15.3" r="0.6" style="fill:#e5b97a"/></g><rect x="26.7" y="12.1" width="6.5" height="6.52" rx="0.2" style="fill:#fff"/><g style="clip-path:url(#b2419acf-65d0-46c9-95c1-f03addbea547)"><polygon points="26.8 12.1 26.8 14.3 29 12.1 26.8 12.1" style="fill:#e5b97a"/><polygon points="33.3 12.1 33.3 14.3 31.1 12.1 33.3 12.1" style="fill:#e5b97a"/><polygon points="33.3 18.6 33.3 16.4 31.1 18.6 33.3 18.6" style="fill:#e5b97a"/><polygon points="26.8 18.6 26.8 16.4 29 18.6 26.8 18.6" style="fill:#e5b97a"/><polygon points="30 12.9 29 12.1 28.9 13.5 30 14.8 30 12.9" style="fill:#f9e0bd"/><polygon points="30 12.9 31.1 12.1 31.2 13.5 30 14.8 30 12.9" style="fill:#e5b97a"/><polygon points="32.5 15.4 33.3 14.3 31.9 14.2 30.5 15.4 32.5 15.4" style="fill:#f9e0bd"/><polygon points="32.5 15.4 33.3 16.4 31.9 16.5 30.5 15.4 32.5 15.4" style="fill:#e5b97a"/><polygon points="30 17.8 31.1 18.6 31.2 17.2 30 15.9 30 17.8" style="fill:#f9e0bd"/><polygon points="30 17.8 28.9 18.6 28.8 17.2 30 15.9 30 17.8" style="fill:#e5b97a"/><polygon points="27.5 15.3 26.7 16.4 28.1 16.5 29.5 15.3 27.5 15.3" style="fill:#f9e0bd"/><polygon points="27.5 15.3 26.7 14.3 28.1 14.2 29.5 15.3 27.5 15.3" style="fill:#e5b97a"/><circle cx="30" cy="15.3" r="1" style="fill:#fcce0b"/><circle cx="30" cy="15.3" r="0.6" style="fill:#e5b97a"/></g><rect x="33.2" y="12.1" width="6.5" height="6.52" rx="0.2" style="fill:#fff"/><g style="clip-path:url(#a80a4d58-bccb-4fc7-a2cc-3af59a441e32)"><polygon points="33.3 12.1 33.3 14.3 35.5 12.1 33.3 12.1" style="fill:#e5b97a"/><polygon points="39.8 12.1 39.8 14.3 37.6 12.1 39.8 12.1" style="fill:#e5b97a"/><polygon points="39.8 18.6 39.8 16.4 37.6 18.6 39.8 18.6" style="fill:#e5b97a"/><polygon points="33.3 18.6 33.3 16.4 35.5 18.6 33.3 18.6" style="fill:#e5b97a"/><polygon points="36.6 12.9 35.5 12.1 35.4 13.5 36.6 14.8 36.6 12.9" style="fill:#f9e0bd"/><polygon points="36.6 12.9 37.6 12.1 37.7 13.5 36.6 14.8 36.6 12.9" style="fill:#e5b97a"/><polygon points="39 15.4 39.8 14.3 38.4 14.2 37.1 15.4 39 15.4" style="fill:#f9e0bd"/><polygon points="39 15.4 39.8 16.4 38.4 16.5 37.1 15.4 39 15.4" style="fill:#e5b97a"/><polygon points="36.5 17.8 37.6 18.6 37.7 17.2 36.5 15.9 36.5 17.8" style="fill:#f9e0bd"/><polygon points="36.5 17.8 35.5 18.6 35.4 17.2 36.5 15.9 36.5 17.8" style="fill:#e5b97a"/><polygon points="34.1 15.3 33.3 16.4 34.7 16.5 36 15.3 34.1 15.3" style="fill:#f9e0bd"/><polygon points="34.1 15.3 33.3 14.3 34.7 14.2 36 15.3 34.1 15.3" style="fill:#e5b97a"/><circle cx="36.5" cy="15.3" r="1" style="fill:#fcce0b"/><circle cx="36.5" cy="15.3" r="0.6" style="fill:#e5b97a"/></g><rect x="0.6" y="18.6" width="6.5" height="6.52" rx="0.2" style="fill:#fff"/><g style="clip-path:url(#a07af95b-209b-4525-a373-5c97bf446818)"><polygon points="0.7 18.6 0.7 20.8 2.9 18.6 0.7 18.6" style="fill:#e5b97a"/><polygon points="7.2 18.6 7.2 20.8 5 18.6 7.2 18.6" style="fill:#e5b97a"/><polygon points="7.2 25.1 7.2 22.9 5 25.1 7.2 25.1" style="fill:#e5b97a"/><polygon points="0.7 25.1 0.7 22.9 2.9 25.1 0.7 25.1" style="fill:#e5b97a"/><polygon points="3.9 19.4 2.9 18.6 2.8 20 3.9 21.3 3.9 19.4" style="fill:#f9e0bd"/><polygon points="3.9 19.4 5 18.6 5.1 20 3.9 21.3 3.9 19.4" style="fill:#e5b97a"/><polygon points="6.4 21.9 7.2 20.8 5.8 20.7 4.4 21.9 6.4 21.9" style="fill:#f9e0bd"/><polygon points="6.4 21.9 7.2 22.9 5.8 23 4.4 21.9 6.4 21.9" style="fill:#e5b97a"/><polygon points="3.9 24.3 5 25.1 5.1 23.7 3.9 22.4 3.9 24.3" style="fill:#f9e0bd"/><polygon points="3.9 24.3 2.8 25.1 2.7 23.7 3.9 22.4 3.9 24.3" style="fill:#e5b97a"/><polygon points="1.4 21.8 0.6 22.9 2 23 3.4 21.8 1.4 21.8" style="fill:#f9e0bd"/><polygon points="1.4 21.8 0.6 20.8 2 20.7 3.4 21.8 1.4 21.8" style="fill:#e5b97a"/><circle cx="3.9" cy="21.9" r="1" style="fill:#fcce0b"/><circle cx="3.9" cy="21.9" r="0.6" style="fill:#e5b97a"/></g><rect x="7.1" y="18.6" width="6.5" height="6.52" rx="0.2" style="fill:#fff"/><g style="clip-path:url(#f6ad0036-7de1-42fe-941e-83270ea7dfb1)"><polygon points="7.2 18.6 7.2 20.8 9.4 18.6 7.2 18.6" style="fill:#e5b97a"/><polygon points="13.7 18.6 13.7 20.8 11.5 18.6 13.7 18.6" style="fill:#e5b97a"/><polygon points="13.7 25.1 13.7 22.9 11.5 25.1 13.7 25.1" style="fill:#e5b97a"/><polygon points="7.2 25.1 7.2 22.9 9.4 25.1 7.2 25.1" style="fill:#e5b97a"/><polygon points="10.5 19.4 9.4 18.6 9.3 20 10.5 21.3 10.5 19.4" style="fill:#f9e0bd"/><polygon points="10.5 19.4 11.5 18.6 11.6 20 10.5 21.3 10.5 19.4" style="fill:#e5b97a"/><polygon points="12.9 21.9 13.7 20.8 12.3 20.7 11 21.9 12.9 21.9" style="fill:#f9e0bd"/><polygon points="12.9 21.9 13.7 22.9 12.3 23 11 21.9 12.9 21.9" style="fill:#e5b97a"/><polygon points="10.4 24.3 11.5 25.1 11.6 23.7 10.4 22.4 10.4 24.3" style="fill:#f9e0bd"/><polygon points="10.4 24.3 9.4 25.1 9.3 23.7 10.4 22.4 10.4 24.3" style="fill:#e5b97a"/><polygon points="8 21.8 7.2 22.9 8.6 23 9.9 21.8 8 21.8" style="fill:#f9e0bd"/><polygon points="8 21.8 7.2 20.8 8.6 20.7 9.9 21.8 8 21.8" style="fill:#e5b97a"/><circle cx="10.4" cy="21.9" r="1" style="fill:#fcce0b"/><circle cx="10.4" cy="21.9" r="0.6" style="fill:#e5b97a"/></g><rect x="13.7" y="18.6" width="6.5" height="6.52" rx="0.2" style="fill:#fff"/><g style="clip-path:url(#ac868404-4eeb-498a-b4df-5808dd61015f)"><polygon points="13.7 18.6 13.7 20.8 15.9 18.6 13.7 18.6" style="fill:#e5b97a"/><polygon points="20.2 18.6 20.2 20.8 18 18.6 20.2 18.6" style="fill:#e5b97a"/><polygon points="20.2 25.1 20.2 22.9 18 25.1 20.2 25.1" style="fill:#e5b97a"/><polygon points="13.7 25.1 13.7 22.9 15.9 25.1 13.7 25.1" style="fill:#e5b97a"/><polygon points="17 19.4 15.9 18.6 15.8 20 17 21.3 17 19.4" style="fill:#f9e0bd"/><polygon points="17 19.4 18 18.6 18.1 20 17 21.3 17 19.4" style="fill:#e5b97a"/><polygon points="19.4 21.9 20.2 20.8 18.8 20.7 17.5 21.9 19.4 21.9" style="fill:#f9e0bd"/><polygon points="19.4 21.9 20.2 22.9 18.8 23 17.5 21.9 19.4 21.9" style="fill:#e5b97a"/><polygon points="16.9 24.3 18 25.1 18.1 23.7 16.9 22.4 16.9 24.3" style="fill:#f9e0bd"/><polygon points="16.9 24.3 15.9 25.1 15.8 23.7 16.9 22.4 16.9 24.3" style="fill:#e5b97a"/><polygon points="14.5 21.8 13.7 22.9 15.1 23 16.4 21.8 14.5 21.8" style="fill:#f9e0bd"/><polygon points="14.5 21.8 13.7 20.8 15.1 20.7 16.4 21.8 14.5 21.8" style="fill:#e5b97a"/><circle cx="17" cy="21.9" r="1" style="fill:#fcce0b"/><circle cx="17" cy="21.9" r="0.6" style="fill:#e5b97a"/></g><rect x="20.2" y="18.6" width="6.5" height="6.52" rx="0.2" style="fill:#fff"/><g style="clip-path:url(#a171b66b-b380-41ea-bd92-15b9e1efacb9)"><polygon points="20.2 18.6 20.2 20.8 22.4 18.6 20.2 18.6" style="fill:#e5b97a"/><polygon points="26.7 18.6 26.7 20.8 24.5 18.6 26.7 18.6" style="fill:#e5b97a"/><polygon points="26.7 25.1 26.7 22.9 24.5 25.1 26.7 25.1" style="fill:#e5b97a"/><polygon points="20.2 25.1 20.2 22.9 22.4 25.1 20.2 25.1" style="fill:#e5b97a"/><polygon points="23.5 19.4 22.4 18.6 22.3 20 23.5 21.3 23.5 19.4" style="fill:#f9e0bd"/><polygon points="23.5 19.4 24.6 18.6 24.7 20 23.5 21.3 23.5 19.4" style="fill:#e5b97a"/><polygon points="26 21.9 26.8 20.8 25.4 20.7 24 21.9 26 21.9" style="fill:#f9e0bd"/><polygon points="26 21.9 26.8 22.9 25.4 23 24 21.9 26 21.9" style="fill:#e5b97a"/><polygon points="23.5 24.3 24.5 25.1 24.6 23.7 23.5 22.4 23.5 24.3" style="fill:#f9e0bd"/><polygon points="23.5 24.3 22.4 25.1 22.3 23.7 23.5 22.4 23.5 24.3" style="fill:#e5b97a"/><polygon points="21 21.8 20.2 22.9 21.6 23 23 21.8 21 21.8" style="fill:#f9e0bd"/><polygon points="21 21.8 20.2 20.8 21.6 20.7 23 21.8 21 21.8" style="fill:#e5b97a"/><circle cx="23.5" cy="21.9" r="1" style="fill:#fcce0b"/><circle cx="23.5" cy="21.9" r="0.6" style="fill:#e5b97a"/></g><rect x="26.7" y="18.6" width="6.5" height="6.52" rx="0.2" style="fill:#fff"/><g style="clip-path:url(#a2e8c456-c7b8-4502-b2ee-b7bdef6cef55)"><polygon points="26.8 18.6 26.8 20.8 29 18.6 26.8 18.6" style="fill:#e5b97a"/><polygon points="33.3 18.6 33.3 20.8 31.1 18.6 33.3 18.6" style="fill:#e5b97a"/><polygon points="33.3 25.1 33.3 22.9 31.1 25.1 33.3 25.1" style="fill:#e5b97a"/><polygon points="26.8 25.1 26.8 22.9 29 25.1 26.8 25.1" style="fill:#e5b97a"/><polygon points="30 19.4 29 18.6 28.9 20 30 21.3 30 19.4" style="fill:#f9e0bd"/><polygon points="30 19.4 31.1 18.6 31.2 20 30 21.3 30 19.4" style="fill:#e5b97a"/><polygon points="32.5 21.9 33.3 20.8 31.9 20.7 30.5 21.9 32.5 21.9" style="fill:#f9e0bd"/><polygon points="32.5 21.9 33.3 22.9 31.9 23 30.5 21.9 32.5 21.9" style="fill:#e5b97a"/><polygon points="30 24.3 31.1 25.1 31.2 23.7 30 22.4 30 24.3" style="fill:#f9e0bd"/><polygon points="30 24.3 28.9 25.1 28.8 23.7 30 22.4 30 24.3" style="fill:#e5b97a"/><polygon points="27.5 21.8 26.7 22.9 28.1 23 29.5 21.8 27.5 21.8" style="fill:#f9e0bd"/><polygon points="27.5 21.8 26.7 20.8 28.1 20.7 29.5 21.8 27.5 21.8" style="fill:#e5b97a"/><circle cx="30" cy="21.9" r="1" style="fill:#fcce0b"/><circle cx="30" cy="21.9" r="0.6" style="fill:#e5b97a"/></g><rect x="33.2" y="18.6" width="6.5" height="6.52" rx="0.2" style="fill:#fff"/><g style="clip-path:url(#b4dc546b-533a-454e-b35b-5f783f9595ff)"><polygon points="33.3 18.6 33.3 20.8 35.5 18.6 33.3 18.6" style="fill:#e5b97a"/><polygon points="39.8 18.6 39.8 20.8 37.6 18.6 39.8 18.6" style="fill:#e5b97a"/><polygon points="39.8 25.1 39.8 22.9 37.6 25.1 39.8 25.1" style="fill:#e5b97a"/><polygon points="33.3 25.1 33.3 22.9 35.5 25.1 33.3 25.1" style="fill:#e5b97a"/><polygon points="36.6 19.4 35.5 18.6 35.4 20 36.6 21.3 36.6 19.4" style="fill:#f9e0bd"/><polygon points="36.6 19.4 37.6 18.6 37.7 20 36.6 21.3 36.6 19.4" style="fill:#e5b97a"/><polygon points="39 21.9 39.8 20.8 38.4 20.7 37.1 21.9 39 21.9" style="fill:#f9e0bd"/><polygon points="39 21.9 39.8 22.9 38.4 23 37.1 21.9 39 21.9" style="fill:#e5b97a"/><polygon points="36.5 24.3 37.6 25.1 37.7 23.7 36.5 22.4 36.5 24.3" style="fill:#f9e0bd"/><polygon points="36.5 24.3 35.5 25.1 35.4 23.7 36.5 22.4 36.5 24.3" style="fill:#e5b97a"/><polygon points="34.1 21.8 33.3 22.9 34.7 23 36 21.8 34.1 21.8" style="fill:#f9e0bd"/><polygon points="34.1 21.8 33.3 20.8 34.7 20.7 36 21.8 34.1 21.8" style="fill:#e5b97a"/><circle cx="36.5" cy="21.9" r="1" style="fill:#fcce0b"/><circle cx="36.5" cy="21.9" r="0.6" style="fill:#e5b97a"/></g><rect x="0.6" y="25.1" width="6.5" height="6.52" rx="0.2" style="fill:#fff"/><g style="clip-path:url(#bc699f70-64fa-43e9-b4e1-9a6b689a1df3)"><polygon points="0.7 25.1 0.7 27.3 2.9 25.1 0.7 25.1" style="fill:#e5b97a"/><polygon points="7.2 25.1 7.2 27.3 5 25.1 7.2 25.1" style="fill:#e5b97a"/><polygon points="7.2 31.7 7.2 29.4 5 31.7 7.2 31.7" style="fill:#e5b97a"/><polygon points="0.7 31.7 0.7 29.4 2.9 31.7 0.7 31.7" style="fill:#e5b97a"/><polygon points="3.9 25.9 2.9 25.1 2.8 26.5 3.9 27.9 3.9 25.9" style="fill:#f9e0bd"/><polygon points="3.9 25.9 5 25.1 5.1 26.5 3.9 27.9 3.9 25.9" style="fill:#e5b97a"/><polygon points="6.4 28.4 7.2 27.3 5.8 27.2 4.4 28.4 6.4 28.4" style="fill:#f9e0bd"/><polygon points="6.4 28.4 7.2 29.5 5.8 29.6 4.4 28.4 6.4 28.4" style="fill:#e5b97a"/><polygon points="3.9 30.9 5 31.7 5.1 30.3 3.9 28.9 3.9 30.9" style="fill:#f9e0bd"/><polygon points="3.9 30.9 2.8 31.7 2.7 30.3 3.9 28.9 3.9 30.9" style="fill:#e5b97a"/><polygon points="1.4 28.4 0.6 29.4 2 29.5 3.4 28.4 1.4 28.4" style="fill:#f9e0bd"/><polygon points="1.4 28.4 0.6 27.3 2 27.2 3.4 28.4 1.4 28.4" style="fill:#e5b97a"/><circle cx="3.9" cy="28.4" r="1" style="fill:#fcce0b"/><circle cx="3.9" cy="28.4" r="0.6" style="fill:#e5b97a"/></g><rect x="7.1" y="25.1" width="6.5" height="6.52" rx="0.2" style="fill:#fff"/><g style="clip-path:url(#a626370e-f14c-49c3-ab20-658ebdd7d428)"><polygon points="7.2 25.1 7.2 27.3 9.4 25.1 7.2 25.1" style="fill:#e5b97a"/><polygon points="13.7 25.1 13.7 27.3 11.5 25.1 13.7 25.1" style="fill:#e5b97a"/><polygon points="13.7 31.7 13.7 29.4 11.5 31.7 13.7 31.7" style="fill:#e5b97a"/><polygon points="7.2 31.7 7.2 29.4 9.4 31.7 7.2 31.7" style="fill:#e5b97a"/><polygon points="10.5 25.9 9.4 25.1 9.3 26.5 10.5 27.9 10.5 25.9" style="fill:#f9e0bd"/><polygon points="10.5 25.9 11.5 25.1 11.6 26.5 10.5 27.9 10.5 25.9" style="fill:#e5b97a"/><polygon points="12.9 28.4 13.7 27.3 12.3 27.2 11 28.4 12.9 28.4" style="fill:#f9e0bd"/><polygon points="12.9 28.4 13.7 29.5 12.3 29.6 11 28.4 12.9 28.4" style="fill:#e5b97a"/><polygon points="10.4 30.9 11.5 31.7 11.6 30.3 10.4 28.9 10.4 30.9" style="fill:#f9e0bd"/><polygon points="10.4 30.9 9.4 31.7 9.3 30.3 10.4 28.9 10.4 30.9" style="fill:#e5b97a"/><polygon points="8 28.4 7.2 29.4 8.6 29.5 9.9 28.4 8 28.4" style="fill:#f9e0bd"/><polygon points="8 28.4 7.2 27.3 8.6 27.2 9.9 28.4 8 28.4" style="fill:#e5b97a"/><circle cx="10.4" cy="28.4" r="1" style="fill:#fcce0b"/><circle cx="10.4" cy="28.4" r="0.6" style="fill:#e5b97a"/></g><rect x="13.7" y="25.1" width="6.5" height="6.52" rx="0.2" style="fill:#fff"/><g style="clip-path:url(#ad68300f-928f-43e1-a724-81c399aeb99e)"><polygon points="13.7 25.1 13.7 27.3 15.9 25.1 13.7 25.1" style="fill:#e5b97a"/><polygon points="20.2 25.1 20.2 27.3 18 25.1 20.2 25.1" style="fill:#e5b97a"/><polygon points="20.2 31.7 20.2 29.4 18 31.7 20.2 31.7" style="fill:#e5b97a"/><polygon points="13.7 31.7 13.7 29.4 15.9 31.7 13.7 31.7" style="fill:#e5b97a"/><polygon points="17 25.9 15.9 25.1 15.8 26.5 17 27.9 17 25.9" style="fill:#f9e0bd"/><polygon points="17 25.9 18 25.1 18.1 26.5 17 27.9 17 25.9" style="fill:#e5b97a"/><polygon points="19.4 28.4 20.2 27.3 18.8 27.2 17.5 28.4 19.4 28.4" style="fill:#f9e0bd"/><polygon points="19.4 28.4 20.2 29.5 18.8 29.6 17.5 28.4 19.4 28.4" style="fill:#e5b97a"/><polygon points="16.9 30.9 18 31.7 18.1 30.3 16.9 28.9 16.9 30.9" style="fill:#f9e0bd"/><polygon points="16.9 30.9 15.9 31.7 15.8 30.3 16.9 28.9 16.9 30.9" style="fill:#e5b97a"/><polygon points="14.5 28.4 13.7 29.4 15.1 29.5 16.4 28.4 14.5 28.4" style="fill:#f9e0bd"/><polygon points="14.5 28.4 13.7 27.3 15.1 27.2 16.4 28.4 14.5 28.4" style="fill:#e5b97a"/><circle cx="17" cy="28.4" r="1" style="fill:#fcce0b"/><circle cx="17" cy="28.4" r="0.6" style="fill:#e5b97a"/></g><rect x="20.2" y="25.1" width="6.5" height="6.52" rx="0.2" style="fill:#fff"/><g style="clip-path:url(#f2025d38-7d7e-4803-b90f-38ea8ca4effe)"><polygon points="20.2 25.1 20.2 27.3 22.4 25.1 20.2 25.1" style="fill:#e5b97a"/><polygon points="26.7 25.1 26.7 27.3 24.5 25.1 26.7 25.1" style="fill:#e5b97a"/><polygon points="26.7 31.7 26.7 29.4 24.5 31.7 26.7 31.7" style="fill:#e5b97a"/><polygon points="20.2 31.7 20.2 29.4 22.4 31.7 20.2 31.7" style="fill:#e5b97a"/><polygon points="23.5 25.9 22.4 25.1 22.3 26.5 23.5 27.9 23.5 25.9" style="fill:#f9e0bd"/><polygon points="23.5 25.9 24.6 25.1 24.7 26.5 23.5 27.9 23.5 25.9" style="fill:#e5b97a"/><polygon points="26 28.4 26.8 27.3 25.4 27.2 24 28.4 26 28.4" style="fill:#f9e0bd"/><polygon points="26 28.4 26.8 29.5 25.4 29.6 24 28.4 26 28.4" style="fill:#e5b97a"/><polygon points="23.5 30.9 24.5 31.7 24.6 30.3 23.5 28.9 23.5 30.9" style="fill:#f9e0bd"/><polygon points="23.5 30.9 22.4 31.7 22.3 30.3 23.5 28.9 23.5 30.9" style="fill:#e5b97a"/><polygon points="21 28.4 20.2 29.4 21.6 29.5 23 28.4 21 28.4" style="fill:#f9e0bd"/><polygon points="21 28.4 20.2 27.3 21.6 27.2 23 28.4 21 28.4" style="fill:#e5b97a"/><circle cx="23.5" cy="28.4" r="1" style="fill:#fcce0b"/><circle cx="23.5" cy="28.4" r="0.6" style="fill:#e5b97a"/></g><rect x="26.7" y="25.1" width="6.5" height="6.52" rx="0.2" style="fill:#fff"/><g style="clip-path:url(#ad94cd76-4e19-42f3-b910-89ea5b9a7ea0)"><polygon points="26.8 25.1 26.8 27.3 29 25.1 26.8 25.1" style="fill:#e5b97a"/><polygon points="33.3 25.1 33.3 27.3 31.1 25.1 33.3 25.1" style="fill:#e5b97a"/><polygon points="33.3 31.7 33.3 29.4 31.1 31.7 33.3 31.7" style="fill:#e5b97a"/><polygon points="26.8 31.7 26.8 29.4 29 31.7 26.8 31.7" style="fill:#e5b97a"/><polygon points="30 25.9 29 25.1 28.9 26.5 30 27.9 30 25.9" style="fill:#f9e0bd"/><polygon points="30 25.9 31.1 25.1 31.2 26.5 30 27.9 30 25.9" style="fill:#e5b97a"/><polygon points="32.5 28.4 33.3 27.3 31.9 27.2 30.5 28.4 32.5 28.4" style="fill:#f9e0bd"/><polygon points="32.5 28.4 33.3 29.5 31.9 29.6 30.5 28.4 32.5 28.4" style="fill:#e5b97a"/><polygon points="30 30.9 31.1 31.7 31.2 30.3 30 28.9 30 30.9" style="fill:#f9e0bd"/><polygon points="30 30.9 28.9 31.7 28.8 30.3 30 28.9 30 30.9" style="fill:#e5b97a"/><polygon points="27.5 28.4 26.7 29.4 28.1 29.5 29.5 28.4 27.5 28.4" style="fill:#f9e0bd"/><polygon points="27.5 28.4 26.7 27.3 28.1 27.2 29.5 28.4 27.5 28.4" style="fill:#e5b97a"/><circle cx="30" cy="28.4" r="1" style="fill:#fcce0b"/><circle cx="30" cy="28.4" r="0.6" style="fill:#e5b97a"/></g><rect x="33.2" y="25.1" width="6.5" height="6.52" rx="0.2" style="fill:#fff"/><g style="clip-path:url(#b0670f1c-5ed7-4119-b86f-d25494b24ec7)"><polygon points="33.3 25.1 33.3 27.3 35.5 25.1 33.3 25.1" style="fill:#e5b97a"/><polygon points="39.8 25.1 39.8 27.3 37.6 25.1 39.8 25.1" style="fill:#e5b97a"/><polygon points="39.8 31.7 39.8 29.4 37.6 31.7 39.8 31.7" style="fill:#e5b97a"/><polygon points="33.3 31.7 33.3 29.4 35.5 31.7 33.3 31.7" style="fill:#e5b97a"/><polygon points="36.6 25.9 35.5 25.1 35.4 26.5 36.6 27.9 36.6 25.9" style="fill:#f9e0bd"/><polygon points="36.6 25.9 37.6 25.1 37.7 26.5 36.6 27.9 36.6 25.9" style="fill:#e5b97a"/><polygon points="39 28.4 39.8 27.3 38.4 27.2 37.1 28.4 39 28.4" style="fill:#f9e0bd"/><polygon points="39 28.4 39.8 29.5 38.4 29.6 37.1 28.4 39 28.4" style="fill:#e5b97a"/><polygon points="36.5 30.9 37.6 31.7 37.7 30.3 36.5 28.9 36.5 30.9" style="fill:#f9e0bd"/><polygon points="36.5 30.9 35.5 31.7 35.4 30.3 36.5 28.9 36.5 30.9" style="fill:#e5b97a"/><polygon points="34.1 28.4 33.3 29.4 34.7 29.5 36 28.4 34.1 28.4" style="fill:#f9e0bd"/><polygon points="34.1 28.4 33.3 27.3 34.7 27.2 36 28.4 34.1 28.4" style="fill:#e5b97a"/><circle cx="36.5" cy="28.4" r="1" style="fill:#fcce0b"/><circle cx="36.5" cy="28.4" r="0.6" style="fill:#e5b97a"/></g><rect x="0.6" y="31.7" width="6.5" height="6.52" rx="0.2" style="fill:#fff"/><g style="clip-path:url(#a1f2295a-1919-49dd-a4ac-2f1e4c50c74c)"><polygon points="0.7 31.7 0.7 33.9 2.9 31.7 0.7 31.7" style="fill:#e5b97a"/><polygon points="7.2 31.7 7.2 33.9 5 31.7 7.2 31.7" style="fill:#e5b97a"/><polygon points="7.2 38.2 7.2 36 5 38.2 7.2 38.2" style="fill:#e5b97a"/><polygon points="0.7 38.2 0.7 36 2.9 38.2 0.7 38.2" style="fill:#e5b97a"/><polygon points="3.9 32.4 2.9 31.6 2.8 33 3.9 34.4 3.9 32.4" style="fill:#f9e0bd"/><polygon points="3.9 32.4 5 31.6 5.1 33 3.9 34.4 3.9 32.4" style="fill:#e5b97a"/><polygon points="6.4 34.9 7.2 33.9 5.8 33.8 4.4 34.9 6.4 34.9" style="fill:#f9e0bd"/><polygon points="6.4 34.9 7.2 36 5.8 36.1 4.4 34.9 6.4 34.9" style="fill:#e5b97a"/><polygon points="3.9 37.4 5 38.2 5.1 36.8 3.9 35.4 3.9 37.4" style="fill:#f9e0bd"/><polygon points="3.9 37.4 2.8 38.2 2.7 36.8 3.9 35.4 3.9 37.4" style="fill:#e5b97a"/><polygon points="1.4 34.9 0.6 36 2 36.1 3.4 34.9 1.4 34.9" style="fill:#f9e0bd"/><polygon points="1.4 34.9 0.6 33.8 2 33.7 3.4 34.9 1.4 34.9" style="fill:#e5b97a"/><circle cx="3.9" cy="34.9" r="1" style="fill:#fcce0b"/><circle cx="3.9" cy="34.9" r="0.6" style="fill:#e5b97a"/></g><rect x="7.1" y="31.7" width="6.5" height="6.52" rx="0.2" style="fill:#fff"/><g style="clip-path:url(#f4ff15f1-6cb2-4c84-9074-4ec76c5e8a2b)"><polygon points="7.2 31.7 7.2 33.9 9.4 31.7 7.2 31.7" style="fill:#e5b97a"/><polygon points="13.7 31.7 13.7 33.9 11.5 31.7 13.7 31.7" style="fill:#e5b97a"/><polygon points="13.7 38.2 13.7 36 11.5 38.2 13.7 38.2" style="fill:#e5b97a"/><polygon points="7.2 38.2 7.2 36 9.4 38.2 7.2 38.2" style="fill:#e5b97a"/><polygon points="10.5 32.4 9.4 31.6 9.3 33 10.5 34.4 10.5 32.4" style="fill:#f9e0bd"/><polygon points="10.5 32.4 11.5 31.6 11.6 33 10.5 34.4 10.5 32.4" style="fill:#e5b97a"/><polygon points="12.9 34.9 13.7 33.9 12.3 33.8 11 34.9 12.9 34.9" style="fill:#f9e0bd"/><polygon points="12.9 34.9 13.7 36 12.3 36.1 11 34.9 12.9 34.9" style="fill:#e5b97a"/><polygon points="10.4 37.4 11.5 38.2 11.6 36.8 10.4 35.4 10.4 37.4" style="fill:#f9e0bd"/><polygon points="10.4 37.4 9.4 38.2 9.3 36.8 10.4 35.4 10.4 37.4" style="fill:#e5b97a"/><polygon points="8 34.9 7.2 36 8.6 36.1 9.9 34.9 8 34.9" style="fill:#f9e0bd"/><polygon points="8 34.9 7.2 33.8 8.6 33.7 9.9 34.9 8 34.9" style="fill:#e5b97a"/><circle cx="10.4" cy="34.9" r="1" style="fill:#fcce0b"/><circle cx="10.4" cy="34.9" r="0.6" style="fill:#e5b97a"/></g><rect x="13.7" y="31.7" width="6.5" height="6.52" rx="0.2" style="fill:#fff"/><g style="clip-path:url(#f14c49e0-29ae-4818-9999-48073c5e9458)"><polygon points="13.7 31.7 13.7 33.9 15.9 31.7 13.7 31.7" style="fill:#e5b97a"/><polygon points="20.2 31.7 20.2 33.9 18 31.7 20.2 31.7" style="fill:#e5b97a"/><polygon points="20.2 38.2 20.2 36 18 38.2 20.2 38.2" style="fill:#e5b97a"/><polygon points="13.7 38.2 13.7 36 15.9 38.2 13.7 38.2" style="fill:#e5b97a"/><polygon points="17 32.4 15.9 31.6 15.8 33 17 34.4 17 32.4" style="fill:#f9e0bd"/><polygon points="17 32.4 18 31.6 18.1 33 17 34.4 17 32.4" style="fill:#e5b97a"/><polygon points="19.4 34.9 20.2 33.9 18.8 33.8 17.5 34.9 19.4 34.9" style="fill:#f9e0bd"/><polygon points="19.4 34.9 20.2 36 18.8 36.1 17.5 34.9 19.4 34.9" style="fill:#e5b97a"/><polygon points="16.9 37.4 18 38.2 18.1 36.8 16.9 35.4 16.9 37.4" style="fill:#f9e0bd"/><polygon points="16.9 37.4 15.9 38.2 15.8 36.8 16.9 35.4 16.9 37.4" style="fill:#e5b97a"/><polygon points="14.5 34.9 13.7 36 15.1 36.1 16.4 34.9 14.5 34.9" style="fill:#f9e0bd"/><polygon points="14.5 34.9 13.7 33.8 15.1 33.7 16.4 34.9 14.5 34.9" style="fill:#e5b97a"/><circle cx="17" cy="34.9" r="1" style="fill:#fcce0b"/><circle cx="17" cy="34.9" r="0.6" style="fill:#e5b97a"/></g><rect x="20.2" y="31.7" width="6.5" height="6.52" rx="0.2" style="fill:#fff"/><g style="clip-path:url(#bff92d6d-7aca-45a5-a06b-1fab926fdc21)"><polygon points="20.2 31.7 20.2 33.9 22.4 31.7 20.2 31.7" style="fill:#e5b97a"/><polygon points="26.7 31.7 26.7 33.9 24.5 31.7 26.7 31.7" style="fill:#e5b97a"/><polygon points="26.7 38.2 26.7 36 24.5 38.2 26.7 38.2" style="fill:#e5b97a"/><polygon points="20.2 38.2 20.2 36 22.4 38.2 20.2 38.2" style="fill:#e5b97a"/><polygon points="23.5 32.4 22.4 31.6 22.3 33 23.5 34.4 23.5 32.4" style="fill:#f9e0bd"/><polygon points="23.5 32.4 24.6 31.6 24.7 33 23.5 34.4 23.5 32.4" style="fill:#e5b97a"/><polygon points="26 34.9 26.8 33.9 25.4 33.8 24 34.9 26 34.9" style="fill:#f9e0bd"/><polygon points="26 34.9 26.8 36 25.4 36.1 24 34.9 26 34.9" style="fill:#e5b97a"/><polygon points="23.5 37.4 24.5 38.2 24.6 36.8 23.5 35.4 23.5 37.4" style="fill:#f9e0bd"/><polygon points="23.5 37.4 22.4 38.2 22.3 36.8 23.5 35.4 23.5 37.4" style="fill:#e5b97a"/><polygon points="21 34.9 20.2 36 21.6 36.1 23 34.9 21 34.9" style="fill:#f9e0bd"/><polygon points="21 34.9 20.2 33.8 21.6 33.7 23 34.9 21 34.9" style="fill:#e5b97a"/><circle cx="23.5" cy="34.9" r="1" style="fill:#fcce0b"/><circle cx="23.5" cy="34.9" r="0.6" style="fill:#e5b97a"/></g><rect x="26.7" y="31.7" width="6.5" height="6.52" rx="0.2" style="fill:#fff"/><g style="clip-path:url(#a42e1898-092a-47d3-831d-5754277d5c70)"><polygon points="26.8 31.7 26.8 33.9 29 31.7 26.8 31.7" style="fill:#e5b97a"/><polygon points="33.3 31.7 33.3 33.9 31.1 31.7 33.3 31.7" style="fill:#e5b97a"/><polygon points="33.3 38.2 33.3 36 31.1 38.2 33.3 38.2" style="fill:#e5b97a"/><polygon points="26.8 38.2 26.8 36 29 38.2 26.8 38.2" style="fill:#e5b97a"/><polygon points="30 32.4 29 31.6 28.9 33 30 34.4 30 32.4" style="fill:#f9e0bd"/><polygon points="30 32.4 31.1 31.6 31.2 33 30 34.4 30 32.4" style="fill:#e5b97a"/><polygon points="32.5 34.9 33.3 33.9 31.9 33.8 30.5 34.9 32.5 34.9" style="fill:#f9e0bd"/><polygon points="32.5 34.9 33.3 36 31.9 36.1 30.5 34.9 32.5 34.9" style="fill:#e5b97a"/><polygon points="30 37.4 31.1 38.2 31.2 36.8 30 35.4 30 37.4" style="fill:#f9e0bd"/><polygon points="30 37.4 28.9 38.2 28.8 36.8 30 35.4 30 37.4" style="fill:#e5b97a"/><polygon points="27.5 34.9 26.7 36 28.1 36.1 29.5 34.9 27.5 34.9" style="fill:#f9e0bd"/><polygon points="27.5 34.9 26.7 33.8 28.1 33.7 29.5 34.9 27.5 34.9" style="fill:#e5b97a"/><circle cx="30" cy="34.9" r="1" style="fill:#fcce0b"/><circle cx="30" cy="34.9" r="0.6" style="fill:#e5b97a"/></g><rect x="33.2" y="31.7" width="6.5" height="6.52" rx="0.2" style="fill:#fff"/><g style="clip-path:url(#af3c9457-a1cd-4e7b-9ab5-414b3935d417)"><polygon points="33.3 31.7 33.3 33.9 35.5 31.7 33.3 31.7" style="fill:#e5b97a"/><polygon points="39.8 31.7 39.8 33.9 37.6 31.7 39.8 31.7" style="fill:#e5b97a"/><polygon points="39.8 38.2 39.8 36 37.6 38.2 39.8 38.2" style="fill:#e5b97a"/><polygon points="33.3 38.2 33.3 36 35.5 38.2 33.3 38.2" style="fill:#e5b97a"/><polygon points="36.6 32.4 35.5 31.6 35.4 33 36.6 34.4 36.6 32.4" style="fill:#f9e0bd"/><polygon points="36.6 32.4 37.6 31.6 37.7 33 36.6 34.4 36.6 32.4" style="fill:#e5b97a"/><polygon points="39 34.9 39.8 33.9 38.4 33.8 37.1 34.9 39 34.9" style="fill:#f9e0bd"/><polygon points="39 34.9 39.8 36 38.4 36.1 37.1 34.9 39 34.9" style="fill:#e5b97a"/><polygon points="36.5 37.4 37.6 38.2 37.7 36.8 36.5 35.4 36.5 37.4" style="fill:#f9e0bd"/><polygon points="36.5 37.4 35.5 38.2 35.4 36.8 36.5 35.4 36.5 37.4" style="fill:#e5b97a"/><polygon points="34.1 34.9 33.3 36 34.7 36.1 36 34.9 34.1 34.9" style="fill:#f9e0bd"/><polygon points="34.1 34.9 33.3 33.8 34.7 33.7 36 34.9 34.1 34.9" style="fill:#e5b97a"/><circle cx="36.5" cy="34.9" r="1" style="fill:#fcce0b"/><circle cx="36.5" cy="34.9" r="0.6" style="fill:#e5b97a"/></g><rect x="0.6" y="38.2" width="6.5" height="6.52" rx="0.2" style="fill:#fff"/><g style="clip-path:url(#e6516539-a75d-464b-a1f0-96bcc3333fd8)"><polygon points="0.7 38.2 0.7 40.4 2.9 38.2 0.7 38.2" style="fill:#e5b97a"/><polygon points="7.2 38.2 7.2 40.4 5 38.2 7.2 38.2" style="fill:#e5b97a"/><polygon points="7.2 44.7 7.2 42.5 5 44.7 7.2 44.7" style="fill:#e5b97a"/><polygon points="0.7 44.7 0.7 42.5 2.9 44.7 0.7 44.7" style="fill:#e5b97a"/><polygon points="3.9 39 2.9 38.2 2.8 39.6 3.9 40.9 3.9 39" style="fill:#f9e0bd"/><polygon points="3.9 39 5 38.2 5.1 39.6 3.9 40.9 3.9 39" style="fill:#e5b97a"/><polygon points="6.4 41.5 7.2 40.4 5.8 40.3 4.4 41.5 6.4 41.5" style="fill:#f9e0bd"/><polygon points="6.4 41.5 7.2 42.5 5.8 42.6 4.4 41.5 6.4 41.5" style="fill:#e5b97a"/><polygon points="3.9 43.9 5 44.7 5.1 43.3 3.9 42 3.9 43.9" style="fill:#f9e0bd"/><polygon points="3.9 43.9 2.8 44.7 2.7 43.3 3.9 42 3.9 43.9" style="fill:#e5b97a"/><polygon points="1.4 41.4 0.6 42.5 2 42.6 3.4 41.4 1.4 41.4" style="fill:#f9e0bd"/><polygon points="1.4 41.4 0.6 40.4 2 40.3 3.4 41.4 1.4 41.4" style="fill:#e5b97a"/><circle cx="3.9" cy="41.4" r="1" style="fill:#fcce0b"/><circle cx="3.9" cy="41.4" r="0.6" style="fill:#e5b97a"/></g><rect x="7.1" y="38.2" width="6.5" height="6.52" rx="0.2" style="fill:#fff"/><g style="clip-path:url(#a0042a21-0a4e-4825-b6f8-a9b2727341ed)"><polygon points="7.2 38.2 7.2 40.4 9.4 38.2 7.2 38.2" style="fill:#e5b97a"/><polygon points="13.7 38.2 13.7 40.4 11.5 38.2 13.7 38.2" style="fill:#e5b97a"/><polygon points="13.7 44.7 13.7 42.5 11.5 44.7 13.7 44.7" style="fill:#e5b97a"/><polygon points="7.2 44.7 7.2 42.5 9.4 44.7 7.2 44.7" style="fill:#e5b97a"/><polygon points="10.5 39 9.4 38.2 9.3 39.6 10.5 40.9 10.5 39" style="fill:#f9e0bd"/><polygon points="10.5 39 11.5 38.2 11.6 39.6 10.5 40.9 10.5 39" style="fill:#e5b97a"/><polygon points="12.9 41.5 13.7 40.4 12.3 40.3 11 41.5 12.9 41.5" style="fill:#f9e0bd"/><polygon points="12.9 41.5 13.7 42.5 12.3 42.6 11 41.5 12.9 41.5" style="fill:#e5b97a"/><polygon points="10.4 43.9 11.5 44.7 11.6 43.3 10.4 42 10.4 43.9" style="fill:#f9e0bd"/><polygon points="10.4 43.9 9.4 44.7 9.3 43.3 10.4 42 10.4 43.9" style="fill:#e5b97a"/><polygon points="8 41.4 7.2 42.5 8.6 42.6 9.9 41.4 8 41.4" style="fill:#f9e0bd"/><polygon points="8 41.4 7.2 40.4 8.6 40.3 9.9 41.4 8 41.4" style="fill:#e5b97a"/><circle cx="10.4" cy="41.4" r="1" style="fill:#fcce0b"/><circle cx="10.4" cy="41.4" r="0.6" style="fill:#e5b97a"/></g><rect x="13.7" y="38.2" width="6.5" height="6.52" rx="0.2" style="fill:#fff"/><g style="clip-path:url(#fce71a74-db9c-4a50-bc82-77c0e5bfa9e0)"><polygon points="13.7 38.2 13.7 40.4 15.9 38.2 13.7 38.2" style="fill:#e5b97a"/><polygon points="20.2 38.2 20.2 40.4 18 38.2 20.2 38.2" style="fill:#e5b97a"/><polygon points="20.2 44.7 20.2 42.5 18 44.7 20.2 44.7" style="fill:#e5b97a"/><polygon points="13.7 44.7 13.7 42.5 15.9 44.7 13.7 44.7" style="fill:#e5b97a"/><polygon points="17 39 15.9 38.2 15.8 39.6 17 40.9 17 39" style="fill:#f9e0bd"/><polygon points="17 39 18 38.2 18.1 39.6 17 40.9 17 39" style="fill:#e5b97a"/><polygon points="19.4 41.5 20.2 40.4 18.8 40.3 17.5 41.5 19.4 41.5" style="fill:#f9e0bd"/><polygon points="19.4 41.5 20.2 42.5 18.8 42.6 17.5 41.5 19.4 41.5" style="fill:#e5b97a"/><polygon points="16.9 43.9 18 44.7 18.1 43.3 16.9 42 16.9 43.9" style="fill:#f9e0bd"/><polygon points="16.9 43.9 15.9 44.7 15.8 43.3 16.9 42 16.9 43.9" style="fill:#e5b97a"/><polygon points="14.5 41.4 13.7 42.5 15.1 42.6 16.4 41.4 14.5 41.4" style="fill:#f9e0bd"/><polygon points="14.5 41.4 13.7 40.4 15.1 40.3 16.4 41.4 14.5 41.4" style="fill:#e5b97a"/><circle cx="17" cy="41.4" r="1" style="fill:#fcce0b"/><circle cx="17" cy="41.4" r="0.6" style="fill:#e5b97a"/></g><rect x="20.2" y="38.2" width="6.5" height="6.52" rx="0.2" style="fill:#fff"/><g style="clip-path:url(#a89a59ce-4857-4ef5-a33c-826c66321ad0)"><polygon points="20.2 38.2 20.2 40.4 22.4 38.2 20.2 38.2" style="fill:#e5b97a"/><polygon points="26.7 38.2 26.7 40.4 24.5 38.2 26.7 38.2" style="fill:#e5b97a"/><polygon points="26.7 44.7 26.7 42.5 24.5 44.7 26.7 44.7" style="fill:#e5b97a"/><polygon points="20.2 44.7 20.2 42.5 22.4 44.7 20.2 44.7" style="fill:#e5b97a"/><polygon points="23.5 39 22.4 38.2 22.3 39.6 23.5 40.9 23.5 39" style="fill:#f9e0bd"/><polygon points="23.5 39 24.6 38.2 24.7 39.6 23.5 40.9 23.5 39" style="fill:#e5b97a"/><polygon points="26 41.5 26.8 40.4 25.4 40.3 24 41.5 26 41.5" style="fill:#f9e0bd"/><polygon points="26 41.5 26.8 42.5 25.4 42.6 24 41.5 26 41.5" style="fill:#e5b97a"/><polygon points="23.5 43.9 24.5 44.7 24.6 43.3 23.5 42 23.5 43.9" style="fill:#f9e0bd"/><polygon points="23.5 43.9 22.4 44.7 22.3 43.3 23.5 42 23.5 43.9" style="fill:#e5b97a"/><polygon points="21 41.4 20.2 42.5 21.6 42.6 23 41.4 21 41.4" style="fill:#f9e0bd"/><polygon points="21 41.4 20.2 40.4 21.6 40.3 23 41.4 21 41.4" style="fill:#e5b97a"/><circle cx="23.5" cy="41.4" r="1" style="fill:#fcce0b"/><circle cx="23.5" cy="41.4" r="0.6" style="fill:#e5b97a"/></g><rect x="26.7" y="38.2" width="6.5" height="6.52" rx="0.2" style="fill:#fff"/><g style="clip-path:url(#e5e47920-3037-45d6-9b56-68acd6358f2a)"><polygon points="26.8 38.2 26.8 40.4 29 38.2 26.8 38.2" style="fill:#e5b97a"/><polygon points="33.3 38.2 33.3 40.4 31.1 38.2 33.3 38.2" style="fill:#e5b97a"/><polygon points="33.3 44.7 33.3 42.5 31.1 44.7 33.3 44.7" style="fill:#e5b97a"/><polygon points="26.8 44.7 26.8 42.5 29 44.7 26.8 44.7" style="fill:#e5b97a"/><polygon points="30 39 29 38.2 28.9 39.6 30 40.9 30 39" style="fill:#f9e0bd"/><polygon points="30 39 31.1 38.2 31.2 39.6 30 40.9 30 39" style="fill:#e5b97a"/><polygon points="32.5 41.5 33.3 40.4 31.9 40.3 30.5 41.5 32.5 41.5" style="fill:#f9e0bd"/><polygon points="32.5 41.5 33.3 42.5 31.9 42.6 30.5 41.5 32.5 41.5" style="fill:#e5b97a"/><polygon points="30 43.9 31.1 44.7 31.2 43.3 30 42 30 43.9" style="fill:#f9e0bd"/><polygon points="30 43.9 28.9 44.7 28.8 43.3 30 42 30 43.9" style="fill:#e5b97a"/><polygon points="27.5 41.4 26.7 42.5 28.1 42.6 29.5 41.4 27.5 41.4" style="fill:#f9e0bd"/><polygon points="27.5 41.4 26.7 40.4 28.1 40.3 29.5 41.4 27.5 41.4" style="fill:#e5b97a"/><circle cx="30" cy="41.4" r="1" style="fill:#fcce0b"/><circle cx="30" cy="41.4" r="0.6" style="fill:#e5b97a"/></g><rect x="33.2" y="38.2" width="6.5" height="6.52" rx="0.2" style="fill:#fff"/><g style="clip-path:url(#bc57ac27-a8c3-46ce-ab07-abcfdc0eb9f9)"><polygon points="33.3 38.2 33.3 40.4 35.5 38.2 33.3 38.2" style="fill:#e5b97a"/><polygon points="39.8 38.2 39.8 40.4 37.6 38.2 39.8 38.2" style="fill:#e5b97a"/><polygon points="39.8 44.7 39.8 42.5 37.6 44.7 39.8 44.7" style="fill:#e5b97a"/><polygon points="33.3 44.7 33.3 42.5 35.5 44.7 33.3 44.7" style="fill:#e5b97a"/><polygon points="36.6 39 35.5 38.2 35.4 39.6 36.6 40.9 36.6 39" style="fill:#f9e0bd"/><polygon points="36.6 39 37.6 38.2 37.7 39.6 36.6 40.9 36.6 39" style="fill:#e5b97a"/><polygon points="39 41.5 39.8 40.4 38.4 40.3 37.1 41.5 39 41.5" style="fill:#f9e0bd"/><polygon points="39 41.5 39.8 42.5 38.4 42.6 37.1 41.5 39 41.5" style="fill:#e5b97a"/><polygon points="36.5 43.9 37.6 44.7 37.7 43.3 36.5 42 36.5 43.9" style="fill:#f9e0bd"/><polygon points="36.5 43.9 35.5 44.7 35.4 43.3 36.5 42 36.5 43.9" style="fill:#e5b97a"/><polygon points="34.1 41.4 33.3 42.5 34.7 42.6 36 41.4 34.1 41.4" style="fill:#f9e0bd"/><polygon points="34.1 41.4 33.3 40.4 34.7 40.3 36 41.4 34.1 41.4" style="fill:#e5b97a"/><circle cx="36.5" cy="41.4" r="1" style="fill:#fcce0b"/><circle cx="36.5" cy="41.4" r="0.6" style="fill:#e5b97a"/></g><rect x="0.6" y="44.7" width="6.5" height="6.52" rx="0.2" style="fill:#fff"/><g style="clip-path:url(#bf8738ad-ca55-4899-bf9d-18610d78ff18)"><polygon points="0.7 44.7 0.7 46.9 2.9 44.7 0.7 44.7" style="fill:#e5b97a"/><polygon points="7.2 44.7 7.2 46.9 5 44.7 7.2 44.7" style="fill:#e5b97a"/><polygon points="7.2 51.2 7.2 49 5 51.2 7.2 51.2" style="fill:#e5b97a"/><polygon points="0.7 51.2 0.7 49 2.9 51.2 0.7 51.2" style="fill:#e5b97a"/><polygon points="3.9 45.5 2.9 44.7 2.8 46.1 3.9 47.4 3.9 45.5" style="fill:#f9e0bd"/><polygon points="3.9 45.5 5 44.7 5.1 46.1 3.9 47.4 3.9 45.5" style="fill:#e5b97a"/><polygon points="6.4 48 7.2 46.9 5.8 46.8 4.4 48 6.4 48" style="fill:#f9e0bd"/><polygon points="6.4 48 7.2 49 5.8 49.1 4.4 48 6.4 48" style="fill:#e5b97a"/><polygon points="3.9 50.4 5 51.2 5.1 49.8 3.9 48.5 3.9 50.4" style="fill:#f9e0bd"/><polygon points="3.9 50.4 2.8 51.2 2.7 49.8 3.9 48.5 3.9 50.4" style="fill:#e5b97a"/><polygon points="1.4 47.9 0.6 49 2 49.1 3.4 47.9 1.4 47.9" style="fill:#f9e0bd"/><polygon points="1.4 47.9 0.6 46.9 2 46.8 3.4 47.9 1.4 47.9" style="fill:#e5b97a"/><circle cx="3.9" cy="48" r="1" style="fill:#fcce0b"/><circle cx="3.9" cy="48" r="0.6" style="fill:#e5b97a"/></g><rect x="7.1" y="44.7" width="6.5" height="6.52" rx="0.2" style="fill:#fff"/><g style="clip-path:url(#fee5dfeb-c709-4f90-8dbf-c077013dd9b8)"><polygon points="7.2 44.7 7.2 46.9 9.4 44.7 7.2 44.7" style="fill:#e5b97a"/><polygon points="13.7 44.7 13.7 46.9 11.5 44.7 13.7 44.7" style="fill:#e5b97a"/><polygon points="13.7 51.2 13.7 49 11.5 51.2 13.7 51.2" style="fill:#e5b97a"/><polygon points="7.2 51.2 7.2 49 9.4 51.2 7.2 51.2" style="fill:#e5b97a"/><polygon points="10.5 45.5 9.4 44.7 9.3 46.1 10.5 47.4 10.5 45.5" style="fill:#f9e0bd"/><polygon points="10.5 45.5 11.5 44.7 11.6 46.1 10.5 47.4 10.5 45.5" style="fill:#e5b97a"/><polygon points="12.9 48 13.7 46.9 12.3 46.8 11 48 12.9 48" style="fill:#f9e0bd"/><polygon points="12.9 48 13.7 49 12.3 49.1 11 48 12.9 48" style="fill:#e5b97a"/><polygon points="10.4 50.4 11.5 51.2 11.6 49.8 10.4 48.5 10.4 50.4" style="fill:#f9e0bd"/><polygon points="10.4 50.4 9.4 51.2 9.3 49.8 10.4 48.5 10.4 50.4" style="fill:#e5b97a"/><polygon points="8 47.9 7.2 49 8.6 49.1 9.9 47.9 8 47.9" style="fill:#f9e0bd"/><polygon points="8 47.9 7.2 46.9 8.6 46.8 9.9 47.9 8 47.9" style="fill:#e5b97a"/><circle cx="10.4" cy="48" r="1" style="fill:#fcce0b"/><circle cx="10.4" cy="48" r="0.6" style="fill:#e5b97a"/></g><rect x="13.7" y="44.7" width="6.5" height="6.52" rx="0.2" style="fill:#fff"/><g style="clip-path:url(#b557c227-ad73-4997-8b22-f0e6811f681d)"><polygon points="13.7 44.7 13.7 46.9 15.9 44.7 13.7 44.7" style="fill:#e5b97a"/><polygon points="20.2 44.7 20.2 46.9 18 44.7 20.2 44.7" style="fill:#e5b97a"/><polygon points="20.2 51.2 20.2 49 18 51.2 20.2 51.2" style="fill:#e5b97a"/><polygon points="13.7 51.2 13.7 49 15.9 51.2 13.7 51.2" style="fill:#e5b97a"/><polygon points="17 45.5 15.9 44.7 15.8 46.1 17 47.4 17 45.5" style="fill:#f9e0bd"/><polygon points="17 45.5 18 44.7 18.1 46.1 17 47.4 17 45.5" style="fill:#e5b97a"/><polygon points="19.4 48 20.2 46.9 18.8 46.8 17.5 48 19.4 48" style="fill:#f9e0bd"/><polygon points="19.4 48 20.2 49 18.8 49.1 17.5 48 19.4 48" style="fill:#e5b97a"/><polygon points="16.9 50.4 18 51.2 18.1 49.8 16.9 48.5 16.9 50.4" style="fill:#f9e0bd"/><polygon points="16.9 50.4 15.9 51.2 15.8 49.8 16.9 48.5 16.9 50.4" style="fill:#e5b97a"/><polygon points="14.5 47.9 13.7 49 15.1 49.1 16.4 47.9 14.5 47.9" style="fill:#f9e0bd"/><polygon points="14.5 47.9 13.7 46.9 15.1 46.8 16.4 47.9 14.5 47.9" style="fill:#e5b97a"/><circle cx="17" cy="48" r="1" style="fill:#fcce0b"/><circle cx="17" cy="48" r="0.6" style="fill:#e5b97a"/></g><rect x="20.2" y="44.7" width="6.5" height="6.52" rx="0.2" style="fill:#fff"/><g style="clip-path:url(#bc49ad70-0288-4a5d-ab5a-455296379c76)"><polygon points="20.2 44.7 20.2 46.9 22.4 44.7 20.2 44.7" style="fill:#e5b97a"/><polygon points="26.7 44.7 26.7 46.9 24.5 44.7 26.7 44.7" style="fill:#e5b97a"/><polygon points="26.7 51.2 26.7 49 24.5 51.2 26.7 51.2" style="fill:#e5b97a"/><polygon points="20.2 51.2 20.2 49 22.4 51.2 20.2 51.2" style="fill:#e5b97a"/><polygon points="23.5 45.5 22.4 44.7 22.3 46.1 23.5 47.4 23.5 45.5" style="fill:#f9e0bd"/><polygon points="23.5 45.5 24.6 44.7 24.7 46.1 23.5 47.4 23.5 45.5" style="fill:#e5b97a"/><polygon points="26 48 26.8 46.9 25.4 46.8 24 48 26 48" style="fill:#f9e0bd"/><polygon points="26 48 26.8 49 25.4 49.1 24 48 26 48" style="fill:#e5b97a"/><polygon points="23.5 50.4 24.5 51.2 24.6 49.8 23.5 48.5 23.5 50.4" style="fill:#f9e0bd"/><polygon points="23.5 50.4 22.4 51.2 22.3 49.8 23.5 48.5 23.5 50.4" style="fill:#e5b97a"/><polygon points="21 47.9 20.2 49 21.6 49.1 23 47.9 21 47.9" style="fill:#f9e0bd"/><polygon points="21 47.9 20.2 46.9 21.6 46.8 23 47.9 21 47.9" style="fill:#e5b97a"/><circle cx="23.5" cy="48" r="1" style="fill:#fcce0b"/><circle cx="23.5" cy="48" r="0.6" style="fill:#e5b97a"/></g><rect x="26.7" y="44.7" width="6.5" height="6.52" rx="0.2" style="fill:#fff"/><g style="clip-path:url(#b2647093-3e41-4e3b-bdcb-447eea04efe2)"><polygon points="26.8 44.7 26.8 46.9 29 44.7 26.8 44.7" style="fill:#e5b97a"/><polygon points="33.3 44.7 33.3 46.9 31.1 44.7 33.3 44.7" style="fill:#e5b97a"/><polygon points="33.3 51.2 33.3 49 31.1 51.2 33.3 51.2" style="fill:#e5b97a"/><polygon points="26.8 51.2 26.8 49 29 51.2 26.8 51.2" style="fill:#e5b97a"/><polygon points="30 45.5 29 44.7 28.9 46.1 30 47.4 30 45.5" style="fill:#f9e0bd"/><polygon points="30 45.5 31.1 44.7 31.2 46.1 30 47.4 30 45.5" style="fill:#e5b97a"/><polygon points="32.5 48 33.3 46.9 31.9 46.8 30.5 48 32.5 48" style="fill:#f9e0bd"/><polygon points="32.5 48 33.3 49 31.9 49.1 30.5 48 32.5 48" style="fill:#e5b97a"/><polygon points="30 50.4 31.1 51.2 31.2 49.8 30 48.5 30 50.4" style="fill:#f9e0bd"/><polygon points="30 50.4 28.9 51.2 28.8 49.8 30 48.5 30 50.4" style="fill:#e5b97a"/><polygon points="27.5 47.9 26.7 49 28.1 49.1 29.5 47.9 27.5 47.9" style="fill:#f9e0bd"/><polygon points="27.5 47.9 26.7 46.9 28.1 46.8 29.5 47.9 27.5 47.9" style="fill:#e5b97a"/><circle cx="30" cy="48" r="1" style="fill:#fcce0b"/><circle cx="30" cy="48" r="0.6" style="fill:#e5b97a"/></g><rect x="33.2" y="44.7" width="6.5" height="6.52" rx="0.2" style="fill:#fff"/><g style="clip-path:url(#ab41f19f-6fb0-4708-91e3-19332813cc25)"><polygon points="33.3 44.7 33.3 46.9 35.5 44.7 33.3 44.7" style="fill:#e5b97a"/><polygon points="39.8 44.7 39.8 46.9 37.6 44.7 39.8 44.7" style="fill:#e5b97a"/><polygon points="39.8 51.2 39.8 49 37.6 51.2 39.8 51.2" style="fill:#e5b97a"/><polygon points="33.3 51.2 33.3 49 35.5 51.2 33.3 51.2" style="fill:#e5b97a"/><polygon points="36.6 45.5 35.5 44.7 35.4 46.1 36.6 47.4 36.6 45.5" style="fill:#f9e0bd"/><polygon points="36.6 45.5 37.6 44.7 37.7 46.1 36.6 47.4 36.6 45.5" style="fill:#e5b97a"/><polygon points="39 48 39.8 46.9 38.4 46.8 37.1 48 39 48" style="fill:#f9e0bd"/><polygon points="39 48 39.8 49 38.4 49.1 37.1 48 39 48" style="fill:#e5b97a"/><polygon points="36.5 50.4 37.6 51.2 37.7 49.8 36.5 48.5 36.5 50.4" style="fill:#f9e0bd"/><polygon points="36.5 50.4 35.5 51.2 35.4 49.8 36.5 48.5 36.5 50.4" style="fill:#e5b97a"/><polygon points="34.1 47.9 33.3 49 34.7 49.1 36 47.9 34.1 47.9" style="fill:#f9e0bd"/><polygon points="34.1 47.9 33.3 46.9 34.7 46.8 36 47.9 34.1 47.9" style="fill:#e5b97a"/><circle cx="36.5" cy="48" r="1" style="fill:#fcce0b"/><circle cx="36.5" cy="48" r="0.6" style="fill:#e5b97a"/></g><rect x="0.6" y="51.2" width="6.5" height="6.52" rx="0.2" style="fill:#fff"/><g style="clip-path:url(#efc4135b-fe16-4e73-b6bb-ff6f7833ee2a)"><polygon points="0.7 51.2 0.7 53.4 2.9 51.2 0.7 51.2" style="fill:#e5b97a"/><polygon points="7.2 51.2 7.2 53.4 5 51.2 7.2 51.2" style="fill:#e5b97a"/><polygon points="7.2 57.8 7.2 55.5 5 57.8 7.2 57.8" style="fill:#e5b97a"/><polygon points="0.7 57.8 0.7 55.5 2.9 57.8 0.7 57.8" style="fill:#e5b97a"/><polygon points="3.9 52 2.9 51.2 2.8 52.6 3.9 54 3.9 52" style="fill:#f9e0bd"/><polygon points="3.9 52 5 51.2 5.1 52.6 3.9 54 3.9 52" style="fill:#e5b97a"/><polygon points="6.4 54.5 7.2 53.4 5.8 53.3 4.4 54.5 6.4 54.5" style="fill:#f9e0bd"/><polygon points="6.4 54.5 7.2 55.6 5.8 55.7 4.4 54.5 6.4 54.5" style="fill:#e5b97a"/><polygon points="3.9 57 5 57.8 5.1 56.4 3.9 55 3.9 57" style="fill:#f9e0bd"/><polygon points="3.9 57 2.8 57.8 2.7 56.4 3.9 55 3.9 57" style="fill:#e5b97a"/><polygon points="1.4 54.5 0.6 55.5 2 55.6 3.4 54.5 1.4 54.5" style="fill:#f9e0bd"/><polygon points="1.4 54.5 0.6 53.4 2 53.3 3.4 54.5 1.4 54.5" style="fill:#e5b97a"/><circle cx="3.9" cy="54.5" r="1" style="fill:#fcce0b"/><circle cx="3.9" cy="54.5" r="0.6" style="fill:#e5b97a"/></g><rect x="7.1" y="51.2" width="6.5" height="6.52" rx="0.2" style="fill:#fff"/><g style="clip-path:url(#b09c367f-ea9c-40d7-a625-e466335559eb)"><polygon points="7.2 51.2 7.2 53.4 9.4 51.2 7.2 51.2" style="fill:#e5b97a"/><polygon points="13.7 51.2 13.7 53.4 11.5 51.2 13.7 51.2" style="fill:#e5b97a"/><polygon points="13.7 57.8 13.7 55.5 11.5 57.8 13.7 57.8" style="fill:#e5b97a"/><polygon points="7.2 57.8 7.2 55.5 9.4 57.8 7.2 57.8" style="fill:#e5b97a"/><polygon points="10.5 52 9.4 51.2 9.3 52.6 10.5 54 10.5 52" style="fill:#f9e0bd"/><polygon points="10.5 52 11.5 51.2 11.6 52.6 10.5 54 10.5 52" style="fill:#e5b97a"/><polygon points="12.9 54.5 13.7 53.4 12.3 53.3 11 54.5 12.9 54.5" style="fill:#f9e0bd"/><polygon points="12.9 54.5 13.7 55.6 12.3 55.7 11 54.5 12.9 54.5" style="fill:#e5b97a"/><polygon points="10.4 57 11.5 57.8 11.6 56.4 10.4 55 10.4 57" style="fill:#f9e0bd"/><polygon points="10.4 57 9.4 57.8 9.3 56.4 10.4 55 10.4 57" style="fill:#e5b97a"/><polygon points="8 54.5 7.2 55.5 8.6 55.6 9.9 54.5 8 54.5" style="fill:#f9e0bd"/><polygon points="8 54.5 7.2 53.4 8.6 53.3 9.9 54.5 8 54.5" style="fill:#e5b97a"/><circle cx="10.4" cy="54.5" r="1" style="fill:#fcce0b"/><circle cx="10.4" cy="54.5" r="0.6" style="fill:#e5b97a"/></g><rect x="13.7" y="51.2" width="6.5" height="6.52" rx="0.2" style="fill:#fff"/><g style="clip-path:url(#b005f62c-146c-431f-b9f8-3d9b37b0117a)"><polygon points="13.7 51.2 13.7 53.4 15.9 51.2 13.7 51.2" style="fill:#e5b97a"/><polygon points="20.2 51.2 20.2 53.4 18 51.2 20.2 51.2" style="fill:#e5b97a"/><polygon points="20.2 57.8 20.2 55.5 18 57.8 20.2 57.8" style="fill:#e5b97a"/><polygon points="13.7 57.8 13.7 55.5 15.9 57.8 13.7 57.8" style="fill:#e5b97a"/><polygon points="17 52 15.9 51.2 15.8 52.6 17 54 17 52" style="fill:#f9e0bd"/><polygon points="17 52 18 51.2 18.1 52.6 17 54 17 52" style="fill:#e5b97a"/><polygon points="19.4 54.5 20.2 53.4 18.8 53.3 17.5 54.5 19.4 54.5" style="fill:#f9e0bd"/><polygon points="19.4 54.5 20.2 55.6 18.8 55.7 17.5 54.5 19.4 54.5" style="fill:#e5b97a"/><polygon points="16.9 57 18 57.8 18.1 56.4 16.9 55 16.9 57" style="fill:#f9e0bd"/><polygon points="16.9 57 15.9 57.8 15.8 56.4 16.9 55 16.9 57" style="fill:#e5b97a"/><polygon points="14.5 54.5 13.7 55.5 15.1 55.6 16.4 54.5 14.5 54.5" style="fill:#f9e0bd"/><polygon points="14.5 54.5 13.7 53.4 15.1 53.3 16.4 54.5 14.5 54.5" style="fill:#e5b97a"/><circle cx="17" cy="54.5" r="1" style="fill:#fcce0b"/><circle cx="17" cy="54.5" r="0.6" style="fill:#e5b97a"/></g><rect x="20.2" y="51.2" width="6.5" height="6.52" rx="0.2" style="fill:#fff"/><g style="clip-path:url(#f9d3b151-7d09-4dd9-8ba7-fa9600221874)"><polygon points="20.2 51.2 20.2 53.4 22.4 51.2 20.2 51.2" style="fill:#e5b97a"/><polygon points="26.7 51.2 26.7 53.4 24.5 51.2 26.7 51.2" style="fill:#e5b97a"/><polygon points="26.7 57.8 26.7 55.5 24.5 57.8 26.7 57.8" style="fill:#e5b97a"/><polygon points="20.2 57.8 20.2 55.5 22.4 57.8 20.2 57.8" style="fill:#e5b97a"/><polygon points="23.5 52 22.4 51.2 22.3 52.6 23.5 54 23.5 52" style="fill:#f9e0bd"/><polygon points="23.5 52 24.6 51.2 24.7 52.6 23.5 54 23.5 52" style="fill:#e5b97a"/><polygon points="26 54.5 26.8 53.4 25.4 53.3 24 54.5 26 54.5" style="fill:#f9e0bd"/><polygon points="26 54.5 26.8 55.6 25.4 55.7 24 54.5 26 54.5" style="fill:#e5b97a"/><polygon points="23.5 57 24.5 57.8 24.6 56.4 23.5 55 23.5 57" style="fill:#f9e0bd"/><polygon points="23.5 57 22.4 57.8 22.3 56.4 23.5 55 23.5 57" style="fill:#e5b97a"/><polygon points="21 54.5 20.2 55.5 21.6 55.6 23 54.5 21 54.5" style="fill:#f9e0bd"/><polygon points="21 54.5 20.2 53.4 21.6 53.3 23 54.5 21 54.5" style="fill:#e5b97a"/><circle cx="23.5" cy="54.5" r="1" style="fill:#fcce0b"/><circle cx="23.5" cy="54.5" r="0.6" style="fill:#e5b97a"/></g><rect x="26.7" y="51.2" width="6.5" height="6.52" rx="0.2" style="fill:#fff"/><g style="clip-path:url(#a092b53c-7b2c-4eba-ae13-34a56ba48521)"><polygon points="26.8 51.2 26.8 53.4 29 51.2 26.8 51.2" style="fill:#e5b97a"/><polygon points="33.3 51.2 33.3 53.4 31.1 51.2 33.3 51.2" style="fill:#e5b97a"/><polygon points="33.3 57.8 33.3 55.5 31.1 57.8 33.3 57.8" style="fill:#e5b97a"/><polygon points="26.8 57.8 26.8 55.5 29 57.8 26.8 57.8" style="fill:#e5b97a"/><polygon points="30 52 29 51.2 28.9 52.6 30 54 30 52" style="fill:#f9e0bd"/><polygon points="30 52 31.1 51.2 31.2 52.6 30 54 30 52" style="fill:#e5b97a"/><polygon points="32.5 54.5 33.3 53.4 31.9 53.3 30.5 54.5 32.5 54.5" style="fill:#f9e0bd"/><polygon points="32.5 54.5 33.3 55.6 31.9 55.7 30.5 54.5 32.5 54.5" style="fill:#e5b97a"/><polygon points="30 57 31.1 57.8 31.2 56.4 30 55 30 57" style="fill:#f9e0bd"/><polygon points="30 57 28.9 57.8 28.8 56.4 30 55 30 57" style="fill:#e5b97a"/><polygon points="27.5 54.5 26.7 55.5 28.1 55.6 29.5 54.5 27.5 54.5" style="fill:#f9e0bd"/><polygon points="27.5 54.5 26.7 53.4 28.1 53.3 29.5 54.5 27.5 54.5" style="fill:#e5b97a"/><circle cx="30" cy="54.5" r="1" style="fill:#fcce0b"/><circle cx="30" cy="54.5" r="0.6" style="fill:#e5b97a"/></g><rect x="33.2" y="51.2" width="6.5" height="6.52" rx="0.2" style="fill:#fff"/><g style="clip-path:url(#f9a9a62a-c004-436e-aeda-ecbaf47582f4)"><polygon points="33.3 51.2 33.3 53.4 35.5 51.2 33.3 51.2" style="fill:#e5b97a"/><polygon points="39.8 51.2 39.8 53.4 37.6 51.2 39.8 51.2" style="fill:#e5b97a"/><polygon points="39.8 57.8 39.8 55.5 37.6 57.8 39.8 57.8" style="fill:#e5b97a"/><polygon points="33.3 57.8 33.3 55.5 35.5 57.8 33.3 57.8" style="fill:#e5b97a"/><polygon points="36.6 52 35.5 51.2 35.4 52.6 36.6 54 36.6 52" style="fill:#f9e0bd"/><polygon points="36.6 52 37.6 51.2 37.7 52.6 36.6 54 36.6 52" style="fill:#e5b97a"/><polygon points="39 54.5 39.8 53.4 38.4 53.3 37.1 54.5 39 54.5" style="fill:#f9e0bd"/><polygon points="39 54.5 39.8 55.6 38.4 55.7 37.1 54.5 39 54.5" style="fill:#e5b97a"/><polygon points="36.5 57 37.6 57.8 37.7 56.4 36.5 55 36.5 57" style="fill:#f9e0bd"/><polygon points="36.5 57 35.5 57.8 35.4 56.4 36.5 55 36.5 57" style="fill:#e5b97a"/><polygon points="34.1 54.5 33.3 55.5 34.7 55.6 36 54.5 34.1 54.5" style="fill:#f9e0bd"/><polygon points="34.1 54.5 33.3 53.4 34.7 53.3 36 54.5 34.1 54.5" style="fill:#e5b97a"/><circle cx="36.5" cy="54.5" r="1" style="fill:#fcce0b"/><circle cx="36.5" cy="54.5" r="0.6" style="fill:#e5b97a"/></g></g></g></g></svg>