<svg xmlns="http://www.w3.org/2000/svg" viewBox="0 0 39.8 55.7"><g style="isolation:isolate"><g id="eefe345b-eeed-447b-8ab4-393dd3ad3758" data-name="Layer 1"><path d="M4.4,55.7A4.2,4.2,0,0,1,.1,51.5V4.2A4.2,4.2,0,0,1,4.2,0H35.5a4.2,4.2,0,0,1,4.3,4.2V51.5a4.2,4.2,0,0,1-4.3,4.2Z" style="fill:#c9c9c9"/><path d="M4.8,55.6A4.1,4.1,0,0,1,.6,51.4V4.2A4.1,4.1,0,0,1,4.8,0H35.6a4.2,4.2,0,0,1,4.2,4.2V51.4a4.2,4.2,0,0,1-4.2,4.2Z" style="fill:#fff"/><path d="M33.2,49.4a2.5,2.5,0,0,1,.4-.7c.2-.4.4-.5.5-.5H36a.1.1,0,0,0,.1-.1h.2v.2l-.2.2-.8,1-.5.7-.2.6v.3c.1.2.1.3.2.3s.1.1.2.2h.4l.4-.2.4-.3h.1c0,.1-.1.2-.2.4l-.5.5-.4.2-.5.2a1.1,1.1,0,0,1-.7-.3,1.3,1.3,0,0,1-.3-.8,1,1,0,0,1,.2-.7l.3-.5c.3-.4.5-.6.5-.7l.4-.4a.1.1,0,0,0-.1-.1h-.5l-.8.2-.4.3h-.1Z" style="fill:#333"/><path d="M7.8,6.8l-.4.7L6.9,8H4.7l.2-.2.8-1L6.2,6a1.3,1.3,0,0,0,.3-.7A.4.4,0,0,0,6.4,5l-.2-.3L6,4.5H5.7l-.5.3-.4.2a.1.1,0,0,1-.1-.1L5,4.4,5.5,4l.3-.3h.5a.9.9,0,0,1,.7.3.8.8,0,0,1,.4.7,1.3,1.3,0,0,1-.3.8l-.3.4-.5.7L6,7H7.3l.4-.3h.1Z" style="fill:#333"/><path d="M17.9,17.1v-.5a2.3,2.3,0,0,1,4.6,0c0,.3-.1.5-.1.8a2.2,2.2,0,0,1,2,2.2,2.2,2.2,0,0,1-2.2,2.2l-1.7-.5L22,23.8H18.3l1.5-2.5-1.8.5a2.4,2.4,0,0,1-2.4-2.4A2.4,2.4,0,0,1,17.9,17.1Z" style="fill:#333"/><path d="M17.9,17.1v-.5a2.3,2.3,0,0,1,2.3-2.3h0v9.5H18.3l1.5-2.5-1.8.5a2.4,2.4,0,0,1-2.4-2.4A2.4,2.4,0,0,1,17.9,17.1Z" style="fill:#616161;opacity:0.2;mix-blend-mode:color-burn"/><path d="M6.7,10.6h0a.5.5,0,0,0-.5-.5.6.6,0,0,0-.6.5v.2a.5.5,0,0,0-.5.5.5.5,0,0,0,.5.5l.4-.2-.3.6h.8l-.4-.6.5.2a.6.6,0,0,0,.5-.6A.5.5,0,0,0,6.7,10.6Z" style="fill:#333"/><path d="M6.7,10.6h0a.5.5,0,0,0-.5-.5h0v2.1h.4l-.4-.6.5.2a.6.6,0,0,0,.5-.6A.5.5,0,0,0,6.7,10.6Z" style="fill:#616161;opacity:0.2;mix-blend-mode:color-burn"/><path d="M35.4,45.7h0a.5.5,0,0,1-.5.5.6.6,0,0,1-.6-.5c0-.1,0-.2.1-.2a.5.5,0,0,1,0-1h.4l-.4-.6h.9l-.4.6h.5a.5.5,0,0,1,.5.5A.6.6,0,0,1,35.4,45.7Z" style="fill:#333"/><path d="M35.4,45.7h0a.5.5,0,0,1-.5.5h0V44.1h.4l-.4.6h.5a.5.5,0,0,1,.5.5A.6.6,0,0,1,35.4,45.7Z" style="fill:#616161;opacity:0.2;mix-blend-mode:color-burn"/><path d="M18.3,38.6a1.1,1.1,0,0,0-.1.5,2.3,2.3,0,0,0,2.3,2.3,2.3,2.3,0,0,0,2.4-2.3,1.9,1.9,0,0,0-.2-.7,2.3,2.3,0,0,0,2-2.2A2.2,2.2,0,0,0,22.5,34a5.5,5.5,0,0,0-1.7.5l1.5-2.6H18.7l1.5,2.6a6.7,6.7,0,0,0-1.9-.5,2.3,2.3,0,0,0,0,4.6Z" style="fill:#333"/><path d="M18.3,38.6a1.1,1.1,0,0,0-.1.5,2.3,2.3,0,0,0,2.3,2.3h0V31.9H18.7l1.5,2.6a6.7,6.7,0,0,0-1.9-.5,2.3,2.3,0,0,0,0,4.6Z" style="fill:#616161;opacity:0.2;mix-blend-mode:color-burn"/></g></g></svg>