<svg xmlns="http://www.w3.org/2000/svg" viewBox="0 0 39.8 55.7"><g style="isolation:isolate"><g id="ecff5d0e-9344-4d67-8e99-37f0335e5399" data-name="Layer 1"><path d="M4.4,55.7A4.2,4.2,0,0,1,.1,51.5V4.2A4.2,4.2,0,0,1,4.3,0H35.5a4.2,4.2,0,0,1,4.3,4.2V51.5a4.2,4.2,0,0,1-4.3,4.2Z" style="fill:#c9c9c9"/><path d="M4.8,55.6A4.2,4.2,0,0,1,.6,51.4V4.2A4.2,4.2,0,0,1,4.8,0H35.6a4.2,4.2,0,0,1,4.2,4.2V51.4a4.2,4.2,0,0,1-4.2,4.2Z" style="fill:#fff"/><path d="M33.3,50.2a1.1,1.1,0,0,1,.1-.5l.6-.8.6-.5a1.3,1.3,0,0,1,.8-.3H36c.2.2.3.3.3.5l-.4.6c-.3.4-.4.5-.5.5h-.2c0-.1.1-.2.2-.4h.1c0-.1,0-.2-.1-.2l-.5-.2-.5.2c-.2.1-.2.3-.2.6a.6.6,0,0,0,.1.4l.3.3h.5c.1,0,.2,0,.2.1l-.3.4-.5.6h1.3l.3-.2a.1.1,0,0,1,.1.1.3.3,0,0,1-.1.2l-.5.5-.3.3H33.4c0-.1.2-.3.4-.5s.5-.5.5-.6l-.4-.2-.4-.2c0-.1-.1-.2-.2-.3Z" style="fill:#333"/><path d="M7.8,5.9a.9.9,0,0,1-.1.5,2.4,2.4,0,0,1-.6.9l-.6.5a1.2,1.2,0,0,1-.8.2H5.1a.5.5,0,0,1-.3-.4c0-.2.2-.4.4-.7s.4-.5.5-.5h.2l-.2.4v.4h.5a.6.6,0,0,0,.5-.2c.2-.1.2-.3.2-.5a.9.9,0,0,0-.1-.5l-.3-.2H5.8c0-.1.1-.2.3-.5l.5-.6H5.5l-.2.2H4.9V4.5l.5-.4.3-.4H7.7l-.4.6c-.3.3-.5.5-.5.6h.4l.4.3.2.2Z" style="fill:#333"/><path d="M24.4,9.4c0-1-4.2-5.1-4.2-5.1s-4.1,4.3-4.1,5.1a2.5,2.5,0,0,0,2.5,2.5,2.2,2.2,0,0,0,1.3-.4l-1.6,2.7h3.8l-1.5-2.7a1.7,1.7,0,0,0,1.2.4A2.6,2.6,0,0,0,24.4,9.4Z" style="fill:#333"/><path d="M24.4,9.4c0-1-4.2-5.1-4.2-5.1h0v9.9h1.9l-1.5-2.7a1.7,1.7,0,0,0,1.2.4A2.6,2.6,0,0,0,24.4,9.4Z" style="fill:#616161;opacity:0.2;mix-blend-mode:color-burn"/><path d="M24.4,28c0-1-4.2-5.1-4.2-5.1s-4.1,4.3-4.1,5.1a2.5,2.5,0,0,0,2.5,2.5,2.2,2.2,0,0,0,1.3-.4l-1.6,2.7h3.8l-1.5-2.7a1.7,1.7,0,0,0,1.2.4A2.6,2.6,0,0,0,24.4,28Z" style="fill:#333"/><path d="M24.4,28c0-1-4.2-5.1-4.2-5.1h0v9.9h1.9l-1.5-2.7a1.7,1.7,0,0,0,1.2.4A2.6,2.6,0,0,0,24.4,28Z" style="fill:#616161;opacity:0.2;mix-blend-mode:color-burn"/><path d="M24.4,45.9c0,.9-4.2,5.1-4.2,5.1s-4.1-4.3-4.1-5.1a2.5,2.5,0,0,1,2.5-2.5,3.1,3.1,0,0,1,1.3.3l-1.6-2.6h3.8l-1.5,2.7a2.4,2.4,0,0,1,1.2-.3A2.6,2.6,0,0,1,24.4,45.9Z" style="fill:#333"/><path d="M24.4,45.9c0,.9-4.2,5.1-4.2,5.1h0V41h1.9l-1.5,2.7a2.4,2.4,0,0,1,1.2-.3A2.6,2.6,0,0,1,24.4,45.9Z" style="fill:#616161;opacity:0.2;mix-blend-mode:color-burn"/><path d="M7.3,11c0-.2-1.1-1.3-1.1-1.3S5.1,10.8,5.1,11a.7.7,0,0,0,.7.7h.3l-.4.7h1l-.4-.7h.3A.7.7,0,0,0,7.3,11Z" style="fill:#333"/><path d="M7.3,11c0-.2-1.1-1.3-1.1-1.3h0v2.6h.5l-.4-.7h.3A.7.7,0,0,0,7.3,11Z" style="fill:#616161;opacity:0.2;mix-blend-mode:color-burn"/><path d="M33.8,45.2c0,.2,1.1,1.3,1.1,1.3S36,45.4,36,45.2a.7.7,0,0,0-.7-.7H35l.4-.7h-1l.4.7h-.3A.7.7,0,0,0,33.8,45.2Z" style="fill:#333"/><path d="M33.8,45.2c0,.2,1.1,1.3,1.1,1.3h0V43.9h-.5l.4.7h-.3A.7.7,0,0,0,33.8,45.2Z" style="fill:#616161;opacity:0.2;mix-blend-mode:color-burn"/></g></g></svg>