<svg xmlns="http://www.w3.org/2000/svg" viewBox="0 0 39.8 55.7"><g style="isolation:isolate"><g id="ab1eb776-9f0d-45b8-ae6e-06030eb80340" data-name="Layer 1"><path d="M4.4,55.7A4.2,4.2,0,0,1,.1,51.5V4.2A4.2,4.2,0,0,1,4.3,0H35.5a4.2,4.2,0,0,1,4.3,4.2V51.5a4.2,4.2,0,0,1-4.3,4.2Z" style="fill:#c9c9c9"/><path d="M4.8,55.6A4.2,4.2,0,0,1,.6,51.4V4.2A4.2,4.2,0,0,1,4.8,0H35.6a4.2,4.2,0,0,1,4.2,4.2V51.4a4.2,4.2,0,0,1-4.2,4.2Z" style="fill:#fff"/><path d="M5.5,5.1a4.4,4.4,0,0,1-.2,1,5.9,5.9,0,0,1-.4.8,4.6,4.6,0,0,0-.7.7,2.1,2.1,0,0,1-.9.5H3.2a3.4,3.4,0,0,0,.6-.6,3.5,3.5,0,0,0,.6-.9H3.6A.9.9,0,0,1,3,6.3a1.3,1.3,0,0,1-.4-1,2,2,0,0,1,.7-1.1c.4-.4.7-.6,1-.6a1,1,0,0,1,.8.4A1.5,1.5,0,0,1,5.5,5.1Zm-.9.6a1.2,1.2,0,0,0-.3-.9.7.7,0,0,0-.6-.4H3.6c-.1.1-.1.1-.1.2a1.1,1.1,0,0,0,.3.8c.2.2.3.4.5.4h.3Z" style="fill:#333"/><path d="M35.1,51a2.9,2.9,0,0,1,.2-.9l.4-.8.8-.7a1.5,1.5,0,0,1,.8-.5h.1a.1.1,0,0,0,.1.1l-.7.5-.6,1h.1l.4-.2h.4a.7.7,0,0,1,.6.4,1.4,1.4,0,0,1,.3.9,1.5,1.5,0,0,1-.7,1.2,1.4,1.4,0,0,1-1,.5,1.1,1.1,0,0,1-.7-.3A1.8,1.8,0,0,1,35.1,51Zm1-.5a1.2,1.2,0,0,0,.3.9.9.9,0,0,0,.6.3.1.1,0,0,0,.1-.1v-.2a1.4,1.4,0,0,0-.2-.7.7.7,0,0,0-.6-.4h-.2Z" style="fill:#333"/><path d="M31.9,9.4c0-1-4.3-5.3-4.3-5.3s-4.3,4.4-4.3,5.3A2.6,2.6,0,0,0,25.9,12a2.3,2.3,0,0,0,1.4-.4l-1.7,2.8h4L28,11.6a1.8,1.8,0,0,0,1.3.4A2.6,2.6,0,0,0,31.9,9.4Z" style="fill:#333"/><path d="M31.9,9.4c0-1-4.3-5.3-4.3-5.3h-.1V14.4h2.1L28,11.6a1.8,1.8,0,0,0,1.3.4A2.6,2.6,0,0,0,31.9,9.4Z" style="fill:#616161;opacity:0.2;mix-blend-mode:color-burn"/><path d="M31.9,21.8c0-1-4.3-5.3-4.3-5.3s-4.3,4.4-4.3,5.3a2.6,2.6,0,0,0,2.6,2.6,3.3,3.3,0,0,0,1.4-.4l-1.7,2.8h4L28,24a2.5,2.5,0,0,0,1.3.4A2.6,2.6,0,0,0,31.9,21.8Z" style="fill:#333"/><path d="M31.9,21.8c0-1-4.3-5.3-4.3-5.3h-.1V26.8h2.1L28,24a2.5,2.5,0,0,0,1.3.4A2.6,2.6,0,0,0,31.9,21.8Z" style="fill:#616161;opacity:0.2;mix-blend-mode:color-burn"/><path d="M8.5,9.4c0-1,4.3-5.3,4.3-5.3s4.3,4.4,4.3,5.3A2.6,2.6,0,0,1,14.5,12a2.3,2.3,0,0,1-1.4-.4l1.7,2.8h-4l1.6-2.8a2,2,0,0,1-1.3.4A2.6,2.6,0,0,1,8.5,9.4Z" style="fill:#333"/><path d="M8.5,9.4c0-1,4.3-5.3,4.3-5.3h0V14.4h-2l1.6-2.8a2,2,0,0,1-1.3.4A2.6,2.6,0,0,1,8.5,9.4Z" style="fill:#616161;opacity:0.2;mix-blend-mode:color-burn"/><path d="M15.9,27.9c0-1,4.3-5.3,4.3-5.3s4.3,4.4,4.3,5.2a2.7,2.7,0,0,1-2.6,2.7,3.3,3.3,0,0,1-1.4-.4l1.7,2.8h-4l1.6-2.8a2.8,2.8,0,0,1-1.3.4A2.6,2.6,0,0,1,15.9,27.9Z" style="fill:#333"/><path d="M15.9,27.9c0-1,4.3-5.3,4.3-5.3h0V32.9h-2l1.6-2.8a2.8,2.8,0,0,1-1.3.4A2.6,2.6,0,0,1,15.9,27.9Z" style="fill:#616161;opacity:0.2;mix-blend-mode:color-burn"/><path d="M8.5,21.8c0-1,4.3-5.3,4.3-5.3s4.3,4.4,4.3,5.3a2.6,2.6,0,0,1-2.6,2.6,3.3,3.3,0,0,1-1.4-.4l1.7,2.8h-4L12.4,24a2.8,2.8,0,0,1-1.3.4A2.6,2.6,0,0,1,8.5,21.8Z" style="fill:#333"/><path d="M8.5,21.8c0-1,4.3-5.3,4.3-5.3h0V26.8h-2L12.4,24a2.8,2.8,0,0,1-1.3.4A2.6,2.6,0,0,1,8.5,21.8Z" style="fill:#616161;opacity:0.2;mix-blend-mode:color-burn"/><path d="M31.9,46.4c0,1-4.4,5.3-4.4,5.3s-4.2-4.4-4.2-5.3a2.6,2.6,0,0,1,2.6-2.6,2.8,2.8,0,0,1,1.3.4l-1.6-2.8h4l-1.7,2.8a3.3,3.3,0,0,1,1.4-.4A2.6,2.6,0,0,1,31.9,46.4Z" style="fill:#333"/><path d="M31.9,46.4c0,1-4.4,5.3-4.4,5.3h0V41.4h2.1l-1.7,2.8a3.3,3.3,0,0,1,1.4-.4A2.6,2.6,0,0,1,31.9,46.4Z" style="fill:#616161;opacity:0.2;mix-blend-mode:color-burn"/><path d="M31.9,34.1c0,1-4.4,5.3-4.4,5.3s-4.2-4.5-4.2-5.3a2.5,2.5,0,0,1,2.6-2.6,2.8,2.8,0,0,1,1.3.3l-1.6-2.7h4l-1.7,2.8a3.2,3.2,0,0,1,1.4-.3A2.6,2.6,0,0,1,31.9,34.1Z" style="fill:#333"/><path d="M31.9,34.1c0,1-4.4,5.3-4.4,5.3h0V29.1h2.1l-1.7,2.8a3.2,3.2,0,0,1,1.4-.3A2.6,2.6,0,0,1,31.9,34.1Z" style="fill:#616161;opacity:0.2;mix-blend-mode:color-burn"/><path d="M8.5,46.4c-.1,1,4.3,5.3,4.3,5.3s4.3-4.4,4.3-5.3a2.6,2.6,0,0,0-2.6-2.6,3.3,3.3,0,0,0-1.4.4l1.7-2.8h-4l1.6,2.8a2.8,2.8,0,0,0-1.3-.4A2.6,2.6,0,0,0,8.5,46.4Z" style="fill:#333"/><path d="M8.5,46.4c-.1,1,4.3,5.3,4.3,5.3h0V41.4h-2l1.6,2.8a2.8,2.8,0,0,0-1.3-.4A2.6,2.6,0,0,0,8.5,46.4Z" style="fill:#616161;opacity:0.2;mix-blend-mode:color-burn"/><path d="M8.5,34.1c-.1,1,4.3,5.3,4.3,5.3s4.3-4.5,4.3-5.3a2.6,2.6,0,0,0-2.6-2.6,3.2,3.2,0,0,0-1.4.3l1.7-2.7h-4l1.6,2.8a2.8,2.8,0,0,0-1.3-.3A2.5,2.5,0,0,0,8.5,34.1Z" style="fill:#333"/><path d="M8.5,34.1c-.1,1,4.3,5.3,4.3,5.3h0V29.1h-2l1.6,2.8a2.8,2.8,0,0,0-1.3-.3A2.5,2.5,0,0,0,8.5,34.1Z" style="fill:#616161;opacity:0.2;mix-blend-mode:color-burn"/><path d="M5.1,11.3c0-.3-1.2-1.4-1.2-1.4a8.5,8.5,0,0,0-1.1,1.4.7.7,0,0,0,.7.7h.3l-.4.7h1L4,11.9h.4A.8.8,0,0,0,5.1,11.3Z" style="fill:#333"/><path d="M5.1,11.3c0-.3-1.2-1.4-1.2-1.4h0v2.7h.5L4,11.9h.4A.8.8,0,0,0,5.1,11.3Z" style="fill:#616161;opacity:0.2;mix-blend-mode:color-burn"/><path d="M35.4,45a8.7,8.7,0,0,0,1.2,1.4A8.5,8.5,0,0,0,37.7,45a.7.7,0,0,0-.7-.7h-.3l.4-.8h-1l.4.8h-.4A.7.7,0,0,0,35.4,45Z" style="fill:#333"/><path d="M35.4,45a8.7,8.7,0,0,0,1.2,1.4h0V43.6h-.5l.4.8h-.4A.7.7,0,0,0,35.4,45Z" style="fill:#616161;opacity:0.2;mix-blend-mode:color-burn"/></g></g></svg>