<svg xmlns="http://www.w3.org/2000/svg" viewBox="0 0 39.8 55.7"><g style="isolation:isolate"><g id="fab2726a-c317-44f0-9d4f-aa94cbdca87a" data-name="Layer 1"><path d="M4.4,55.7A4.2,4.2,0,0,1,.1,51.5V4.2A4.2,4.2,0,0,1,4.3,0H35.5a4.2,4.2,0,0,1,4.3,4.2V51.5a4.2,4.2,0,0,1-4.3,4.2Z" style="fill:#c9c9c9"/><path d="M4.8,55.6A4.2,4.2,0,0,1,.6,51.4V4.2A4.2,4.2,0,0,1,4.8,0H35.6a4.2,4.2,0,0,1,4.2,4.2V51.4a4.2,4.2,0,0,1-4.2,4.2Z" style="fill:#fff"/><path d="M5.5,5.1a4.4,4.4,0,0,1-.2,1,5.9,5.9,0,0,1-.4.8,4.6,4.6,0,0,0-.7.7,2.1,2.1,0,0,1-.9.5H3.2a3.4,3.4,0,0,0,.6-.6,3.5,3.5,0,0,0,.6-.9H3.6A.9.9,0,0,1,3,6.3a1.3,1.3,0,0,1-.4-1,2,2,0,0,1,.7-1.1c.4-.4.7-.6,1-.6a1,1,0,0,1,.8.4A1.5,1.5,0,0,1,5.5,5.1Zm-.9.6a1.2,1.2,0,0,0-.3-.9.7.7,0,0,0-.6-.4H3.6c-.1.1-.1.1-.1.2a1.1,1.1,0,0,0,.3.8.7.7,0,0,0,.5.4h.3Z" style="fill:#333"/><path d="M35.1,51a2.9,2.9,0,0,1,.2-.9l.4-.8.8-.7a1.5,1.5,0,0,1,.8-.5h.1a.1.1,0,0,0,.1.1l-.7.5-.6,1h.1l.4-.2h.4a.7.7,0,0,1,.6.4,1.4,1.4,0,0,1,.3.9,1.5,1.5,0,0,1-.7,1.2,1.4,1.4,0,0,1-1,.5,1.1,1.1,0,0,1-.7-.3A1.8,1.8,0,0,1,35.1,51Zm1-.5a1.2,1.2,0,0,0,.3.9.9.9,0,0,0,.6.3.1.1,0,0,0,.1-.1v-.2a1.4,1.4,0,0,0-.2-.7.7.7,0,0,0-.6-.4h-.2Z" style="fill:#333"/><path d="M29.8,7.5a1.3,1.3,0,0,0,.1-.6,2.4,2.4,0,1,0-4.8,0,1.9,1.9,0,0,0,.1.8A2.4,2.4,0,0,0,23.1,10a2.3,2.3,0,0,0,2.3,2.3l1.8-.5-1.6,2.6h3.8l-1.5-2.6a6.7,6.7,0,0,0,1.9.5,2.4,2.4,0,0,0,2.4-2.4A2.4,2.4,0,0,0,29.8,7.5Z" style="fill:#333"/><path d="M29.8,7.5a1.3,1.3,0,0,0,.1-.6,2.4,2.4,0,0,0-2.4-2.4h0v9.9h1.9l-1.5-2.6a6.7,6.7,0,0,0,1.9.5,2.4,2.4,0,0,0,2.4-2.4A2.4,2.4,0,0,0,29.8,7.5Z" style="fill:#616161;opacity:0.2;mix-blend-mode:color-burn"/><path d="M22.5,25.9v-.6a2.4,2.4,0,0,0-2.4-2.4,2.4,2.4,0,0,0-2.4,2.4,1.9,1.9,0,0,0,.2.8,2.3,2.3,0,0,0-2.1,2.3A2.2,2.2,0,0,0,18,30.7a7.8,7.8,0,0,0,1.8-.5l-1.5,2.6H22l-1.5-2.6a6.7,6.7,0,0,0,1.9.5,2.4,2.4,0,0,0,.1-4.8Z" style="fill:#333"/><path d="M22.5,25.9v-.6a2.4,2.4,0,0,0-2.4-2.4h0v9.9H22l-1.5-2.6a6.7,6.7,0,0,0,1.9.5,2.4,2.4,0,0,0,.1-4.8Z" style="fill:#616161;opacity:0.2;mix-blend-mode:color-burn"/><path d="M29.8,19.6a.7.7,0,0,0,.1-.5,2.4,2.4,0,1,0-4.8,0,1.9,1.9,0,0,0,.1.8,2.4,2.4,0,0,0-2.1,2.3,2.3,2.3,0,0,0,2.3,2.2,6.1,6.1,0,0,0,1.8-.5l-1.6,2.7h3.8l-1.5-2.7a6.7,6.7,0,0,0,1.9.5A2.4,2.4,0,0,0,32.2,22,2.4,2.4,0,0,0,29.8,19.6Z" style="fill:#333"/><path d="M29.8,19.6a.7.7,0,0,0,.1-.5,2.4,2.4,0,0,0-2.4-2.4h0v9.9h1.9l-1.5-2.7a6.7,6.7,0,0,0,1.9.5A2.4,2.4,0,0,0,32.2,22,2.4,2.4,0,0,0,29.8,19.6Z" style="fill:#616161;opacity:0.2;mix-blend-mode:color-burn"/><path d="M10.7,7.5a1.3,1.3,0,0,1-.1-.6,2.4,2.4,0,1,1,4.8,0,1.9,1.9,0,0,1-.1.8A2.4,2.4,0,0,1,17.4,10a2.3,2.3,0,0,1-2.3,2.3,9.5,9.5,0,0,1-1.8-.5l1.5,2.6H11.1l1.5-2.6a6.7,6.7,0,0,1-1.9.5A2.4,2.4,0,0,1,8.3,9.9,2.4,2.4,0,0,1,10.7,7.5Z" style="fill:#333"/><path d="M10.7,7.5a1.3,1.3,0,0,1-.1-.6A2.4,2.4,0,0,1,13,4.5h0v9.9H11.1l1.5-2.6a6.7,6.7,0,0,1-1.9.5A2.4,2.4,0,0,1,8.3,9.9,2.4,2.4,0,0,1,10.7,7.5Z" style="fill:#616161;opacity:0.2;mix-blend-mode:color-burn"/><path d="M10.7,19.6a.7.7,0,0,1-.1-.5,2.4,2.4,0,1,1,4.8,0,1.9,1.9,0,0,1-.1.8,2.4,2.4,0,0,1,2.1,2.3,2.3,2.3,0,0,1-2.3,2.2,5.3,5.3,0,0,1-1.8-.5l1.5,2.7H11.1l1.5-2.7a6.7,6.7,0,0,1-1.9.5A2.4,2.4,0,0,1,8.3,22,2.4,2.4,0,0,1,10.7,19.6Z" style="fill:#333"/><path d="M10.7,19.6a.7.7,0,0,1-.1-.5A2.4,2.4,0,0,1,13,16.7h0v9.9H11.1l1.5-2.7a6.7,6.7,0,0,1-1.9.5A2.4,2.4,0,0,1,8.3,22,2.4,2.4,0,0,1,10.7,19.6Z" style="fill:#616161;opacity:0.2;mix-blend-mode:color-burn"/><path d="M29.8,48.2a.7.7,0,0,1,.1.5,2.4,2.4,0,0,1-4.8,0,1.9,1.9,0,0,1,.1-.8,2.4,2.4,0,0,1-2.1-2.3,2.4,2.4,0,0,1,2.3-2.3,6.4,6.4,0,0,1,1.8.6l-1.6-2.7h3.8l-1.5,2.7a7,7,0,0,1,1.9-.6,2.5,2.5,0,0,1,0,4.9Z" style="fill:#333"/><path d="M29.8,48.2a.7.7,0,0,1,.1.5,2.4,2.4,0,0,1-2.4,2.4h0V41.2h1.9l-1.5,2.7a7,7,0,0,1,1.9-.6,2.5,2.5,0,0,1,0,4.9Z" style="fill:#616161;opacity:0.2;mix-blend-mode:color-burn"/><path d="M29.8,36a.9.9,0,0,1,.1.5,2.4,2.4,0,0,1-4.8,0,2.2,2.2,0,0,1,.1-.8,2.4,2.4,0,0,1-2.1-2.3,2.3,2.3,0,0,1,2.3-2.2,6.1,6.1,0,0,1,1.8.5L25.6,29h3.8l-1.5,2.6a6.7,6.7,0,0,1,1.9-.5,2.4,2.4,0,0,1,2.4,2.4A2.4,2.4,0,0,1,29.8,36Z" style="fill:#333"/><path d="M29.8,36a.9.9,0,0,1,.1.5,2.4,2.4,0,0,1-2.4,2.4h0V29h1.9l-1.5,2.6a6.7,6.7,0,0,1,1.9-.5,2.4,2.4,0,0,1,2.4,2.4A2.4,2.4,0,0,1,29.8,36Z" style="fill:#616161;opacity:0.2;mix-blend-mode:color-burn"/><path d="M10.7,48.2a.7.7,0,0,0-.1.5,2.4,2.4,0,0,0,4.8,0,1.9,1.9,0,0,0-.1-.8,2.4,2.4,0,0,0,2.1-2.3,2.4,2.4,0,0,0-2.3-2.3,5.5,5.5,0,0,0-1.8.6l1.5-2.7H11.1l1.5,2.7a7,7,0,0,0-1.9-.6,2.5,2.5,0,0,0,0,4.9Z" style="fill:#333"/><path d="M10.7,48.2a.7.7,0,0,0-.1.5A2.4,2.4,0,0,0,13,51.1h0V41.2H11.1l1.5,2.7a7,7,0,0,0-1.9-.6,2.5,2.5,0,0,0,0,4.9Z" style="fill:#616161;opacity:0.2;mix-blend-mode:color-burn"/><path d="M10.7,36a.9.9,0,0,0-.1.5,2.4,2.4,0,0,0,4.8,0,2.2,2.2,0,0,0-.1-.8,2.4,2.4,0,0,0,2.1-2.3,2.3,2.3,0,0,0-2.3-2.2,5.3,5.3,0,0,0-1.8.5L14.8,29H11.1l1.5,2.6a6.7,6.7,0,0,0-1.9-.5,2.4,2.4,0,0,0-2.4,2.4A2.4,2.4,0,0,0,10.7,36Z" style="fill:#333"/><path d="M10.7,36a.9.9,0,0,0-.1.5A2.4,2.4,0,0,0,13,38.9h0V29H11.1l1.5,2.6a6.7,6.7,0,0,0-1.9-.5,2.4,2.4,0,0,0-2.4,2.4A2.4,2.4,0,0,0,10.7,36Z" style="fill:#616161;opacity:0.2;mix-blend-mode:color-burn"/><path d="M4.3,10.8h0a.5.5,0,0,0-.5-.5.6.6,0,0,0-.6.5v.2a.5.5,0,0,0-.4.5.5.5,0,0,0,.5.5h.4l-.4.6h.9l-.4-.6h.5a.5.5,0,0,0,.5-.5A.6.6,0,0,0,4.3,10.8Z" style="fill:#333"/><path d="M4.3,10.8h0a.5.5,0,0,0-.5-.5h0v2.2h.4l-.4-.6h.5a.5.5,0,0,0,.5-.5A.6.6,0,0,0,4.3,10.8Z" style="fill:#616161;opacity:0.2;mix-blend-mode:color-burn"/><path d="M37.1,46.1v.2a.5.5,0,0,1-.5.5.6.6,0,0,1-.6-.5v-.2a.5.5,0,0,1-.5-.5.6.6,0,0,1,.5-.6c.1,0,.4.1.4.2l-.3-.6H37l-.3.6.4-.2a.6.6,0,0,1,.6.6A.6.6,0,0,1,37.1,46.1Z" style="fill:#333"/><path d="M37.1,46.1v.2a.5.5,0,0,1-.5.5h0V44.6H37l-.3.6.4-.2a.6.6,0,0,1,.6.6A.6.6,0,0,1,37.1,46.1Z" style="fill:#616161;opacity:0.2;mix-blend-mode:color-burn"/></g></g></svg>