<svg xmlns="http://www.w3.org/2000/svg" viewBox="0 0 39.8 55.7"><g style="isolation:isolate"><g id="ff2b4e3c-0941-4a43-8f3a-8c0bfe6a7f99" data-name="Layer 1"><path d="M4.4,55.7A4.2,4.2,0,0,1,.1,51.5V4.2A4.2,4.2,0,0,1,4.3,0H35.5a4.2,4.2,0,0,1,4.3,4.2V51.5a4.2,4.2,0,0,1-4.3,4.2Z" style="fill:#c9c9c9"/><path d="M4.8,55.6A4.2,4.2,0,0,1,.6,51.4V4.2A4.2,4.2,0,0,1,4.8,0H35.6a4.2,4.2,0,0,1,4.2,4.2V51.4a4.2,4.2,0,0,1-4.2,4.2Z" style="fill:#fff"/><polygon points="27.7 4 31.8 9.3 27.7 14.5 23.5 9.3 27.7 4" style="fill:#d66142"/><polygon points="27.7 4 27.7 4 23.5 9.3 27.7 14.5 27.7 14.5 27.7 4" style="fill:#616161;opacity:0.2;mix-blend-mode:color-burn"/><polygon points="27.7 16.4 31.8 21.6 27.7 26.9 23.5 21.6 27.7 16.4" style="fill:#d66142"/><polygon points="27.7 16.4 27.7 16.4 23.5 21.6 27.7 26.9 27.7 26.8 27.7 16.4" style="fill:#616161;opacity:0.2;mix-blend-mode:color-burn"/><polygon points="12.7 28.7 8.6 34 12.7 39.2 16.9 34 12.7 28.7" style="fill:#d66142"/><polygon points="12.7 28.8 12.7 28.7 16.9 34 12.7 39.2 12.7 39.2 12.7 28.8" style="fill:#616161;opacity:0.2;mix-blend-mode:color-burn"/><polygon points="12.7 41.1 8.6 46.4 12.7 51.6 16.9 46.4 12.7 41.1" style="fill:#d66142"/><polygon points="12.7 41.2 12.7 41.1 16.9 46.4 12.7 51.6 12.7 51.6 12.7 41.2" style="fill:#616161;opacity:0.2;mix-blend-mode:color-burn"/><polygon points="12.7 4 16.9 9.3 12.7 14.5 8.6 9.3 12.7 4" style="fill:#d66142"/><polygon points="12.7 4 12.7 4 8.6 9.3 12.7 14.5 12.7 14.5 12.7 4" style="fill:#616161;opacity:0.2;mix-blend-mode:color-burn"/><polygon points="12.7 16.4 16.9 21.6 12.7 26.9 8.6 21.6 12.7 16.4" style="fill:#d66142"/><polygon points="12.7 16.4 12.7 16.4 8.6 21.6 12.7 26.9 12.7 26.8 12.7 16.4" style="fill:#616161;opacity:0.2;mix-blend-mode:color-burn"/><polygon points="27.7 28.7 23.5 34 27.7 39.2 31.8 34 27.7 28.7" style="fill:#d66142"/><polygon points="27.6 28.8 27.7 28.7 31.8 34 27.7 39.2 27.6 39.2 27.6 28.8" style="fill:#616161;opacity:0.2;mix-blend-mode:color-burn"/><polygon points="27.7 41.1 23.5 46.4 27.7 51.6 31.8 46.4 27.7 41.1" style="fill:#d66142"/><polygon points="27.6 41.2 27.7 41.1 31.8 46.4 27.7 51.6 27.6 51.6 27.6 41.2" style="fill:#616161;opacity:0.2;mix-blend-mode:color-burn"/><polygon points="3.9 12.7 2.7 11.1 3.9 9.6 5.1 11.1 3.9 12.7" style="fill:#d66142"/><polygon points="3.9 9.6 3.9 9.6 3.9 12.6 3.9 12.7 5.1 11.1 3.9 9.6" style="fill:#616161;opacity:0.2;mix-blend-mode:color-burn"/><path d="M5.5,6.4a.8.8,0,0,1-.1.4l-.5.6-.4.4a.7.7,0,0,1-.6.2A1.4,1.4,0,0,1,3,7.7,1.3,1.3,0,0,1,2.7,7a.8.8,0,0,1,.2-.4A2.1,2.1,0,0,0,3.3,6l-.2-.3a.5.5,0,0,1-.2-.4,1.4,1.4,0,0,1,.2-.6l.4-.4c.2-.3.3-.5.5-.6h.4a.8.8,0,0,1,.7.2.8.8,0,0,1,.2.5,1.3,1.3,0,0,1-.3.8l-.3.4.6.4C5.4,6.1,5.5,6.2,5.5,6.4Zm-.8.5c0-.1-.1-.3-.5-.4l-.5-.3H3.6a.4.4,0,0,0-.1.3.5.5,0,0,0,.3.4.9.9,0,0,0,.6.3l.2-.2C4.7,7.1,4.7,7,4.7,6.9ZM4.5,5l-.2-.3c-.1-.2-.2-.2-.4-.2H3.7a.1.1,0,0,0-.1.1c0,.1.1.3.4.4s.2.2.3.2h.1Z" style="fill:#333"/><path d="M35.1,49.8l.2-.4a1.5,1.5,0,0,1,.5-.7l.4-.4a.8.8,0,0,1,.6-.2.9.9,0,0,1,.8.4.9.9,0,0,1,.3.6,1.7,1.7,0,0,1-.2.5l-.4.5.3.3a.8.8,0,0,1,.1.4,1.4,1.4,0,0,1-.2.6l-.3.4a1.7,1.7,0,0,1-.6.6.5.5,0,0,1-.4.2.8.8,0,0,1-.6-.2.9.9,0,0,1-.3-.6.9.9,0,0,1,.3-.7c.2-.3.3-.4.3-.5l-.5-.4A.5.5,0,0,1,35.1,49.8Zm.8-.6.5.5.5.2a.1.1,0,0,0,.1-.1.3.3,0,0,0,.1-.2.5.5,0,0,0-.3-.5l-.5-.2H36C36,49.1,35.9,49.1,35.9,49.2Zm.2,2,.2.3.4.2h.2c.1-.1.1-.1.1-.2s-.1-.2-.3-.4l-.4-.2h-.1C36.2,51,36.1,51.1,36.1,51.2Z" style="fill:#333"/><polygon points="36.8 43.5 38 45 36.8 46.5 35.6 45 36.8 43.5" style="fill:#d66142"/><polygon points="36.8 43.5 36.8 43.5 35.6 45 36.8 46.5 36.8 46.5 36.8 43.5" style="fill:#616161;opacity:0.2;mix-blend-mode:color-burn"/></g></g></svg>