<svg xmlns="http://www.w3.org/2000/svg" viewBox="0 0 39.8 55.7"><g style="isolation:isolate"><g id="a5607197-a8fd-45ea-a083-9d78aee637e1" data-name="Layer 1"><path d="M4.4,55.7A4.2,4.2,0,0,1,.1,51.5V4.2A4.2,4.2,0,0,1,4.3,0H35.5a4.2,4.2,0,0,1,4.3,4.2V51.5a4.2,4.2,0,0,1-4.3,4.2Z" style="fill:#c9c9c9"/><path d="M4.8,55.6A4.2,4.2,0,0,1,.6,51.4V4.2A4.2,4.2,0,0,1,4.8,0H35.6a4.2,4.2,0,0,1,4.2,4.2V51.4a4.2,4.2,0,0,1-4.2,4.2Z" style="fill:#fff"/><path d="M33.3,50.2a1.1,1.1,0,0,1,.1-.5l.6-.8.6-.5a1.3,1.3,0,0,1,.8-.3H36c.2.2.3.3.3.5l-.4.6c-.3.4-.4.5-.5.5h-.2c0-.1.1-.2.2-.4h.1c0-.1,0-.2-.1-.2l-.5-.2-.5.2a.8.8,0,0,0-.2.6.6.6,0,0,0,.1.4l.3.3h.5c.1,0,.2,0,.2.1l-.3.4-.5.6h1.3l.3-.2a.1.1,0,0,1,.1.1.3.3,0,0,1-.1.2l-.5.5-.3.3H33.4c0-.1.2-.3.4-.5s.5-.5.5-.6l-.4-.2-.4-.2c0-.1-.1-.2-.2-.3Z" style="fill:#333"/><path d="M7.8,5.9a.9.9,0,0,1-.1.5,2.4,2.4,0,0,1-.6.9l-.6.5a1.2,1.2,0,0,1-.8.2H5.1a.5.5,0,0,1-.3-.4c0-.2.2-.4.4-.7s.4-.5.5-.5h.2l-.2.4v.4h.5a.6.6,0,0,0,.5-.2c.2-.1.2-.3.2-.5a.9.9,0,0,0-.1-.5l-.3-.2H5.8c0-.1.1-.2.3-.5l.5-.6H5.5l-.2.2H4.9V4.5l.5-.4.3-.4H7.7l-.4.6c-.3.3-.5.5-.5.6h.4l.4.3.2.2Z" style="fill:#333"/><path d="M24.4,9.4c0-1-4.2-5.1-4.2-5.1h0v9.9h1.9l-1.5-2.7a1.7,1.7,0,0,0,1.2.4A2.6,2.6,0,0,0,24.4,9.4Z" style="fill:#616161;opacity:0.2;mix-blend-mode:color-burn"/><path d="M24.4,28c0-1-4.2-5.1-4.2-5.1h0v9.9h1.9l-1.5-2.7a1.7,1.7,0,0,0,1.2.4A2.6,2.6,0,0,0,24.4,28Z" style="fill:#616161;opacity:0.2;mix-blend-mode:color-burn"/><path d="M24.4,45.9c0,.9-4.2,5.1-4.2,5.1h0V41h1.9l-1.5,2.7a2.4,2.4,0,0,1,1.2-.3A2.6,2.6,0,0,1,24.4,45.9Z" style="fill:#616161;opacity:0.2;mix-blend-mode:color-burn"/><path d="M7.3,11c0-.2-1.1-1.3-1.1-1.3h0v2.6h.5l-.4-.7h.3A.7.7,0,0,0,7.3,11Z" style="fill:#616161;opacity:0.2;mix-blend-mode:color-burn"/><path d="M33.8,45.2c0,.2,1.1,1.3,1.1,1.3h0V43.9h-.5l.4.7h-.3A.7.7,0,0,0,33.8,45.2Z" style="fill:#616161;opacity:0.2;mix-blend-mode:color-burn"/><path d="M24.1,7.6c-.1,1.9-3.9,4.8-3.9,4.8s-3.9-3-3.9-4.9a2.3,2.3,0,0,1,2.4-2.3,3.1,3.1,0,0,1,1.5.6,3.2,3.2,0,0,1,1.6-.6A2.2,2.2,0,0,1,24.1,7.6Z" style="fill:#d66142"/><path d="M21.8,5.2a3.2,3.2,0,0,0-1.6.6h0v6.5h0S24,9.5,24.1,7.6A2.2,2.2,0,0,0,21.8,5.2Z" style="fill:#616161;opacity:0.2;mix-blend-mode:color-burn"/><path d="M24.1,25.9c-.1,2-3.9,4.8-3.9,4.8s-3.9-2.9-3.9-4.8a2.4,2.4,0,0,1,2.4-2.4,2.9,2.9,0,0,1,1.5.7,2.4,2.4,0,0,1,1.6-.6A2.2,2.2,0,0,1,24.1,25.9Z" style="fill:#d66142"/><path d="M21.8,23.6a2.4,2.4,0,0,0-1.6.6h0v6.5h0s3.8-2.8,3.9-4.8A2.2,2.2,0,0,0,21.8,23.6Z" style="fill:#616161;opacity:0.2;mix-blend-mode:color-burn"/><path d="M16.2,46.7c.1-1.9,4-4.8,4-4.8s3.9,3,3.9,4.9a2.3,2.3,0,0,1-2.4,2.3,3.7,3.7,0,0,1-1.6-.6,2.7,2.7,0,0,1-1.5.6A2.4,2.4,0,0,1,16.2,46.7Z" style="fill:#d66142"/><path d="M18.6,49.1a2.7,2.7,0,0,0,1.5-.6h.1V41.9h0s-3.9,2.9-4,4.8A2.4,2.4,0,0,0,18.6,49.1Z" style="fill:#616161;opacity:0.2;mix-blend-mode:color-burn"/><path d="M7.3,10.8c0,.7-1.4,1.7-1.4,1.7s-1.3-1-1.3-1.7a.8.8,0,0,1,.8-.8.8.8,0,0,1,.5.2l.6-.2A.8.8,0,0,1,7.3,10.8Z" style="fill:#d66142"/><path d="M6.5,10l-.6.2h0v2.3h0s1.4-1,1.4-1.7A.8.8,0,0,0,6.5,10Z" style="fill:#616161;opacity:0.2;mix-blend-mode:color-burn"/><path d="M33.2,45.5c0-.7,1.4-1.7,1.4-1.7s1.4,1,1.4,1.7a.8.8,0,0,1-.9.8l-.5-.2-.6.2A.8.8,0,0,1,33.2,45.5Z" style="fill:#d66142"/><path d="M34,46.3l.6-.2h0V43.8h0s-1.4,1-1.4,1.7A.8.8,0,0,0,34,46.3Z" style="fill:#616161;opacity:0.2;mix-blend-mode:color-burn"/></g></g></svg>