<svg xmlns="http://www.w3.org/2000/svg" viewBox="0 0 39.8 55.7"><g style="isolation:isolate"><g id="ac2099b8-aa43-4495-9d8d-aee6aed77371" data-name="Layer 1"><path d="M4.4,55.7A4.2,4.2,0,0,1,.1,51.5V4.2A4.2,4.2,0,0,1,4.3,0H35.5a4.2,4.2,0,0,1,4.3,4.2V51.5a4.2,4.2,0,0,1-4.3,4.2Z" style="fill:#c9c9c9"/><path d="M4.8,55.6A4.2,4.2,0,0,1,.6,51.4V4.2A4.2,4.2,0,0,1,4.8,0H35.6a4.2,4.2,0,0,1,4.2,4.2V51.4a4.2,4.2,0,0,1-4.2,4.2Z" style="fill:#fff"/><polygon points="27.6 4 23.5 9.3 27.6 14.5 31.8 9.3 27.6 4" style="fill:#d66142"/><polygon points="27.6 4 27.6 4 31.8 9.3 27.6 14.5 27.6 14.5 27.6 4" style="fill:#616161;opacity:0.2;mix-blend-mode:color-burn"/><polygon points="12.7 41.1 16.9 46.4 12.7 51.6 8.6 46.4 12.7 41.1" style="fill:#d66142"/><polygon points="12.7 41.2 12.7 41.1 8.6 46.4 12.7 51.6 12.7 51.6 12.7 41.2" style="fill:#616161;opacity:0.2;mix-blend-mode:color-burn"/><polygon points="12.7 4 16.9 9.3 12.7 14.5 8.6 9.3 12.7 4" style="fill:#d66142"/><polygon points="12.7 4 12.7 4 8.6 9.3 12.7 14.5 12.7 14.5 12.7 4" style="fill:#616161;opacity:0.2;mix-blend-mode:color-burn"/><polygon points="27.6 41.1 23.5 46.4 27.6 51.6 31.8 46.4 27.6 41.1" style="fill:#d66142"/><polygon points="27.6 41.2 27.6 41.1 31.8 46.4 27.6 51.6 27.6 51.6 27.6 41.2" style="fill:#616161;opacity:0.2;mix-blend-mode:color-burn"/><polygon points="3.9 12.7 2.7 11.1 3.9 9.6 5.1 11.1 3.9 12.7" style="fill:#d66142"/><polygon points="3.9 9.6 3.9 9.6 3.9 12.6 3.9 12.7 5.1 11.1 3.9 9.6" style="fill:#616161;opacity:0.2;mix-blend-mode:color-burn"/><path d="M5.5,5.5c0,.1,0,.2-.1.2s-.1.1-.1.2l-.5.6-.3.2h0v.5a.1.1,0,0,0,.1.1h.3l-.3.4c-.3.2-.5.4-.7.4s-.3-.3-.3-.7-.1-.7-.2-.7H2A1,1,0,0,1,2.2,6L3,5l.4-.4.3-.3.4-.5.3-.2h.1V5.8h.6l.3-.3h.1Zm-2,.2V5.5h0V5.2l-.4.3-.2.3h.6Z" style="fill:#333"/><path d="M35.2,50.6v-.2h.1l.5-.6.3-.2c.1-.1.1-.1.1-.2h0a.4.4,0,0,0-.1-.3H36l-.3.2h0c0-.1.1-.2.3-.4a1,1,0,0,1,.8-.4q.2,0,.3.6a1.7,1.7,0,0,0,.1.7h1.4a.1.1,0,0,0,.1.1h0c0,.1-.1.2-.3.5s-.4.6-.8,1l-.3.4-.3.4a.8.8,0,0,0-.4.4l-.3.2h-.1V50.4H36l-.5.2-.3.3h0Zm2-.2v.2h0V51l.3-.4c.1,0,.1-.1.2-.2h-.5Z" style="fill:#333"/><polygon points="36.8 43.5 38 45 36.8 46.5 35.6 45 36.8 43.5" style="fill:#d66142"/><polygon points="36.8 43.5 36.8 43.5 35.6 45 36.8 46.5 36.8 46.5 36.8 43.5" style="fill:#616161;opacity:0.2;mix-blend-mode:color-burn"/></g></g></svg>