<svg xmlns="http://www.w3.org/2000/svg" viewBox="0 0 39.8 55.7"><g style="isolation:isolate"><g id="f9a915b0-a8fa-4729-81ef-9b28ac630917" data-name="Layer 1"><path d="M4.4,55.7A4.2,4.2,0,0,1,.1,51.5V4.2A4.2,4.2,0,0,1,4.2,0H35.5a4.2,4.2,0,0,1,4.3,4.2V51.5a4.2,4.2,0,0,1-4.3,4.2Z" style="fill:#c9c9c9"/><path d="M4.8,55.6A4.2,4.2,0,0,1,.6,51.4V4.2A4.2,4.2,0,0,1,4.8,0H35.6a4.2,4.2,0,0,1,4.2,4.2V51.4a4.2,4.2,0,0,1-4.2,4.2Z" style="fill:#fff"/><path d="M35.6,54.7H4.8a3.2,3.2,0,0,1-3.3-3.2V4.3A4.2,4.2,0,0,1,3.6.9H34.7c3,.2,4.1,1.9,4.1,3.4V51.5A3.2,3.2,0,0,1,35.6,54.7ZM4,2.1A2.7,2.7,0,0,0,2.8,4.3V51.5a1.9,1.9,0,0,0,2,1.9H35.6a1.9,1.9,0,0,0,1.9-1.9V4.3c0-1.2-1.1-2-2.9-2.2Z" style="fill:#d66142"/><polygon points="5.9 14.7 3.9 12.1 5.9 9.6 7.9 12.1 5.9 14.7" style="fill:#d66142"/><polygon points="5.9 9.6 5.8 9.7 5.8 14.6 5.9 14.7 7.9 12.1 5.9 9.6" style="fill:#616161;opacity:0.2;mix-blend-mode:color-burn"/><path d="M7.5,5.9a2,2,0,0,1-.1.7L7,7.2l-.3.2-.6.5H6v.2l.4.2.6.2h0l-.2.2H6.6l-.5-.3-.6-.3H5.1l-.2.2H4.8L5,8.3l.3-.2-.6-.4-.6-.5-.3-.6A1.3,1.3,0,0,1,3.7,6a1.5,1.5,0,0,1,.2-.8c0-.1.2-.3.4-.6L5,4.1l.7-.5.4.2.9.8a2.1,2.1,0,0,1,.4.6A1.5,1.5,0,0,1,7.5,5.9Zm-1,.5a1.3,1.3,0,0,0-.1-.6l-.3-.6c-.1-.2-.4-.4-.6-.6L5,4.3l-.2.4a1.7,1.7,0,0,0-.2.5,2.9,2.9,0,0,0,.2.9c.2.2.3.5.6.7a4.3,4.3,0,0,0,.7.7A.5.5,0,0,0,6.4,7,1.3,1.3,0,0,0,6.5,6.4Z" style="fill:#333"/><polygon points="34.6 41.6 36.6 44.1 34.6 46.7 32.6 44.1 34.6 41.6" style="fill:#d66142"/><polygon points="34.6 46.7 34.6 46.6 34.6 41.7 34.6 41.6 32.6 44.1 34.6 46.7" style="fill:#616161;opacity:0.2;mix-blend-mode:color-burn"/><path d="M32.9,50.4a2.5,2.5,0,0,1,.2-.7.9.9,0,0,1,.4-.6c0-.1.1-.1.2-.3l.6-.4c.1,0,.2,0,.2-.1h.1l-.4-.2-.6-.2h-.4a.1.1,0,0,0,.1-.1h.3c.1,0,.1-.1.2-.2h.1l.5.3a.9.9,0,0,0,.6.3h.4c.1-.1.1-.2.2-.2h0l-.2.2c-.1.1-.1.2-.2.2l.6.5.6.5.3.6a1.3,1.3,0,0,1,.1.6,1.9,1.9,0,0,1-.2.8l-.5.5-.6.5c-.4.4-.6.5-.7.5s-.2,0-.4-.2a2.8,2.8,0,0,1-.9-.7,2.1,2.1,0,0,1-.4-.6A1.4,1.4,0,0,1,32.9,50.4Zm1.1-.6a2,2,0,0,0,.1.7l.3.6.6.6.4.2q.1,0,.3-.3c.1-.3.2-.4.2-.5a1.6,1.6,0,0,0-.3-.9,3.5,3.5,0,0,0-.5-.8l-.8-.7-.3.6Z" style="fill:#333"/><polygon points="26.2 15.8 26.1 16.6 26.1 17.1 25.9 19.3 25.9 19.8 25.8 20.5 25.8 20.5 25.8 21.2 25.3 21.2 25 21.2 24.5 21.2 24.3 21.2 23.9 21.2 23.3 21.2 22.7 21.3 19.5 21.3 19.5 21.3 16.4 21.3 15.8 21.2 15.2 21.2 14.8 21.2 14.5 21.2 14.3 21.2 14 21.2 13.8 21.2 13.3 21.2 13.3 20.5 13.3 20.5 13.2 19.8 13.2 19.3 13 17.1 13 16.6 12.9 15.8 26.2 15.8" style="fill:#c9c9c9"/><path d="M25.6,15.8c-1,1.4-2.4,2.8-4,2.8h0a2.3,2.3,0,0,1-1.1.9,1.5,1.5,0,0,1-.9.2h-.1V15.8Z" style="fill:#616161;opacity:0.2;mix-blend-mode:color-burn"/><path d="M28.3,24.4l-2.5.8h-.3a2.5,2.5,0,0,0-.5-.7h0a2.6,2.6,0,0,0-.4,1l-.7.2L19.5,27l-2.7.8-.9.3c0-.1-.1-.2-.1-.3-1.6-.7-.8-1.9-1.7-3.3a14.4,14.4,0,0,0-2.2,4.8h-.2l-1.8.5h0a13.4,13.4,0,0,1,2.2-8l.3-.3c0-.1.1-.2.2-.3h0c0-.1.1-.1.1-.2l.2-.2.4-.4h.2a.1.1,0,0,0,.1-.1l.3-.2H25.2l.2.2h.2c.1,0,.1,0,.1.1h.1a.1.1,0,0,0,.1.1H26l.2.2c0,.1.1.1.1.2h0l.2.2h0l.2.3.2.3A9.7,9.7,0,0,1,28.3,24.4Z" style="fill:#d66142"/><path d="M19.5,22.8h.6l-.2,2h-.4Z" style="fill:#616161;opacity:0.2;mix-blend-mode:color-burn"/><path d="M19.5,15.8h-6c1,1.4,2.4,2.8,3.9,2.8h.1a2.4,2.4,0,0,0,2,1.1h0Z" style="fill:#616161;opacity:0.2;mix-blend-mode:color-burn"/><path d="M19.5,22.8H19l.2,2h.3Z" style="fill:#616161;opacity:0.2;mix-blend-mode:color-burn"/><path d="M17.4,24.5c-2.9-.6-4.4-1.6-5.3-2.6a9.5,9.5,0,0,1,1.5-1.7Z" style="fill:#616161;opacity:0.2;mix-blend-mode:color-burn"/><path d="M19.5,18.9h0l-.9-.2v.6l.9.2h0Z" style="fill:#fdd8ab"/><path d="M19.5,18h0a1,1,0,0,0-.9.7l.9.2h0Z" style="fill:#fdd8ab"/><path d="M24.6,19.9H20.5v-.5l-.9.2h-.1l-.9-.2v.5H14.4c-.2.5-.1.5-.1,1a3.8,3.8,0,0,0,2.3,3.3h0l.8.3a5.7,5.7,0,0,0,1.8.3h.7a4.7,4.7,0,0,0,1.7-.3l.8-.3h.1a3.8,3.8,0,0,0,2.3-3.3C24.8,20.4,24.9,20.4,24.6,19.9Z" style="fill:#fdd8ab"/><path d="M19.5,18.9h.1l.8-.2c0,.1.1.1.1.2v.4l-.9.2h-.1Z" style="fill:#fdd8ab"/><path d="M19.5,18h.1a.8.8,0,0,1,.8.7l-.8.2h-.1Z" style="fill:#fdd8ab"/><path d="M26.9,21.9c-.8,1-2.4,2-5.3,2.6l1.6-1.8h.1l1.2-1.4.3-.3.6-.7h.2c.1,0,.1,0,.1.1h.1a.1.1,0,0,0,.1.1H26l.2.2c0,.1.1.1.1.2h0l.2.2h0l.2.3Z" style="fill:#616161;opacity:0.2;mix-blend-mode:color-burn"/><path d="M27.3,18.9v.5a3.9,3.9,0,0,1-.8,1.9h0a7.2,7.2,0,0,1-2,1.8h-.2a7.7,7.7,0,0,1-1.8,1h-.7c0,.1-.1.1-.2.1l1.7-3.3.6-1.1v-.2l2.2-4.1A5.2,5.2,0,0,1,27.3,18.9Z" style="fill:#ebebeb"/><path d="M17.4,24.5a16.9,16.9,0,0,1-2.7-1.3h-.1a5.4,5.4,0,0,1-2.8-3.7v-.5a5.2,5.2,0,0,1,1.1-3.1Z" style="fill:#ebebeb"/><path d="M16.8,27.8l-.9.3c0-.1-.1-.2-.1-.3-1.6-.7-.8-1.9-1.7-3.3a14.4,14.4,0,0,0-2.2,4.8h-.2c-.5-2.1,2.6-5.5,2.6-5.5S15.7,27.3,16.8,27.8Z" style="fill:#616161;opacity:0.2;mix-blend-mode:color-burn"/><path d="M25.8,25.2h-.3a2.5,2.5,0,0,0-.5-.7h0a2.6,2.6,0,0,0-.4,1l-.7.2.9-1.8Z" style="fill:#616161;opacity:0.2;mix-blend-mode:color-burn"/><polygon points="13.6 21 14.2 21.7 13.9 20.8 13.6 21" style="fill:#333"/><polygon points="15.5 22.7 16.1 23.5 15.8 22.6 15.5 22.7" style="fill:#333"/><polygon points="12.6 16.6 13.2 17.4 12.9 16.5 12.6 16.6" style="fill:#333"/><polygon points="13.4 18.2 13.9 18.9 13.7 18 13.4 18.2" style="fill:#333"/><polygon points="14.1 19.7 14.6 20.4 14.4 19.5 14.1 19.7" style="fill:#333"/><polygon points="14.8 21.2 15.4 21.9 15.1 21.1 14.8 21.2" style="fill:#333"/><path d="M14.7,23.2h-.1l-.3-.4.3-.2Z" style="fill:#333"/><polygon points="12.2 17.9 12.7 18.7 12.5 17.8 12.2 17.9" style="fill:#333"/><polygon points="12.9 19.5 13.5 20.2 13.2 19.3 12.9 19.5" style="fill:#333"/><path d="M12,19.7l-.2-.3v-.5h0Z" style="fill:#333"/><polygon points="12.5 20.8 13.1 21.5 12.8 20.7 12.5 20.8" style="fill:#333"/><polygon points="25.4 21 24.9 21.7 25.1 20.8 25.4 21" style="fill:#333"/><polygon points="23.5 22.7 23 23.5 23.2 22.6 23.5 22.7" style="fill:#333"/><polygon points="26.4 16.6 25.9 17.4 26.1 16.5 26.4 16.6" style="fill:#333"/><polygon points="25.7 18.2 25.2 18.9 25.4 18 25.7 18.2" style="fill:#333"/><polygon points="25 19.7 24.4 20.4 24.7 19.5 25 19.7" style="fill:#333"/><polygon points="24.3 21.2 23.7 21.9 24 21.1 24.3 21.2" style="fill:#333"/><path d="M24.3,23.2h.2l.3-.4-.3-.2Z" style="fill:#333"/><polygon points="26.9 17.9 26.3 18.7 26.6 17.8 26.9 17.9" style="fill:#333"/><polygon points="26.2 19.5 25.6 20.2 25.9 19.3 26.2 19.5" style="fill:#333"/><path d="M27.3,18.9v.5l-.3.3.3-.8Z" style="fill:#333"/><polygon points="26.6 20.8 26 21.5 26.3 20.7 26.6 20.8" style="fill:#333"/><path d="M27.1,12.3a19.8,19.8,0,0,1-2.2,3.5,4.9,4.9,0,0,1-3.3,1.9h-.1a4.2,4.2,0,0,0,.9-1.9,4.4,4.4,0,0,0,.2-1.6,5,5,0,0,0-2-4.4H20l-.3.2-.2.3h0v-.3L19,10h-.5a5,5,0,0,0-2,4.4,8.6,8.6,0,0,0,.1,1.6,5.6,5.6,0,0,0,.9,1.9h-.1a4.7,4.7,0,0,1-3.2-1.9A19.8,19.8,0,0,1,12,12.3l5.4-5.4V6.7h.2l1.8-2h.1l1.8,1.9h.2v.2Z" style="fill:#d66142"/><polygon points="19.5 9.5 21 7.6 19.5 5.6 19.5 5.6 19.5 5.6 19.5 5.6 19.5 5.6 18.1 7.6 19.5 9.5 19.5 9.5 19.5 9.5 19.5 9.5 19.5 9.5" style="fill:#616161;opacity:0.2;mix-blend-mode:color-burn"/><polygon points="21.7 6.9 19.5 9.8 19.5 9.8 19.5 9.8 19.5 9.8 19.5 9.8 17.4 6.9 17.5 6.7 17.5 6.7 18.1 7.5 18.3 7.8 19.5 6.2 19.5 6.2 19.5 6.2 19.5 6.2 19.5 6.2 20.8 7.8 20.9 7.5 21.5 6.7 21.6 6.7 21.7 6.9" style="fill:#ffd675"/><polygon points="19.5 8.8 20.3 7.8 19.5 6.9 19.5 6.9 19.5 6.9 19.5 6.9 19.5 6.9 18.8 7.8 19.5 8.8 19.5 8.8 19.5 8.8 19.5 8.8 19.5 8.8" style="fill:#616161;opacity:0.2;mix-blend-mode:color-burn"/><polygon points="14.4 7.7 15.1 6.7 14.4 5.8 14.4 5.8 14.4 5.8 14.4 5.8 14.4 5.8 13.6 6.7 14.4 7.7 14.4 7.7 14.4 7.7 14.4 7.7 14.4 7.7" style="fill:#616161;opacity:0.2;mix-blend-mode:color-burn"/><path d="M20.6,9.8a1.5,1.5,0,0,0-1.1.8,1.6,1.6,0,0,0-1-.8,5,5,0,0,0-2,4.4,6.1,6.1,0,0,0,1,3.5h0a3.5,3.5,0,0,0,1.2,1l.8.2h0l.8-.2a2.3,2.3,0,0,0,1.2-1h0a5.4,5.4,0,0,0,1.1-3.5A5,5,0,0,0,20.6,9.8Z" style="fill:#fdd8ab"/><path d="M17.2,13.9h0c0,.3.3.5.7.5a.6.6,0,0,0,.6-.5H17.2Z" style="fill:#333"/><path d="M21.8,13.9h.1c0,.3-.3.5-.7.5s-.6-.2-.6-.5h1.2Z" style="fill:#333"/><path d="M20.4,17.2H18.7a1.1,1.1,0,0,0,.8.3h0A1.2,1.2,0,0,0,20.4,17.2Z" style="fill:#d66142"/><path d="M19.5,17.1c-.4-.4-.9.1-.9.1h1.9S19.9,16.7,19.5,17.1Z" style="fill:#d66b4f"/><polygon points="19.5 14.6 19.5 14.6 19.5 14.6 19.5 14.6 19.5 14.6 19 16.2 19.5 16.2 19.5 16.2 20 16.2 19.5 14.6" style="fill:#616161;opacity:0.2;mix-blend-mode:color-burn"/><polygon points="20.5 13 21.8 13 21.8 13 21.8 13.1 22.3 13.6 21.8 13.1 21.8 13.1 20.5 13.2 20.5 13" style="fill:#d66142"/><polygon points="18.7 13.2 17.4 13.1 17.4 13.1 16.9 13.6 17.4 13.1 17.4 13 17.4 13 18.7 13 18.7 13.2" style="fill:#d66142"/><path d="M17.4,24.5l-.8-.3h0a3.8,3.8,0,0,1-2.3-3.3c0-.5-.1-.5.1-1H16Z" style="fill:#616161;opacity:0.2;mix-blend-mode:color-burn"/><path d="M20.4,18.7l-.8.2h-.1l-.9-.2v.6l.9.2h.1l.9-.2v-.4C20.5,18.8,20.4,18.8,20.4,18.7Z" style="fill:#616161;opacity:0.2;mix-blend-mode:color-burn"/><path d="M20,22.9h-.9l.2,2h.5Z" style="fill:#616161;opacity:0.2;mix-blend-mode:color-burn"/><path d="M21.6,24.5l.8-.3h.1a3.8,3.8,0,0,0,2.3-3.3c0-.5.1-.5-.2-1H23.1Z" style="fill:#616161;opacity:0.2;mix-blend-mode:color-burn"/><path d="M28.3,24.4l-2.5.8h-.3a7.8,7.8,0,0,1-.4-.7H25a3.6,3.6,0,0,0-.4.9l-.6.2L19.5,27V4.7h.1l1.8,1.9h.2v.2l5.4,5.4a19.8,19.8,0,0,1-2.2,3.5h1.3a5.2,5.2,0,0,1,1.1,3.1v.5a3.9,3.9,0,0,1-.8,1.9h0l.2.3.2.3A9.7,9.7,0,0,1,28.3,24.4Z" style="fill:#616161;opacity:0.2;mix-blend-mode:color-burn"/><path d="M20.4,9.8h0Z" style="fill:#616161;opacity:0.2;mix-blend-mode:color-burn"/><path d="M20,10.1h0Z" style="fill:#616161;opacity:0.2;mix-blend-mode:color-burn"/><path d="M20.1,10h0Z" style="fill:#616161;opacity:0.2;mix-blend-mode:color-burn"/><path d="M20.3,9.9Z" style="fill:#616161;opacity:0.2;mix-blend-mode:color-burn"/><polygon points="25.2 40.7 12 40.7 12.1 39.9 12.1 39.4 12.3 37.2 12.3 36.7 12.4 36 12.4 36 12.4 35.3 12.9 35.3 13.1 35.3 13.4 35.3 13.6 35.3 13.9 35.3 14.2 35.3 14.8 35.3 15.5 35.2 18.6 35.2 18.6 35.2 21.8 35.2 22.4 35.3 23 35.3 23.3 35.3 23.6 35.3 23.9 35.3 24.1 35.3 24.4 35.3 24.9 35.3 24.9 36 25 36.7 25 37.2 25.1 39.4 25.2 39.9 25.2 40.7" style="fill:#c9c9c9"/><path d="M18.6,36.8v3.9h-6c1-1.4,2.4-2.8,3.9-2.8h0a3.1,3.1,0,0,1,1.2-.9,1.5,1.5,0,0,1,.9-.2Z" style="fill:#616161;opacity:0.2;mix-blend-mode:color-burn"/><path d="M28.3,26.6a13.6,13.6,0,0,1-2.3,8c0,.1-.1.1-.1.2l-.2.3a.1.1,0,0,0-.1.1l-.2.2h0a.3.3,0,0,0-.1.2.8.8,0,0,0-.4.4l-.4.3-.3.2H13l-.3-.2h-.4l-.2-.2H12c-.1-.1-.1-.1-.1-.2h-.1c0-.1-.1-.1-.1-.2l-.3-.3c0-.1-.1-.2-.2-.3a14.2,14.2,0,0,1-1.3-2.5l2.5-.8h.3a5.9,5.9,0,0,1,.5.8,6.9,6.9,0,0,0,.4-1l.7-.2,4.2-1.3,2.8-.8.9-.3.2.3c1.6.7.8,1.9,1.7,3.3a14.9,14.9,0,0,0,2.1-4.8h.3l1.7-.5Z" style="fill:#d66142"/><path d="M18.6,33.7h-.5l.2-2.1h.3Z" style="fill:#616161;opacity:0.2;mix-blend-mode:color-burn"/><path d="M18.6,40.7h6c-.9-1.4-2.3-2.8-3.9-2.8h0a2.4,2.4,0,0,0-2-1.1h-.1Z" style="fill:#616161;opacity:0.2;mix-blend-mode:color-burn"/><path d="M18.6,33.7h.6l-.3-2.1h-.3Z" style="fill:#616161;opacity:0.2;mix-blend-mode:color-burn"/><path d="M20.7,32c2.9.6,4.5,1.6,5.3,2.6a6.7,6.7,0,0,1-1.5,1.7Z" style="fill:#616161;opacity:0.2;mix-blend-mode:color-burn"/><path d="M18.6,37.6h.1l.8.2v-.6l-.8-.2h-.1Z" style="fill:#fdd8ab"/><path d="M18.6,38.5h.1a.8.8,0,0,0,.8-.7l-.8-.2h-.1Z" style="fill:#fdd8ab"/><path d="M13.5,36.6h4.2v.5l.9-.2h.1l.8.2v-.5h4.2c.3-.5.2-.5.2-1a3.7,3.7,0,0,0-2.4-3.3h0l-.8-.3-1.8-.4h-.6l-1.8.4-.8.3h0a3.8,3.8,0,0,0-2.3,3.3C13.4,36.1,13.2,36.1,13.5,36.6Z" style="fill:#fdd8ab"/><path d="M18.6,37.6h0l-.9.2v-.6l.9-.2h0Z" style="fill:#fdd8ab"/><path d="M18.6,38.5h0a1,1,0,0,1-.9-.7l.9-.2h0Z" style="fill:#fdd8ab"/><path d="M16.5,32,15,33.8h-.1l-1.3,1.4-.2.3-.7.7h-.4l-.2-.2H12c-.1-.1-.1-.1-.1-.2h-.1c0-.1-.1-.1-.1-.2l-.3-.3c0-.1-.1-.2-.2-.3S13.6,32.6,16.5,32Z" style="fill:#616161;opacity:0.2;mix-blend-mode:color-burn"/><path d="M16.5,32l-1.7,3.3-.5,1.1-.2.2L12,40.7a5,5,0,0,1-1.2-3.1,4.3,4.3,0,0,1,.1-.5,3.9,3.9,0,0,1,.8-1.9,6,6,0,0,1,2-1.8.1.1,0,0,1,.1-.1,9.3,9.3,0,0,1,2-1l.5-.2Z" style="fill:#ebebeb"/><path d="M20.7,32a11.3,11.3,0,0,1,2.7,1.3h.2a5.4,5.4,0,0,1,2.8,3.7v.5a5,5,0,0,1-1.2,3.1Z" style="fill:#ebebeb"/><path d="M21.3,28.7l.9-.3.2.3c1.6.7.8,1.9,1.7,3.3a14.9,14.9,0,0,0,2.1-4.8h.3c.4,2.1-2.7,5.5-2.7,5.5S22.5,29.2,21.3,28.7Z" style="fill:#616161;opacity:0.2;mix-blend-mode:color-burn"/><path d="M14.3,30.8c-.5.9-.9,1.8-.9,1.8l-1-1.3h.3a5.9,5.9,0,0,1,.5.8,6.9,6.9,0,0,0,.4-1Z" style="fill:#616161;opacity:0.2;mix-blend-mode:color-burn"/><polygon points="24.5 35.5 24 34.8 24.2 35.7 24.5 35.5" style="fill:#333"/><polygon points="22.6 33.8 22.1 33 22.3 33.9 22.6 33.8" style="fill:#333"/><polygon points="25.5 39.9 25 39.1 25.2 40 25.5 39.9" style="fill:#333"/><polygon points="24.8 38.3 24.3 37.6 24.5 38.5 24.8 38.3" style="fill:#333"/><polygon points="24.1 36.8 23.5 36.1 23.8 37 24.1 36.8" style="fill:#333"/><polygon points="23.4 35.3 22.8 34.6 23.1 35.4 23.4 35.3" style="fill:#333"/><path d="M23.4,33.3h.2l.3.4-.3.2Z" style="fill:#333"/><polygon points="26 38.6 25.4 37.8 25.7 38.7 26 38.6" style="fill:#333"/><polygon points="25.2 37 24.7 36.3 24.9 37.2 25.2 37" style="fill:#333"/><path d="M26.1,36.8l.3.3v.5h0Z" style="fill:#333"/><polygon points="25.6 35.7 25.1 34.9 25.3 35.8 25.6 35.7" style="fill:#333"/><polygon points="12.7 35.5 13.3 34.8 13 35.7 12.7 35.5" style="fill:#333"/><polygon points="14.6 33.8 15.2 33 14.9 33.9 14.6 33.8" style="fill:#333"/><polygon points="11.7 39.9 12.3 39.1 12 40 11.7 39.9" style="fill:#333"/><polygon points="12.5 38.3 13 37.6 12.8 38.5 12.5 38.3" style="fill:#333"/><polygon points="13.2 36.8 13.7 36.1 13.5 37 13.2 36.8" style="fill:#333"/><polygon points="13.9 35.3 14.4 34.6 14.2 35.4 13.9 35.3" style="fill:#333"/><path d="M13.8,33.3a.1.1,0,0,0-.1.1l-.4.4.3.2Z" style="fill:#333"/><polygon points="11.3 38.6 11.8 37.8 11.6 38.7 11.3 38.6" style="fill:#333"/><polygon points="12 37 12.6 36.3 12.3 37.2 12 37" style="fill:#333"/><path d="M11.1,36.8l-.2.8h-.1a4.3,4.3,0,0,1,.1-.5Z" style="fill:#333"/><polygon points="11.6 35.7 12.2 34.9 11.9 35.8 11.6 35.7" style="fill:#333"/><path d="M16.6,38.7h0Z" style="fill:#d66142"/><path d="M20.6,38.7h0Z" style="fill:#d66142"/><path d="M26.2,44.2l-5.4,5.4h-.3l-1.9,2h0l-.4-.5-1.4-1.5h-.3l-5.4-5.4a19.8,19.8,0,0,1,2.2-3.5,5.3,5.3,0,0,1,3.2-2h.1a5.6,5.6,0,0,0-.9,1.9,7.8,7.8,0,0,0-.2,1.6,5.1,5.1,0,0,0,2.1,4.4l.7-.4h.1c.1-.1.2-.2.2-.3h0l.2.3h.1a2,2,0,0,0,.8.4,5,5,0,0,0,2-4.4,7.8,7.8,0,0,0-.2-1.6,5.6,5.6,0,0,0-.9-1.9h.1a5.5,5.5,0,0,1,3.3,2A19.8,19.8,0,0,1,26.2,44.2Z" style="fill:#d66142"/><polygon points="18.6 47 17.2 48.9 18.6 50.9 18.6 50.9 18.6 50.9 18.6 50.9 18.6 50.9 20.1 48.9 18.6 47 18.6 47 18.6 47 18.6 47 18.6 47" style="fill:#616161;opacity:0.2;mix-blend-mode:color-burn"/><polygon points="20.8 49.6 20.7 49.7 20.6 49.8 20 49 19.8 48.7 18.6 50.3 18.6 50.3 18.6 50.3 18.6 50.3 18.6 50.3 17.4 48.7 17.2 49 16.6 49.8 16.6 49.7 16.5 49.6 18.6 46.7 18.6 46.7 18.6 46.7 18.6 46.7 18.6 46.7 20.8 49.6" style="fill:#ffd675"/><polygon points="18.6 47.7 17.9 48.7 18.6 49.6 18.6 49.6 18.6 49.6 18.6 49.6 18.6 49.6 19.3 48.7 18.6 47.7 18.6 47.7 18.6 47.7 18.6 47.7 18.6 47.7" style="fill:#616161;opacity:0.2;mix-blend-mode:color-burn"/><path d="M17.6,46.7a1.6,1.6,0,0,0,1-.8,1.5,1.5,0,0,0,1.1.8,5,5,0,0,0,2-4.4,5.4,5.4,0,0,0-1.1-3.5h0a2.7,2.7,0,0,0-1.2-.9l-.8-.2h0l-.8.2a4.7,4.7,0,0,0-1.2.9h0a6.1,6.1,0,0,0-1.1,3.5A5.1,5.1,0,0,0,17.6,46.7Z" style="fill:#fdd8ab"/><path d="M20.9,42.6H21c0-.3-.3-.5-.7-.5s-.7.2-.7.5a.1.1,0,0,1,.1.1Z" style="fill:#333"/><path d="M16.3,42.6h0c0-.3.3-.5.7-.5a.6.6,0,0,1,.6.5H16.3Z" style="fill:#333"/><path d="M17.8,39.3h1.7a1.2,1.2,0,0,0-.9-.3h0C18.3,39,17.9,39.1,17.8,39.3Z" style="fill:#d66142"/><path d="M18.6,39.4c.4.4,1-.1,1-.1H17.7S18.2,39.8,18.6,39.4Z" style="fill:#d66b4f"/><polygon points="18.6 41.8 18.6 41.9 18.6 41.9 18.6 41.9 18.6 41.8 19.1 40.3 18.6 40.3 18.6 40.3 18.1 40.3 18.6 41.8" style="fill:#616161;opacity:0.2;mix-blend-mode:color-burn"/><polygon points="17.7 43.5 16.4 43.5 16.4 43.4 16.3 43.4 15.8 42.9 16.4 43.4 16.4 43.4 17.7 43.3 17.7 43.5" style="fill:#d66142"/><polygon points="19.5 43.3 20.8 43.4 20.7 43.4 21.3 42.9 20.8 43.4 20.8 43.4 20.8 43.5 19.5 43.5 19.5 43.3" style="fill:#d66142"/><path d="M20.7,32l.8.3h0a3.7,3.7,0,0,1,2.4,3.3c0,.5.1.5-.2,1H22.2Z" style="fill:#616161;opacity:0.2;mix-blend-mode:color-burn"/><path d="M17.7,37.8l.9-.2h.1l.8.2v-.6l-.8-.2h-.1l-.9.2v.6Z" style="fill:#616161;opacity:0.2;mix-blend-mode:color-burn"/><path d="M18.2,33.6h.9l-.3-2h-.4Z" style="fill:#616161;opacity:0.2;mix-blend-mode:color-burn"/><path d="M16.5,32l-.8.3h0a3.8,3.8,0,0,0-2.3,3.3c0,.5-.2.5.1,1h1.6Z" style="fill:#616161;opacity:0.2;mix-blend-mode:color-burn"/><path d="M18.6,29.5V51.8l-.4-.4-1.4-1.5h-.3l-5.4-5.4a19.8,19.8,0,0,1,2.2-3.5H12a5,5,0,0,1-1.2-3.1,4.3,4.3,0,0,1,.1-.5,3.9,3.9,0,0,1,.8-1.9l-.3-.3c0-.1-.1-.2-.2-.3a14.2,14.2,0,0,1-1.3-2.5l2.5-.8h.3a5.9,5.9,0,0,1,.5.8,6.9,6.9,0,0,0,.4-1l.7-.2,4.2-1.3Z" style="fill:#616161;opacity:0.2;mix-blend-mode:color-burn"/></g></g></svg>