<svg xmlns="http://www.w3.org/2000/svg" viewBox="0 0 39.8 55.7"><g style="isolation:isolate"><g id="e7786f80-d59a-47f0-9c21-dd58043720d9" data-name="Layer 1"><path d="M4.4,55.7A4.2,4.2,0,0,1,.1,51.5V4.2A4.2,4.2,0,0,1,4.3,0H35.5a4.2,4.2,0,0,1,4.3,4.2V51.5a4.2,4.2,0,0,1-4.2,4.2Z" style="fill:#c9c9c9"/><path d="M4.8,55.6A4.2,4.2,0,0,1,.6,51.4V4.2A4.2,4.2,0,0,1,4.8,0H35.6a4.2,4.2,0,0,1,4.2,4.2V51.4a4.2,4.2,0,0,1-4.2,4.2Z" style="fill:#fff"/><polygon points="27.7 4 23.5 9.3 27.7 14.5 31.8 9.3 27.7 4" style="fill:#d66142"/><polygon points="27.6 4 27.7 4 31.8 9.3 27.7 14.5 27.6 14.5 27.6 4" style="fill:#616161;opacity:0.2;mix-blend-mode:color-burn"/><polygon points="12.7 22.6 16.9 27.8 12.7 33.1 8.6 27.8 12.7 22.6" style="fill:#d66142"/><polygon points="12.7 22.6 12.7 22.6 8.6 27.8 12.7 33.1 12.7 33 12.7 22.6" style="fill:#616161;opacity:0.2;mix-blend-mode:color-burn"/><polygon points="12.7 41.1 16.9 46.4 12.7 51.6 8.6 46.4 12.7 41.1" style="fill:#d66142"/><polygon points="12.7 41.2 12.7 41.1 8.6 46.4 12.7 51.6 12.7 51.6 12.7 41.2" style="fill:#616161;opacity:0.2;mix-blend-mode:color-burn"/><polygon points="12.7 4 16.9 9.3 12.7 14.5 8.6 9.3 12.7 4" style="fill:#d66142"/><polygon points="12.7 4 12.7 4 8.6 9.3 12.7 14.5 12.7 14.5 12.7 4" style="fill:#616161;opacity:0.2;mix-blend-mode:color-burn"/><polygon points="27.7 22.6 23.5 27.8 27.7 33.1 31.8 27.8 27.7 22.6" style="fill:#d66142"/><polygon points="27.6 22.6 27.7 22.6 31.8 27.8 27.7 33.1 27.6 33 27.6 22.6" style="fill:#616161;opacity:0.2;mix-blend-mode:color-burn"/><polygon points="27.7 41.1 23.5 46.4 27.7 51.6 31.8 46.4 27.7 41.1" style="fill:#d66142"/><polygon points="27.6 41.2 27.7 41.1 31.8 46.4 27.7 51.6 27.6 51.6 27.6 41.2" style="fill:#616161;opacity:0.2;mix-blend-mode:color-burn"/><polygon points="3.9 12.7 2.7 11.1 3.9 9.6 5.1 11.1 3.9 12.7" style="fill:#d66142"/><polygon points="3.9 9.6 3.9 9.6 3.9 12.6 3.9 12.7 5.1 11.1 3.9 9.6" style="fill:#616161;opacity:0.2;mix-blend-mode:color-burn"/><path d="M5.5,6.4a1.6,1.6,0,0,1-.3.8,2.2,2.2,0,0,1-.6.7H3.8a1,1,0,0,1-.9-.4,1.3,1.3,0,0,1-.4-1,3.1,3.1,0,0,1,.2-.8,2.5,2.5,0,0,1,.4-.9l.4-.6L4,3.9l.4-.3h.2c.1,0,.1,0,.1.1l-.3.3-.5.6-.2.4-.2.4a.1.1,0,0,0,.1.1h0l.3-.2h.6a.9.9,0,0,1,.6.3A2.1,2.1,0,0,1,5.5,6.4Zm-.9.7a1.3,1.3,0,0,0-.3-.8l-.5-.4H3.5a1.3,1.3,0,0,0,.3.8.8.8,0,0,0,.7.4h.1Z" style="fill:#333"/><path d="M35.2,49.7a1.6,1.6,0,0,1,.3-.8,1.7,1.7,0,0,1,.6-.6l.3-.2h.4a1.4,1.4,0,0,1,1,.5,1.2,1.2,0,0,1,.3.9,2.9,2.9,0,0,1-.2.9l-.3.8-.5.6c0,.1-.2.2-.4.4l-.5.4H36c-.1,0-.1,0-.1-.1l.3-.3.5-.5c0-.1.1-.2.2-.4s.2-.4.2-.5H37l-.3.2-.5.2c-.2,0-.4-.1-.7-.4A1.7,1.7,0,0,1,35.2,49.7Zm.8-.6a1.1,1.1,0,0,0,.3.7.7.7,0,0,0,.6.4h.2c0-.1.1-.1.1-.2a1.1,1.1,0,0,0-.3-.7c-.3-.3-.5-.5-.8-.5h0C36,48.9,36,49,36,49.1Z" style="fill:#333"/><polygon points="36.8 43.5 38 45 36.8 46.5 35.6 45 36.8 43.5" style="fill:#d66142"/><polygon points="36.8 43.5 36.8 43.5 35.6 45 36.8 46.5 36.8 46.5 36.8 43.5" style="fill:#616161;opacity:0.2;mix-blend-mode:color-burn"/></g></g></svg>