<svg xmlns="http://www.w3.org/2000/svg" viewBox="0 0 39.8 55.7"><g style="isolation:isolate"><g id="fa7a2d1c-7a65-48a4-8ee2-a3d7801f8d5b" data-name="Layer 1"><path d="M4.4,55.7A4.2,4.2,0,0,1,.1,51.5L-.1,4.2A4.4,4.4,0,0,1,4.2.1H35.4a4.2,4.2,0,0,1,4.3,4.2V51.5a4.2,4.2,0,0,1-4.2,4.2Z" style="fill:#c9c9c9"/><path d="M4.7,55.6A4.2,4.2,0,0,1,.4,51.5V4.2A4.2,4.2,0,0,1,4.6,0H35.8A4.2,4.2,0,0,1,40,4.3V51.4a4.2,4.2,0,0,1-4.2,4.2Z" style="fill:#fff"/><path d="M35.5,54.7H4.7a3.2,3.2,0,0,1-3.2-3.2V4.4A3.2,3.2,0,0,1,4.7,1.1H35.5a3.3,3.3,0,0,1,3.3,3.3V51.5A3.2,3.2,0,0,1,35.5,54.7ZM4.7,2.4a1.9,1.9,0,0,0-1.9,2V51.5a1.8,1.8,0,0,0,1.9,1.9H35.5a1.9,1.9,0,0,0,2-1.9V4.4a2,2,0,0,0-2-2Z" style="fill:#333"/><path d="M7.5,7.7q0,.1-.3.3l-.7.4-1.1-2h0V8.2H4.1V3.7H5.4V6.3a.8.8,0,0,0,.5-.5.9.9,0,0,0,.3-.7.6.6,0,0,0-.1-.4c0-.1-.1-.2-.2-.3l.5-.3.5-.4.2.3c0,.2.1.3.1.4v.4l-.2.4c-.1.2-.2.4-.3.4L6.3,6Z" style="fill:#333"/><path d="M32.9,48.6l.3-.3.7-.4,1.1,2h0V48.1h1.3v4.5H35V50.1c-.2,0-.4.2-.6.4a2.5,2.5,0,0,0-.2.7c0,.2,0,.3.1.4s.1.2.1.3-.1.2-.4.4l-.5.4c0-.1-.1-.2-.2-.4s-.1-.3-.1-.4a2,2,0,0,1,.3-.8l.3-.4.3-.3Z" style="fill:#333"/><path d="M8,12.1c0-.5-2.2-2.6-2.2-2.6s-2.1,2.2-2.1,2.6A1.3,1.3,0,0,0,5,13.4a1,1,0,0,0,.7-.2l-.8,1.4H6.8L6,13.2a1,1,0,0,0,.7.2A1.3,1.3,0,0,0,8,12.1Z" style="fill:#333"/><path d="M8,12.1c0-.5-2.2-2.6-2.2-2.6h0v5.1h1L6,13.2a1,1,0,0,0,.7.2A1.3,1.3,0,0,0,8,12.1Z" style="fill:#616161;opacity:0.2;mix-blend-mode:color-burn"/><path d="M32.2,44.1c0,.5,2.2,2.6,2.2,2.6s2.1-2.2,2.1-2.6a1.3,1.3,0,0,0-1.3-1.3h-.7l.8-1.4h-2l.9,1.4-.7-.2A1.3,1.3,0,0,0,32.2,44.1Z" style="fill:#333"/><path d="M32.2,44.1c0,.5,2.2,2.6,2.2,2.6h0V41.5H33.3l.9,1.4-.7-.2A1.3,1.3,0,0,0,32.2,44.1Z" style="fill:#616161;opacity:0.2;mix-blend-mode:color-burn"/><path d="M31.5,17.9v-.3l-7-4-.5-.3H15.8l-.3.2h0a.5.5,0,0,1-.4.2H15l-.8.4-.3.2-.4.2-.3.2-4,2.3H9.1c-.2.1-.3.1-.3.2V30.2l4.9-1.5,1.1-.3,16.7-5Z" style="fill:#333"/><path d="M20.1,19.8l-2-3.6h4.1Zm-1.7-3.4,1.7,3,1.7-3Z" style="fill:#ffd675"/><path d="M17.3,13.3,9.8,17.6l-1,3.2v9.4l4.9-1.5,1.1-.3,3-9.8.4-1.3.6-1.2,1.3-2.8H17.3Z" style="fill:#616161;opacity:0.2;mix-blend-mode:color-burn"/><path d="M16.3,13.3h-.5l-.3.2h0l-.4.2H15l-.8.4-.3.2-.4.2-.3.2-1.5.9-.4.2L9.2,17.3H9.1c-.2.1-.3.1-.3.2V30.2l.8-.3h.5l3.6-1.1h0l.5-1.2c1.2-2.9,2.7-6.5,3.6-8.9l1-2.4h0l.2-2.8Z" style="fill:#ebebeb"/><path d="M31.5,21.4l-1.2-3.8-7.5-4.3H20.1l1.8,4,2.5,8.3,7.1-2.5Z" style="fill:#616161;opacity:0.2;mix-blend-mode:color-burn"/><path d="M31.5,17.9v-.3l-7.5-4.3H21.1l.3,2.9s3.2,6.7,4.4,8.9l5.7-1.7Z" style="fill:#ebebeb"/><polygon points="24.4 11.4 24.4 10.4 24.4 10.4 24.1 7.2 23 6.6 20.7 5.5 20.1 5.8 19.5 5.5 17.2 6.6 16.1 7.2 15.8 10.4 15.8 10.4 15.7 11.4 16 14.4 20.1 17.3 20.1 17.3 20.1 17.3 20.1 17.3 20.1 17.3 20.1 17.3 20.1 17.3 24.2 14.4 24.4 11.4" style="fill:#ebbe9f"/><path d="M20.1,13.3h1.4l-1.1-.6h-.7l-1,.6Z" style="fill:#ebbe9f"/><polygon points="20.9 11.3 20.4 9.3 20.1 9.3 20.1 9.3 19.8 9.3 19.3 11.3 19.8 11.9 20.1 11.9 20.1 11.9 20.1 11.9 20.1 11.9 20.1 11.9 20.4 11.9 20.9 11.3" style="fill:#616161;opacity:0.2;mix-blend-mode:color-burn"/><polygon points="20.7 8.8 22.5 8.6 22.5 8.6 22.5 8.6 23.4 9 22.4 8.8 22.5 8.8 20.8 9.3 20.7 8.8" style="fill:#9c9c9c"/><path d="M21.3,9.6v.2a.5.5,0,0,0,.5.5.6.6,0,0,0,.5-.5.3.3,0,0,0-.1-.2Z" style="fill:#333"/><polygon points="19.5 8.8 17.7 8.6 17.7 8.6 17.7 8.6 16.8 9 17.7 8.8 17.7 8.8 19.4 9.3 19.5 8.8" style="fill:#9c9c9c"/><path d="M18.9,9.6v.2a.5.5,0,0,1-1,0c0-.1,0-.2.1-.2Z" style="fill:#333"/><path d="M24.4,10.4h-.1l-.8-2.9L23,6.6l1.1.6.3,3.2Z" style="fill:#9c9c9c"/><path d="M15.8,10.4h.1l.8-2.9.5-.9-1.1.6-.3,3.2Z" style="fill:#9c9c9c"/><path d="M24.2,6.1V7.3a11.9,11.9,0,0,1-3.3.4h-5V6.3l4.2-2.2,1.1.6.7.3.7.3L24,6Z" style="fill:#ffd675"/><path d="M21.9,5l-4,2.6h-1l4.3-2.8Z" style="fill:#fff;opacity:0.2"/><path d="M24,6,20.9,7.7H18.8l3.8-2.4Z" style="fill:#fff;opacity:0.2"/><polygon points="11.9 21.6 11.8 22.5 12.3 21.7 11.9 21.6" style="fill:#333"/><polygon points="13.8 21.6 13.7 22.5 14.2 21.7 13.8 21.6" style="fill:#333"/><polygon points="15.7 21.6 15.6 22.5 16.1 21.7 15.7 21.6" style="fill:#333"/><polygon points="9.6 24.7 9.4 25.6 9.9 24.8 9.6 24.7" style="fill:#333"/><polygon points="11.5 24.7 11.3 25.6 11.8 24.8 11.5 24.7" style="fill:#333"/><polygon points="13.4 24.7 13.2 25.6 13.7 24.8 13.4 24.7" style="fill:#333"/><polygon points="10.1 27.8 10 28.8 10.5 27.9 10.1 27.8" style="fill:#333"/><polygon points="12 27.8 11.9 28.8 12.4 27.9 12 27.8" style="fill:#333"/><path d="M14.1,27.7l-.3.7h0v-.7Z" style="fill:#333"/><polygon points="15.3 16.1 15.1 17.1 15.6 16.3 15.3 16.1" style="fill:#333"/><polygon points="13.4 15.7 13.2 16.7 13.7 15.9 13.4 15.7" style="fill:#333"/><path d="M11.6,16.1l-.3.5v-.4Z" style="fill:#333"/><polygon points="10 29.8 9.8 29.8 9.8 29.7 10 29.8" style="fill:#333"/><polygon points="9.6 18.4 9.5 19.4 10 18.5 9.6 18.4" style="fill:#333"/><polygon points="11.7 18.4 11.6 19.4 12.1 18.5 11.7 18.4" style="fill:#333"/><polygon points="13.6 18.4 13.5 19.4 14 18.5 13.6 18.4" style="fill:#333"/><polygon points="15.5 18.4 15.4 19.4 15.9 18.5 15.5 18.4" style="fill:#333"/><polygon points="17.5 16.6 17.3 17.6 17.8 16.8 17.5 16.6" style="fill:#333"/><polygon points="9.8 21.6 9.7 22.5 10.2 21.7 9.8 21.6" style="fill:#333"/><polygon points="28.6 21.6 28.8 22.5 28.3 21.7 28.6 21.6" style="fill:#333"/><polygon points="26.7 21.6 26.9 22.5 26.4 21.7 26.7 21.6" style="fill:#333"/><polygon points="24.8 21.6 25 22.5 24.5 21.7 24.8 21.6" style="fill:#333"/><polygon points="25.3 16.1 25.5 17.1 25 16.3 25.3 16.1" style="fill:#333"/><polygon points="27.2 15.7 27.4 16.7 26.9 15.9 27.2 15.7" style="fill:#333"/><path d="M29,16.1l.3.5v-.4Z" style="fill:#333"/><polygon points="31 18.4 31.1 19.4 30.6 18.5 31 18.4" style="fill:#333"/><polygon points="28.9 18.4 29 19.4 28.5 18.5 28.9 18.4" style="fill:#333"/><polygon points="27 18.4 27.1 19.4 26.6 18.5 27 18.4" style="fill:#333"/><polygon points="25.1 18.4 25.2 19.4 24.7 18.5 25.1 18.4" style="fill:#333"/><polygon points="23.1 16.6 23.3 17.6 22.8 16.8 23.1 16.6" style="fill:#333"/><polygon points="30.8 21.6 30.9 22.5 30.4 21.7 30.8 21.6" style="fill:#333"/><path d="M17.8,14l.4-.3-1-1.6H23l-1,1.7.4.2a2.1,2.1,0,0,1,.7,1.4c0,.4,0,.8-2.4,2.8l-.6.4-.5-.4c-2.5-2-2.5-2.4-2.5-2.8A1.7,1.7,0,0,1,17.8,14Z" style="fill:#9c9c9c"/><polygon points="18.4 12.6 21.8 12.6 21.3 13.8 19 13.8 18.4 12.6" style="fill:#ebbe9f"/><rect x="19.3" y="13" width="1.8" height="0.35" style="fill:#616161;opacity:0.2;mix-blend-mode:color-burn"/><path d="M20.8,5.2a5.7,5.7,0,0,0-.7-.8,5.5,5.5,0,0,0-.6.8.4.4,0,0,0,.4.4h.2l-.3.4h.6l-.2-.4h.2A.4.4,0,0,0,20.8,5.2Z" style="fill:#333"/><path d="M22.4,22.1c0-.5-2.3-2.5-2.3-2.5s-2.2,2.1-2.2,2.5a1.3,1.3,0,0,0,1.3,1.5,1.3,1.3,0,0,0,.8-.3l-1,1.8h2.3l-.9-1.8a.9.9,0,0,0,.7.3A1.3,1.3,0,0,0,22.4,22.1Z" style="fill:#616161;opacity:0.2;mix-blend-mode:color-burn"/><path d="M22.2,22.1c0-.5-2.1-2.5-2.1-2.5a13.6,13.6,0,0,0-2,2.5,1.2,1.2,0,0,0,1.3,1.2H20l-.8,1.3h1.9l-.8-1.3H21A1.2,1.2,0,0,0,22.2,22.1Z" style="fill:#ffd675"/><path d="M20,24l.2-.3V24Zm-.2-1.2h-.4a.7.7,0,0,1-.8-.8l1.5-1.9,1.7,1.9a.9.9,0,0,1-.3.6l-.5.2H19.8Z" style="fill:#616161;opacity:0.2;mix-blend-mode:color-burn"/><path d="M31.4,17.6l-2.2-1.3h-.1l-4.7-2.6h-.1V10.4h0l-.3-3.1h.1V6.1H24l-1.4-.7L21.9,5l-.7-.3-1.1-.6H20V26.8l4.3-1.3h.1l2.4-.8,4.7-1.4V17.6Z" style="fill:#616161;opacity:0.2;mix-blend-mode:color-burn"/><path d="M8.8,37.9v.2l7.1,4,.5.3H24c.1,0,.1,0,.1-.1h.3a.5.5,0,0,1,.4-.2h0l.3-.2h.1l.8-.4a.5.5,0,0,1,.4-.2l.3-.2.3-.2,4-2.3a.1.1,0,0,0,.1-.1l.4-.2V25.5l-5,1.5-1.1.3-16.6,5Z" style="fill:#333"/><path d="M20.1,35.9l2.1,3.6H18Zm1.7,3.4-1.7-3-1.7,3Z" style="fill:#ffd675"/><path d="M22.9,42.4l7.5-4.3,1.1-3.2V25.5l-5,1.5-1.1.3-3,9.8L22,38.4l-.5,1.2-1.3,2.8h2.7Z" style="fill:#616161;opacity:0.2;mix-blend-mode:color-burn"/><path d="M24,42.4h0c.1,0,.1,0,.1-.1h.3a.5.5,0,0,1,.4-.2h0l.3-.2h.1l.8-.4a.5.5,0,0,1,.4-.2l.3-.2.3-.2,1.5-.9.4-.2L31,38.4a.1.1,0,0,0,.1-.1l.4-.2V25.5l-.9.3h-.5L26.6,27h-.1a6.1,6.1,0,0,1-.5,1.2l-3.6,8.9a25,25,0,0,0-.9,2.4h0l-.3,2.8Z" style="fill:#ebebeb"/><path d="M8.8,34.3l1.1,3.8,7.5,4.3h2.8l-1.9-4-2.4-8.3L8.8,32.6Z" style="fill:#616161;opacity:0.2;mix-blend-mode:color-burn"/><path d="M8.8,37.8v.3l7.6,4.3h2.7l-.2-2.9-4.4-8.9L8.8,32.3Z" style="fill:#ebebeb"/><polygon points="15.8 44.3 15.9 45.3 15.9 45.3 16.1 48.5 17.3 49.1 19.5 50.2 20.1 49.9 20.8 50.2 23 49.1 24.2 48.5 24.4 45.3 24.4 45.3 24.5 44.3 24.3 41.3 20.1 38.4 20.1 38.4 20.1 38.4 20.1 38.4 20.1 38.4 20.1 38.4 20.1 38.4 16 41.3 15.8 44.3" style="fill:#ebbe9f"/><path d="M20.1,42.4H18.8l1,.6h.7l1-.6Z" style="fill:#ebbe9f"/><polygon points="19.3 44.4 19.9 46.4 20.1 46.4 20.1 46.4 20.4 46.4 21 44.4 20.4 43.8 20.1 43.8 20.1 43.8 20.1 43.8 20.1 43.8 20.1 43.8 19.9 43.8 19.3 44.4" style="fill:#616161;opacity:0.2;mix-blend-mode:color-burn"/><polygon points="19.5 46.9 17.8 47.1 17.7 47.1 17.7 47.1 16.9 46.7 17.8 46.9 17.7 46.9 19.4 46.4 19.5 46.9" style="fill:#9c9c9c"/><path d="M18.9,46.1a.3.3,0,0,0,.1-.2.6.6,0,0,0-.5-.5.5.5,0,0,0-.5.5v.2Z" style="fill:#333"/><polygon points="20.7 46.9 22.5 47.1 22.5 47.1 22.6 47.1 23.4 46.7 22.5 46.9 22.5 46.9 20.8 46.4 20.7 46.9" style="fill:#9c9c9c"/><path d="M21.4,46.1c-.1,0-.1-.1-.1-.2a.5.5,0,0,1,1,0v.2Z" style="fill:#333"/><path d="M15.9,45.3h0l.8,2.9.6.9-1.2-.6-.2-3.2Z" style="fill:#9c9c9c"/><path d="M24.4,45.3h0l-.9,2.9-.5.9,1.2-.6.2-3.2Z" style="fill:#9c9c9c"/><path d="M16,49.6V48.4a12.4,12.4,0,0,1,3.3-.4,16.1,16.1,0,0,1,2.2,0h2.8v1.1l-4.1,2.2L19,51l-.7-.3-.6-.3-1.5-.7Z" style="fill:#ffd675"/><path d="M18.3,50.7l4.1-2.6h.9L19,51Z" style="fill:#fff;opacity:0.2"/><path d="M16.2,49.7,19.3,48a16.1,16.1,0,0,1,2.2,0l-3.8,2.4Z" style="fill:#fff;opacity:0.2"/><polygon points="28.3 34.1 28.4 33.2 27.9 34 28.3 34.1" style="fill:#333"/><polygon points="26.4 34.1 26.5 33.2 26 34 26.4 34.1" style="fill:#333"/><polygon points="24.5 34.1 24.6 33.2 24.1 34 24.5 34.1" style="fill:#333"/><polygon points="30.7 31 30.8 30.1 30.3 30.9 30.7 31" style="fill:#333"/><polygon points="28.8 31 28.9 30.1 28.4 30.9 28.8 31" style="fill:#333"/><polygon points="26.9 31 27 30.1 26.5 30.9 26.9 31" style="fill:#333"/><polygon points="30.1 27.9 30.2 26.9 29.7 27.8 30.1 27.9" style="fill:#333"/><polygon points="28.2 27.9 28.3 26.9 27.8 27.8 28.2 27.9" style="fill:#333"/><path d="M26.1,28l.3-.7h0V28Z" style="fill:#333"/><polygon points="25 39.6 25.1 38.6 24.6 39.5 25 39.6" style="fill:#333"/><polygon points="26.9 40 27 39 26.5 39.8 26.9 40" style="fill:#333"/><path d="M28.6,39.6l.3-.5v.4Z" style="fill:#333"/><polygon points="30.2 25.9 30.5 25.9 30.5 26 30.2 25.9" style="fill:#333"/><polygon points="30.6 37.3 30.8 36.3 30.3 37.2 30.6 37.3" style="fill:#333"/><polygon points="28.5 37.3 28.6 36.3 28.2 37.2 28.5 37.3" style="fill:#333"/><polygon points="26.6 37.3 26.7 36.3 26.3 37.2 26.6 37.3" style="fill:#333"/><polygon points="24.7 37.3 24.8 36.3 24.4 37.2 24.7 37.3" style="fill:#333"/><polygon points="22.8 39.1 22.9 38.1 22.4 38.9 22.8 39.1" style="fill:#333"/><polygon points="30.4 34.1 30.5 33.2 30.1 34 30.4 34.1" style="fill:#333"/><polygon points="11.6 34.1 11.4 33.2 11.9 34 11.6 34.1" style="fill:#333"/><polygon points="13.5 34.1 13.3 33.2 13.8 34 13.5 34.1" style="fill:#333"/><polygon points="15.4 34.1 15.2 33.2 15.7 34 15.4 34.1" style="fill:#333"/><polygon points="14.9 39.6 14.8 38.6 15.2 39.5 14.9 39.6" style="fill:#333"/><polygon points="13 40 12.9 39 13.3 39.8 13 40" style="fill:#333"/><path d="M11.2,39.6l-.2-.5v.4Z" style="fill:#333"/><polygon points="9.3 37.3 9.1 36.3 9.6 37.2 9.3 37.3" style="fill:#333"/><polygon points="11.4 37.3 11.2 36.3 11.7 37.2 11.4 37.3" style="fill:#333"/><polygon points="13.3 37.3 13.1 36.3 13.6 37.2 13.3 37.3" style="fill:#333"/><polygon points="15.2 37.3 15 36.3 15.5 37.2 15.2 37.3" style="fill:#333"/><polygon points="17.1 39.1 17 38.1 17.5 38.9 17.1 39.1" style="fill:#333"/><polygon points="9.5 34.1 9.3 33.2 9.8 34 9.5 34.1" style="fill:#333"/><path d="M20.1,37.1l.5.4c2.6,2,2.6,2.5,2.5,2.8a1.7,1.7,0,0,1-.7,1.4L22,42l1,1.6H17.3l1-1.6-.5-.3a2.1,2.1,0,0,1-.7-1.4c0-.4,0-.8,2.5-2.8Z" style="fill:#9c9c9c"/><polygon points="21.8 43.1 18.5 43.1 18.9 41.9 21.2 41.9 21.8 43.1" style="fill:#ebbe9f"/><rect x="19.2" y="42.3" width="1.8" height="0.35" style="fill:#616161;opacity:0.2;mix-blend-mode:color-burn"/><path d="M19.5,50.5a5.5,5.5,0,0,0,.6.8,5.7,5.7,0,0,0,.7-.8.4.4,0,0,0-.4-.4c-.1,0-.2,0-.2.1l.2-.5h-.6l.3.5h-.2A.4.4,0,0,0,19.5,50.5Z" style="fill:#333"/><path d="M17.8,33.6c0,.5,2.3,2.5,2.3,2.5a19.4,19.4,0,0,0,2.3-2.5A1.5,1.5,0,0,0,21,32.1a1.1,1.1,0,0,0-.7.3l1-1.8H18.9l1,1.8a1.1,1.1,0,0,0-.8-.3A1.3,1.3,0,0,0,17.8,33.6Z" style="fill:#616161;opacity:0.2;mix-blend-mode:color-burn"/><path d="M18,33.6c0,.5,2.1,2.5,2.1,2.5a13.6,13.6,0,0,0,2-2.5,1.2,1.2,0,0,0-1.2-1.2h-.7l.8-1.3H19.1l.8,1.3h-.6A1.2,1.2,0,0,0,18,33.6Z" style="fill:#ffd675"/><path d="M20.3,31.7l-.2.3-.2-.3Zm.2,1.2h.4c.4,0,.7.3.8.8l-1.6,1.9a12.8,12.8,0,0,1-1.6-1.9,1.4,1.4,0,0,1,.2-.6l.6-.2h1.2Z" style="fill:#616161;opacity:0.2;mix-blend-mode:color-burn"/><path d="M8.8,38.1,11,39.4h.2l4.7,2.6c0,.1,0,.1.1.1l-.2,2.1v1h0l.2,3.1H16v1.2h.2l1.5.7.6.3.7.3,1.2.6h0V28.9l-4.3,1.3h0l-2.5.8L8.8,32.3v5.8Z" style="fill:#616161;opacity:0.2;mix-blend-mode:color-burn"/></g></g></svg>