<svg xmlns="http://www.w3.org/2000/svg" viewBox="0 0 39.8 55.7"><g style="isolation:isolate"><g id="a4056235-820d-4073-9945-1e58e1561541" data-name="Layer 1"><path d="M4.4,55.7A4.2,4.2,0,0,1,.1,51.5V4.2A4.2,4.2,0,0,1,4.3,0H35.5a4.2,4.2,0,0,1,4.3,4.2V51.5a4.2,4.2,0,0,1-4.3,4.2Z" style="fill:#c9c9c9"/><path d="M4.8,55.6A4.2,4.2,0,0,1,.6,51.4V4.2A4.2,4.2,0,0,1,4.8,0H35.6a4.2,4.2,0,0,1,4.2,4.2V51.4a4.2,4.2,0,0,1-4.2,4.2Z" style="fill:#fff"/><path d="M5.5,6.4a.8.8,0,0,1-.1.4l-.5.6c-.3.3-.4.4-.4.5H3.9A1.4,1.4,0,0,1,3,7.7a.9.9,0,0,1-.3-.6c0-.2.1-.3.2-.5A2.1,2.1,0,0,0,3.3,6l-.2-.3a.5.5,0,0,1-.2-.4c0-.2.1-.3.2-.5l.4-.5L4,3.7h.4l.7.2c.2.1.2.3.2.6a1.1,1.1,0,0,1-.3.7.9.9,0,0,0-.3.5l.6.4A.8.8,0,0,1,5.5,6.4Zm-.8.5c0-.1-.1-.2-.4-.4l-.6-.3v.4a.9.9,0,0,0,.3.5l.6.2h.2A.4.4,0,0,0,4.7,6.9ZM4.5,5l-.2-.3-.4-.2H3.7c0,.2.1.3.3.5l.3.2V5Z" style="fill:#333"/><path d="M35.1,49.7a1,1,0,0,0,.1-.3c.2-.2.3-.5.6-.7a1.2,1.2,0,0,1,.4-.4.8.8,0,0,1,.6-.2.9.9,0,0,1,.8.4.9.9,0,0,1,.3.6,1.7,1.7,0,0,1-.2.5l-.4.5.3.3c0,.2.1.3.1.4a1.4,1.4,0,0,1-.2.6l-.3.4a1.7,1.7,0,0,1-.6.6l-.4.2a.6.6,0,0,1-.6-.3.5.5,0,0,1-.3-.5.9.9,0,0,1,.3-.7c.2-.3.3-.4.3-.5l-.5-.4C35.2,50,35.1,49.9,35.1,49.7Zm.8-.5.5.5.5.2a.1.1,0,0,0,.1-.1.3.3,0,0,0,.1-.2.5.5,0,0,0-.3-.5l-.5-.2H36C35.9,49.1,35.9,49.1,35.9,49.2Zm.2,1.9a.8.8,0,0,0,.2.4h.6c.1-.1.1-.1.1-.2a.5.5,0,0,0-.3-.4l-.4-.2a.1.1,0,0,0-.1.1A.3.3,0,0,1,36.1,51.1Z" style="fill:#333"/><path d="M31.9,9.4c0-1-4.3-5.3-4.3-5.3s-4.3,4.4-4.3,5.3A2.6,2.6,0,0,0,25.9,12a2.3,2.3,0,0,0,1.4-.4l-1.7,2.8h4L28,11.6a2,2,0,0,0,1.3.4A2.6,2.6,0,0,0,31.9,9.4Z" style="fill:#333"/><path d="M31.9,9.4c0-1-4.3-5.3-4.3-5.3h-.1V14.4h2.1L28,11.6a2,2,0,0,0,1.3.4A2.6,2.6,0,0,0,31.9,9.4Z" style="fill:#616161;opacity:0.2;mix-blend-mode:color-burn"/><path d="M31.9,21.8c0-1-4.3-5.3-4.3-5.3s-4.3,4.4-4.3,5.2a2.7,2.7,0,0,0,2.6,2.7,3.3,3.3,0,0,0,1.4-.4l-1.7,2.8h4L28,24a2.8,2.8,0,0,0,1.3.4A2.6,2.6,0,0,0,31.9,21.8Z" style="fill:#333"/><path d="M31.9,21.8c0-1-4.3-5.3-4.3-5.3h-.1V26.8h2.1L28,24a2.8,2.8,0,0,0,1.3.4A2.6,2.6,0,0,0,31.9,21.8Z" style="fill:#616161;opacity:0.2;mix-blend-mode:color-burn"/><path d="M8.5,9.4c0-1,4.3-5.3,4.3-5.3s4.3,4.4,4.3,5.3A2.6,2.6,0,0,1,14.5,12a2.3,2.3,0,0,1-1.4-.4l1.7,2.8h-4l1.6-2.8a2,2,0,0,1-1.3.4A2.6,2.6,0,0,1,8.5,9.4Z" style="fill:#333"/><path d="M8.5,9.4c0-1,4.3-5.3,4.3-5.3h0V14.4h-2l1.6-2.8a2,2,0,0,1-1.3.4A2.6,2.6,0,0,1,8.5,9.4Z" style="fill:#616161;opacity:0.2;mix-blend-mode:color-burn"/><path d="M8.5,21.8c0-1,4.3-5.3,4.3-5.3s4.3,4.4,4.3,5.2a2.7,2.7,0,0,1-2.6,2.7,3.3,3.3,0,0,1-1.4-.4l1.7,2.8h-4L12.4,24a2.8,2.8,0,0,1-1.3.4A2.6,2.6,0,0,1,8.5,21.8Z" style="fill:#333"/><path d="M8.5,21.8c0-1,4.3-5.3,4.3-5.3h0V26.8h-2L12.4,24a2.8,2.8,0,0,1-1.3.4A2.6,2.6,0,0,1,8.5,21.8Z" style="fill:#616161;opacity:0.2;mix-blend-mode:color-burn"/><path d="M31.9,46.4c0,1-4.4,5.3-4.4,5.3s-4.2-4.4-4.2-5.3a2.6,2.6,0,0,1,2.6-2.6,2.8,2.8,0,0,1,1.3.4l-1.6-2.8h4l-1.7,2.8a3.3,3.3,0,0,1,1.4-.4A2.6,2.6,0,0,1,31.9,46.4Z" style="fill:#333"/><path d="M31.9,46.4c0,1-4.4,5.3-4.4,5.3h0V41.4h2.1l-1.7,2.8a3.3,3.3,0,0,1,1.4-.4A2.6,2.6,0,0,1,31.9,46.4Z" style="fill:#616161;opacity:0.2;mix-blend-mode:color-burn"/><path d="M31.9,34.1c0,1-4.4,5.3-4.4,5.3s-4.2-4.5-4.2-5.3a2.5,2.5,0,0,1,2.6-2.6,2.8,2.8,0,0,1,1.3.3l-1.6-2.7h4l-1.7,2.8a3.2,3.2,0,0,1,1.4-.3A2.6,2.6,0,0,1,31.9,34.1Z" style="fill:#333"/><path d="M31.9,34.1c0,1-4.4,5.3-4.4,5.3h0V29.1h2.1l-1.7,2.8a3.2,3.2,0,0,1,1.4-.3A2.6,2.6,0,0,1,31.9,34.1Z" style="fill:#616161;opacity:0.2;mix-blend-mode:color-burn"/><path d="M8.5,46.4c-.1,1,4.3,5.3,4.3,5.3s4.3-4.4,4.3-5.3a2.6,2.6,0,0,0-2.6-2.6,3.3,3.3,0,0,0-1.4.4l1.7-2.8h-4l1.6,2.8a2.8,2.8,0,0,0-1.3-.4A2.6,2.6,0,0,0,8.5,46.4Z" style="fill:#333"/><path d="M8.5,46.4c-.1,1,4.3,5.3,4.3,5.3h0V41.4h-2l1.6,2.8a2.8,2.8,0,0,0-1.3-.4A2.6,2.6,0,0,0,8.5,46.4Z" style="fill:#616161;opacity:0.2;mix-blend-mode:color-burn"/><path d="M8.5,34.1c-.1,1,4.3,5.3,4.3,5.3s4.3-4.5,4.3-5.3a2.6,2.6,0,0,0-2.6-2.6,3.2,3.2,0,0,0-1.4.3l1.7-2.7h-4l1.6,2.8a2.8,2.8,0,0,0-1.3-.3A2.5,2.5,0,0,0,8.5,34.1Z" style="fill:#333"/><path d="M8.5,34.1c-.1,1,4.3,5.3,4.3,5.3h0V29.1h-2l1.6,2.8a2.8,2.8,0,0,0-1.3-.3A2.5,2.5,0,0,0,8.5,34.1Z" style="fill:#616161;opacity:0.2;mix-blend-mode:color-burn"/><path d="M5.2,11.3c0-.3-1.1-1.4-1.1-1.4a8.7,8.7,0,0,0-1.2,1.4.8.8,0,0,0,.7.7H4l-.4.7h1l-.4-.7h.3A.7.7,0,0,0,5.2,11.3Z" style="fill:#333"/><path d="M5.2,11.3c0-.3-1.1-1.4-1.1-1.4h0v2.7h.5l-.4-.7h.3A.7.7,0,0,0,5.2,11.3Z" style="fill:#616161;opacity:0.2;mix-blend-mode:color-burn"/><path d="M35.6,45a8.7,8.7,0,0,0,1.2,1.4A8.5,8.5,0,0,0,37.9,45a.7.7,0,0,0-.7-.7h-.3l.4-.8H36.2l.5.8h-.4A.7.7,0,0,0,35.6,45Z" style="fill:#333"/><path d="M35.6,45a8.7,8.7,0,0,0,1.2,1.4h0V43.6h-.6l.5.8h-.4A.7.7,0,0,0,35.6,45Z" style="fill:#616161;opacity:0.2;mix-blend-mode:color-burn"/></g></g></svg>