<svg xmlns="http://www.w3.org/2000/svg" viewBox="0 0 39.8 55.7"><g style="isolation:isolate"><g id="aa6aab91-28ca-47e1-9f3b-619a3c17ea5e" data-name="Layer 1"><path d="M4.4,55.7A4.3,4.3,0,0,1,.1,51.5V4.3A4.2,4.2,0,0,1,4.3.1H35.5a4.2,4.2,0,0,1,4.2,4.2V51.5a4.2,4.2,0,0,1-4.2,4.2Z" style="fill:#c9c9c9"/><rect x="0.4" y="0.1" width="39.2" height="55.5" rx="4.2" style="fill:#fff"/><path d="M35.5,54.7H4.8a3.3,3.3,0,0,1-3.3-3.3V4.3A4.2,4.2,0,0,1,3.6.9h31c3.1.2,4.2,1.9,4.2,3.4V51.4A3.3,3.3,0,0,1,35.5,54.7ZM4,2.2A3,3,0,0,0,2.8,4.3V51.4a2,2,0,0,0,2,2H35.5a2,2,0,0,0,2-2V4.3c0-1.2-1.1-2-2.9-2.1Z" style="fill:#333"/><path d="M7.6,5.9a1.9,1.9,0,0,1-.2.7.9.9,0,0,1-.4.6l-.2.3-.6.4H5.9l.4.2.6.3h0L6.7,9H6.6l-.5-.3-.6-.3-.4.2H4.9l.2-.2.2-.2-.6-.4-.6-.6-.3-.5c0-.3-.1-.5-.1-.7a1.9,1.9,0,0,1,.2-.8l.5-.5L5,4.2c.4-.4.6-.5.7-.5s.2,0,.4.2l.9.7a2.1,2.1,0,0,1,.4.6A1.9,1.9,0,0,1,7.6,5.9Zm-1.1.6a1.3,1.3,0,0,0-.1-.6l-.3-.7-.6-.5-.4-.3-.3.3c-.1.3-.2.4-.2.5a1.4,1.4,0,0,0,.3.9,3.5,3.5,0,0,0,.5.8l.8.7A1.6,1.6,0,0,0,6.5,7Z" style="fill:#333"/><path d="M32.9,50.4a1.9,1.9,0,0,1,.2-.7,1.6,1.6,0,0,1,.3-.6l.3-.3.6-.4h.3c0-.1-.1-.1-.4-.3l-.6-.2h-.4a.1.1,0,0,0,.1-.1c.1,0,.2,0,.2-.1l.3-.2h.1l.5.3a.9.9,0,0,0,.6.3l.3-.2h.3l-.2.2-.3.2.7.4c.2.2.4.3.5.6a1,1,0,0,1,.4.5c0,.2.1.5.1.7a1.9,1.9,0,0,1-.2.8l-.5.5-.6.5a2.1,2.1,0,0,1-.7.5l-.5-.2-.8-.7c-.2-.2-.4-.4-.4-.6A1.9,1.9,0,0,1,32.9,50.4Zm1-.6a1.4,1.4,0,0,0,.2.6,1.5,1.5,0,0,0,.3.7l.6.5.4.3c.1,0,.2-.1.3-.4a.8.8,0,0,0,.1-.4c0-.4,0-.7-.2-.9a3.5,3.5,0,0,0-.5-.8l-.8-.7-.3.6A4.3,4.3,0,0,1,33.9,49.8Z" style="fill:#333"/><polygon points="26.1 15.8 26.1 16.7 26 17.2 25.9 19.4 25.9 19.9 25.8 20.6 25.8 20.6 25.8 21.2 25.3 21.2 25 21.2 24.5 21.2 24.3 21.2 23.9 21.3 23.3 21.3 22.7 21.3 19.5 21.3 19.5 21.3 16.4 21.3 15.8 21.3 15.2 21.3 14.8 21.2 14.5 21.2 14.3 21.2 14.1 21.2 13.8 21.2 13.3 21.2 13.3 20.6 13.3 20.6 13.2 19.9 13.2 19.4 13 17.2 13 16.7 12.9 15.8 26.1 15.8" style="fill:#c9c9c9"/><path d="M25.5,15.8c-.9,1.4-2.3,2.8-3.9,2.8h0a2.6,2.6,0,0,1-1.1,1h-1V15.8Z" style="fill:#616161;opacity:0.2;mix-blend-mode:color-burn"/><path d="M28.3,24.4l-2.5.8h-.4l-.4-.7h0a1.2,1.2,0,0,0-.4.9l-.7.2L19.5,27l-2.7.8-.9.3a.4.4,0,0,0-.1-.3c-1.6-.7-.8-1.8-1.6-3.1s-.1-.1-.1-.2a14.4,14.4,0,0,0-2.2,4.8h-.2l-1.7.5H9.9a14.4,14.4,0,0,1,2.2-8l.3-.3c0-.1.1-.2.2-.3h0v-.2h.2c.1-.2.3-.3.4-.4h0c0-.1,0-.1.1-.1h.1c.1,0,.1,0,.1-.1l.3-.2H25.1l.3.2h.2a7961314590657.2,7961314590657.2,0,0,0,.2.2H26c0,.1.1.2.2.3a.1.1,0,0,1,.1.1h0c.1.1.1.2.2.2h0l.2.3.2.3A11.7,11.7,0,0,1,28.3,24.4Z" style="fill:#fdd8ab"/><path d="M19.5,22.8h.6l-.2,2.1h-.4Z" style="fill:#616161;opacity:0.2;mix-blend-mode:color-burn"/><path d="M19.5,15.8h-6c1,1.4,2.4,2.8,3.9,2.8h.1a2.4,2.4,0,0,0,2,1.1h0Z" style="fill:#616161;opacity:0.2;mix-blend-mode:color-burn"/><path d="M19.5,22.8H19l.2,2.1h.3Z" style="fill:#616161;opacity:0.2;mix-blend-mode:color-burn"/><path d="M17.5,24.5c-3-.6-4.5-1.6-5.4-2.6a9.5,9.5,0,0,1,1.5-1.7Z" style="fill:#616161;opacity:0.2;mix-blend-mode:color-burn"/><path d="M19.5,18.9h0l-.8-.2v.6l.9.2h0Z" style="fill:#fdd8ab"/><path d="M19.5,18.1h0a.8.8,0,0,0-.8.7l.8.2h0Z" style="fill:#fdd8ab"/><path d="M24.6,19.9H20.5v-.5l-.9.2h-.1l-.9-.2v.5H14.4c-.2.5-.1.5-.1,1.1a3.7,3.7,0,0,0,2.3,3.2h0l.9.3,1.7.4h.7l1.7-.4.8-.3h0A3.7,3.7,0,0,0,24.8,21C24.8,20.4,24.9,20.4,24.6,19.9Z" style="fill:#fdd8ab"/><path d="M17.5,24.5l-.9-.3h0A3.7,3.7,0,0,1,14.3,21c0-.6-.1-.6.1-1.1H16Z" style="fill:#616161;opacity:0.2;mix-blend-mode:color-burn"/><path d="M21.6,24.5l.8-.3h0A3.7,3.7,0,0,0,24.8,21c0-.6.1-.6-.2-1.1H23.1Z" style="fill:#616161;opacity:0.2;mix-blend-mode:color-burn"/><path d="M19.5,18.9h.1l.8-.2a.3.3,0,0,0,.1.2v.4l-.9.2h-.1Z" style="fill:#fdd8ab"/><path d="M19.5,18.1a.1.1,0,0,1,.1-.1.8.8,0,0,1,.8.7l-.8.2h-.1Z" style="fill:#fdd8ab"/><path d="M26.9,21.9c-.8,1-2.4,2-5.3,2.6l1.6-1.8h.1l1.2-1.4.3-.3.6-.7h.2a7961314590657.2,7961314590657.2,0,0,0,.2.2H26c0,.1.1.2.2.3a.1.1,0,0,1,.1.1h0c.1.1.1.2.2.2h0l.2.3Z" style="fill:#616161;opacity:0.2;mix-blend-mode:color-burn"/><path d="M27.3,18.9v.6a3.6,3.6,0,0,1-.8,1.8h0a7.2,7.2,0,0,1-2,1.8h-.2a6.7,6.7,0,0,1-1.9,1h-.2l-.4.2h-.2l1.7-3.2.6-1.2v-.2l2.1-4.1A5,5,0,0,1,27.3,18.9Z" style="fill:#ebebeb"/><path d="M17.5,24.5a11.3,11.3,0,0,1-2.7-1.3h-.2a5.5,5.5,0,0,1-2.8-3.6v-.6a5.2,5.2,0,0,1,1.1-3.1Z" style="fill:#ebebeb"/><polygon points="13.7 21 14.2 21.7 13.9 20.9 13.7 21" style="fill:#333"/><polygon points="15.5 22.8 16.1 23.5 15.8 22.6 15.5 22.8" style="fill:#333"/><polygon points="12.7 16.7 13.2 17.4 13 16.5 12.7 16.7" style="fill:#333"/><polygon points="13.4 18.2 13.9 18.9 13.7 18 13.4 18.2" style="fill:#333"/><polygon points="14.1 19.7 14.6 20.4 14.4 19.6 14.1 19.7" style="fill:#333"/><polygon points="14.8 21.2 15.4 22 15.1 21.1 14.8 21.2" style="fill:#333"/><path d="M14.8,23.2h-.2l-.3-.4h.3Z" style="fill:#333"/><polygon points="12.2 18 12.8 18.7 12.5 17.8 12.2 18" style="fill:#333"/><polygon points="12.9 19.5 13.5 20.2 13.2 19.3 12.9 19.5" style="fill:#333"/><path d="M12,19.8l-.2-.3v-.6h0Z" style="fill:#333"/><polygon points="12.5 20.8 13.1 21.6 12.8 20.7 12.5 20.8" style="fill:#333"/><polygon points="25.4 21 24.9 21.7 25.1 20.9 25.4 21" style="fill:#333"/><polygon points="23.5 22.8 23 23.5 23.2 22.6 23.5 22.8" style="fill:#333"/><polygon points="26.4 16.7 25.9 17.4 26.1 16.5 26.4 16.7" style="fill:#333"/><polygon points="25.7 18.2 25.2 18.9 25.4 18 25.7 18.2" style="fill:#333"/><polygon points="25 19.7 24.4 20.4 24.7 19.6 25 19.7" style="fill:#333"/><polygon points="24.3 21.2 23.7 22 24 21.1 24.3 21.2" style="fill:#333"/><path d="M24.3,23.2h.2l.3-.4h-.3Z" style="fill:#333"/><polygon points="26.9 18 26.3 18.7 26.6 17.8 26.9 18" style="fill:#333"/><polygon points="26.1 19.5 25.6 20.2 25.8 19.3 26.1 19.5" style="fill:#333"/><path d="M27.3,18.9v.6l-.3.3.3-.9Z" style="fill:#333"/><polygon points="26.5 20.8 26 21.6 26.2 20.7 26.5 20.8" style="fill:#333"/><path d="M22.4,17.5a4.6,4.6,0,0,1-2.3-.6l.8,1.2.4.6.8,1.4L25,24.6a1.2,1.2,0,0,0-.4.9l-.7.2L19.5,27l-2.7.8-.9.3a.4.4,0,0,0-.1-.3c-1.6-.7-.8-1.8-1.6-3.1L17,20.1l.8-1.4.3-.4.8-1.4a4,4,0,0,1-2.2.6,4.4,4.4,0,0,1-4.4-4.4c0-1.4,7.1-8.9,7.1-8.9s7.4,7.2,7.4,8.9A4.4,4.4,0,0,1,22.4,17.5Z" style="fill:#333"/><path d="M16.8,27.8l-.9.3a.4.4,0,0,0-.1-.3c-1.6-.7-.8-1.8-1.7-3.3a15.5,15.5,0,0,0-2.2,4.8h-.2c-.4-2.1,2.6-5.5,2.6-5.5S15.7,27.3,16.8,27.8Z" style="fill:#616161;opacity:0.2;mix-blend-mode:color-burn"/><path d="M25.7,25.2h-.3l-.4-.7h0a2.6,2.6,0,0,0-.4,1l-.7.2a12,12,0,0,0,.8-1.8A8,8,0,0,1,25.7,25.2Z" style="fill:#616161;opacity:0.2;mix-blend-mode:color-burn"/><path d="M21.3,18.7l-.8.6-.9.2h-.1l-.9-.2-.8-.6.3-.4,1.4.6h.1a4.1,4.1,0,0,0,1.3-.8Z" style="fill:#616161;opacity:0.2;mix-blend-mode:color-burn"/><path d="M20.6,9.9a1.2,1.2,0,0,0-1.1.7,1.2,1.2,0,0,0-1-.7c-1.2.6-2,2.3-2,4.3a6.6,6.6,0,0,0,1,3.6h.1a3.1,3.1,0,0,0,1.1.9l.8.2h0l.8-.2a2.7,2.7,0,0,0,1.2-.9h0a5.9,5.9,0,0,0,1.1-3.6C22.6,12.2,21.8,10.5,20.6,9.9Z" style="fill:#fdd8ab"/><path d="M21.7,9.5c0-.5-2.2-2.6-2.2-2.6s-2.1,2.2-2.1,2.6a1.3,1.3,0,0,0,1.3,1.3,1,1,0,0,0,.7-.2h.3a.8.8,0,0,0,.7.2A1.3,1.3,0,0,0,21.7,9.5Z" style="fill:#333"/><path d="M17.2,13.9v.2c0,.2.3.4.7.4s.6-.2.6-.4v-.2Z" style="fill:#333"/><path d="M21.8,13.9v.2c0,.2-.3.4-.7.4s-.6-.2-.6-.4v-.2Z" style="fill:#333"/><path d="M20.4,17.2H18.7a1.2,1.2,0,0,0,.8.4h0A1.3,1.3,0,0,0,20.4,17.2Z" style="fill:#454545"/><path d="M19.5,17.1c-.4-.4-.9.2-.9.2h1.9S19.9,16.7,19.5,17.1Z" style="fill:#333"/><polygon points="19.5 14.7 19.5 14.7 19.5 14.7 19.5 14.7 19.5 14.7 19 16.3 19.5 16.3 19.5 16.3 20 16.3 19.5 14.7" style="fill:#616161;opacity:0.2;mix-blend-mode:color-burn"/><polygon points="20.5 13 21.8 13.1 21.8 13.1 21.8 13.1 22.3 13.7 21.8 13.1 21.8 13.2 20.5 13.2 20.5 13" style="fill:#333"/><polygon points="18.7 13.2 17.4 13.2 17.4 13.1 16.9 13.7 17.4 13.1 17.4 13.1 17.4 13.1 18.7 13 18.7 13.2" style="fill:#333"/><path d="M20.4,9.9h0Z" style="fill:#616161;opacity:0.2;mix-blend-mode:color-burn"/><path d="M20,10.1Z" style="fill:#616161;opacity:0.2;mix-blend-mode:color-burn"/><path d="M20.1,10h0Z" style="fill:#616161;opacity:0.2;mix-blend-mode:color-burn"/><path d="M20.3,9.9Z" style="fill:#616161;opacity:0.2;mix-blend-mode:color-burn"/><path d="M16.5,15.8c0-.2-1.1-1.3-1.1-1.3a7.3,7.3,0,0,0-1,1.3.7.7,0,0,0,.6.7h.4l-.4.7h.9l-.4-.7h.4A.7.7,0,0,0,16.5,15.8Z" style="fill:#ffd675"/><path d="M15.3,16.9l.2-.2v.2Zm0-.7h-.6c-.1-.1-.1-.2-.1-.4a7.8,7.8,0,0,1,.8-1c.5.5.9.9.9,1.1a.4.4,0,0,1-.1.3h-.3c-.1,0-.2,0-.2-.1Z" style="fill:#616161;opacity:0.2;mix-blend-mode:color-burn"/><path d="M24.8,15.8c0-.2-1.1-1.3-1.1-1.3s-1.1,1.1-1.1,1.3a.7.7,0,0,0,.7.7h.3l-.4.7h1l-.4-.7h.3A.7.7,0,0,0,24.8,15.8Z" style="fill:#ffd675"/><path d="M23.6,16.9v0Zm-.1-.7H23a.5.5,0,0,1-.2-.4l.9-1,.9,1.1v.3h-1Z" style="fill:#616161;opacity:0.2;mix-blend-mode:color-burn"/><path d="M26.9,21.9l-.2-.3a.1.1,0,0,0-.1-.1c0-.1-.1-.1-.1-.2h0a3.6,3.6,0,0,0,.8-1.8v-.6a5,5,0,0,0-1.2-3.1h-.2a4.8,4.8,0,0,0,.9-2.7c0-1.7-7.3-8.8-7.3-8.9V27.1h0l4.4-1.3h.7l.4-.8h0l.4.7h.4l2.5-.8A11.7,11.7,0,0,0,26.9,21.9Z" style="fill:#616161;opacity:0.2;mix-blend-mode:color-burn"/><polygon points="12 40.6 12.1 39.8 12.1 39.3 12.3 37.1 12.3 36.6 12.4 35.9 12.4 35.9 12.4 35.2 12.9 35.2 13.1 35.2 13.6 35.2 13.9 35.2 14.3 35.2 14.8 35.2 15.5 35.2 18.6 35.1 18.6 35.1 21.8 35.2 22.4 35.2 23 35.2 23.3 35.2 23.6 35.2 23.9 35.2 24.1 35.2 24.4 35.2 24.9 35.2 24.9 35.9 24.9 35.9 24.9 36.6 25 37.1 25.1 39.3 25.2 39.8 25.2 40.6 12 40.6" style="fill:#c9c9c9"/><path d="M12.6,40.6c1-1.4,2.4-2.8,3.9-2.8h.1a3.1,3.1,0,0,1,1.1-.9l.9-.2h0v3.9Z" style="fill:#616161;opacity:0.2;mix-blend-mode:color-burn"/><path d="M9.9,32l2.5-.7h.3c.2.3.4.5.4.6h.1a6.9,6.9,0,0,0,.4-1l.7-.2,4.3-1.3,2.7-.8.9-.3c.1.1.1.2.2.4s.8,1.7,1.6,3.1h.1a14.9,14.9,0,0,0,2.1-4.8h.3l1.7-.6h.1a13.3,13.3,0,0,1-2.3,8c0,.1-.1.2-.2.3l-.2.3h0l-.2.2c0,.1-.1.1-.1.2l-.4.4h0a.1.1,0,0,0-.1.1h-.3a.4.4,0,0,1-.3.2H13l-.3-.2a39806572953270,39806572953270,0,0,1-.2-.2h-.3l-.2-.2c-.1-.1-.1-.1-.1-.2h-.1c0-.1-.1-.1-.1-.2h0c-.1-.1-.2-.2-.2-.3l-.3-.3A14.2,14.2,0,0,1,9.9,32Z" style="fill:#fdd8ab"/><path d="M18.6,33.6h-.5l.2-2h.3Z" style="fill:#616161;opacity:0.2;mix-blend-mode:color-burn"/><path d="M18.6,40.6h6c-1-1.4-2.3-2.8-3.9-2.8h0a2.4,2.4,0,0,0-2-1.1h-.1Z" style="fill:#616161;opacity:0.2;mix-blend-mode:color-burn"/><path d="M18.6,33.6h.6l-.3-2h-.3Z" style="fill:#616161;opacity:0.2;mix-blend-mode:color-burn"/><path d="M20.7,31.9c2.9.6,4.5,1.6,5.3,2.6a9.5,9.5,0,0,1-1.5,1.7Z" style="fill:#616161;opacity:0.2;mix-blend-mode:color-burn"/><path d="M18.6,37.5h.1l.8.2v-.6l-.8-.2a.1.1,0,0,1-.1.1Z" style="fill:#fdd8ab"/><path d="M18.6,38.4h.1a.8.8,0,0,0,.8-.7l-.8-.2h-.1Z" style="fill:#fdd8ab"/><path d="M13.5,36.5h4.2v.5l.9-.2h.1l.8.2v-.5h4.2c.3-.4.2-.5.2-1a3.7,3.7,0,0,0-2.4-3.3h0l-.8-.3a4.8,4.8,0,0,0-1.8-.3h-.6a5.7,5.7,0,0,0-1.8.3l-.8.3h0a3.8,3.8,0,0,0-2.3,3.3C13.4,36,13.3,36.1,13.5,36.5Z" style="fill:#fdd8ab"/><path d="M20.7,31.9l.8.3h0a3.7,3.7,0,0,1,2.4,3.3c0,.5.1.6-.2,1H22.2Z" style="fill:#616161;opacity:0.2;mix-blend-mode:color-burn"/><path d="M16.5,31.9l-.8.3h0a3.8,3.8,0,0,0-2.3,3.3c0,.5-.1.6.1,1h1.6Z" style="fill:#616161;opacity:0.2;mix-blend-mode:color-burn"/><path d="M18.6,37.5h0l-.9.2v-.6l.9-.2h0Z" style="fill:#fdd8ab"/><path d="M18.6,38.4h0a1,1,0,0,1-.9-.7l.9-.2h0Z" style="fill:#fdd8ab"/><path d="M11.2,34.5c.9-1,2.4-2,5.3-2.6L15,33.7h-.1l-1.3,1.4-.2.3-.7.7a39806572953270,39806572953270,0,0,1-.2-.2h-.3l-.2-.2c-.1-.1-.1-.1-.1-.2h-.1c0-.1-.1-.1-.1-.2h0c-.1-.1-.2-.2-.2-.3Z" style="fill:#616161;opacity:0.2;mix-blend-mode:color-burn"/><path d="M10.9,37.5V37a3.9,3.9,0,0,1,.8-1.9h0a7.2,7.2,0,0,1,2-1.8h.1l1.9-1h.1a.1.1,0,0,0,.1-.1h.6l-1.6,3.3-.6,1.1-.2.2L12,40.6A5.2,5.2,0,0,1,10.9,37.5Z" style="fill:#ebebeb"/><path d="M20.7,31.9a11.3,11.3,0,0,1,2.7,1.3h.2A5.4,5.4,0,0,1,26.4,37v.5a5,5,0,0,1-1.2,3.1Z" style="fill:#ebebeb"/><polygon points="24.5 35.4 24 34.7 24.2 35.6 24.5 35.4" style="fill:#333"/><polygon points="22.6 33.7 22.1 32.9 22.3 33.8 22.6 33.7" style="fill:#333"/><polygon points="25.5 39.8 25 39 25.2 39.9 25.5 39.8" style="fill:#333"/><polygon points="24.8 38.2 24.2 37.5 24.5 38.4 24.8 38.2" style="fill:#333"/><polygon points="24.1 36.7 23.5 36 23.8 36.9 24.1 36.7" style="fill:#333"/><polygon points="23.4 35.2 22.8 34.5 23.1 35.3 23.4 35.2" style="fill:#333"/><path d="M23.4,33.2h.2l.3.4-.3.2Z" style="fill:#333"/><polygon points="26 38.5 25.4 37.8 25.7 38.6 26 38.5" style="fill:#333"/><polygon points="25.2 37 24.7 36.2 24.9 37.1 25.2 37" style="fill:#333"/><path d="M26.1,36.7l.3.3v.5h0Z" style="fill:#333"/><polygon points="25.6 35.6 25.1 34.9 25.3 35.7 25.6 35.6" style="fill:#333"/><polygon points="12.7 35.4 13.3 34.7 13 35.6 12.7 35.4" style="fill:#333"/><polygon points="14.6 33.7 15.2 32.9 14.9 33.8 14.6 33.7" style="fill:#333"/><polygon points="11.8 39.8 12.3 39 12.1 39.9 11.8 39.8" style="fill:#333"/><polygon points="12.5 38.2 13 37.5 12.8 38.4 12.5 38.2" style="fill:#333"/><polygon points="13.2 36.7 13.7 36 13.5 36.9 13.2 36.7" style="fill:#333"/><polygon points="13.9 35.2 14.5 34.5 14.2 35.3 13.9 35.2" style="fill:#333"/><path d="M13.8,33.2h-.1l-.3.4.3.2Z" style="fill:#333"/><polygon points="11.3 38.5 11.8 37.8 11.6 38.6 11.3 38.5" style="fill:#333"/><polygon points="12 37 12.6 36.2 12.3 37.1 12 37" style="fill:#333"/><path d="M10.9,37.5V37l.2-.3-.2.8Z" style="fill:#333"/><polygon points="11.6 35.6 12.2 34.9 11.9 35.7 11.6 35.6" style="fill:#333"/><path d="M15.8,38.9a4.1,4.1,0,0,1,2.2.7l-.8-1.3-.3-.6L16,36.4l-2.8-4.5a6.9,6.9,0,0,0,.4-1l.7-.2,4.3-1.3,2.7-.8.9-.3c.1.1.1.2.2.4s.8,1.7,1.6,3.1l-2.8,4.6-.8,1.3-.3.5-.9,1.4a4.8,4.8,0,0,1,2.3-.7,4.4,4.4,0,0,1,4.4,4.4c0,1.5-7.2,8.9-7.2,8.9s-7.3-7.2-7.3-8.9A4.4,4.4,0,0,1,15.8,38.9Z" style="fill:#333"/><path d="M21.3,28.6l.9-.3c.1.1.1.2.2.4,1.6.7.8,1.8,1.7,3.2a14.9,14.9,0,0,0,2.1-4.8h.3c.4,2-2.7,5.4-2.7,5.4S22.5,29.1,21.3,28.6Z" style="fill:#616161;opacity:0.2;mix-blend-mode:color-burn"/><path d="M12.4,31.3h.3l.5.6h0a6.9,6.9,0,0,0,.4-1l.7-.2-.9,1.8Z" style="fill:#616161;opacity:0.2;mix-blend-mode:color-burn"/><path d="M16.9,37.7l.8-.6.9-.2h.1l.8.2.9.6-.3.5a5.9,5.9,0,0,0-1.4-.7h-.1a7.5,7.5,0,0,0-1.4.8Z" style="fill:#616161;opacity:0.2;mix-blend-mode:color-burn"/><path d="M17.6,46.6a1.6,1.6,0,0,0,1-.8,1.5,1.5,0,0,0,1.1.8,5,5,0,0,0,2-4.4,5.4,5.4,0,0,0-1.1-3.5h0a2.3,2.3,0,0,0-1.2-1l-.8-.2h0l-.8.2a3.5,3.5,0,0,0-1.2,1h0a6.1,6.1,0,0,0-1,3.5A5,5,0,0,0,17.6,46.6Z" style="fill:#fdd8ab"/><path d="M16.5,46.9c0,.5,2.2,2.7,2.2,2.7a15.9,15.9,0,0,0,2.1-2.7,1.3,1.3,0,0,0-1.3-1.3l-.7.2h-.4l-.6-.2A1.3,1.3,0,0,0,16.5,46.9Z" style="fill:#333"/><path d="M20.9,42.5H21c0-.3-.3-.5-.7-.5s-.7.2-.7.5a.1.1,0,0,1,.1.1Z" style="fill:#333"/><path d="M16.3,42.5h0c0-.3.3-.5.7-.5a.6.6,0,0,1,.6.5H16.3Z" style="fill:#333"/><path d="M17.8,39.2h1.7a1.2,1.2,0,0,0-.9-.3h0C18.3,38.9,17.9,39,17.8,39.2Z" style="fill:#454545"/><path d="M18.6,39.3c.4.5,1-.1,1-.1H17.7S18.2,39.8,18.6,39.3Z" style="fill:#333"/><polygon points="18.6 41.8 18.6 41.8 18.6 41.8 18.6 41.8 18.6 41.8 19.1 40.2 18.6 40.2 18.6 40.2 18.1 40.2 18.6 41.8" style="fill:#616161;opacity:0.2;mix-blend-mode:color-burn"/><polygon points="17.7 43.4 16.4 43.4 16.4 43.4 16.4 43.3 15.8 42.8 16.4 43.3 16.4 43.3 17.7 43.2 17.7 43.4" style="fill:#333"/><polygon points="19.5 43.2 20.8 43.3 20.7 43.3 21.3 42.8 20.8 43.3 20.8 43.4 20.8 43.4 19.5 43.4 19.5 43.2" style="fill:#333"/><path d="M17.7,46.5a.1.1,0,0,1-.1.1A.1.1,0,0,0,17.7,46.5Z" style="fill:#616161;opacity:0.2;mix-blend-mode:color-burn"/><path d="M18.2,46.3h0Z" style="fill:#616161;opacity:0.2;mix-blend-mode:color-burn"/><path d="M18,46.4Z" style="fill:#616161;opacity:0.2;mix-blend-mode:color-burn"/><path d="M17.9,46.5h0Z" style="fill:#616161;opacity:0.2;mix-blend-mode:color-burn"/><path d="M21.6,40.6c0,.2,1.1,1.3,1.1,1.3s1.1-1.1,1.1-1.3a.7.7,0,0,0-.7-.7h-.3l.4-.7h-1l.4.7h-.3A.7.7,0,0,0,21.6,40.6Z" style="fill:#ffd675"/><path d="M22.8,39.5v0Zm.1.7h.2a.5.5,0,0,1,.4.2c0,.1.1.2.1.3l-.9,1-.9-1c0-.1.1-.2.2-.3l.3-.2h.6Z" style="fill:#616161;opacity:0.2;mix-blend-mode:color-burn"/><path d="M13.4,40.6c0,.2,1.1,1.3,1.1,1.3a7.3,7.3,0,0,0,1-1.3.7.7,0,0,0-.6-.7h-.4l.5-.7H14l.4.7H14A.7.7,0,0,0,13.4,40.6Z" style="fill:#ffd675"/><path d="M14.6,39.5v.3l-.2-.3Zm.1.7h.2l.3.2a.4.4,0,0,1,.1.3,4.1,4.1,0,0,1-.8,1,3.2,3.2,0,0,1-.9-1,.4.4,0,0,1,.1-.3l.3-.2h.7Z" style="fill:#616161;opacity:0.2;mix-blend-mode:color-burn"/><path d="M11.2,34.5l.3.3h0l.2.2h0a3.9,3.9,0,0,0-.8,1.9v.5A5.2,5.2,0,0,0,12,40.6h.3a4.4,4.4,0,0,0-.9,2.7c0,1.7,7.2,8.8,7.3,8.9V29.4h-.1l-4.3,1.3-.6.2h-.1c0,.1,0,.1-.1.1h0a1.3,1.3,0,0,1-.3.8h0l-.5-.6h-.3L9.9,32A14.2,14.2,0,0,0,11.2,34.5Z" style="fill:#616161;opacity:0.2;mix-blend-mode:color-burn"/><path d="M8.2,12.1C8.2,11.6,6,9.5,6,9.5s-2.1,2.2-2.1,2.6a1.3,1.3,0,0,0,1.3,1.3l.7-.2L5,14.6H7l-.8-1.4.7.2A1.3,1.3,0,0,0,8.2,12.1Z" style="fill:#333"/><path d="M8.2,12.1C8.2,11.6,6,9.5,6,9.5H6v5.1H7l-.8-1.4.7.2A1.3,1.3,0,0,0,8.2,12.1Z" style="fill:#616161;opacity:0.2;mix-blend-mode:color-burn"/><path d="M32.4,44c0,.5,2.1,2.7,2.1,2.7s2.2-2.2,2.2-2.7a1.3,1.3,0,0,0-1.3-1.3l-.7.2.8-1.4h-2l.8,1.4-.6-.2A1.3,1.3,0,0,0,32.4,44Z" style="fill:#333"/><path d="M32.4,44c0,.5,2.1,2.7,2.1,2.7h0V41.5h-1l.8,1.4-.6-.2A1.3,1.3,0,0,0,32.4,44Z" style="fill:#616161;opacity:0.2;mix-blend-mode:color-burn"/></g></g></svg>