<svg xmlns="http://www.w3.org/2000/svg" viewBox="0 0 39.8 55.7"><g style="isolation:isolate"><g id="b04f7a02-f1dd-42f4-b982-f96402538626" data-name="Layer 1"><path d="M4.4,55.7A4.2,4.2,0,0,1,.1,51.5V4.2A4.2,4.2,0,0,1,4.3,0H35.5a4.2,4.2,0,0,1,4.3,4.2V51.5a4.2,4.2,0,0,1-4.3,4.2Z" style="fill:#c9c9c9"/><path d="M4.8,55.6A4.2,4.2,0,0,1,.6,51.4V4.2A4.2,4.2,0,0,1,4.8,0H35.6a4.2,4.2,0,0,1,4.2,4.2V51.4a4.2,4.2,0,0,1-4.2,4.2Z" style="fill:#fff"/><path d="M33.3,49.4a2.1,2.1,0,0,1,.3-.7c.3-.4.4-.5.6-.5H36c.1,0,.1,0,.1-.1h.2v.2l-.2.2c-.2.2-.4.6-.8,1l-.5.7-.2.6a.8.8,0,0,0,.1.4v.2l.3.2h.3l.5-.2.3-.3h.1c0,.1,0,.2-.2.4l-.5.5-.4.2-.5.2a1.1,1.1,0,0,1-.7-.3,1.3,1.3,0,0,1-.3-.8,1.9,1.9,0,0,1,.2-.7l.4-.5a2.5,2.5,0,0,1,.5-.7l.3-.4c0-.1,0-.1-.1-.1h-.5l-.8.2-.3.3h-.1Z" style="fill:#333"/><path d="M7.8,6.8c0,.2-.2.4-.3.7s-.4.5-.6.5H4.8c0-.1.1-.1.2-.2l.7-1c.3-.3.4-.6.6-.7a2.5,2.5,0,0,0,.2-.7A.4.4,0,0,0,6.4,5V4.7L6,4.5H5.7l-.5.3-.3.2c-.1,0-.1,0-.1-.1s0-.2.2-.4L5.5,4l.4-.3h.5a1.1,1.1,0,0,1,.7.3.9.9,0,0,1,.3.7,2.4,2.4,0,0,1-.2.8c-.1,0-.2.2-.4.4a2.5,2.5,0,0,1-.5.7L6,7H7.3l.4-.3h.1Z" style="fill:#333"/><path d="M24.4,19.1c0-.9-4.2-5.1-4.2-5.1s-4.1,4.3-4.1,5.1a2.5,2.5,0,0,0,2.5,2.5,3.1,3.1,0,0,0,1.3-.3l-1.6,2.6h3.8l-1.5-2.6a2.4,2.4,0,0,0,1.2.3A2.6,2.6,0,0,0,24.4,19.1Z" style="fill:#333"/><path d="M24.4,19.1c0-.9-4.2-5.1-4.2-5.1h0v9.9h1.9l-1.5-2.6a2.4,2.4,0,0,0,1.2.3A2.6,2.6,0,0,0,24.4,19.1Z" style="fill:#616161;opacity:0.2;mix-blend-mode:color-burn"/><path d="M24.4,37.3c0,.9-4.2,5.1-4.2,5.1s-4.1-4.3-4.1-5.1a2.5,2.5,0,0,1,2.5-2.5,3.1,3.1,0,0,1,1.3.3l-1.6-2.7h3.8l-1.5,2.7a2.4,2.4,0,0,1,1.2-.3A2.6,2.6,0,0,1,24.4,37.3Z" style="fill:#333"/><path d="M24.4,37.3c0,.9-4.2,5.1-4.2,5.1h0v-10h1.9l-1.5,2.7a2.4,2.4,0,0,1,1.2-.3A2.6,2.6,0,0,1,24.4,37.3Z" style="fill:#616161;opacity:0.2;mix-blend-mode:color-burn"/><path d="M7.3,11c0-.2-1.1-1.3-1.1-1.3S5.1,10.8,5.1,11a.7.7,0,0,0,.7.7h.3l-.4.7h1l-.4-.7h.4A.7.7,0,0,0,7.3,11Z" style="fill:#333"/><path d="M7.3,11c0-.2-1.1-1.3-1.1-1.3h0v2.6h.5l-.4-.7h.4A.7.7,0,0,0,7.3,11Z" style="fill:#616161;opacity:0.2;mix-blend-mode:color-burn"/><path d="M33.7,45.2c0,.2,1.1,1.3,1.1,1.3s1.1-1.1,1.1-1.3a.7.7,0,0,0-.7-.7h-.3l.4-.7h-1l.4.7h-.3A.7.7,0,0,0,33.7,45.2Z" style="fill:#333"/><path d="M33.7,45.2c0,.2,1.1,1.3,1.1,1.3h0V43.9h-.5l.4.7h-.3A.7.7,0,0,0,33.7,45.2Z" style="fill:#616161;opacity:0.2;mix-blend-mode:color-burn"/></g></g></svg>