<svg xmlns="http://www.w3.org/2000/svg" viewBox="0 0 39.8 55.7"><g style="isolation:isolate"><g id="ac178793-3a13-4452-8615-0918a63bb6d8" data-name="Layer 1"><path d="M4.4,55.7A4.2,4.2,0,0,1,.1,51.5V4.2A4.2,4.2,0,0,1,4.3,0H35.5a4.2,4.2,0,0,1,4.3,4.2V51.5a4.2,4.2,0,0,1-4.3,4.2Z" style="fill:#c9c9c9"/><path d="M4.8,55.6A4.2,4.2,0,0,1,.6,51.4V4.2A4.2,4.2,0,0,1,4.8,0H35.6a4.2,4.2,0,0,1,4.2,4.2V51.4a4.2,4.2,0,0,1-4.2,4.2Z" style="fill:#fff"/><path d="M5.5,5.5c0,.1,0,.2-.1.2a.3.3,0,0,0-.1.2l-.5.6-.3.2v.2h0v.3a.1.1,0,0,0,.1.1H5l-.4.4c-.3.2-.5.4-.7.4s-.3-.3-.3-.7-.1-.6-.2-.7H2l.2-.5L3,5l.4-.4.3-.3.4-.5.3-.2h.1V5.8h.6l.3-.3h.1Zm-2,.2V5.5h0V5.2l-.4.3-.2.3h.6Z" style="fill:#333"/><path d="M35.1,50.6c0-.1.1-.1.1-.2h.1l.5-.7.3-.2a.1.1,0,0,0,.1-.1h0c0-.1-.1-.2-.1-.3H36l-.3.2h0c0-.1.1-.2.3-.4a1,1,0,0,1,.8-.4q.2,0,.3.6c0,.5,0,.7.1.7h1.4a.1.1,0,0,0,.1.1h0l-.3.5c-.2.2-.4.6-.8,1l-.3.4-.3.4a.8.8,0,0,0-.4.4c-.2.2-.3.2-.4.2h0V50.4H36l-.5.2-.3.2h0C35.1,50.7,35.1,50.7,35.1,50.6Zm2-.2v.2h0a.4.4,0,0,0,.1.3c0-.1.2-.2.3-.4s.1-.1.2-.2h-.6Z" style="fill:#333"/><path d="M31.9,10.2c0-.9-4.1-5-4.1-5s-4.1,4.2-4.1,5a2.5,2.5,0,0,0,2.5,2.5,3.1,3.1,0,0,0,1.3-.3l-1.6,2.7h3.8l-1.6-2.7a3.3,3.3,0,0,0,1.3.4A2.6,2.6,0,0,0,31.9,10.2Z" style="fill:#333"/><path d="M31.9,10.2c0-.9-4.1-5-4.1-5h-.1v9.9h2l-1.6-2.7a3.3,3.3,0,0,0,1.3.4A2.6,2.6,0,0,0,31.9,10.2Z" style="fill:#616161;opacity:0.2;mix-blend-mode:color-burn"/><path d="M9.4,10.2c0-.9,4.2-5,4.2-5s4.1,4.2,4.1,5a2.5,2.5,0,0,1-2.5,2.5,2.8,2.8,0,0,1-1.3-.3l1.6,2.7H11.6l1.6-2.7a2.8,2.8,0,0,1-1.3.4A2.6,2.6,0,0,1,9.4,10.2Z" style="fill:#333"/><path d="M9.4,10.2c0-.9,4.2-5,4.2-5h0v9.9h-2l1.6-2.7a2.8,2.8,0,0,1-1.3.4A2.6,2.6,0,0,1,9.4,10.2Z" style="fill:#616161;opacity:0.2;mix-blend-mode:color-burn"/><path d="M31.9,45.9c0,.9-4.2,5.1-4.2,5.1s-4.1-4.3-4.1-5.1a2.5,2.5,0,0,1,2.5-2.5,2.5,2.5,0,0,1,1.3.3l-1.5-2.6h3.8l-1.6,2.7a2.8,2.8,0,0,1,1.3-.3A2.5,2.5,0,0,1,31.9,45.9Z" style="fill:#333"/><path d="M31.9,45.9c0,.9-4.2,5.1-4.2,5.1h0V41h2l-1.6,2.7a2.8,2.8,0,0,1,1.3-.3A2.5,2.5,0,0,1,31.9,45.9Z" style="fill:#616161;opacity:0.2;mix-blend-mode:color-burn"/><path d="M9.4,45.9c0,.9,4.2,5.1,4.2,5.1s4.1-4.3,4.1-5.1a2.5,2.5,0,0,0-2.5-2.5,2.5,2.5,0,0,0-1.3.3l1.5-2.6H11.6l1.6,2.7a2.8,2.8,0,0,0-1.3-.3A2.5,2.5,0,0,0,9.4,45.9Z" style="fill:#333"/><path d="M9.4,45.9c0,.9,4.2,5.1,4.2,5.1h0V41h-2l1.6,2.7a2.8,2.8,0,0,0-1.3-.3A2.5,2.5,0,0,0,9.4,45.9Z" style="fill:#616161;opacity:0.2;mix-blend-mode:color-burn"/><path d="M5,11c0-.2-1.1-1.3-1.1-1.3S2.8,10.8,2.8,11a.7.7,0,0,0,.6.7h.4l-.4.7h1L4,11.6h.3A.7.7,0,0,0,5,11Z" style="fill:#333"/><path d="M5,11c0-.2-1.1-1.3-1.1-1.3h0v2.6h.5L4,11.6h.3A.7.7,0,0,0,5,11Z" style="fill:#616161;opacity:0.2;mix-blend-mode:color-burn"/><path d="M35.8,45.2c0,.2,1.1,1.3,1.1,1.3S38,45.4,38,45.2a.7.7,0,0,0-.7-.7H37l.4-.7h-1l.4.7h-.4A.7.7,0,0,0,35.8,45.2Z" style="fill:#333"/><path d="M35.8,45.2c0,.2,1.1,1.3,1.1,1.3h0V43.9h-.5l.4.7h-.4A.7.7,0,0,0,35.8,45.2Z" style="fill:#616161;opacity:0.2;mix-blend-mode:color-burn"/></g></g></svg>