<svg xmlns="http://www.w3.org/2000/svg" viewBox="0 0 39.8 55.7"><g style="isolation:isolate"><g id="a89c93dd-e69b-406c-9524-3bea31660ac1" data-name="Layer 1"><path d="M4.4,55.7A4.2,4.2,0,0,1,.1,51.5V4.2A4.2,4.2,0,0,1,4.3,0H35.5a4.2,4.2,0,0,1,4.3,4.2V51.5a4.2,4.2,0,0,1-4.3,4.2Z" style="fill:#c9c9c9"/><path d="M4.8,55.6A4.2,4.2,0,0,1,.6,51.4V4.2A4.2,4.2,0,0,1,4.8,0H35.6a4.2,4.2,0,0,1,4.2,4.2V51.4a4.2,4.2,0,0,1-4.2,4.2Z" style="fill:#fff"/><path d="M5.5,6.4a1.6,1.6,0,0,1-.3.8,1.4,1.4,0,0,1-.6.7H3.8a1.1,1.1,0,0,1-.9-.5,1.7,1.7,0,0,1-.3-1,2.5,2.5,0,0,1,.1-.8,2.5,2.5,0,0,1,.4-.9l.4-.6L4,3.9l.4-.3h.2a.1.1,0,0,1,.1.1L4.4,4,4,4.5l-.3.4a1.1,1.1,0,0,0-.1.5h0L4,5.2h.5a.7.7,0,0,1,.6.4A1.1,1.1,0,0,1,5.5,6.4Zm-.9.7a1.3,1.3,0,0,0-.3-.8c-.2-.2-.3-.4-.5-.4H3.5a1.3,1.3,0,0,0,.3.8.8.8,0,0,0,.7.4h.1Z" style="fill:#333"/><path d="M35.1,49.7a2,2,0,0,1,.4-.8,1.7,1.7,0,0,1,.6-.6l.3-.2h.4a1.3,1.3,0,0,1,1,.4,1.7,1.7,0,0,1,.3,1,3.7,3.7,0,0,1-.2.9l-.3.8-.5.6c0,.1-.2.2-.5.4l-.4.4H36c-.1,0-.1,0-.1-.1l.3-.3.5-.5c0-.1.1-.2.2-.4s.2-.4.2-.5H37l-.3.2-.5.2a1.3,1.3,0,0,1-.7-.4A1.8,1.8,0,0,1,35.1,49.7ZM36,49a1.1,1.1,0,0,0,.3.8.7.7,0,0,0,.6.4h.2c0-.1.1-.1.1-.2a1.2,1.2,0,0,0-.4-.8,1,1,0,0,0-.7-.4h0A.1.1,0,0,0,36,49Z" style="fill:#333"/><path d="M29.5,7.5V6.9a2.4,2.4,0,0,0-2.4-2.4,2.4,2.4,0,0,0-2.4,2.4,1.9,1.9,0,0,0,.2.8A2.3,2.3,0,0,0,22.8,10a2.3,2.3,0,0,0,2.3,2.3l1.7-.5-1.5,2.6H29l-1.5-2.6a6.7,6.7,0,0,0,1.9.5,2.4,2.4,0,1,0,.1-4.8Z" style="fill:#333"/><path d="M29.5,7.5V6.9a2.4,2.4,0,0,0-2.4-2.4h0v9.9H29l-1.5-2.6a6.7,6.7,0,0,0,1.9.5,2.4,2.4,0,1,0,.1-4.8Z" style="fill:#616161;opacity:0.2;mix-blend-mode:color-burn"/><path d="M29.5,26.3v-.6a2.4,2.4,0,0,0-2.4-2.4,2.4,2.4,0,0,0-2.4,2.4,2.9,2.9,0,0,0,.2.9,2.2,2.2,0,0,0-2.1,2.2,2.3,2.3,0,0,0,2.3,2.3l1.7-.5-1.5,2.6H29l-1.5-2.6a6.7,6.7,0,0,0,1.9.5,2.4,2.4,0,1,0,.1-4.8Z" style="fill:#333"/><path d="M29.5,26.3v-.6a2.4,2.4,0,0,0-2.4-2.4h0v9.9H29l-1.5-2.6a6.7,6.7,0,0,0,1.9.5,2.4,2.4,0,1,0,.1-4.8Z" style="fill:#616161;opacity:0.2;mix-blend-mode:color-burn"/><path d="M10.3,7.5c0-.2-.1-.4-.1-.6a2.5,2.5,0,0,1,4.9,0,1.9,1.9,0,0,1-.2.8A2.3,2.3,0,0,1,17,10a2.3,2.3,0,0,1-2.3,2.3L13,11.8l1.5,2.6H10.7l1.6-2.6a6.5,6.5,0,0,1-2,.5,2.4,2.4,0,0,1,0-4.8Z" style="fill:#333"/><path d="M10.3,7.5c0-.2-.1-.4-.1-.6a2.4,2.4,0,0,1,2.4-2.4h.1v9.9h-2l1.6-2.6a6.5,6.5,0,0,1-2,.5,2.4,2.4,0,0,1,0-4.8Z" style="fill:#616161;opacity:0.2;mix-blend-mode:color-burn"/><path d="M10.3,26.3c0-.2-.1-.4-.1-.6a2.5,2.5,0,0,1,4.9,0,2.9,2.9,0,0,1-.2.9A2.2,2.2,0,0,1,17,28.8a2.3,2.3,0,0,1-2.3,2.3L13,30.6l1.5,2.6H10.7l1.6-2.6a6.5,6.5,0,0,1-2,.5,2.4,2.4,0,0,1,0-4.8Z" style="fill:#333"/><path d="M10.3,26.3c0-.2-.1-.4-.1-.6a2.4,2.4,0,0,1,2.4-2.4h.1v9.9h-2l1.6-2.6a6.5,6.5,0,0,1-2,.5,2.4,2.4,0,0,1,0-4.8Z" style="fill:#616161;opacity:0.2;mix-blend-mode:color-burn"/><path d="M29.5,48.2v.5a2.4,2.4,0,0,1-2.4,2.4,2.4,2.4,0,0,1-2.4-2.4,1.9,1.9,0,0,1,.2-.8,2.3,2.3,0,0,1-2.1-2.3,2.3,2.3,0,0,1,2.3-2.3,4.9,4.9,0,0,1,1.7.6l-1.5-2.7H29l-1.5,2.7a7,7,0,0,1,1.9-.6,2.5,2.5,0,0,1,2.5,2.5A2.5,2.5,0,0,1,29.5,48.2Z" style="fill:#333"/><path d="M29.5,48.2v.5a2.4,2.4,0,0,1-2.4,2.4h0V41.2H29l-1.5,2.7a7,7,0,0,1,1.9-.6,2.5,2.5,0,0,1,2.5,2.5A2.5,2.5,0,0,1,29.5,48.2Z" style="fill:#616161;opacity:0.2;mix-blend-mode:color-burn"/><path d="M10.3,48.2a4.3,4.3,0,0,0-.1.5,2.5,2.5,0,0,0,4.9,0,1.9,1.9,0,0,0-.2-.8A2.3,2.3,0,0,0,17,45.6a2.3,2.3,0,0,0-2.3-2.3,4.9,4.9,0,0,0-1.7.6l1.5-2.7H10.7l1.6,2.7a6.6,6.6,0,0,0-2-.6,2.5,2.5,0,0,0-2.4,2.5A2.5,2.5,0,0,0,10.3,48.2Z" style="fill:#333"/><path d="M10.3,48.2a4.3,4.3,0,0,0-.1.5,2.4,2.4,0,0,0,2.4,2.4h.1V41.2h-2l1.6,2.7a6.6,6.6,0,0,0-2-.6,2.5,2.5,0,0,0-2.4,2.5A2.5,2.5,0,0,0,10.3,48.2Z" style="fill:#616161;opacity:0.2;mix-blend-mode:color-burn"/><path d="M4.3,10.8h0a.6.6,0,0,0-.6-.5.5.5,0,0,0-.5.5v.2a.5.5,0,0,0-.5.5.6.6,0,0,0,.6.5h.4l-.4.6h.9l-.4-.6h.5a.5.5,0,0,0,.5-.5A.6.6,0,0,0,4.3,10.8Z" style="fill:#333"/><path d="M4.3,10.8h0a.6.6,0,0,0-.6-.5h0v2.2h.5l-.4-.6h.5a.5.5,0,0,0,.5-.5A.6.6,0,0,0,4.3,10.8Z" style="fill:#616161;opacity:0.2;mix-blend-mode:color-burn"/><path d="M37.1,46.1v.2a.5.5,0,0,1-.5.5.6.6,0,0,1-.6-.5c0-.1,0-.2.1-.2a.5.5,0,0,1-.5-.5.6.6,0,0,1,.5-.6l.4.2-.4-.6H37l-.3.6c0-.1.3-.2.4-.2a.6.6,0,0,1,.6.6A.6.6,0,0,1,37.1,46.1Z" style="fill:#333"/><path d="M37.1,46.1v.2a.5.5,0,0,1-.5.5h0V44.6H37l-.3.6c0-.1.3-.2.4-.2a.6.6,0,0,1,.6.6A.6.6,0,0,1,37.1,46.1Z" style="fill:#616161;opacity:0.2;mix-blend-mode:color-burn"/></g></g></svg>