<svg xmlns="http://www.w3.org/2000/svg" viewBox="0 0 39.8 55.7"><g style="isolation:isolate"><g id="b8a1aace-c8f1-4747-a14c-c2cc2839b4a0" data-name="Layer 1"><path d="M4.4,55.7A4.2,4.2,0,0,1,.1,51.5V4.2A4.2,4.2,0,0,1,4.3,0H35.5a4.2,4.2,0,0,1,4.3,4.2V51.5a4.2,4.2,0,0,1-4.3,4.2Z" style="fill:#c9c9c9"/><path d="M4.8,55.6A4.2,4.2,0,0,1,.6,51.4V4.2A4.2,4.2,0,0,1,4.8,0H35.6a4.2,4.2,0,0,1,4.2,4.2V51.4a4.2,4.2,0,0,1-4.2,4.2Z" style="fill:#fff"/><path d="M5.5,3.6,5.2,4c-.2.2-.3.3-.5.3H4.3c-.2,0-.3.1-.3.2s0,.2.2.3l.5.2c.2.1.3.3.4.4a.9.9,0,0,1,.1.5,1.3,1.3,0,0,1-.1.6L4.8,7a2.9,2.9,0,0,1-.8.8,1.7,1.7,0,0,1-1,.3H2.5a.5.5,0,0,1-.3-.4A1,1,0,0,1,2.4,7l.5-.5a.4.4,0,0,1,.1.3v.3l.2.2h.4A.4.4,0,0,0,4,7.2c.2-.1.2-.3.2-.6A1,1,0,0,0,4,5.9a.9.9,0,0,0-.6-.3H3.1V5.4A.6.6,0,0,1,3.2,5V4.5H3V4.2c0-.1.2-.2.3-.3l.5-.3H5.5Z" style="fill:#333"/><path d="M35.1,52.6l.3-.4.5-.4h.5c.2,0,.3-.1.3-.2a.2.2,0,0,0-.2-.2l-.6-.3-.4-.4c0-.1-.1-.3-.1-.4a1.4,1.4,0,0,1,.2-.7c0-.1.1-.2.2-.4a2.2,2.2,0,0,1,.9-.8l.9-.2h.6c.2.1.3.2.3.4a1.5,1.5,0,0,1-.3.6c-.2.3-.3.4-.4.4s-.1-.1-.1-.3-.1-.2-.1-.3h-.1l-.4-.2-.5.2a1.1,1.1,0,0,0-.2.6.9.9,0,0,0,.3.7.6.6,0,0,0,.6.3h.2v1.1h.2l-.4.4a.6.6,0,0,1-.4.2H35.3a.1.1,0,0,1-.1.1Z" style="fill:#333"/><path d="M31.5,10.2c0-.9-4.2-5-4.2-5h0v9.9h1.9l-1.5-2.7a2.5,2.5,0,0,0,1.3.4A2.6,2.6,0,0,0,31.5,10.2Z" style="fill:#616161;opacity:0.2;mix-blend-mode:color-burn"/><path d="M8.9,10.2c0-.9,4.2-5,4.2-5h0v9.9H11.2l1.5-2.7a2.5,2.5,0,0,1-1.3.4A2.6,2.6,0,0,1,8.9,10.2Z" style="fill:#616161;opacity:0.2;mix-blend-mode:color-burn"/><path d="M16,27.7c0-1,4.2-5.1,4.2-5.1h0v9.9h-2l1.6-2.7a2.8,2.8,0,0,1-1.3.4A2.5,2.5,0,0,1,16,27.7Z" style="fill:#616161;opacity:0.2;mix-blend-mode:color-burn"/><path d="M31.5,45.9c0,.9-4.2,5.1-4.2,5.1h0V41h1.9l-1.6,2.7a3.1,3.1,0,0,1,1.3-.3A2.6,2.6,0,0,1,31.5,45.9Z" style="fill:#616161;opacity:0.2;mix-blend-mode:color-burn"/><path d="M8.9,45.9c0,.9,4.2,5.1,4.2,5.1h0V41h-2l1.6,2.7a2.8,2.8,0,0,0-1.3-.3A2.5,2.5,0,0,0,8.9,45.9Z" style="fill:#616161;opacity:0.2;mix-blend-mode:color-burn"/><path d="M4.9,11c0-.2-1.1-1.3-1.1-1.3h0v2.6h.5l-.4-.7h.4A.7.7,0,0,0,4.9,11Z" style="fill:#616161;opacity:0.2;mix-blend-mode:color-burn"/><path d="M35.8,45.2c0,.2,1.1,1.3,1.1,1.3h0V43.9h-.5l.4.7h-.4A.7.7,0,0,0,35.8,45.2Z" style="fill:#616161;opacity:0.2;mix-blend-mode:color-burn"/><path d="M9.5,9c.1,1.9,3.9,4.8,3.9,4.8s4-2.9,4-4.8A2.4,2.4,0,0,0,15,6.6a2.9,2.9,0,0,0-1.6.7,2.9,2.9,0,0,0-1.5-.7A2.4,2.4,0,0,0,9.5,9Z" style="fill:#d66142"/><path d="M11.9,6.6a2.9,2.9,0,0,1,1.5.7h0v6.6h0S9.6,10.9,9.5,9A2.4,2.4,0,0,1,11.9,6.6Z" style="fill:#616161;opacity:0.2;mix-blend-mode:color-burn"/><path d="M31.5,9c-.1,1.9-3.9,4.8-3.9,4.8S23.7,10.9,23.7,9A2.3,2.3,0,0,1,26,6.6a2.9,2.9,0,0,1,1.6.7,2.9,2.9,0,0,1,1.5-.7A2.3,2.3,0,0,1,31.5,9Z" style="fill:#d66142"/><path d="M29.1,6.6a2.9,2.9,0,0,0-1.5.7h0v6.6h0s3.8-2.9,3.9-4.8A2.3,2.3,0,0,0,29.1,6.6Z" style="fill:#616161;opacity:0.2;mix-blend-mode:color-burn"/><path d="M24.1,25.9c-.1,1.9-3.9,4.8-3.9,4.8s-3.9-3-3.9-4.9a2.3,2.3,0,0,1,2.3-2.3,3.2,3.2,0,0,1,1.6.6,3.1,3.1,0,0,1,1.5-.6A2.3,2.3,0,0,1,24.1,25.9Z" style="fill:#d66142"/><path d="M21.7,23.5a3.1,3.1,0,0,0-1.5.6h0v6.6h0s3.8-2.9,3.9-4.8A2.3,2.3,0,0,0,21.7,23.5Z" style="fill:#616161;opacity:0.2;mix-blend-mode:color-burn"/><path d="M9.5,46.7c.1-1.9,3.9-4.8,3.9-4.8s4,3,4,4.9A2.3,2.3,0,0,1,15,49.1a3.2,3.2,0,0,1-1.6-.6,3.1,3.1,0,0,1-1.5.6A2.3,2.3,0,0,1,9.5,46.7Z" style="fill:#d66142"/><path d="M11.9,49.1a3.1,3.1,0,0,0,1.5-.6h0V41.9h0s-3.8,2.9-3.9,4.8A2.3,2.3,0,0,0,11.9,49.1Z" style="fill:#616161;opacity:0.2;mix-blend-mode:color-burn"/><path d="M31.5,46.7c-.1-1.9-3.9-4.8-3.9-4.8s-3.9,3-3.9,4.9A2.3,2.3,0,0,0,26,49.1a3.2,3.2,0,0,0,1.6-.6,3.1,3.1,0,0,0,1.5.6A2.3,2.3,0,0,0,31.5,46.7Z" style="fill:#d66142"/><path d="M29.1,49.1a3.1,3.1,0,0,1-1.5-.6h0V41.9h0s3.8,2.9,3.9,4.8A2.3,2.3,0,0,1,29.1,49.1Z" style="fill:#616161;opacity:0.2;mix-blend-mode:color-burn"/><path d="M5.5,10.8c0,.7-1.4,1.7-1.4,1.7s-1.3-1-1.3-1.7a.8.8,0,0,1,.8-.8.8.8,0,0,1,.5.2l.6-.2A.9.9,0,0,1,5.5,10.8Z" style="fill:#d66142"/><path d="M4.7,10l-.6.2h0v2.3h0s1.4-1,1.4-1.7A.9.9,0,0,0,4.7,10Z" style="fill:#616161;opacity:0.2;mix-blend-mode:color-burn"/><path d="M35.5,45.5c0-.7,1.4-1.7,1.4-1.7s1.4,1,1.4,1.7a.8.8,0,0,1-.9.8l-.5-.2a1.3,1.3,0,0,1-.6.2C35.8,46.3,35.4,46,35.5,45.5Z" style="fill:#d66142"/><path d="M36.3,46.3a1.3,1.3,0,0,0,.6-.2h0V43.8h0s-1.4,1-1.4,1.7S35.8,46.3,36.3,46.3Z" style="fill:#616161;opacity:0.2;mix-blend-mode:color-burn"/></g></g></svg>