<svg xmlns="http://www.w3.org/2000/svg" viewBox="0 0 39.8 55.7"><g style="isolation:isolate"><g id="b4243152-5696-44e7-bc04-ac0fdaa241ed" data-name="Layer 1"><path d="M4.5,55.6A4.2,4.2,0,0,1,.2,51.4V4.3A4.1,4.1,0,0,1,4.3.2H35.5a4.2,4.2,0,0,1,4.2,4.2v47a4.1,4.1,0,0,1-4.2,4.1Z" style="fill:#c9c9c9"/><path d="M4.6,55.5A4.1,4.1,0,0,1,.4,51.4V4.4A4.2,4.2,0,0,1,4.6.2H35.3a4.2,4.2,0,0,1,4.2,4.2v47a4.1,4.1,0,0,1-4.2,4.1Z" style="fill:#fff"/><path d="M35.5,54.6H4.9a3.3,3.3,0,0,1-3.3-3.2V4.4A4.2,4.2,0,0,1,3.7,1H34.6c3.1.2,4.2,1.9,4.2,3.4v47A3.3,3.3,0,0,1,35.5,54.6ZM4.1,2.3A2.5,2.5,0,0,0,2.9,4.4v47a2,2,0,0,0,2,1.9H35.5a2,2,0,0,0,2-1.9V4.4c0-1.2-1.1-2-3-2.1Z" style="fill:#d66142"/><path d="M7.5,4a1.2,1.2,0,0,1-.5.5l-.5.2-.7-.2h-1a1.5,1.5,0,0,1,.4-.6l.7-.2H7.5Zm0,3.6a1,1,0,0,1-.4.9,1.6,1.6,0,0,1-1.2.4l-.7-.2a.7.7,0,0,1-.4-.5c0-.2.1-.3.1-.4h.7c.1,0,.1.1.1.2s0,.3-.2.4h.7c.1,0,.1-.2.1-.3V4.9l.6-.2.5-.3h.1Z" style="fill:#333"/><path d="M33,48.7a1.4,1.4,0,0,1,.5-1,1.8,1.8,0,0,1,1.1-.3h.7a.7.7,0,0,1,.4.6c0,.1-.1.2-.1.3a.5.5,0,0,1-.4.2h-.3a.4.4,0,0,1-.1-.3c0-.2.1-.3.2-.3l.2-.2h-.8c-.2.1-.2.2-.2.3v3.5l-.6.2a.5.5,0,0,0-.5.3H33Zm0,3.5a1,1,0,0,1,.5-.4.7.7,0,0,1,.6-.2h1.3l.3-.2h0a.9.9,0,0,1-.4.6.8.8,0,0,1-.7.2H33Z" style="fill:#333"/><polygon points="17.2 17.4 15.8 18 16.1 18.5 21.6 18.5 22 18 20.8 17.4 17.2 17.4" style="fill:#757575"/><path d="M23.6,8.8a45.2,45.2,0,0,1-1.1,4.7c-1,2.1-3.6,1-3.6,1s-2.5,1.2-3.4-1a42.7,42.7,0,0,1-1.3-4.8,2.9,2.9,0,0,1,2.9-2.8,3.7,3.7,0,0,1,1.8.8,3.8,3.8,0,0,1,1.9-.8A2.8,2.8,0,0,1,23.6,8.8Z" style="fill:#d66142"/><rect x="17.2" y="15.7" width="3.6" height="3.72" style="fill:#ebb07a"/><path d="M20.8,16.4v.9a2.6,2.6,0,0,1-1.5.7h-.7a1.7,1.7,0,0,1-1.4-.7v-.8l.3.4V15.7h2.8v1.2Z" style="fill:#616161;opacity:0.2;mix-blend-mode:color-burn"/><path d="M19.3,7.2h-.7a2.9,2.9,0,0,0-3.1,2.7v3.8c.2,1.6,1.6,4,3.1,4h.7c1.6,0,2.9-2.4,3.2-4V9.9A3,3,0,0,0,19.3,7.2Z" style="fill:#ebb07a"/><path d="M16.9,11.5c0,.1-.1.2-.1.3a.6.6,0,0,0,1.2,0,.4.4,0,0,0-.1-.3Z" style="fill:#333"/><polygon points="19.2 11.1 19 11.1 18.7 11.1 18.4 13.4 19 14 19.5 13.4 19.2 11.1" style="fill:#616161;opacity:0.2;mix-blend-mode:color-burn"/><path d="M21,11.5a.4.4,0,0,1,.1.3c0,.3-.2.5-.6.5a.6.6,0,0,1-.6-.5c0-.1.1-.2.2-.3Z" style="fill:#333"/><g style="opacity:0.2;mix-blend-mode:color-burn"><rect x="18.3" y="15.2" width="1.3" height="0.32" style="fill:#616161"/></g><polygon points="19.9 10.3 21.6 10.5 19.9 10.7 19.9 10.3" style="fill:#d66142"/><polygon points="18.1 10.7 16.3 10.5 18.1 10.3 18.1 10.7" style="fill:#d66142"/><path d="M23.6,8.7a2.2,2.2,0,0,1-.3,1,2.9,2.9,0,0,0-2.5-1.6,3.8,3.8,0,0,0-1.9.8,3.7,3.7,0,0,0-1.8-.8,3,3,0,0,0-2.6,1.6,1.9,1.9,0,0,1-.3-1,2.9,2.9,0,0,1,2.9-2.9c.8,0,.9.4,1.8.4s1-.4,1.9-.4A2.9,2.9,0,0,1,23.6,8.7Z" style="fill:#d66142"/><path d="M18.2,16c.7.2.8,1.4.8,1.4s.1-1.2.8-1.4Z" style="fill:#d66142"/><path d="M21,15.2c0,.1-.1.3-.1.4a1.4,1.4,0,0,0-1.2-.6H18.1a1.1,1.1,0,0,0-1.1.7,1.7,1.7,0,0,1-.2-.5,1.3,1.3,0,0,1,1.3-1.3c.4,0,.8.6.8.6s.4-.6.8-.5A1.2,1.2,0,0,1,21,15.2Z" style="fill:#d66142"/><path d="M27.9,18.4l-1.4,1.3-.6,1.8,2-.4Z" style="fill:#757575"/><path d="M10.2,18.4l1.4,1.3.6,1.8-2-.4Z" style="fill:#757575"/><path d="M11,19.4l-.2.4-.4,1.4,2.4-.6Z" style="fill:#9c4129"/><path d="M29.5,23.4l-1.4.4-2.4.7h-.1l-3.1,1h-.3l-1,.3h-.3l-1.2.4-.6.2-2.3.7h-.6l-.6.2h-.4l-1.1.3-1.6.5V26.6l-1.1,1.8v.4l-1.1.3-2.8.8v-4h0v-.8l.5-1.3.5-1.3.6-1.4.2-.5.3-.5h.4l.6-.2h.7l1.8-.4h.5l1.5-.4h.8l1.1-.2h3.6l.8.2h.3l1.3.4,1.2.2,2.2.6h.6l.7.2h.3l.5,1.3.5,1.4.2.3Z" style="fill:#ababab"/><polygon points="23.2 18.9 19.5 22.6 19.3 22.8 18.7 23.4 18.7 23.4 17.6 24.4 17.6 24.5 15.8 26.3 15.2 26.9 15 27.1 14.7 27.4 14.1 27.9 12.5 28.4 12.5 28 14.2 26.3 14.5 26 14.7 25.8 15.2 25.2 15.4 25.1 15.6 24.9 15.7 24.8 17.8 22.7 17.8 22.7 17.9 22.6 17.9 22.6 18.5 22 18.7 21.8 21.9 18.5 23.2 18.9" style="fill:#fff;opacity:0.2"/><polygon points="27.9 20 25.6 22.2 22.4 25.4 22.4 25.5 22.2 25.5 21.2 25.8 20.9 25.9 19.7 26.3 19.1 26.5 16.8 27.2 16.3 27.3 16.2 27.3 16.3 27.2 16.6 26.9 18.2 25.3 18.4 25.1 19.3 24.3 19.4 24.2 20.2 23.3 24.4 19.1 26.6 19.7 26.7 19.7 27.2 19.8 27.9 20" style="fill:#fff;opacity:0.2"/><path d="M22.5,25.5h-.3l-1,.3h-.3l-1.2.4-.6.2-2.3.7h-.6l-.6.2h-.4l-.2-.5L14.5,26l-1.7-3.5L12,20.8h-.1l-.5-.9h.1l1.8-.4h.5l1.5-.4h.2l3.2,3.1a6,6,0,0,0,.8.8l.7.7,2.2,2.1A.1.1,0,0,0,22.5,25.5Z" style="fill:#616161;opacity:0.2;mix-blend-mode:color-burn"/><path d="M19.1,26.5l-2.3.7h-.6l-.6.2-.4-.6-.5-1.1-1.9-3.3-.7-1.2-.3-.5-.6-1.1-.2-.3h.2l3.8-1q0,.2.3.3L18.5,22a6,6,0,0,1,.8.8l.8.7,2.1,2-1,.3h-.3l-1.2.4Z" style="fill:#d66142"/><polygon points="15.8 18 16 18.6 18.8 20.2 18.7 18.3 15.8 18" style="fill:#ebebeb"/><polygon points="22 18 21.8 18.6 19 20.2 19.1 18.3 22 18" style="fill:#ebebeb"/><path d="M18.7,23.4l.5.6-.5-.6-.8-.8-.4-.5.4.5Z" style="fill:#616161;opacity:0.2;mix-blend-mode:color-burn"/><path d="M19.4,24.2l1.8,1.6h-.3l-1.6-1.6-.7-.8h-.1l-.7-.7-1.4-1.5h0l1.4,1.5a2.3,2.3,0,0,1,.7.7c.1,0,.1,0,.1.1Z" style="fill:#616161;opacity:0.2;mix-blend-mode:color-burn"/><polygon points="16.8 27.2 16.3 27.3 16.3 27.2 15.8 26.3 15.2 25.2 14.6 24.1 13.9 22.8 15.4 25.1 16.1 26 16.6 26.9 16.8 27.2" style="fill:#616161;opacity:0.2;mix-blend-mode:color-burn"/><polygon points="19.7 26.3 19.1 26.5 18.6 25.8 18.2 25.3 17.6 24.5 17.3 24.1 17.6 24.4 18.4 25.1 19.7 26.3" style="fill:#616161;opacity:0.2;mix-blend-mode:color-burn"/><polygon points="12.5 26.6 11.4 28.4 11.4 28.8 10.3 29.1 9.4 28.9 10.6 28.4 12.5 26.6" style="fill:#616161;opacity:0.2;mix-blend-mode:color-burn"/><polygon points="29.5 23.4 28.1 23.8 25.7 24.5 25.6 24.5 25.4 22.7 25.6 22.2 25.9 21.5 26.7 19.7 27.2 19.8 27.9 20 27.9 20 28.2 20.1 28.7 21.4 29.2 22.8 29.4 23.1 29.5 23.4" style="fill:#616161;opacity:0.2;mix-blend-mode:color-burn"/><path d="M28.1,23.8l-2.4.7V22.8l.6-1.3h.1l.8-1.6.7-1.4a19.2,19.2,0,0,0,1.8,2.2,3.2,3.2,0,0,0,.1.7c.1.5.2,1.2.3,1.9h-.6Z" style="fill:#ababab"/><path d="M12.5,22.9V26l-4.2-.7v-.4l1.2-4.3.3-.5,1.1-.3h.2Z" style="fill:#616161;opacity:0.2;mix-blend-mode:color-burn"/><path d="M12.5,26.3,8.6,26H7.5c.1-.1.1-.4.2-.8s.6-4.5.7-4.5l1.8-2.2h0l.7,1.3,1.5,3Z" style="fill:#ababab"/><path d="M30.1,23.2h-.9l-1.1.3.6-2.4v-.6l-.9-2.4a21.3,21.3,0,0,0,1.8,2.2,3.2,3.2,0,0,0,.1.7h0c0,.1.1.1.1.2v.3c0,.1,0,.2.1.2h0v.3h0A.9.9,0,0,1,30.1,23.2Z" style="fill:#fff;opacity:0.2"/><path d="M10.2,18.5l-1,2.3v.3l.8,3.5L8.6,26l-.4.3a16.6,16.6,0,0,1-.6,2.1c0,.1,0,.1-.1,0V25.9h0v-.8h0v-.6c.2-.9.4-2.1.5-2.9v-.2l.2-.8c.1,0,1.8-2.2,1.8-2.2h0Z" style="fill:#fff;opacity:0.2"/><path d="M9,22.6a8.7,8.7,0,0,1-1.2,2,.1.1,0,0,0-.1-.1c.2-.9.4-2.1.5-2.9h.4C8.9,21.6,9.1,22.1,9,22.6Z" style="fill:#d66142"/><path d="M30.1,23.2h-.7a2,2,0,0,1-.4-.8c-.1-.5.1-1,.5-1h.4v.5h0v1Z" style="fill:#d66142"/><path d="M15.9,19.7c.5.9-.7,3.4-.7,3.4s-2.6-1-2.8-1.9a1.3,1.3,0,0,1,.6-1.5h.8a1.1,1.1,0,0,1,.5-.5A1.2,1.2,0,0,1,15.9,19.7Z" style="fill:#616161;opacity:0.2;mix-blend-mode:color-burn"/><path d="M15.8,20c.4.8-.7,2.8-.7,2.8s-2.1-.6-2.4-1.4a1,1,0,0,1,.5-1.4.8.8,0,0,1,.7,0,1.8,1.8,0,0,1,.5-.6A1,1,0,0,1,15.8,20Z" style="fill:#ffd675"/><path d="M14.9,22.1a3.7,3.7,0,0,1-1.8-.9v-.5l.3-.3h.8l.2-.4.2-.3h.2c.2,0,.5,0,.6.3A4.4,4.4,0,0,1,14.9,22.1Z" style="fill:#616161;opacity:0.2;mix-blend-mode:color-burn"/><path d="M30.1,23.2v-.6h0v-.3h0v-.5h0c0-.1-.1-.1-.1-.2h0V21a.3.3,0,0,0-.1-.2v-.2a21.3,21.3,0,0,1-1.8-2.2h0l-1.3,1.3-2.2-.6-1.2-.2-1.3-.4h-.1L22,18l-1.2-.6V17a7,7,0,0,0,1.7-3.3v-.2h0a45.2,45.2,0,0,0,1.1-4.7h0a2.9,2.9,0,0,0-2.8-2.9c-.9,0-1,.4-1.9.4V26.5h.2l.6-.2,1.2-.4h.3l1-.3h.3l3.1-1h.1l2.4-.7h0l1.1-.3h.9Z" style="fill:#616161;opacity:0.2;mix-blend-mode:color-burn"/><polygon points="20.5 38.4 21.8 37.9 21.5 37.3 16.1 37.4 15.7 37.9 16.9 38.4 20.5 38.4" style="fill:#757575"/><path d="M14.1,47.1a39.9,39.9,0,0,1,1.1-4.7c1-2.2,3.6-1,3.6-1s2.4-1.2,3.4,1a40.5,40.5,0,0,1,1.2,4.7,2.7,2.7,0,0,1-2.8,2.8,4,4,0,0,1-1.9-.7,3.5,3.5,0,0,1-1.8.7A2.7,2.7,0,0,1,14.1,47.1Z" style="fill:#d66142"/><rect x="16.9" y="36.4" width="3.6" height="3.72" style="fill:#ebb07a"/><path d="M16.9,39.4v-.9a2.1,2.1,0,0,1,1.4-.7H19a2.6,2.6,0,0,1,1.5.7v.9l-.4-.5v1.2H17.3V38.9Z" style="fill:#616161;opacity:0.2;mix-blend-mode:color-burn"/><path d="M18.3,48.6H19a3,3,0,0,0,3.2-2.7V42.1c-.3-1.5-1.6-4-3.2-4h-.7c-1.5,0-2.9,2.5-3.1,4v3.8A2.9,2.9,0,0,0,18.3,48.6Z" style="fill:#ebb07a"/><path d="M20.7,44.3a.4.4,0,0,0,.1-.3.6.6,0,0,0-.6-.5.5.5,0,0,0-.5.5.4.4,0,0,0,.1.3Z" style="fill:#333"/><polygon points="18.5 44.8 18.7 44.8 18.9 44.8 19.2 42.5 18.7 41.8 18.1 42.5 18.5 44.8" style="fill:#616161;opacity:0.2;mix-blend-mode:color-burn"/><path d="M16.6,44.3c0-.1-.1-.2-.1-.3a.6.6,0,0,1,.6-.5.6.6,0,0,1,.6.5.4.4,0,0,1-.1.3Z" style="fill:#333"/><g style="opacity:0.2;mix-blend-mode:color-burn"><rect x="18" y="40.3" width="1.3" height="0.32" style="fill:#616161"/></g><polygon points="17.8 45.6 16 45.4 17.8 45.1 17.8 45.6" style="fill:#d66142"/><polygon points="19.6 45.1 21.3 45.4 19.6 45.6 19.6 45.1" style="fill:#d66142"/><path d="M14.1,47.2a1.9,1.9,0,0,1,.3-1,2.7,2.7,0,0,0,2.5,1.5,3.5,3.5,0,0,0,1.8-.7,4,4,0,0,0,1.9.7,2.9,2.9,0,0,0,2.6-1.6,5.2,5.2,0,0,1,.2,1.1A2.7,2.7,0,0,1,20.6,50c-.9,0-1-.3-1.8-.3s-1,.3-1.9.3A2.7,2.7,0,0,1,14.1,47.2Z" style="fill:#d66142"/><path d="M19.5,39.9c-.7-.2-.8-1.5-.8-1.5s-.1,1.3-.8,1.5Z" style="fill:#d66142"/><path d="M16.7,40.6a.8.8,0,0,1,.1-.4,1.2,1.2,0,0,0,1.1.7h1.7a1.2,1.2,0,0,0,1.1-.7.9.9,0,0,1,.1.5,1.2,1.2,0,0,1-1.2,1.2c-.4,0-.8-.6-.8-.6s-.5.6-.9.6A1.2,1.2,0,0,1,16.7,40.6Z" style="fill:#d66142"/><path d="M9.8,37.4l1.3-1.2.6-1.8-2,.3Z" style="fill:#757575"/><path d="M27.4,37.4l-1.3-1.2-.6-1.8,2,.3Z" style="fill:#757575"/><path d="M26.6,36.4l.2-.3.5-1.5-2.4.6Z" style="fill:#9c4129"/><polygon points="8.2 32.5 9.5 32.1 11.9 31.4 12.1 31.3 15.2 30.4 15.3 30.4 15.5 30.3 16.4 30 16.8 29.9 18 29.6 18.6 29.4 20.9 28.7 21.3 28.6 21.5 28.5 22.1 28.4 22.4 28.2 23.5 27.9 25.2 27.4 25.2 27.9 25.2 29.2 26.2 27.4 26.2 27.1 27.4 26.8 30.1 25.9 30.1 29.8 30.1 30 30.1 30 30.1 30 30.1 30.6 30 30.8 29.5 32.1 28.9 33.3 28.3 34.7 28.1 35.2 27.9 35.8 27.5 35.9 26.8 36.1 26.8 36.1 26.7 36.1 26.6 36.1 26.6 36.1 26.5 36.1 26.3 36.2 26.3 36.2 26.2 36.2 26.1 36.2 24.3 36.7 24.1 36.7 24.1 36.7 23.9 36.8 22.4 37.1 22.4 37.1 22.2 37.2 21.7 37.3 21.5 37.3 20.5 37.6 16.9 37.6 16 37.4 15.8 37.3 15.7 37.3 14.4 37 13.3 36.7 11.1 36.2 11 36.2 10.5 36 9.8 35.9 9.7 35.9 9.5 35.8 8.9 34.4 8.4 33.1 8.3 32.7 8.2 32.5" style="fill:#ababab"/><polygon points="14.4 37 18.2 33.2 18.3 33.1 19 32.4 19 32.4 20 31.4 20.1 31.4 21.9 29.6 22.4 29 22.7 28.8 23 28.5 23.5 27.9 25.2 27.4 25.2 27.9 23.5 29.6 23.2 29.8 23 30 22.4 30.6 22.3 30.8 22.1 31 22 31 19.9 33.2 19.8 33.2 19.8 33.3 19.8 33.3 19.2 33.9 19 34 15.7 37.3 14.4 37" style="fill:#fff;opacity:0.2"/><polygon points="9.8 35.9 12 33.6 15.2 30.4 15.3 30.4 15.5 30.3 16.4 30 16.8 29.9 18 29.6 18.6 29.4 20.9 28.7 21.3 28.6 21.5 28.5 21.4 28.6 21 29 19.4 30.6 19.3 30.7 18.4 31.6 18.3 31.7 17.4 32.5 13.3 36.7 11.1 36.2 11 36.2 10.5 36 9.8 35.9" style="fill:#fff;opacity:0.2"/><path d="M15.2,30.4h.3l.9-.3h.4l1.2-.3.6-.2,2.3-.7h.6l.6-.2h.3l.3.6.5,1,1.7,3.5.8,1.7v.2h0l.4,1h-.1l-1.8.5h-.4l-1.5.3h-.2c-.5-.6-1.7-1.7-3.2-3.2l-.8-.8-.8-.7-2.2-2.1Z" style="fill:#616161;opacity:0.2;mix-blend-mode:color-burn"/><path d="M18.6,29.4l2.3-.7h.6l.6-.2.3.7.6,1,1.9,3.3.6,1.2.3.5.7,1.1v.3h-.2l-3.7.9-.3-.3-3.2-3.2-.9-.8a2.3,2.3,0,0,0-.7-.7l-2.1-2.1.9-.3h.4l1.2-.3Z" style="fill:#d66142"/><polygon points="21.8 37.9 21.7 37.3 18.8 35.7 18.9 37.6 21.8 37.9" style="fill:#ebebeb"/><polygon points="15.7 37.9 15.9 37.3 18.7 35.7 18.6 37.6 15.7 37.9" style="fill:#ebebeb"/><path d="M19,32.4l-.5-.5a1.2,1.2,0,0,0,.5.5l.8.9.4.4-.4-.4Z" style="fill:#616161;opacity:0.2;mix-blend-mode:color-burn"/><path d="M18.3,31.7,16.4,30h.4l1.6,1.7.7.7h.1l.7.8,1.4,1.4h0l-1.5-1.4-.7-.7H19Z" style="fill:#616161;opacity:0.2;mix-blend-mode:color-burn"/><polygon points="20.9 28.7 21.3 28.6 21.4 28.6 21.9 29.6 22.4 30.6 23 31.8 23.8 33.1 22.3 30.8 21.6 29.8 21 29 20.9 28.7" style="fill:#616161;opacity:0.2;mix-blend-mode:color-burn"/><polygon points="18 29.6 18.6 29.4 19 30 19.4 30.6 20.1 31.4 20.4 31.7 20 31.4 19.3 30.7 18 29.6" style="fill:#616161;opacity:0.2;mix-blend-mode:color-burn"/><polygon points="25.2 29.2 26.2 27.4 26.2 27.1 27.4 26.8 28.2 26.9 27.1 27.4 25.2 29.2" style="fill:#616161;opacity:0.2;mix-blend-mode:color-burn"/><polygon points="8.2 32.5 9.5 32.1 11.9 31.4 12.1 31.3 12.2 33.1 12 33.6 11.7 34.4 11 36.2 10.5 36 9.8 35.9 9.7 35.9 9.5 35.8 8.9 34.4 8.4 33.1 8.3 32.7 8.2 32.5" style="fill:#616161;opacity:0.2;mix-blend-mode:color-burn"/><path d="M9.5,32.1l2.4-.7v1.7l-.7,1.2v.2L10.5,36l-.7,1.4L8,35.2l-.2-.6a7.4,7.4,0,0,0-.3-1.9l.6-.2h.1Z" style="fill:#ababab"/><path d="M25.1,32.9v-3l4.1.7v.3l-1.2,4.3-.2.6-1.1.3h-.2Z" style="fill:#616161;opacity:0.2;mix-blend-mode:color-burn"/><path d="M25.2,29.5l3.9.4h1a3.2,3.2,0,0,1-.1.8c-.2,1.5-.7,4.4-.7,4.4s-1.8,2.2-1.8,2.2h-.1l-.6-1.3-1.5-3Z" style="fill:#ababab"/><path d="M7.5,32.7h.1l.5-.2h.4l1-.3L9,34.4l-.2.6,1,2.4c-.1-.1-1.7-2.2-1.8-2.2l-.2-.6h0v-.3a.3.3,0,0,0-.1-.2v-.3h0v-.4h0A.6.6,0,0,0,7.5,32.7Z" style="fill:#fff;opacity:0.2"/><path d="M27.5,37.4l.9-2.4v-.3l-.8-3.4,1.6-1.4.4-.3s.5-2.1.5-2.2h.1V30h0v.8h0c0,.2-.1.3-.1.5s-.3,2.1-.4,3-.1.1-.1.2a3.2,3.2,0,0,0-.1.7c-.1,0-1.8,2.2-1.8,2.2h0Z" style="fill:#fff;opacity:0.2"/><path d="M28.6,33.2a12.2,12.2,0,0,1,1.3-1.9h0c-.1.9-.3,2.1-.4,3h-.4C28.8,34.3,28.6,33.8,28.6,33.2Z" style="fill:#d66142"/><path d="M7.6,32.7l.5-.2h.1a1.3,1.3,0,0,1,.4.7c.1.6-.1,1.1-.4,1.1H7.8v-.5h0v-.9Z" style="fill:#d66142"/><path d="M21.8,36.2c-.5-1,.6-3.5.6-3.5s2.6,1,2.9,2a1.3,1.3,0,0,1-.7,1.4.8.8,0,0,1-.7,0s-.2.5-.5.6A1.4,1.4,0,0,1,21.8,36.2Z" style="fill:#616161;opacity:0.2;mix-blend-mode:color-burn"/><path d="M21.8,35.8c-.3-.8.7-2.7.7-2.7s2.1.5,2.5,1.4a1.1,1.1,0,0,1-.5,1.4,2,2,0,0,1-.8,0,1.1,1.1,0,0,1-.5.5A1,1,0,0,1,21.8,35.8Z" style="fill:#ffd675"/><path d="M22.8,33.7c.8.3,1.6.7,1.7,1a.3.3,0,0,1,0,.4c0,.2-.1.3-.2.3h-.9v.4L23,36h-.2a.5.5,0,0,1-.5-.3A4.5,4.5,0,0,1,22.8,33.7Z" style="fill:#616161;opacity:0.2;mix-blend-mode:color-burn"/><path d="M7.5,32.7c.1.1.1.1.1.2v.4h.1v.2h0v.5h0v.3h0v.5H8c.1,0,1.7,2.1,1.8,2.2h0l1.3-1.2,2.2.5,1.1.3,1.3.3h.1v.6l1.2.5v.4a6.6,6.6,0,0,0-1.7,3.3v.2h0a39.9,39.9,0,0,0-1.1,4.7h0A2.7,2.7,0,0,0,16.9,50c.9,0,1-.3,1.8-.3V29.3h-.1l-.6.2-1.2.3h-.4l-.9.3h-.3l-3.1.9h-.2l-2.4.7h0l-1,.3h-1Z" style="fill:#616161;opacity:0.2;mix-blend-mode:color-burn"/><path d="M8.7,11.3C8.6,12.6,6,14.6,6,14.6s-2.6-2-2.6-3.3A1.6,1.6,0,0,1,5,9.7a2.2,2.2,0,0,1,1.1.5,1.7,1.7,0,0,1,1-.5A1.6,1.6,0,0,1,8.7,11.3Z" style="fill:#d66142"/><path d="M7.1,9.7a1.7,1.7,0,0,0-1,.5H6v4.4H6s2.6-2,2.7-3.3A1.6,1.6,0,0,0,7.1,9.7Z" style="fill:#616161;opacity:0.2;mix-blend-mode:color-burn"/><path d="M31.6,44.6c.1-1.3,2.7-3.2,2.7-3.2s2.6,1.9,2.6,3.2a1.6,1.6,0,0,1-1.6,1.6,1.9,1.9,0,0,1-1-.4,2.5,2.5,0,0,1-1.1.4A1.6,1.6,0,0,1,31.6,44.6Z" style="fill:#d66142"/><path d="M33.2,46.2a2.5,2.5,0,0,0,1.1-.4h0V41.4h0s-2.6,1.9-2.7,3.2A1.6,1.6,0,0,0,33.2,46.2Z" style="fill:#616161;opacity:0.2;mix-blend-mode:color-burn"/></g></g></svg>