<svg xmlns="http://www.w3.org/2000/svg" viewBox="0 0 39.8 55.7"><g style="isolation:isolate"><g id="fb4d7086-bc8a-421e-af94-24b5f815a323" data-name="Layer 1"><path d="M4.4,55.7A4.2,4.2,0,0,1,.1,51.5V4.2A4.2,4.2,0,0,1,4.3,0H35.5a4.2,4.2,0,0,1,4.3,4.2V51.5a4.2,4.2,0,0,1-4.3,4.2Z" style="fill:#c9c9c9"/><path d="M4.8,55.6A4.2,4.2,0,0,1,.6,51.4V4.2A4.2,4.2,0,0,1,4.8,0H35.6a4.2,4.2,0,0,1,4.2,4.2V51.4a4.2,4.2,0,0,1-4.2,4.2Z" style="fill:#fff"/><path d="M5.5,6.4a.8.8,0,0,1-.1.4l-.5.6c-.3.3-.4.4-.4.5H3.9A1.4,1.4,0,0,1,3,7.7a.9.9,0,0,1-.3-.6c0-.2.1-.3.2-.5L3.4,6l-.3-.3a.5.5,0,0,1-.2-.4c0-.2.1-.3.2-.5l.4-.5L4,3.7h.4l.7.2c.2.1.2.3.2.6a1.1,1.1,0,0,1-.3.7.9.9,0,0,0-.3.5l.6.4A.8.8,0,0,1,5.5,6.4Zm-.8.5c0-.1-.1-.2-.4-.4l-.6-.3H3.6c0,.1-.1.2-.1.3a.9.9,0,0,0,.3.5l.6.2h.2A.4.4,0,0,0,4.7,6.9ZM4.5,5l-.2-.3-.4-.2H3.7c0,.2.1.3.3.5l.3.2V5Z" style="fill:#333"/><path d="M35.1,49.7c0-.1.1-.2.1-.3s.3-.5.6-.7a1.2,1.2,0,0,1,.4-.4.8.8,0,0,1,.6-.2.9.9,0,0,1,.8.4.9.9,0,0,1,.3.6,1.7,1.7,0,0,1-.2.5l-.4.5.3.3c0,.1.1.3.1.4a1.4,1.4,0,0,1-.2.6l-.3.4a1.7,1.7,0,0,1-.6.6l-.4.2a.6.6,0,0,1-.6-.3.5.5,0,0,1-.3-.5.9.9,0,0,1,.3-.7c.2-.3.3-.4.3-.5l-.5-.4C35.2,50,35.1,49.9,35.1,49.7Zm.8-.5.5.5.5.2a.1.1,0,0,0,.1-.1.3.3,0,0,0,.1-.2.5.5,0,0,0-.3-.5.6.6,0,0,0-.5-.2H36C35.9,49.1,35.9,49.1,35.9,49.2Zm.2,1.9a.8.8,0,0,0,.2.4h.6c.1-.1.1-.1.1-.2a.5.5,0,0,0-.3-.4l-.4-.2a.1.1,0,0,0-.1.1A.3.3,0,0,1,36.1,51.1Z" style="fill:#333"/><path d="M31.9,9.4c0-1-4.3-5.3-4.3-5.3h0V14.4h2L28,11.6a2,2,0,0,0,1.3.4A2.6,2.6,0,0,0,31.9,9.4Z" style="fill:#616161;opacity:0.2;mix-blend-mode:color-burn"/><path d="M31.9,21.8c0-1-4.3-5.3-4.3-5.3h0V26.8h2L28,24a2.8,2.8,0,0,0,1.3.4A2.6,2.6,0,0,0,31.9,21.8Z" style="fill:#616161;opacity:0.2;mix-blend-mode:color-burn"/><path d="M8.5,9.4c0-1,4.3-5.3,4.3-5.3h0V14.4h-2l1.6-2.8a2,2,0,0,1-1.3.4A2.6,2.6,0,0,1,8.5,9.4Z" style="fill:#616161;opacity:0.2;mix-blend-mode:color-burn"/><path d="M8.5,21.8c0-1,4.3-5.3,4.3-5.3h0V26.8h-2L12.4,24a2.8,2.8,0,0,1-1.3.4A2.6,2.6,0,0,1,8.5,21.8Z" style="fill:#616161;opacity:0.2;mix-blend-mode:color-burn"/><path d="M31.9,46.4c0,1-4.4,5.3-4.4,5.3h0V41.4h2.1l-1.7,2.8a3.3,3.3,0,0,1,1.4-.4A2.6,2.6,0,0,1,31.9,46.4Z" style="fill:#616161;opacity:0.2;mix-blend-mode:color-burn"/><path d="M31.9,34.1c0,1-4.4,5.3-4.4,5.3h0V29.1h2.1l-1.7,2.8a3.2,3.2,0,0,1,1.4-.3A2.6,2.6,0,0,1,31.9,34.1Z" style="fill:#616161;opacity:0.2;mix-blend-mode:color-burn"/><path d="M8.5,46.4c-.1,1,4.3,5.3,4.3,5.3h0V41.4h-2l1.6,2.8a2.8,2.8,0,0,0-1.3-.4A2.6,2.6,0,0,0,8.5,46.4Z" style="fill:#616161;opacity:0.2;mix-blend-mode:color-burn"/><path d="M8.5,34.1c-.1,1,4.3,5.3,4.3,5.3h0V29.1h-2l1.6,2.8a2.8,2.8,0,0,0-1.3-.3A2.5,2.5,0,0,0,8.5,34.1Z" style="fill:#616161;opacity:0.2;mix-blend-mode:color-burn"/><path d="M5.2,11.3c0-.3-1.1-1.4-1.1-1.4h0v2.7h.5l-.4-.7h.4A.7.7,0,0,0,5.2,11.3Z" style="fill:#616161;opacity:0.2;mix-blend-mode:color-burn"/><path d="M35.6,45a8.7,8.7,0,0,0,1.2,1.4h0V43.6h-.6l.5.8h-.4A.7.7,0,0,0,35.6,45Z" style="fill:#616161;opacity:0.2;mix-blend-mode:color-burn"/><path d="M5.8,10.8c0,.7-1.4,1.7-1.4,1.7s-1.5-1-1.5-1.7a.9.9,0,0,1,.9-.9l.6.2L5,9.9A.9.9,0,0,1,5.8,10.8Z" style="fill:#d66142"/><path d="M5,9.9l-.6.2h0v2.4h0s1.4-1,1.4-1.7A.9.9,0,0,0,5,9.9Z" style="fill:#616161;opacity:0.2;mix-blend-mode:color-burn"/><path d="M35.3,45.4c.1-.7,1.5-1.8,1.5-1.8s1.5,1.1,1.5,1.8a.9.9,0,0,1-.9.9l-.6-.2-.6.2A.9.9,0,0,1,35.3,45.4Z" style="fill:#d66142"/><path d="M36.2,46.3l.6-.2h0V43.6h0s-1.4,1.1-1.5,1.8A.9.9,0,0,0,36.2,46.3Z" style="fill:#616161;opacity:0.2;mix-blend-mode:color-burn"/><path d="M9,8c.2,2,4.1,5,4.1,5s4.1-3,4.1-5a2.5,2.5,0,0,0-2.5-2.5,3.4,3.4,0,0,0-1.6.7,2.9,2.9,0,0,0-1.6-.7A2.5,2.5,0,0,0,9,8Z" style="fill:#d66142"/><path d="M11.5,5.5a2.9,2.9,0,0,1,1.6.7h0V13h0S9.2,10,9,8A2.5,2.5,0,0,1,11.5,5.5Z" style="fill:#616161;opacity:0.2;mix-blend-mode:color-burn"/><path d="M31.9,8c-.1,2-4.1,5-4.1,5s-4-3-4-5a2.5,2.5,0,0,1,2.4-2.5,2.9,2.9,0,0,1,1.6.7,3.4,3.4,0,0,1,1.6-.7A2.5,2.5,0,0,1,31.9,8Z" style="fill:#d66142"/><path d="M29.4,5.5a3.4,3.4,0,0,0-1.6.7h0V13h0s4-3,4.1-5A2.5,2.5,0,0,0,29.4,5.5Z" style="fill:#616161;opacity:0.2;mix-blend-mode:color-burn"/><path d="M9,20.3c.2,1.9,4.1,5,4.1,5s4.1-3.1,4.1-5.1a2.5,2.5,0,0,0-2.5-2.4,3.4,3.4,0,0,0-1.6.7,2.9,2.9,0,0,0-1.6-.7A2.5,2.5,0,0,0,9,20.3Z" style="fill:#d66142"/><path d="M11.5,17.8a2.9,2.9,0,0,1,1.6.7h0v6.8h0s-3.9-3.1-4.1-5A2.5,2.5,0,0,1,11.5,17.8Z" style="fill:#616161;opacity:0.2;mix-blend-mode:color-burn"/><path d="M31.9,20.3c-.1,1.9-4.1,5-4.1,5s-4-3.1-4-5.1a2.4,2.4,0,0,1,2.4-2.4,2.9,2.9,0,0,1,1.6.7,3.4,3.4,0,0,1,1.6-.7A2.4,2.4,0,0,1,31.9,20.3Z" style="fill:#d66142"/><path d="M29.4,17.8a3.4,3.4,0,0,0-1.6.7h0v6.8h0s4-3.1,4.1-5A2.4,2.4,0,0,0,29.4,17.8Z" style="fill:#616161;opacity:0.2;mix-blend-mode:color-burn"/><path d="M9,47.3c.2-2,4.1-5,4.1-5s4.1,3,4.1,5a2.5,2.5,0,0,1-2.5,2.4,3.7,3.7,0,0,1-1.6-.6,3.2,3.2,0,0,1-1.6.6A2.5,2.5,0,0,1,9,47.3Z" style="fill:#d66142"/><path d="M11.5,49.7a3.2,3.2,0,0,0,1.6-.6h0V42.3h0s-3.9,3-4.1,5A2.5,2.5,0,0,0,11.5,49.7Z" style="fill:#616161;opacity:0.2;mix-blend-mode:color-burn"/><path d="M31.9,47.3c-.1-2-4.1-5-4.1-5s-4,3-4,5a2.4,2.4,0,0,0,2.4,2.4,3.2,3.2,0,0,0,1.6-.6,3.7,3.7,0,0,0,1.6.6A2.4,2.4,0,0,0,31.9,47.3Z" style="fill:#d66142"/><path d="M29.4,49.7a3.7,3.7,0,0,1-1.6-.6h0V42.3h0s4,3,4.1,5A2.4,2.4,0,0,1,29.4,49.7Z" style="fill:#616161;opacity:0.2;mix-blend-mode:color-burn"/><path d="M9,35c.2-2,4.1-5,4.1-5s4.1,3,4.1,5a2.5,2.5,0,0,1-2.5,2.5,3.4,3.4,0,0,1-1.6-.7,2.9,2.9,0,0,1-1.6.7A2.5,2.5,0,0,1,9,35Z" style="fill:#d66142"/><path d="M11.5,37.5a2.9,2.9,0,0,0,1.6-.7h0V30h0S9.2,33,9,35A2.5,2.5,0,0,0,11.5,37.5Z" style="fill:#616161;opacity:0.2;mix-blend-mode:color-burn"/><path d="M31.9,35c-.1-2-4.1-5-4.1-5s-4,3-4,5a2.5,2.5,0,0,0,2.4,2.5,2.9,2.9,0,0,0,1.6-.7,3.4,3.4,0,0,0,1.6.7A2.4,2.4,0,0,0,31.9,35Z" style="fill:#d66142"/><path d="M29.4,37.5a3.4,3.4,0,0,1-1.6-.7h0V30h0s4,3,4.1,5A2.4,2.4,0,0,1,29.4,37.5Z" style="fill:#616161;opacity:0.2;mix-blend-mode:color-burn"/></g></g></svg>