<svg xmlns="http://www.w3.org/2000/svg" viewBox="0 0 39.8 55.7"><g style="isolation:isolate"><g id="fcb1b8b0-1cf2-4610-a1ce-0fdc06df5034" data-name="Layer 1"><path d="M4.4,55.7A4.2,4.2,0,0,1,.1,51.5V4.2A4.2,4.2,0,0,1,4.3,0H35.5a4.2,4.2,0,0,1,4.3,4.2V51.5a4.2,4.2,0,0,1-4.3,4.2Z" style="fill:#c9c9c9"/><path d="M4.8,55.6A4.2,4.2,0,0,1,.6,51.4V4.2A4.2,4.2,0,0,1,4.8,0H35.6a4.2,4.2,0,0,1,4.2,4.2V51.4a4.2,4.2,0,0,1-4.2,4.2Z" style="fill:#fff"/><path d="M35.6,54.7H4.8a3.2,3.2,0,0,1-3.3-3.2V4.3A4.2,4.2,0,0,1,3.6.9H34.7c3,.2,4.1,1.9,4.1,3.4V51.5A3.2,3.2,0,0,1,35.6,54.7ZM4,2.1A2.7,2.7,0,0,0,2.8,4.3V51.5a1.9,1.9,0,0,0,2,1.9H35.6a1.9,1.9,0,0,0,1.9-1.9V4.3c0-1.2-1.1-2-2.9-2.2Z" style="fill:#d66142"/><polygon points="5.9 14.7 3.9 12.1 5.9 9.6 7.9 12.1 5.9 14.7" style="fill:#d66142"/><polygon points="5.9 9.6 5.8 9.7 5.8 14.6 5.9 14.7 7.9 12.1 5.9 9.6" style="fill:#616161;opacity:0.2;mix-blend-mode:color-burn"/><path d="M7.4,3.9l-.5.5-.5.2-.7-.2h-1a1.5,1.5,0,0,1,.4-.6l.7-.2H7.4Zm0,3.6a1.3,1.3,0,0,1-.4,1,2.1,2.1,0,0,1-1.2.3.8.8,0,0,1-.7-.2.7.7,0,0,1-.4-.5.4.4,0,0,1,.1-.3.4.4,0,0,1,.4-.2h.3c.1,0,.1.1.1.2s0,.3-.2.4H5.3l.4.2.4-.2c.1,0,.2-.1.2-.3V4.8l.5-.2.5-.3h.1Z" style="fill:#333"/><polygon points="34.6 41.6 36.6 44.1 34.6 46.7 32.6 44.1 34.6 41.6" style="fill:#d66142"/><polygon points="34.6 46.7 34.6 46.6 34.6 41.7 34.6 41.6 32.6 44.1 34.6 46.7" style="fill:#616161;opacity:0.2;mix-blend-mode:color-burn"/><path d="M33,48.8a1.4,1.4,0,0,1,.5-1,2.1,2.1,0,0,1,1.2-.3h.7a.7.7,0,0,1,.3.6.4.4,0,0,1-.1.3.5.5,0,0,1-.4.2c-.1,0-.2,0-.2-.1s-.2-.2-.2-.3.1-.3.2-.3.3-.1.3-.2h-.9c-.1.1-.2.2-.2.3v3.5l-.6.2-.5.3H33Zm.1,3.6a.7.7,0,0,1,.4-.5l.6-.2h1.7a1.8,1.8,0,0,1-.5.7H33.1Z" style="fill:#333"/><polygon points="17.2 17.4 15.8 17.9 16.1 18.5 21.6 18.4 22 17.9 20.7 17.4 17.2 17.4" style="fill:#757575"/><rect x="17.2" y="15.7" width="3.6" height="3.74" style="fill:#ebb07a"/><path d="M20.7,16.4v.9a2.1,2.1,0,0,1-1.4.7h-.7a2.1,2.1,0,0,1-1.4-.7v-.9l.3.5V15.7h2.7v1.2Z" style="fill:#616161;opacity:0.2;mix-blend-mode:color-burn"/><path d="M19.3,7.1h-.7a3,3,0,0,0-3.2,2.7s0,3.7.1,3.8c.2,1.6,1.5,4.1,3.1,4.1h.7c1.6,0,2.9-2.5,3.1-4.1.1-.1.1-3.8.1-3.8A3,3,0,0,0,19.3,7.1Z" style="fill:#ebb07a"/><polygon points="22.2 7.1 18.9 5.1 15.7 7.1 14.9 8.6 15.2 11.9 15.7 12.2 15.7 9.1 16.8 8 18.9 9 21.1 8 22.2 9.1 22.2 12.2 22.7 11.9 23 8.6 22.2 7.1" style="fill:#d66142"/><path d="M16.9,11.5c-.1.1-.1.1-.1.3a.6.6,0,0,0,1.2,0c0-.2-.1-.2-.1-.3Z" style="fill:#333"/><polygon points="19.2 11 18.9 11 18.7 11 18.4 13.3 18.9 14 19.5 13.3 19.2 11" style="fill:#616161;opacity:0.2;mix-blend-mode:color-burn"/><path d="M21,11.5c.1.1.1.1.1.3a.6.6,0,0,1-1.2,0c0-.2.1-.2.1-.3Z" style="fill:#333"/><path d="M22.2,13.8l-1.8,2.8V14.4l-.9-.4h-.9l-.9.4v2.2l-1.8-2.8-.2-.2c.2,1.6,1.5,4.1,3.1,4.1h.7c1.6,0,2.9-2.5,3.1-4.1Z" style="fill:#d66142"/><polygon points="19.9 15 19.1 14.4 18.9 14.4 18.8 14.4 18 15 17.9 16.7 18.9 16.7 20 16.7 19.9 15" style="fill:#ebb07a"/><g style="opacity:0.2;mix-blend-mode:color-burn"><rect x="18.3" y="15.1" width="1.3" height="0.43" style="fill:#616161"/></g><polygon points="19.9 10.2 21.6 10.4 19.9 10.6 19.9 10.2" style="fill:#d66142"/><polygon points="18 10.6 16.3 10.4 18 10.2 18 10.6" style="fill:#d66142"/><path d="M27.9,18.4l-1.4,1.3-.6,1.8,2.1-.4Z" style="fill:#757575"/><path d="M10.2,18.4l1.3,1.3.6,1.8-2-.4Z" style="fill:#757575"/><path d="M11,19.4l-.2.4-.5,1.4,2.4-.6Z" style="fill:#b35137"/><polygon points="29.5 23.3 28.2 23.8 25.7 24.5 25.6 24.5 22.4 25.5 22.4 25.5 22.2 25.5 21.2 25.8 20.8 25.9 19.7 26.3 19.1 26.5 16.8 27.2 16.3 27.3 16.2 27.3 15.6 27.5 15.2 27.6 14.1 28 12.5 28.4 12.4 28 12.4 26.6 11.4 28.5 11.4 28.8 10.2 29.1 7.5 29.9 7.5 26.1 7.5 25.9 7.5 25.9 7.5 25.9 7.5 25.3 7.6 25.1 8.1 23.8 8.7 22.5 9.2 21.1 9.5 20.6 9.7 20 10.1 19.9 10.8 19.8 10.8 19.8 10.9 19.7 10.9 19.7 11 19.7 11.1 19.7 11.3 19.6 11.3 19.6 11.3 19.6 11.4 19.6 13.3 19.2 13.5 19.1 13.6 19.1 13.8 19 15.2 18.7 15.2 18.7 15.4 18.6 16 18.5 16.1 18.5 17.2 18.2 20.7 18.2 21.6 18.4 21.8 18.5 21.9 18.5 23.2 18.8 24.4 19.1 26.6 19.6 26.7 19.7 27.2 19.8 27.9 20 27.9 20 28.2 20 28.7 21.4 29.3 22.7 29.4 23.1 29.5 23.3" style="fill:#ababab"/><polygon points="23.2 18.8 19.5 22.6 19.3 22.7 18.7 23.4 18.6 23.4 17.6 24.4 17.6 24.5 15.7 26.3 15.2 26.9 14.9 27.1 14.7 27.4 14.1 28 12.5 28.4 12.4 28 14.1 26.3 14.4 26 14.6 25.8 15.2 25.2 15.4 25.1 15.5 24.9 15.6 24.8 17.7 22.7 17.8 22.6 17.9 22.6 17.9 22.6 18.5 22 18.6 21.8 21.9 18.5 23.2 18.8" style="fill:#fff;opacity:0.2"/><polygon points="27.9 20 25.6 22.2 22.4 25.4 22.4 25.5 22.2 25.5 21.2 25.8 20.8 25.9 19.7 26.3 19.1 26.5 16.8 27.2 16.3 27.3 16.2 27.3 16.3 27.2 16.6 26.9 18.2 25.3 18.4 25.1 19.2 24.3 19.3 24.2 20.2 23.3 24.4 19.1 26.6 19.6 26.7 19.7 27.2 19.8 27.9 20" style="fill:#fff;opacity:0.2"/><path d="M22.4,25.5h-.2l-1,.3h-.4l-1.1.4-.6.2-2.3.7h-.6l-.6.2h-.4l-.3-.5L14.4,26l-1.7-3.5-.8-1.7v-.2h0l-.4-.9h0l1.9-.4h.5l1.4-.3h.2l3.2,3.2.9.8a4.6,4.6,0,0,0,.7.7l2.2,2.1Z" style="fill:#616161;opacity:0.2;mix-blend-mode:color-burn"/><path d="M19.1,26.5l-2.3.7h-.6l-.6.2-.4-.6-.6-1.1-1.9-3.3-.6-1.2-.3-.5-.7-1.1v-.3h.2l3.8-.9.2.3L18.5,22l.8.7.7.8,2.2,2-1,.3h-.4l-1.1.4Z" style="fill:#d66142"/><polygon points="13.5 19.1 13 21.8 15.5 22.9 15.5 22.9 15.5 22.9 15.5 22.9 15.5 22.9 16 20.2 13.5 19.1 13.5 19.1 13.5 19.1 13.5 19.1 13.5 19.1" style="fill:#ffd675"/><polygon points="13.3 18.8 12.7 22 15.7 23.1 15.7 23.2 15.7 23.2 15.7 23.2 15.7 23.1 16 20.3 13.4 18.8 13.3 18.8 13.3 18.8 13.3 18.8 13.3 18.8" style="fill:#616161;opacity:0.2;mix-blend-mode:color-burn"/><polygon points="13.7 21.4 13.9 19.9 15.3 20.6 15.1 22.1 13.7 21.4" style="fill:#616161;opacity:0.2;mix-blend-mode:color-burn"/><polygon points="15.8 17.9 16 18.5 18.8 20.2 18.7 18.2 15.8 17.9" style="fill:#ebebeb"/><polygon points="22 17.9 21.8 18.5 19 20.2 19 18.2 22 17.9" style="fill:#ebebeb"/><path d="M18.7,23.4l.5.5-.6-.5-.7-.8-.5-.5.5.5Z" style="fill:#616161;opacity:0.2;mix-blend-mode:color-burn"/><path d="M19.3,24.2l1.9,1.6h-.4l-1.6-1.6-.7-.8h0l-.8-.7-1.4-1.5h0l1.5,1.4.7.8h.1Z" style="fill:#616161;opacity:0.2;mix-blend-mode:color-burn"/><polygon points="16.8 27.2 16.3 27.3 16.3 27.2 15.7 26.3 15.2 25.2 14.6 24.1 13.8 22.7 15.4 25.1 16 26 16.6 26.9 16.8 27.2" style="fill:#616161;opacity:0.2;mix-blend-mode:color-burn"/><polygon points="19.7 26.3 19.1 26.5 18.6 25.8 18.2 25.3 17.6 24.5 17.2 24.1 17.6 24.4 18.4 25.1 19.7 26.3" style="fill:#616161;opacity:0.2;mix-blend-mode:color-burn"/><polygon points="12.4 26.6 11.4 28.5 11.4 28.8 10.2 29.1 9.4 28.9 10.5 28.4 12.4 26.6" style="fill:#616161;opacity:0.2;mix-blend-mode:color-burn"/><polygon points="29.5 23.3 28.2 23.8 25.7 24.5 25.6 24.5 25.4 22.7 25.6 22.2 25.9 21.5 26.7 19.7 27.2 19.8 27.9 20 27.9 20 28.2 20 28.7 21.4 29.3 22.7 29.4 23.1 29.5 23.3" style="fill:#616161;opacity:0.2;mix-blend-mode:color-burn"/><path d="M28.2,23.8l-2.5.7V22.7l.6-1.2h.1l.8-1.6.7-1.4,1.8,2.2a1.5,1.5,0,0,1,.1.6c.1.5.2,1.2.3,2h-.6Z" style="fill:#ababab"/><path d="M12.5,22.9V26l-4.2-.7a1,1,0,0,1,.1-.4l1.2-4.3.2-.6,1.1-.2H11Z" style="fill:#616161;opacity:0.2;mix-blend-mode:color-burn"/><path d="M12.4,26.3,8.5,26h-1a3.2,3.2,0,0,1,.1-.8c.2-1.5.7-4.5.7-4.5s1.8-2.2,1.8-2.2h0l.7,1.4,1.5,2.9Z" style="fill:#ababab"/><path d="M30.1,23.2h-.6l-1.3.5.5-2.4.2-.6-1-2.4,1.8,2.2a1.5,1.5,0,0,1,.1.6C29.9,21.7,30,22.4,30.1,23.2Z" style="fill:#fff;opacity:0.2"/><path d="M10.1,18.4l-.9,2.4v.3l.9,3.5L8.5,26l-.4.3s-.5,2.1-.6,2.2h0V25.9h0v-.8c.2-1.5.7-4.5.7-4.5s1.8-2.2,1.8-2.2h0Z" style="fill:#fff;opacity:0.2"/><polygon points="8.2 21.2 8.8 22.9 7.7 24.4 8.2 21.2" style="fill:#d66142"/><polygon points="30.2 23.2 30.1 23.2 29.6 23.3 29.4 23.1 29.2 22.9 29.3 22.7 29.8 21.2 29.9 21.2 30.2 23.2" style="fill:#d66142"/><path d="M29.9,21.2h-.1a1.5,1.5,0,0,0-.1-.6l-1.8-2.2-1.3,1.2-2.2-.5-1.2-.3-1.3-.3h-.1l.2-.6-1.3-.5V17a6.1,6.1,0,0,0,1.7-3.4,5,5,0,0,0,.1-1.6h.2L23,8.6l-.8-1.5-3.3-2h0V26.5h.2l.6-.2,1.1-.4h.4l1-.3h.2l3.2-1h.1l2.5-.7,1.3-.5h.7Z" style="fill:#616161;opacity:0.2;mix-blend-mode:color-burn"/><polygon points="20.4 38.6 21.8 38 21.5 37.5 16 37.5 15.6 38 16.9 38.6 20.4 38.6" style="fill:#757575"/><rect x="16.9" y="36.6" width="3.6" height="3.74" style="fill:#ebb07a"/><path d="M16.9,39.6v-.9a2.1,2.1,0,0,1,1.4-.7H19a2.1,2.1,0,0,1,1.4.7v.9l-.3-.5v1.2H17.3V39.1Z" style="fill:#616161;opacity:0.2;mix-blend-mode:color-burn"/><path d="M18.3,48.8H19a3,3,0,0,0,3.2-2.7V42.3c-.3-1.6-1.6-4-3.2-4h-.7c-1.6,0-2.9,2.4-3.1,4s-.1,3.8-.1,3.8A3,3,0,0,0,18.3,48.8Z" style="fill:#ebb07a"/><polygon points="15.5 48.8 18.7 50.9 21.9 48.8 22.7 47.4 22.4 44 22 43.8 21.9 46.9 20.9 48 18.7 46.9 16.5 48 15.5 46.9 15.4 43.8 15 44 14.6 47.4 15.5 48.8" style="fill:#d66142"/><path d="M20.7,44.5a.4.4,0,0,0,.1-.3c0-.3-.2-.5-.6-.5a.6.6,0,0,0-.6.5c0,.1.1.2.1.3Z" style="fill:#333"/><polygon points="18.4 45 18.7 45 18.9 45 19.2 42.6 18.7 42 18.1 42.6 18.4 45" style="fill:#616161;opacity:0.2;mix-blend-mode:color-burn"/><path d="M16.6,44.5a.4.4,0,0,1-.1-.3.6.6,0,0,1,1.2,0,.4.4,0,0,1-.1.3Z" style="fill:#333"/><path d="M15.4,42.2l1.8-2.8v2.2l1,.4h.8l.9-.4V39.4l1.8,2.8h.3c-.3-1.6-1.6-4-3.2-4h-.7c-1.6,0-2.9,2.4-3.1,4Z" style="fill:#d66142"/><polygon points="17.7 41 18.5 41.6 18.7 41.6 18.8 41.6 19.6 41 19.7 39.3 18.7 39.3 17.6 39.3 17.7 41" style="fill:#ebb07a"/><g style="opacity:0.2;mix-blend-mode:color-burn"><rect x="18" y="40.5" width="1.3" height="0.43" style="fill:#616161"/></g><polygon points="17.8 45.8 16 45.5 17.8 45.3 17.8 45.8" style="fill:#d66142"/><polygon points="19.6 45.3 21.3 45.5 19.6 45.8 19.6 45.3" style="fill:#d66142"/><path d="M9.7,37.6l1.4-1.3.6-1.8-2,.4Z" style="fill:#757575"/><path d="M27.5,37.6l-1.4-1.3-.6-1.8,2,.4Z" style="fill:#757575"/><path d="M26.6,36.6l.2-.4.5-1.4-2.4.6Z" style="fill:#b35137"/><polygon points="8.1 32.6 9.5 32.2 11.9 31.5 12 31.4 15.2 30.5 15.3 30.5 15.5 30.4 16.4 30.1 16.8 30 18 29.7 18.6 29.5 20.9 28.8 21.3 28.7 21.4 28.6 22.1 28.5 22.4 28.3 23.5 28 25.2 27.5 25.2 28 25.2 29.3 26.3 27.5 26.3 27.2 27.4 26.9 30.2 26 30.2 29.9 30.1 30.1 30.1 30.1 30.1 30.1 30.1 30.7 30 30.9 29.5 32.2 28.9 33.5 28.4 34.8 28.1 35.4 27.9 35.9 27.5 36 26.8 36.2 26.8 36.2 26.8 36.2 26.7 36.2 26.6 36.2 26.5 36.3 26.3 36.3 26.3 36.3 26.3 36.3 26.2 36.4 24.3 36.8 24.1 36.9 24.1 36.9 23.9 36.9 22.4 37.3 22.4 37.3 22.2 37.3 21.7 37.5 21.5 37.5 20.4 37.7 16.9 37.7 16 37.5 15.8 37.5 15.7 37.5 14.4 37.1 13.2 36.9 11.1 36.3 10.9 36.3 10.4 36.2 9.7 36 9.7 36 9.4 35.9 8.9 34.6 8.3 33.2 8.2 32.8 8.1 32.6" style="fill:#ababab"/><polygon points="14.4 37.1 18.2 33.4 18.3 33.2 19 32.6 19 32.6 20 31.5 20.1 31.5 21.9 29.7 22.4 29.1 22.7 28.9 23 28.6 23.5 28 25.2 27.5 25.2 28 23.5 29.7 23.2 30 23 30.1 22.4 30.7 22.3 30.9 22.1 31.1 22 31.2 19.9 33.3 19.8 33.3 19.8 33.4 19.8 33.4 19.1 34 19 34.2 15.7 37.5 14.4 37.1" style="fill:#fff;opacity:0.2"/><polygon points="9.7 36 12 33.7 15.2 30.5 15.3 30.5 15.5 30.4 16.4 30.1 16.8 30 18 29.7 18.6 29.5 20.9 28.8 21.3 28.7 21.4 28.6 21.4 28.7 21 29.1 19.4 30.7 19.2 30.8 18.4 31.7 18.3 31.8 17.4 32.7 13.2 36.9 11.1 36.3 10.9 36.3 10.4 36.2 9.7 36" style="fill:#fff;opacity:0.2"/><path d="M15.2,30.5h.3l.9-.3h.4l1.2-.3.6-.2,2.3-.7h1.2l.3-.2.3.6.5,1.1,1.7,3.5.8,1.7h.1l.5.9h-.1l-1.9.4h-.4l-1.5.4h-.2L19,34.2l-.8-.8-.8-.7-2.2-2.2Z" style="fill:#616161;opacity:0.2;mix-blend-mode:color-burn"/><path d="M18.6,29.5l2.3-.7h1.2l.3.6.6,1,1.9,3.4.7,1.2.2.4.7,1.2v.3h-.1l-3.8,1-.3-.3L19.1,34l-.8-.8-.7-.7-2.1-2.1.9-.3h.4l1.2-.3Z" style="fill:#d66142"/><polygon points="24.1 36.9 24.6 34.2 22.1 33 22.1 33 22.1 33 22.1 33 22.1 33 21.7 35.7 24.1 36.9 24.1 36.9 24.1 36.9 24.1 36.9 24.1 36.9" style="fill:#ffd675"/><polygon points="24.3 37.1 24.9 34 21.9 32.8 21.9 32.8 21.9 32.8 21.9 32.8 21.9 32.8 21.7 35.7 24.3 37.1 24.3 37.2 24.3 37.1 24.3 37.2 24.3 37.1" style="fill:#616161;opacity:0.2;mix-blend-mode:color-burn"/><polygon points="23.9 34.6 23.7 36 22.3 35.4 22.6 33.9 23.9 34.6" style="fill:#616161;opacity:0.2;mix-blend-mode:color-burn"/><polygon points="21.8 38 21.7 37.5 18.8 35.8 18.9 37.7 21.8 38" style="fill:#ebebeb"/><polygon points="15.6 38 15.8 37.5 18.7 35.8 18.6 37.7 15.6 38" style="fill:#ebebeb"/><path d="M19,32.6l-.6-.6.6.6a6,6,0,0,0,.8.8l.4.4-.4-.4Z" style="fill:#616161;opacity:0.2;mix-blend-mode:color-burn"/><path d="M18.3,31.8l-1.9-1.7h.4l1.6,1.7.7.8h.1l.7.8,1.4,1.5h0l-1.5-1.5-.7-.7H19Z" style="fill:#616161;opacity:0.2;mix-blend-mode:color-burn"/><polygon points="20.9 28.8 21.3 28.7 21.4 28.7 21.9 29.7 22.4 30.7 23 31.9 23.8 33.2 22.3 30.9 21.6 29.9 21 29.1 20.9 28.8" style="fill:#616161;opacity:0.2;mix-blend-mode:color-burn"/><polygon points="18 29.7 18.6 29.5 19 30.2 19.4 30.7 20.1 31.5 20.4 31.9 20 31.5 19.2 30.8 18 29.7" style="fill:#616161;opacity:0.2;mix-blend-mode:color-burn"/><polygon points="25.2 29.3 26.3 27.5 26.3 27.2 27.4 26.9 28.2 27 27.1 27.6 25.2 29.3" style="fill:#616161;opacity:0.2;mix-blend-mode:color-burn"/><polygon points="8.1 32.6 9.5 32.2 11.9 31.5 12 31.4 12.2 33.3 12 33.7 11.7 34.5 10.9 36.3 10.4 36.2 9.7 36 9.7 36 9.4 35.9 8.9 34.6 8.3 33.2 8.2 32.8 8.1 32.6" style="fill:#616161;opacity:0.2;mix-blend-mode:color-burn"/><path d="M9.5,32.2l2.4-.7v1.7l-.6,1.3h-.1l-.8,1.6-.7,1.4a19.2,19.2,0,0,0-1.8-2.2,2.4,2.4,0,0,1-.1-.7c-.1-.5-.2-1.2-.3-1.9l.5-.2h.1Z" style="fill:#ababab"/><path d="M25.1,33.1V30l4.2.7a.5.5,0,0,1-.1.3l-1.1,4.4-.3.5-1.1.3h-.2Z" style="fill:#616161;opacity:0.2;mix-blend-mode:color-burn"/><path d="M25.2,29.6l3.9.4h1a3.2,3.2,0,0,1-.1.8c-.2,1.5-.6,4.5-.7,4.5s-1.8,2.2-1.8,2.2h0l-.7-1.3-1.5-3Z" style="fill:#ababab"/><path d="M7.5,32.8l.5-.2h.1l1.4-.4-.6,2.4-.2.6,1,2.4a19.2,19.2,0,0,0-1.8-2.2,2.4,2.4,0,0,1-.1-.7C7.7,34.2,7.6,33.5,7.5,32.8Z" style="fill:#fff;opacity:0.2"/><path d="M27.5,37.5l.9-2.3v-.4l-.9-3.4L29.1,30l.4-.3s.5-2.1.6-2.2h.1v2.6h0v.8c-.2,1.5-.6,4.5-.7,4.5s-1.8,2.2-1.8,2.2h0Z" style="fill:#fff;opacity:0.2"/><polygon points="29.4 34.8 28.8 33.1 29.9 31.6 29.4 34.8" style="fill:#d66142"/><polygon points="7.5 32.8 7.5 32.8 8 32.6 8.2 32.8 8.4 33.1 8.3 33.2 7.8 34.7 7.8 34.8 7.5 32.8" style="fill:#d66142"/><path d="M18.7,29.5h-.1l-.6.2-1.2.3h-.4l-.9.3h-.3l-3.2.9h-.1l-2.4.7-1.4.4H8l-.5.2h0l.3,2h0a2.4,2.4,0,0,0,.1.7,19.2,19.2,0,0,1,1.8,2.2l1.4-1.3,2.1.6,1.2.2,1.3.4h.1l-.2.5,1.3.6V39a5.9,5.9,0,0,0-1.7,3.3c0,.1-.1.8-.1,1.6H15l-.4,3.4.9,1.4,3.2,2.1h0Z" style="fill:#616161;opacity:0.2;mix-blend-mode:color-burn"/></g></g></svg>