<svg xmlns="http://www.w3.org/2000/svg" viewBox="0 0 39.8 55.7"><g style="isolation:isolate"><g id="a8edbdae-9f39-4e1d-a874-31615289f45d" data-name="Layer 1"><path d="M4.6,55.3A4.2,4.2,0,0,1,.4,51.2V4.6A4.2,4.2,0,0,1,4.5.4H35.3a4.2,4.2,0,0,1,4.2,4.2V51.1a4.2,4.2,0,0,1-4.2,4.2Z" style="fill:#c9c9c9"/><path d="M5,55.2A4.1,4.1,0,0,1,.9,51V4.6A4.1,4.1,0,0,1,5,.4H35.4a4.2,4.2,0,0,1,4.1,4.2V51a4.2,4.2,0,0,1-4.1,4.2Z" style="fill:#fff"/><path d="M33.1,47.8h1.3v2.1h.7c.1-.1.1-.2.2-.4a3.2,3.2,0,0,1,.5-1.3.5.5,0,0,1,.2-.4h.8c.1.1.2.2.2.3h-.2a.2.2,0,0,1-.2-.2.2.2,0,0,0-.2-.2c-.2,0-.3.1-.4.3a1.5,1.5,0,0,0-.1.7v.5a1.7,1.7,0,0,1,.1.7,2.4,2.4,0,0,1-.2.8l-.4.5c-.1.2-.3.3-.5.5h1.7a.3.3,0,0,0-.1.2l-.2.2H33.1Zm1.3,2.4v1.7c.1,0,.2-.1.4-.4a.8.8,0,0,1,.1-.3c0-.1.1-.2.1-.3a1.8,1.8,0,0,0,.1-.5v-.2Z" style="fill:#333"/><path d="M8,8.3H6.7V6.2H5.9a2,2,0,0,0-.1.5c-.2.5-.3.9-.5,1.3L5,8.3l-.4.2-.3-.2c-.1,0-.2-.1-.2-.3h.2a.2.2,0,0,1,.2.2c0,.2,0,.2.1.2a.5.5,0,0,0,.5-.3V6a1.7,1.7,0,0,1,.1-.7l.4-.6.6-.5H4.5c0-.1,0-.1.1-.2a.3.3,0,0,1,.1-.2.1.1,0,0,0,.1.1H8ZM6.6,5.9V4.2l-.3.4c0,.1-.1.2-.1.3s-.1.2-.2.4a.6.6,0,0,1-.1.4v.2Z" style="fill:#333"/><path d="M24.4,23.5c0-.3.1-.7.1-1.1a4.9,4.9,0,0,0-9.7,0,4.7,4.7,0,0,0,.3,1.7,4.4,4.4,0,0,0-4.2,4.5,4.6,4.6,0,0,0,4.6,4.6,14,14,0,0,0,3.5-1l-3.1,5.3h7.6l-3.1-5.4a14.3,14.3,0,0,0,3.9,1.1,4.9,4.9,0,0,0,.1-9.7Z" style="fill:#333"/><path d="M24.4,23.5c0-.3.1-.7.1-1.1a4.8,4.8,0,0,0-4.8-4.8h-.1V37.5h3.9l-3.1-5.4a14.3,14.3,0,0,0,3.9,1.1,4.9,4.9,0,0,0,.1-9.7Z" style="fill:#616161;opacity:0.2;mix-blend-mode:color-burn"/><path d="M6.9,10.9v-.2a.5.5,0,0,0-.5-.5.5.5,0,0,0-.5.5v.2a.5.5,0,0,0,0,1h.4l-.3.6h.8l-.3-.6h.4a.5.5,0,0,0,0-1Z" style="fill:#333"/><path d="M6.9,10.9v-.2a.5.5,0,0,0-.5-.5h0v2.2h.4l-.3-.6h.4a.5.5,0,0,0,0-1Z" style="fill:#616161;opacity:0.2;mix-blend-mode:color-burn"/><path d="M35.1,45.4h.1a.6.6,0,0,1-.6.5.5.5,0,0,1-.5-.5v-.2a.5.5,0,0,1-.4-.5.5.5,0,0,1,.5-.5h.4l-.4-.5H35l-.3.6.4-.2a.6.6,0,0,1,.5.6A.5.5,0,0,1,35.1,45.4Z" style="fill:#333"/><path d="M35.1,45.4h.1a.6.6,0,0,1-.6.5h0V43.9H35l-.3.6.4-.2a.6.6,0,0,1,.5.6A.5.5,0,0,1,35.1,45.4Z" style="fill:#616161;opacity:0.2;mix-blend-mode:color-burn"/></g></g></svg>