<svg xmlns="http://www.w3.org/2000/svg" viewBox="0 0 39.8 55.7"><g style="isolation:isolate"><g id="eb0abdc5-269b-464b-884a-eb2936ee9d47" data-name="Layer 1"><path d="M4.2,55.8A4.3,4.3,0,0,1-.1,51.5L-.3,4.2A4.2,4.2,0,0,1,4,.1H35.3a4.2,4.2,0,0,1,4.3,4.2V51.6a4.2,4.2,0,0,1-4.3,4.2Z" style="fill:#c9c9c9"/><path d="M4.5,55.8A4.2,4.2,0,0,1,.2,51.6V4.2A4.2,4.2,0,0,1,4.4,0H35.7a4.2,4.2,0,0,1,4.2,4.2V51.5a4.2,4.2,0,0,1-4.2,4.2Z" style="fill:#fff"/><path d="M35.4,54.8H4.6a3.2,3.2,0,0,1-3.3-3.2V4.3A3.2,3.2,0,0,1,4.6,1.1H35.4a3.2,3.2,0,0,1,3.3,3.2V51.6A3.2,3.2,0,0,1,35.4,54.8ZM4.6,2.4a1.9,1.9,0,0,0-2,1.9V51.6a2,2,0,0,0,2,1.9H35.4a2,2,0,0,0,2-1.9V4.3a1.9,1.9,0,0,0-2-1.9Z" style="fill:#333"/><path d="M7.4,7.7,7,8l-.7.4-1.1-2h0V8.2H3.9V3.7H5.2V6.2a.7.7,0,0,0,.6-.4A2.5,2.5,0,0,0,6,5.1c0-.2,0-.3-.1-.4s-.1-.2-.1-.3.1-.2.4-.4l.5-.4.2.4a.6.6,0,0,1,.1.4.8.8,0,0,1-.1.4.8.8,0,0,1-.2.4l-.3.4-.3.3Z" style="fill:#333"/><path d="M32.7,48.7l.4-.3.7-.4,1.1,2h0V48.2h1.3v4.5H34.9V50.2a.7.7,0,0,0-.6.4,1.9,1.9,0,0,0-.2.7.6.6,0,0,0,.1.4c0,.1.1.2.1.3a1.2,1.2,0,0,1-.4.4l-.5.4c-.1-.1-.1-.2-.2-.4a.6.6,0,0,1-.1-.4,2,2,0,0,1,.3-.8l.3-.4.3-.3Z" style="fill:#333"/><path d="M31.4,17.8v-.2l-7.1-4.1-.5-.2h-8l-.4.2h0l-.3.2h-.1l-.9.4-.3.2-.3.2L13,15,9.1,17.3H8.9c-.2.1-.3.1-.3.2V30.2l4.9-1.5,1.2-.3,16.7-5Z" style="fill:#333"/><path d="M20,19.8l-2.1-3.6h4.2Zm-1.7-3.4,1.7,3,1.7-3Z" style="fill:#ffd675"/><path d="M17.2,13.3,9.6,17.6l-1,3.2v9.4l4.9-1.5,1.2-.3,2.9-9.8.4-1.3.6-1.2,1.3-2.8H17.2Z" style="fill:#616161;opacity:0.2;mix-blend-mode:color-burn"/><path d="M16.1,13.3h-.4l-.4.2h0l-.3.2h-.1l-.9.4-.3.2-.3.2L13,15l-1.4.9-.5.2-2,1.2H8.9c-.2.1-.3.1-.3.2V30.2l.9-.3H10l3.5-1.1h0l.6-1.2c1.2-2.9,2.6-6.5,3.5-8.9l1-2.4h0l.3-2.8Z" style="fill:#ebebeb"/><path d="M31.4,21.4l-1.2-3.8-7.5-4.3H19.9l1.9,4,2.4,8.4,7.2-2.6Z" style="fill:#616161;opacity:0.2;mix-blend-mode:color-burn"/><path d="M31.4,17.8v-.2l-7.6-4.3H21l.2,2.9,4.4,8.9,5.8-1.7Z" style="fill:#ebebeb"/><polygon points="24.3 11.4 24.2 10.4 24.2 10.3 24 7.2 22.8 6.6 20.6 5.5 19.9 5.8 19.3 5.5 17.1 6.6 15.9 7.2 15.7 10.3 15.7 10.4 15.6 11.4 16.5 14.5 19.9 17.3 19.9 17.3 19.9 17.3 19.9 17.3 19.9 17.3 19.9 17.3 19.9 17.3 23.6 14.3 24.3 11.4" style="fill:#ebbe9f"/><path d="M19.9,13.3h1.4l-1-.6h-.7l-1,.6Z" style="fill:#ebbe9f"/><polygon points="20.8 11.3 20.2 9.3 19.9 9.3 19.9 9.3 19.7 9.3 19.1 11.3 19.7 11.9 19.9 11.9 19.9 11.9 19.9 11.9 19.9 11.9 19.9 11.9 20.2 11.9 20.8 11.3" style="fill:#616161;opacity:0.2;mix-blend-mode:color-burn"/><polygon points="20.5 8.8 22.3 8.6 22.4 8.6 22.4 8.6 23.2 9 22.3 8.8 22.4 8.8 20.6 9.2 20.5 8.8" style="fill:#9c9c9c"/><path d="M21.2,9.5v.2a.5.5,0,0,0,1,0V9.5Z" style="fill:#333"/><polygon points="19.3 8.8 17.6 8.6 17.5 8.6 17.5 8.6 16.7 9 17.6 8.8 17.5 8.8 19.3 9.2 19.3 8.8" style="fill:#9c9c9c"/><path d="M18.7,9.5v.2a.5.5,0,0,1-.5.5.5.5,0,0,1-.5-.5V9.5Z" style="fill:#333"/><path d="M24.2,10.4h0l-.8-2.9-.6-.9,1.2.6.2,3.1Z" style="fill:#9c9c9c"/><path d="M15.7,10.4h0l.8-2.9.6-.9-1.2.6-.2,3.1Z" style="fill:#9c9c9c"/><path d="M24.1,6.1V7.3a18.6,18.6,0,0,1-3.4.4H15.8V6.2L19.9,4l1.2.6.7.3.6.4,1.5.7Z" style="fill:#ffd675"/><path d="M21.8,4.9,17.7,7.6h-.9l4.3-2.9Z" style="fill:#fff;opacity:0.2"/><path d="M23.9,6,20.7,7.7H18.6l3.8-2.4Z" style="fill:#fff;opacity:0.2"/><polygon points="11.8 21.6 11.6 22.5 12.1 21.7 11.8 21.6" style="fill:#333"/><polygon points="13.7 21.6 13.5 22.5 14 21.7 13.7 21.6" style="fill:#333"/><polygon points="15.6 21.6 15.4 22.5 15.9 21.7 15.6 21.6" style="fill:#333"/><polygon points="9.4 24.7 9.3 25.7 9.7 24.8 9.4 24.7" style="fill:#333"/><polygon points="11.3 24.7 11.2 25.7 11.6 24.8 11.3 24.7" style="fill:#333"/><polygon points="13.2 24.7 13.1 25.7 13.5 24.8 13.2 24.7" style="fill:#333"/><polygon points="10 27.8 9.8 28.8 10.3 28 10 27.8" style="fill:#333"/><polygon points="11.9 27.8 11.7 28.8 12.2 28 11.9 27.8" style="fill:#333"/><path d="M13.9,27.8a1.4,1.4,0,0,0-.2.6h-.1v-.7Z" style="fill:#333"/><polygon points="15.1 16.1 15 17.1 15.4 16.2 15.1 16.1" style="fill:#333"/><polygon points="13.2 15.7 13.1 16.7 13.5 15.9 13.2 15.7" style="fill:#333"/><path d="M11.4,16.1l-.2.5v-.4Z" style="fill:#333"/><polygon points="9.8 29.8 9.6 29.9 9.6 29.7 9.8 29.8" style="fill:#333"/><polygon points="9.4 18.4 9.3 19.4 9.8 18.5 9.4 18.4" style="fill:#333"/><polygon points="11.6 18.4 11.4 19.4 11.9 18.5 11.6 18.4" style="fill:#333"/><polygon points="13.5 18.4 13.3 19.4 13.8 18.5 13.5 18.4" style="fill:#333"/><polygon points="15.4 18.4 15.2 19.4 15.7 18.5 15.4 18.4" style="fill:#333"/><polygon points="17.3 16.6 17.2 17.6 17.7 16.7 17.3 16.6" style="fill:#333"/><polygon points="9.7 21.6 9.5 22.5 10 21.7 9.7 21.6" style="fill:#333"/><polygon points="28.5 21.6 28.7 22.5 28.2 21.7 28.5 21.6" style="fill:#333"/><polygon points="26.6 21.6 26.8 22.5 26.3 21.7 26.6 21.6" style="fill:#333"/><polygon points="24.7 21.6 24.9 22.5 24.4 21.7 24.7 21.6" style="fill:#333"/><polygon points="25.2 16.1 25.3 17.1 24.9 16.2 25.2 16.1" style="fill:#333"/><polygon points="27.1 15.7 27.2 16.7 26.8 15.9 27.1 15.7" style="fill:#333"/><path d="M28.7,16.4l.3.4v-.3Z" style="fill:#333"/><polygon points="30.9 18.4 31 19.4 30.5 18.5 30.9 18.4" style="fill:#333"/><polygon points="28.7 18.4 28.9 19.4 28.4 18.5 28.7 18.4" style="fill:#333"/><polygon points="26.8 18.4 27 19.4 26.5 18.5 26.8 18.4" style="fill:#333"/><polygon points="24.9 18.4 25.1 19.4 24.6 18.5 24.9 18.4" style="fill:#333"/><polygon points="23 16.6 23.1 17.6 22.6 16.7 23 16.6" style="fill:#333"/><polygon points="30.6 21.6 30.8 22.5 30.3 21.7 30.6 21.6" style="fill:#333"/><path d="M18.2,16v.4a2,2,0,0,0,2,2,1.9,1.9,0,0,0,1.9-2,1.3,1.3,0,0,0-.1-.6,1.9,1.9,0,0,0-.1-3.8l-1.5.5h-.5a5.8,5.8,0,0,0-1.6-.5,2,2,0,0,0-.1,4Z" style="fill:#9c9c9c"/><path d="M20.2,4.8h0a.3.3,0,1,0-.6,0h0a.3.3,0,1,0,0,.6h.3l-.2.4h.4l-.2-.4h.3a.3.3,0,0,0,.3-.3A.3.3,0,0,0,20.2,4.8Z" style="fill:#333"/><path d="M21,21.2a.4.4,0,0,0,.1-.3,1.3,1.3,0,0,0-1.2-1,1.3,1.3,0,0,0-1.1,1c0,.2.1.3.1.4a1.3,1.3,0,0,0-1.1,1.1,1,1,0,0,0,1.1,1.2l.9-.3L19,24.9h2l-.9-1.6,1.1.3a1.2,1.2,0,0,0,1.1-1.3A1.3,1.3,0,0,0,21,21.2Z" style="fill:#616161;opacity:0.2;mix-blend-mode:color-burn"/><path d="M21,21.1c0-.1.1-.1.1-.2a1.2,1.2,0,0,0-1.2-1.2,1.1,1.1,0,0,0-1.1,1.2.8.8,0,0,0,.1.4.9.9,0,0,0-1,1A1.1,1.1,0,0,0,19,23.4l.8-.3-.7,1.3h1.7l-.7-1.3.9.3a1.1,1.1,0,0,0,1.1-1.2A1.1,1.1,0,0,0,21,21.1Z" style="fill:#ffd675"/><path d="M19.9,23.5l.5.5h-.9Zm-.9-.6c-.4,0-.7-.2-.7-.6a.6.6,0,0,1,.6-.6h.6l-.2-.5a.3.3,0,0,0-.1-.2.8.8,0,0,1,.7-.7c.2,0,.4,0,.5.2s.2.3.2.5h0v.5H21a.7.7,0,0,1,.7.6.8.8,0,0,1-.2.5c-.1.2-.3.2-.5.2h-.5l-.6-.3-.5.3Z" style="fill:#616161;opacity:0.2;mix-blend-mode:color-burn"/><polygon points="18.3 12.8 21.7 12.8 21.2 14 19 14 18.3 12.8" style="fill:#ebbe9f"/><rect x="19.1" y="13" width="1.8" height="0.35" style="fill:#616161;opacity:0.2;mix-blend-mode:color-burn"/><path d="M31.3,17.6l-7.1-4.1-.3-.2.4-1.9v-1h0l-.2-3h.1V6.1h-.2l-1.5-.7-.6-.4-.7-.3L19.9,4h0V26.8l4.3-1.3v.2l2.5-.9,4.7-1.4V17.6Z" style="fill:#616161;opacity:0.2;mix-blend-mode:color-burn"/><path d="M8.6,37.9v.3l7,4,.5.3h7.6c.1,0,.1,0,.1-.1h.4l.3-.2h0l.3-.2h.2l.8-.5.3-.2.4-.2.3-.2,4-2.2a.1.1,0,0,1,.1-.1l.4-.2V25.5l-5,1.5-1.1.4-16.7,5Z" style="fill:#333"/><path d="M20,35.9l2,3.6H17.9Zm1.6,3.4L20,36.4l-1.7,2.9Z" style="fill:#ffd675"/><path d="M22.8,42.5l7.5-4.3,1.1-3.3V25.5l-5,1.5-1.1.4-3,9.7-.4,1.3-.6,1.3L20,42.4h2.8Z" style="fill:#616161;opacity:0.2;mix-blend-mode:color-burn"/><path d="M23.8,42.5h0c.1,0,.1,0,.1-.1h.4l.3-.2h0l.3-.2h.2l.8-.5.3-.2.4-.2.3-.2,1.5-.8.4-.3,2.1-1.1a.1.1,0,0,1,.1-.1l.4-.2V25.5l-.9.3H30L26.4,27h0c-.2.4-.3.8-.5,1.3-1.2,2.8-2.7,6.5-3.6,8.8l-1,2.5h0l-.2,2.8Z" style="fill:#ebebeb"/><path d="M8.6,34.4l1.1,3.8,7.6,4.3H20l-1.9-4-2.4-8.3L8.6,32.7Z" style="fill:#616161;opacity:0.2;mix-blend-mode:color-burn"/><path d="M8.6,37.9v.3l7.5,4.3H19l-.3-2.9s-3.2-6.8-4.4-8.9L8.6,32.4Z" style="fill:#ebebeb"/><polygon points="15.6 44.3 15.7 45.4 15.7 45.4 15.9 48.6 17.1 49.1 19.4 50.3 20 50 20.6 50.3 22.9 49.1 24 48.6 24.3 45.4 24.3 45.4 24.4 44.3 23.4 41.2 20 38.4 20 38.4 20 38.4 20 38.4 20 38.4 20 38.4 20 38.4 16.3 41.4 15.6 44.3" style="fill:#ebbe9f"/><path d="M20,42.5H18.6l1,.7h.7l1.1-.7Z" style="fill:#ebbe9f"/><polygon points="19.1 44.5 19.7 46.4 20 46.4 20 46.4 20.3 46.4 20.8 44.5 20.3 43.9 20 43.8 20 43.8 20 43.8 20 43.8 20 43.8 19.7 43.9 19.1 44.5" style="fill:#616161;opacity:0.2;mix-blend-mode:color-burn"/><polygon points="19.4 47 17.6 47.2 17.6 47.2 17.6 47.2 16.7 46.7 17.6 47 17.6 47 19.3 46.5 19.4 47" style="fill:#9c9c9c"/><path d="M18.8,46.2V46a.5.5,0,0,0-1,0c0,.1,0,.2.1.2Z" style="fill:#333"/><polygon points="20.6 47 22.4 47.2 22.4 47.2 22.4 47.2 23.3 46.7 22.3 47 22.4 47 20.7 46.5 20.6 47" style="fill:#9c9c9c"/><path d="M21.2,46.2V46a.5.5,0,0,1,.5-.5.5.5,0,0,1,.5.5c0,.1,0,.2-.1.2Z" style="fill:#333"/><path d="M15.7,45.4h0l.9,2.9.5.9-1.2-.5-.2-3.2Z" style="fill:#9c9c9c"/><path d="M24.3,45.4h-.1l-.8,2.9-.5.9,1.1-.5.3-3.2Z" style="fill:#9c9c9c"/><path d="M15.9,49.7V48.5a17.5,17.5,0,0,1,3.3-.5h3.9l1.1.2v1.1L20,51.7l-1.2-.6-.6-.3-.7-.3-1.4-.7Z" style="fill:#ffd675"/><path d="M18.2,50.8l4-2.7h.9l-4.3,2.9Z" style="fill:#fff;opacity:0.2"/><path d="M16.1,49.8,19.2,48h2.1l-3.8,2.4Z" style="fill:#fff;opacity:0.2"/><polygon points="28.2 34.2 28.3 33.2 27.8 34.1 28.2 34.2" style="fill:#333"/><polygon points="26.3 34.2 26.4 33.2 25.9 34.1 26.3 34.2" style="fill:#333"/><polygon points="24.4 34.2 24.5 33.2 24 34.1 24.4 34.2" style="fill:#333"/><polygon points="30.5 31.1 30.7 30.1 30.2 30.9 30.5 31.1" style="fill:#333"/><polygon points="28.6 31.1 28.8 30.1 28.3 30.9 28.6 31.1" style="fill:#333"/><polygon points="26.7 31.1 26.9 30.1 26.4 30.9 26.7 31.1" style="fill:#333"/><polygon points="30 27.9 30.1 26.9 29.6 27.8 30 27.9" style="fill:#333"/><polygon points="28.1 27.9 28.2 26.9 27.7 27.8 28.1 27.9" style="fill:#333"/><path d="M26,28l.3-.6h0V28Z" style="fill:#333"/><polygon points="24.8 39.6 25 38.6 24.5 39.5 24.8 39.6" style="fill:#333"/><polygon points="26.7 40 26.9 39 26.4 39.9 26.7 40" style="fill:#333"/><path d="M28.5,39.7l.3-.5v.3C28.7,39.6,28.6,39.6,28.5,39.7Z" style="fill:#333"/><polygon points="30.1 25.9 30.4 25.9 30.3 26 30.1 25.9" style="fill:#333"/><polygon points="30.5 37.3 30.6 36.4 30.2 37.2 30.5 37.3" style="fill:#333"/><polygon points="28.4 37.3 28.5 36.4 28 37.2 28.4 37.3" style="fill:#333"/><polygon points="26.5 37.3 26.6 36.4 26.1 37.2 26.5 37.3" style="fill:#333"/><polygon points="24.6 37.3 24.7 36.4 24.2 37.2 24.6 37.3" style="fill:#333"/><polygon points="22.6 39.1 22.7 38.1 22.3 39 22.6 39.1" style="fill:#333"/><polygon points="30.3 34.2 30.4 33.2 29.9 34.1 30.3 34.2" style="fill:#333"/><polygon points="11.4 34.2 11.3 33.2 11.8 34.1 11.4 34.2" style="fill:#333"/><polygon points="13.3 34.2 13.2 33.2 13.7 34.1 13.3 34.2" style="fill:#333"/><polygon points="15.2 34.2 15.1 33.2 15.6 34.1 15.2 34.2" style="fill:#333"/><polygon points="14.7 39.6 14.6 38.6 15.1 39.5 14.7 39.6" style="fill:#333"/><polygon points="12.8 40 12.7 39 13.2 39.9 12.8 40" style="fill:#333"/><path d="M11.2,39.4l-.3-.5v.3Z" style="fill:#333"/><polygon points="9.1 37.3 8.9 36.4 9.4 37.2 9.1 37.3" style="fill:#333"/><polygon points="11.2 37.3 11.1 36.4 11.5 37.2 11.2 37.3" style="fill:#333"/><polygon points="13.1 37.3 13 36.4 13.4 37.2 13.1 37.3" style="fill:#333"/><polygon points="15 37.3 14.9 36.4 15.3 37.2 15 37.3" style="fill:#333"/><polygon points="17 39.1 16.8 38.1 17.3 39 17 39.1" style="fill:#333"/><polygon points="9.3 34.2 9.2 33.2 9.6 34.1 9.3 34.2" style="fill:#333"/><path d="M21.7,39.7c0-.1.1-.2,0-.4a1.9,1.9,0,0,0-1.9-2,2,2,0,0,0-2,2,1.7,1.7,0,0,0,.1.7,1.8,1.8,0,0,0-1.7,1.8,1.8,1.8,0,0,0,1.9,1.9l1.4-.4h.6l1.6.4a1.9,1.9,0,0,0,1.9-2A2,2,0,0,0,21.7,39.7Z" style="fill:#9c9c9c"/><path d="M19.7,51h0a.4.4,0,0,0,.3.4.4.4,0,0,0,.4-.4.1.1,0,0,1-.1-.1.3.3,0,0,0,.3-.3.3.3,0,0,0-.3-.3h-.2l.2-.3h-.5l.2.3h-.3a.4.4,0,0,0-.3.4Z" style="fill:#333"/><path d="M18.9,34.6v.2a1.1,1.1,0,0,0,2.2,0,.6.6,0,0,0-.1-.4,1.1,1.1,0,0,0,1.1-1.1,1.1,1.1,0,0,0-1-1.2l-1,.3.9-1.6H18.9l.9,1.5-1-.3a1.1,1.1,0,0,0-1.1,1.3A1.2,1.2,0,0,0,18.9,34.6Z" style="fill:#616161;opacity:0.2;mix-blend-mode:color-burn"/><path d="M18.9,34.6v.3a1.1,1.1,0,1,0,2.2,0v-.4a1,1,0,0,0,.9-1.1,1,1,0,0,0-1-1l-.9.2.8-1.2H19.1l.7,1.2-.9-.2a1.1,1.1,0,1,0,0,2.2Z" style="fill:#ffd675"/><path d="M20,32.3l-.4-.6h.8Zm1,.5a.6.6,0,0,1,.6.6.7.7,0,0,1-.6.7h-.5l.2.5v.3a.7.7,0,0,1-.7.7l-.5-.2c-.1-.2-.2-.3-.2-.5v-.7h-.5a.7.7,0,0,1-.7-.7.8.8,0,0,1,.2-.5l.5-.2h.6l.5.3.5-.3Z" style="fill:#616161;opacity:0.2;mix-blend-mode:color-burn"/><polygon points="21.6 42.9 18.2 42.9 18.7 41.7 21 41.7 21.6 42.9" style="fill:#ebbe9f"/><rect x="19" y="42.4" width="1.8" height="0.35" style="fill:#616161;opacity:0.2;mix-blend-mode:color-burn"/><path d="M8.7,38.2l7,4,.4.2-.5,1.9v1.1h0l.2,3.1h0v1.2h.2l1.4.7.7.3.6.3,1.2.6h0V28.9l-4.3,1.3h0l-2.4.9L8.6,32.4v5.8Z" style="fill:#616161;opacity:0.2;mix-blend-mode:color-burn"/><path d="M6.5,11.1c.1,0,.1-.1.1-.2A1.1,1.1,0,0,0,5.4,9.8a1.1,1.1,0,0,0-1.1,1.1c0,.1.1.3.1.4a1.1,1.1,0,0,0-1,1,1.1,1.1,0,0,0,1.1,1.1l.8-.3-.7,1.3H6.3l-.7-1.3.9.3a1.1,1.1,0,0,0,1.1-1.1A1.3,1.3,0,0,0,6.5,11.1Z" style="fill:#333"/><path d="M6.5,11.1c.1,0,.1-.1.1-.2A1.1,1.1,0,0,0,5.4,9.8h0v4.6h.9l-.7-1.3.9.3a1.1,1.1,0,0,0,1.1-1.1A1.3,1.3,0,0,0,6.5,11.1Z" style="fill:#616161;opacity:0.2;mix-blend-mode:color-burn"/><path d="M33.2,44.5v.2a1.1,1.1,0,1,0,2.2,0v-.4a1,1,0,0,0,.9-1,1,1,0,0,0-1-1.1l-.8.3.7-1.2H33.4l.8,1.2-.9-.3a1.2,1.2,0,0,0-1.2,1.2A1.1,1.1,0,0,0,33.2,44.5Z" style="fill:#333"/><path d="M33.2,44.5v.2a1.1,1.1,0,0,0,1.1,1.1h0V41.3h-.9l.8,1.2-.9-.3a1.2,1.2,0,0,0-1.2,1.2A1.1,1.1,0,0,0,33.2,44.5Z" style="fill:#616161;opacity:0.2;mix-blend-mode:color-burn"/></g></g></svg>