<svg xmlns="http://www.w3.org/2000/svg" viewBox="0 0 39.8 55.7"><g style="isolation:isolate"><g id="f6f85ff6-c17a-4171-85ec-593e9bcafe47" data-name="Layer 1"><path d="M4.4,55.7A4.2,4.2,0,0,1,.1,51.5V4.2A4.2,4.2,0,0,1,4.3,0H35.5a4.2,4.2,0,0,1,4.3,4.2V51.5a4.2,4.2,0,0,1-4.3,4.2Z" style="fill:#c9c9c9"/><path d="M4.8,55.6A4.2,4.2,0,0,1,.6,51.4V4.2A4.2,4.2,0,0,1,4.8,0H35.6a4.2,4.2,0,0,1,4.2,4.2V51.4a4.2,4.2,0,0,1-4.2,4.2Z" style="fill:#fff"/><path d="M33.3,49.4a2.1,2.1,0,0,1,.3-.7c.3-.4.4-.5.6-.5H36c.1,0,.1,0,.1-.1h.2v.2l-.2.2c-.2.2-.4.6-.8,1l-.5.7-.2.6a.4.4,0,0,0,.1.3.4.4,0,0,0,.1.3l.3.2h.3l.5-.2.3-.3h.1c0,.1,0,.2-.2.4l-.5.5-.4.2-.5.2a1.1,1.1,0,0,1-.7-.3,1.3,1.3,0,0,1-.3-.8,1.9,1.9,0,0,1,.2-.7l.4-.5a2.5,2.5,0,0,1,.5-.7l.3-.4c0-.1,0-.1-.1-.1h-.5l-.7.2-.4.3h-.1Z" style="fill:#333"/><path d="M7.8,6.8c0,.2-.2.4-.3.7s-.4.5-.6.5H4.8c0-.1.1-.1.2-.2l.8-1c.2-.3.3-.6.5-.7a2.5,2.5,0,0,0,.2-.7A.4.4,0,0,0,6.4,5V4.7L6,4.5H5.7l-.5.3-.3.2c-.1,0-.1,0-.1-.1s0-.2.2-.4L5.5,4l.4-.3h.5a1.1,1.1,0,0,1,.7.3.9.9,0,0,1,.3.7,2.4,2.4,0,0,1-.2.8c-.1,0-.2.2-.4.4a2.5,2.5,0,0,1-.5.7L6,7H7.3l.4-.3h.1Z" style="fill:#333"/><path d="M24.4,19.1c0-.9-4.2-5.1-4.2-5.1h0v9.9h1.9l-1.5-2.6a2.4,2.4,0,0,0,1.2.3A2.6,2.6,0,0,0,24.4,19.1Z" style="fill:#616161;opacity:0.2;mix-blend-mode:color-burn"/><path d="M24.4,37.3c0,.9-4.2,5.1-4.2,5.1h0v-10h1.9l-1.5,2.7a2.4,2.4,0,0,1,1.2-.3A2.6,2.6,0,0,1,24.4,37.3Z" style="fill:#616161;opacity:0.2;mix-blend-mode:color-burn"/><path d="M7.3,11c0-.2-1.1-1.3-1.1-1.3h0v2.6h.5l-.4-.7h.4A.7.7,0,0,0,7.3,11Z" style="fill:#616161;opacity:0.2;mix-blend-mode:color-burn"/><path d="M33.7,45.2c0,.2,1.1,1.3,1.1,1.3h0V43.9h-.5l.4.7h-.3A.7.7,0,0,0,33.7,45.2Z" style="fill:#616161;opacity:0.2;mix-blend-mode:color-burn"/><path d="M24.1,17.4c-.1,1.9-3.9,4.8-3.9,4.8s-3.9-2.9-3.9-4.8A2.3,2.3,0,0,1,18.6,15a2.9,2.9,0,0,1,1.6.7,2.9,2.9,0,0,1,1.5-.7A2.3,2.3,0,0,1,24.1,17.4Z" style="fill:#d66142"/><path d="M21.7,15a2.9,2.9,0,0,0-1.5.7h0v6.5h0s3.8-2.9,3.9-4.8A2.3,2.3,0,0,0,21.7,15Z" style="fill:#616161;opacity:0.2;mix-blend-mode:color-burn"/><path d="M16.2,38.2c.1-1.9,3.9-4.8,3.9-4.8s4,2.9,4,4.8a2.4,2.4,0,0,1-2.4,2.4,2.9,2.9,0,0,1-1.6-.7,2.9,2.9,0,0,1-1.5.7A2.4,2.4,0,0,1,16.2,38.2Z" style="fill:#d66142"/><path d="M18.6,40.6a2.9,2.9,0,0,0,1.5-.7h0V33.4h0s-3.8,2.9-3.9,4.8A2.4,2.4,0,0,0,18.6,40.6Z" style="fill:#616161;opacity:0.2;mix-blend-mode:color-burn"/><path d="M7.3,10.8c0,.7-1.3,1.7-1.3,1.7s-1.4-1-1.4-1.7a.9.9,0,0,1,.8-.8l.6.2a.8.8,0,0,1,.5-.2C7,10,7.4,10.4,7.3,10.8Z" style="fill:#d66142"/><path d="M6.5,10a.8.8,0,0,0-.5.2H6v2.3H6s1.3-1,1.3-1.7S7,10,6.5,10Z" style="fill:#616161;opacity:0.2;mix-blend-mode:color-burn"/><path d="M33.2,45.5c0-.7,1.4-1.7,1.4-1.7s1.4,1,1.4,1.7a.8.8,0,0,1-.8.8,1.3,1.3,0,0,1-.6-.2l-.5.2A.8.8,0,0,1,33.2,45.5Z" style="fill:#d66142"/><path d="M34.1,46.3l.5-.2h0V43.8h0s-1.4,1-1.4,1.7A.8.8,0,0,0,34.1,46.3Z" style="fill:#616161;opacity:0.2;mix-blend-mode:color-burn"/></g></g></svg>