<svg xmlns="http://www.w3.org/2000/svg" viewBox="0 0 39.8 55.7"><g style="isolation:isolate"><g id="f6bb0fb3-8f86-4e76-8143-1398226081e5" data-name="Layer 1"><path d="M4.4,55.7A4.2,4.2,0,0,1,.1,51.5V4.2A4.2,4.2,0,0,1,4.3,0H35.5a4.2,4.2,0,0,1,4.3,4.2V51.5a4.2,4.2,0,0,1-4.3,4.2Z" style="fill:#c9c9c9"/><path d="M4.7,55.7A4.2,4.2,0,0,1,.5,51.5V4.3A4.2,4.2,0,0,1,4.7.1H35.5a4.2,4.2,0,0,1,4.2,4.2V51.5a4.2,4.2,0,0,1-4.2,4.2Z" style="fill:#fff"/><path d="M35.6,54.7H4.8a3.2,3.2,0,0,1-3.3-3.2V4.3A3.3,3.3,0,0,1,4.8,1H35.6a3.2,3.2,0,0,1,3.2,3.3V51.5A3.2,3.2,0,0,1,35.6,54.7ZM4.8,2.3a2,2,0,0,0-2,2V51.5a2,2,0,0,0,2,1.9H35.6a2,2,0,0,0,2-1.9V4.3a2,2,0,0,0-2-2Z" style="fill:#d66142"/><polygon points="5.9 14.7 3.9 12.1 5.9 9.6 7.9 12.1 5.9 14.7" style="fill:#d66142"/><polygon points="5.9 9.6 5.9 9.7 5.9 14.6 5.9 14.7 7.9 12.1 5.9 9.6" style="fill:#616161;opacity:0.2;mix-blend-mode:color-burn"/><path d="M7.6,7.6c0,.1-.2.2-.4.3a1.3,1.3,0,0,1-.7.4l-1-1.9H5.4V8.1H4.1V3.7H5.4V6.2c.2,0,.4-.2.6-.5a1.4,1.4,0,0,0,.2-.6V4.7L6,4.4c0-.1.1-.2.4-.4l.5-.4.2.3a.9.9,0,0,1,.1.5.4.4,0,0,1-.1.3c0,.2-.1.3-.1.5a.5.5,0,0,0-.3.4l-.3.3Z" style="fill:#333"/><polygon points="34.6 41.6 36.6 44.1 34.6 46.7 32.6 44.1 34.6 41.6" style="fill:#d66142"/><polygon points="34.6 46.7 34.7 46.6 34.7 41.7 34.6 41.6 32.6 44.1 34.6 46.7" style="fill:#616161;opacity:0.2;mix-blend-mode:color-burn"/><path d="M32.9,48.6l.4-.3.7-.4,1.1,2h0V48.1h1.3v4.5H35.1V50.1a.7.7,0,0,0-.6.4,2.5,2.5,0,0,0-.2.7c0,.2,0,.3.1.4s.1.2.1.3-.1.2-.4.4l-.5.4c-.1-.1-.1-.2-.2-.4a.6.6,0,0,1-.1-.4,2,2,0,0,1,.3-.8l.3-.4.3-.3Z" style="fill:#333"/><path d="M31.6,17.8v-.3l-7.1-4-.5-.3h-8l-.4.2h-.4l-.8.5-.4.2-.3.2-.3.2-4,2.2a.1.1,0,0,0-.1.1l-.4.2V30.1l5-1.4,1.1-.4,16.7-5Z" style="fill:#d66142"/><polygon points="20.2 25.3 17.9 22 20.2 19.4 22.5 22.1 20.2 25.3" style="fill:#616161;opacity:0.2;mix-blend-mode:color-burn"/><polygon points="20.2 24.5 18.2 22 20.2 19.4 22.2 22 20.2 24.5" style="fill:#ffd675"/><polygon points="19.1 22 20.2 20.6 21.3 22 20.2 23.4 19.1 22" style="fill:#616161;opacity:0.2;mix-blend-mode:color-burn"/><path d="M20.2,19.8l-2.1-3.6h4.2Zm-1.7-3.4,1.7,2.9,1.7-2.9Z" style="fill:#ffd675"/><path d="M17.4,13.2,9.9,17.5,8.8,20.8v9.3l5-1.4,1.1-.4,3-9.7.4-1.3.5-1.3,1.3-2.7H17.4Z" style="fill:#616161;opacity:0.2;mix-blend-mode:color-burn"/><path d="M16.3,13.2h-.4l-.4.2h-.4l-.8.5-.4.2-.3.2-.3.2-1.5.8-.5.2-2,1.2a.1.1,0,0,0-.1.1l-.4.2V30.1l.9-.2.5-.2,3.5-1h.1a6.9,6.9,0,0,1,.5-1.3c1.2-2.8,2.6-6.5,3.6-8.8s.9-2.5.9-2.5h0l.3-2.8Z" style="fill:#ebebeb"/><path d="M31.6,21.3l-1.2-3.8-7.5-4.3H20.1l1.9,4,2.4,8.3L31.6,23Z" style="fill:#616161;opacity:0.2;mix-blend-mode:color-burn"/><path d="M31.6,17.8v-.3l-7.6-4.3H21.2l.2,2.9L25.8,25l5.8-1.7Z" style="fill:#ebebeb"/><path d="M24.4,13.5v2.1l-4.1,2.9h0L16,15.6V13.5l.4-.3H17l.6,1.1,1.5-1.1.3-.2h1.5l.3.2,1.5,1.1.7-1.1h.5Z" style="fill:#616161;opacity:0.4;mix-blend-mode:color-burn"/><polygon points="24.5 11.3 24.4 10.3 24.4 10.3 24.2 7.1 23 6.6 20.8 5.4 20.2 5.7 19.5 5.4 17.3 6.6 16.1 7.1 15.9 10.3 15.9 10.3 15.8 11.3 16 14.3 20.2 17.3 20.2 17.3 20.2 17.3 20.2 17.3 20.2 17.3 20.2 17.3 20.2 17.3 24.3 14.3 24.5 11.3" style="fill:#ebbe9f"/><path d="M24.5,11.3v-1c-.3.6-1.7,2.7-1.7,2.7l-1.8-1.2H19.4L17.6,13s-1.4-2.1-1.7-2.7v1l.2,3,4.2,3h0l4.1-3Z" style="fill:#9c9c9c"/><path d="M20.2,13.2h1.3l-1-.7h-.7l-1,.7Z" style="fill:#ebbe9f"/><polygon points="21 11.2 20.4 9.3 20.2 9.3 20.2 9.3 19.9 9.3 19.3 11.2 19.9 11.8 20.2 11.8 20.2 11.8 20.2 11.8 20.2 11.8 20.2 11.8 20.4 11.8 21 11.2" style="fill:#616161;opacity:0.2;mix-blend-mode:color-burn"/><polygon points="20.8 8.7 22.5 8.5 22.6 8.5 22.6 8.5 23.4 9 22.5 8.7 22.6 8.7 20.8 9.2 20.8 8.7" style="fill:#9c9c9c"/><path d="M21.4,9.5c-.1,0-.1.1-.1.2a.5.5,0,0,0,.5.5.5.5,0,0,0,.5-.5V9.5Z" style="fill:#333"/><polygon points="19.6 8.7 17.8 8.5 17.7 8.5 17.7 8.5 16.9 9 17.8 8.7 17.7 8.7 19.5 9.2 19.6 8.7" style="fill:#9c9c9c"/><path d="M18.9,9.5c.1,0,.1.1.1.2a.5.5,0,0,1-1,0V9.5Z" style="fill:#333"/><path d="M24.4,10.3h0l-.8-2.9L23,6.6l1.2.5.2,3.2Z" style="fill:#9c9c9c"/><path d="M15.9,10.3h0l.8-2.9.6-.9-1.2.5-.2,3.2Z" style="fill:#9c9c9c"/><path d="M24.3,6V7.2a18.8,18.8,0,0,1-3.3.5H17l-1-.2V6.2L20.1,4l1.2.6.7.3.6.3,1.5.7Z" style="fill:#ffd675"/><path d="M22,4.9,17.9,7.6H17l4.3-2.9Z" style="fill:#fff;opacity:0.2"/><path d="M24.1,5.9,21,7.7H18.8l3.8-2.4Z" style="fill:#fff;opacity:0.2"/><polygon points="20.9 5.3 20.2 6.2 20.2 6.2 20.2 6.2 19.4 5.3 20.2 4.3 20.9 5.3" style="fill:#d66142"/><polygon points="20.2 6.2 20.3 5.4 20.2 4.3 20.9 5.3 20.2 6.2" style="fill:#fff;opacity:0.2"/><polygon points="12 21.5 11.9 22.5 12.3 21.6 12 21.5" style="fill:#333"/><polygon points="13.9 21.5 13.8 22.5 14.2 21.6 13.9 21.5" style="fill:#333"/><polygon points="15.8 21.5 15.7 22.5 16.1 21.6 15.8 21.5" style="fill:#333"/><polygon points="9.6 24.6 9.5 25.6 10 24.7 9.6 24.6" style="fill:#333"/><polygon points="11.5 24.6 11.4 25.6 11.9 24.7 11.5 24.6" style="fill:#333"/><polygon points="13.4 24.6 13.3 25.6 13.8 24.7 13.4 24.6" style="fill:#333"/><polygon points="10.2 27.8 10.1 28.7 10.5 27.9 10.2 27.8" style="fill:#333"/><polygon points="12.1 27.8 12 28.7 12.4 27.9 12.1 27.8" style="fill:#333"/><path d="M14.1,27.7c-.1.2-.1.4-.2.6h0v-.7Z" style="fill:#333"/><polygon points="15.3 16.1 15.2 17 15.7 16.2 15.3 16.1" style="fill:#333"/><polygon points="13.4 15.7 13.3 16.6 13.8 15.8 13.4 15.7" style="fill:#333"/><path d="M11.6,16l-.2.5v-.3C11.5,16.1,11.6,16.1,11.6,16Z" style="fill:#333"/><polygon points="10.1 29.7 9.8 29.8 9.8 29.7 10.1 29.7" style="fill:#333"/><polygon points="9.7 18.4 9.5 19.3 10 18.5 9.7 18.4" style="fill:#333"/><polygon points="11.8 18.4 11.6 19.3 12.1 18.5 11.8 18.4" style="fill:#333"/><polygon points="13.7 18.4 13.5 19.3 14 18.5 13.7 18.4" style="fill:#333"/><polygon points="15.6 18.4 15.5 19.3 15.9 18.5 15.6 18.4" style="fill:#333"/><polygon points="17.5 16.6 17.4 17.5 17.9 16.7 17.5 16.6" style="fill:#333"/><polygon points="9.9 21.5 9.7 22.5 10.2 21.6 9.9 21.5" style="fill:#333"/><polygon points="28.7 21.5 28.9 22.5 28.4 21.6 28.7 21.5" style="fill:#333"/><polygon points="26.8 21.5 27 22.5 26.5 21.6 26.8 21.5" style="fill:#333"/><polygon points="24.9 21.5 25.1 22.5 24.6 21.6 24.9 21.5" style="fill:#333"/><polygon points="25.4 16.1 25.5 17 25.1 16.2 25.4 16.1" style="fill:#333"/><polygon points="27.3 15.7 27.4 16.6 27 15.8 27.3 15.7" style="fill:#333"/><path d="M29.1,16l.2.5v-.3Z" style="fill:#333"/><polygon points="31.1 18.4 31.2 19.3 30.7 18.5 31.1 18.4" style="fill:#333"/><polygon points="28.9 18.4 29.1 19.3 28.6 18.5 28.9 18.4" style="fill:#333"/><polygon points="27 18.4 27.2 19.3 26.7 18.5 27 18.4" style="fill:#333"/><polygon points="25.1 18.4 25.3 19.3 24.8 18.5 25.1 18.4" style="fill:#333"/><polygon points="23.2 16.6 23.3 17.5 22.8 16.7 23.2 16.6" style="fill:#333"/><polygon points="30.8 21.5 31 22.5 30.5 21.6 30.8 21.5" style="fill:#333"/><path d="M31.6,17.8v-.3l-2.2-1.2h0l-.2-.2v.2l-4.1-2.3c-.3-.2-.6-.3-.7-.5V10.3h0l-.2-3.1h.1V6h-.2l-1.5-.7L22,4.9l-.7-.3L20.2,4V26.7l4.2-1.2h0l2.5-.9h.2l4.5-1.4Z" style="fill:#616161;opacity:0.2;mix-blend-mode:color-burn"/><path d="M8.8,37.9v.3l7,4,.5.3h7.7a.1.1,0,0,1,.1-.1h.3l.3-.2h.4c0-.1,0-.1.1-.1l.8-.5.3-.2.4-.2h.3l4-2.3h.1l.4-.2V25.6l-5,1.5-1.1.3-16.7,5Z" style="fill:#d66142"/><polygon points="20.2 30.4 22.4 33.7 20.2 36.3 17.9 33.6 20.2 30.4" style="fill:#616161;opacity:0.2;mix-blend-mode:color-burn"/><polygon points="20.2 31.2 22.2 33.7 20.2 36.3 18.2 33.7 20.2 31.2" style="fill:#ffd675"/><polygon points="21.3 33.7 20.2 35.2 19 33.7 20.2 32.3 21.3 33.7" style="fill:#616161;opacity:0.2;mix-blend-mode:color-burn"/><path d="M20.2,36l2,3.6H18.1Zm1.7,3.3-1.7-2.9-1.7,2.9Z" style="fill:#ffd675"/><path d="M23,42.5l7.5-4.3L31.6,35V25.6l-5,1.5-1.1.3-3,9.7-.4,1.3-.6,1.3-1.3,2.8H23Z" style="fill:#616161;opacity:0.2;mix-blend-mode:color-burn"/><path d="M24,42.5h.1a.1.1,0,0,1,.1-.1h.3l.3-.2h.4c0-.1,0-.1.1-.1l.8-.5.3-.2.4-.2h.3l1.5-.9.4-.2,2.1-1.2h.1l.4-.2V25.6l-.9.2-.5.2-3.5,1h-.1c-.2.3-.3.8-.5,1.2-1.2,2.9-2.7,6.5-3.6,8.8l-1,2.5h0l-.2,2.8Z" style="fill:#ebebeb"/><path d="M8.8,34.4,10,38.2l7.5,4.3h2.7l-1.8-4.1-2.5-8.3L8.8,32.7Z" style="fill:#616161;opacity:0.2;mix-blend-mode:color-burn"/><path d="M8.8,37.9v.3l7.5,4.3h2.8l-.3-2.9s-3.2-6.7-4.4-8.9L8.8,32.4Z" style="fill:#ebebeb"/><path d="M15.9,42.2l.2-2.1,4.1-2.9h0l4.1,2.9.2,2.1-.5.3h-.6l-.7-1.1-1.5,1.1-.2.2H19.4l-.2-.2-1.5-1.1L17,42.5h-.6Z" style="fill:#616161;opacity:0.4;mix-blend-mode:color-burn"/><polygon points="15.8 44.4 15.9 45.4 15.9 45.4 16.2 48.6 17.3 49.2 19.6 50.3 20.2 50 20.8 50.3 23.1 49.2 24.2 48.6 24.5 45.4 24.5 45.4 24.6 44.4 24.3 41.4 20.2 38.4 20.2 38.4 20.2 38.4 20.2 38.4 20.2 38.4 20.2 38.4 20.2 38.4 16.1 41.4 15.8 44.4" style="fill:#ebbe9f"/><path d="M15.8,44.4v1l1.8-2.7,1.7,1.2H21l1.7-1.2,1.8,2.7v-1l-.3-3-4.1-3h0l-4.1,3Z" style="fill:#9c9c9c"/><path d="M20.2,42.5H18.8l1.1.6h.7l1-.6Z" style="fill:#ebbe9f"/><polygon points="19.4 44.5 19.9 46.4 20.2 46.4 20.2 46.4 20.5 46.4 21 44.5 20.5 43.9 20.2 43.9 20.2 43.9 20.2 43.9 20.2 43.9 20.2 43.9 19.9 43.9 19.4 44.5" style="fill:#616161;opacity:0.2;mix-blend-mode:color-burn"/><polygon points="19.6 47 17.8 47.2 17.8 47.2 17.8 47.2 16.9 46.7 17.9 47 17.8 47 19.5 46.5 19.6 47" style="fill:#9c9c9c"/><path d="M19,46.2V46a.5.5,0,0,0-.5-.5.5.5,0,0,0-.5.5c0,.1,0,.2.1.2Z" style="fill:#333"/><polygon points="20.8 47 22.6 47.2 22.6 47.2 22.6 47.2 23.5 46.7 22.6 47 22.6 47 20.9 46.5 20.8 47" style="fill:#9c9c9c"/><path d="M21.4,46.2V46a.5.5,0,0,1,1,0c0,.1,0,.2-.1.2Z" style="fill:#333"/><path d="M15.9,45.4H16l.8,2.9.5.9-1.1-.6-.3-3.2Z" style="fill:#9c9c9c"/><path d="M24.5,45.4h-.1l-.8,2.9-.5.9,1.1-.6.3-3.2Z" style="fill:#9c9c9c"/><path d="M16.1,49.7V48.5a11.9,11.9,0,0,1,3.3-.4,7.4,7.4,0,0,1,2.1,0h1.9l1,.2v1.1l-4.2,2.2L19,51.1l-.6-.3-.7-.3-1.4-.7Z" style="fill:#ffd675"/><path d="M18.4,50.8l4-2.6h1L19,51.1Z" style="fill:#fff;opacity:0.2"/><path d="M16.3,49.8l3.1-1.7a7.4,7.4,0,0,1,2.1,0l-3.8,2.4Z" style="fill:#fff;opacity:0.2"/><polygon points="19.5 50.4 20.2 49.6 20.2 49.6 20.2 49.5 20.9 50.4 20.2 51.4 19.5 50.4" style="fill:#d66142"/><polygon points="20.2 49.6 20 50.3 20.2 51.4 19.5 50.4 20.2 49.6" style="fill:#fff;opacity:0.2"/><polygon points="28.4 34.2 28.5 33.2 28 34.1 28.4 34.2" style="fill:#333"/><polygon points="26.5 34.2 26.6 33.2 26.1 34.1 26.5 34.2" style="fill:#333"/><polygon points="24.6 34.2 24.7 33.2 24.2 34.1 24.6 34.2" style="fill:#333"/><polygon points="30.7 31.1 30.9 30.1 30.4 31 30.7 31.1" style="fill:#333"/><polygon points="28.8 31.1 29 30.1 28.5 31 28.8 31.1" style="fill:#333"/><polygon points="26.9 31.1 27.1 30.1 26.6 31 26.9 31.1" style="fill:#333"/><polygon points="30.2 27.9 30.3 27 29.8 27.8 30.2 27.9" style="fill:#333"/><polygon points="28.3 27.9 28.4 27 27.9 27.8 28.3 27.9" style="fill:#333"/><path d="M26.2,28l.3-.6h0v.7Z" style="fill:#333"/><polygon points="25 39.6 25.2 38.7 24.7 39.5 25 39.6" style="fill:#333"/><polygon points="26.9 40 27.1 39.1 26.6 39.9 26.9 40" style="fill:#333"/><path d="M28.7,39.7l.3-.5v.4Z" style="fill:#333"/><polygon points="30.3 26 30.6 25.9 30.5 26.1 30.3 26" style="fill:#333"/><polygon points="30.7 37.3 30.8 36.4 30.4 37.2 30.7 37.3" style="fill:#333"/><polygon points="28.6 37.3 28.7 36.4 28.2 37.2 28.6 37.3" style="fill:#333"/><polygon points="26.7 37.3 26.8 36.4 26.3 37.2 26.7 37.3" style="fill:#333"/><polygon points="24.8 37.3 24.9 36.4 24.4 37.2 24.8 37.3" style="fill:#333"/><polygon points="22.8 39.1 23 38.2 22.5 39 22.8 39.1" style="fill:#333"/><polygon points="30.5 34.2 30.6 33.2 30.1 34.1 30.5 34.2" style="fill:#333"/><polygon points="11.6 34.2 11.5 33.2 12 34.1 11.6 34.2" style="fill:#333"/><polygon points="13.5 34.2 13.4 33.2 13.9 34.1 13.5 34.2" style="fill:#333"/><polygon points="15.4 34.2 15.3 33.2 15.8 34.1 15.4 34.2" style="fill:#333"/><polygon points="15 39.6 14.8 38.7 15.3 39.5 15 39.6" style="fill:#333"/><polygon points="13.1 40 12.9 39.1 13.4 39.9 13.1 40" style="fill:#333"/><path d="M11.3,39.7l-.3-.5v.4Z" style="fill:#333"/><polygon points="9.3 37.3 9.2 36.4 9.6 37.2 9.3 37.3" style="fill:#333"/><polygon points="11.4 37.3 11.3 36.4 11.8 37.2 11.4 37.3" style="fill:#333"/><polygon points="13.3 37.3 13.2 36.4 13.7 37.2 13.3 37.3" style="fill:#333"/><polygon points="15.2 37.3 15.1 36.4 15.6 37.2 15.2 37.3" style="fill:#333"/><polygon points="17.2 39.1 17 38.2 17.5 39 17.2 39.1" style="fill:#333"/><polygon points="9.5 34.2 9.4 33.2 9.9 34.1 9.5 34.2" style="fill:#333"/><path d="M8.8,37.9v.3l2.2,1.2v.2h.2v-.2l4.1,2.3.7.5-.2,2.1v1h0l.3,3.1h-.1v1.2h.2l1.4.7.7.3.6.3,1.2.6V29L16,30.3v-.2l-2.4.9h-.2L8.8,32.4Z" style="fill:#616161;opacity:0.2;mix-blend-mode:color-burn"/></g></g></svg>