<svg xmlns="http://www.w3.org/2000/svg" viewBox="0 0 39.8 55.7"><g style="isolation:isolate"><g id="a84e40b5-6051-476b-b991-68f2dbbeb973" data-name="Layer 1"><path d="M4.4,55.7A4.2,4.2,0,0,1,.1,51.5V4.2A4.2,4.2,0,0,1,4.3,0H35.5a4.2,4.2,0,0,1,4.3,4.2V51.5a4.2,4.2,0,0,1-4.3,4.2Z" style="fill:#c9c9c9"/><path d="M4.8,55.6A4.2,4.2,0,0,1,.6,51.4V4.2A4.2,4.2,0,0,1,4.8,0H35.6a4.2,4.2,0,0,1,4.2,4.2V51.4a4.2,4.2,0,0,1-4.2,4.2Z" style="fill:#fff"/><polygon points="27.7 4 23.5 9.3 27.7 14.5 31.8 9.3 27.7 4" style="fill:#d66142"/><polygon points="27.6 4 27.7 4 31.8 9.3 27.7 14.5 27.6 14.5 27.6 4" style="fill:#616161;opacity:0.2;mix-blend-mode:color-burn"/><polygon points="12.7 41.1 16.9 46.4 12.7 51.6 8.6 46.4 12.7 41.1" style="fill:#d66142"/><polygon points="12.7 41.2 12.7 41.1 8.6 46.4 12.7 51.6 12.7 51.6 12.7 41.2" style="fill:#616161;opacity:0.2;mix-blend-mode:color-burn"/><polygon points="12.7 4 16.9 9.3 12.7 14.5 8.6 9.3 12.7 4" style="fill:#d66142"/><polygon points="12.7 4 12.7 4 8.6 9.3 12.7 14.5 12.7 14.5 12.7 4" style="fill:#616161;opacity:0.2;mix-blend-mode:color-burn"/><polygon points="20.2 22.6 16 27.8 20.2 33.1 24.3 27.8 20.2 22.6" style="fill:#d66142"/><polygon points="20.2 22.6 20.2 22.6 24.3 27.8 20.2 33.1 20.2 33 20.2 22.6" style="fill:#616161;opacity:0.2;mix-blend-mode:color-burn"/><polygon points="27.7 41.1 23.5 46.4 27.7 51.6 31.8 46.4 27.7 41.1" style="fill:#d66142"/><polygon points="27.6 41.2 27.7 41.1 31.8 46.4 27.7 51.6 27.6 51.6 27.6 41.2" style="fill:#616161;opacity:0.2;mix-blend-mode:color-burn"/><polygon points="3.9 12.7 2.7 11.1 3.9 9.6 5.1 11.1 3.9 12.7" style="fill:#d66142"/><polygon points="3.9 9.6 3.9 9.6 3.9 12.6 3.9 12.7 5.1 11.1 3.9 9.6" style="fill:#616161;opacity:0.2;mix-blend-mode:color-burn"/><path d="M5.5,3.6,5.2,4c-.2.2-.3.3-.5.3H4.3c-.2,0-.3.1-.3.2s0,.2.1.2l.6.3c.2.1.3.3.4.4a.9.9,0,0,1,.1.5.7.7,0,0,1-.2.6.8.8,0,0,1-.2.4,2.9,2.9,0,0,1-.8.8,1.7,1.7,0,0,1-1,.3H2.5c-.3-.1-.4-.3-.4-.4A.9.9,0,0,1,2.4,7c.2-.3.3-.5.5-.5a.4.4,0,0,1,.1.3v.3l.2.2h.3L4,7.2a.8.8,0,0,0,.2-.6A1.4,1.4,0,0,0,4,5.9a.9.9,0,0,0-.6-.3H3.1V4.9a.6.6,0,0,0,.1-.4H3.1c0-.1,0-.1-.1-.1H3c0-.1.2-.2.3-.3l.5-.3H5.5Z" style="fill:#333"/><path d="M35.1,52.6l.3-.4.5-.4h.5c.2-.1.3-.1.3-.3a.2.2,0,0,0-.2-.2c-.2-.1-.4-.1-.6-.3l-.4-.4c0-.1-.1-.3-.1-.4a1.9,1.9,0,0,1,.2-.7c0-.1.1-.2.2-.4a3.2,3.2,0,0,1,.9-.8l.9-.2h.6c.2.1.3.2.3.4a1.5,1.5,0,0,1-.3.6c-.2.3-.3.4-.4.4s-.1-.1-.1-.2-.1-.3-.1-.4h-.1l-.4-.2-.5.2a1.4,1.4,0,0,0-.2.6.9.9,0,0,0,.3.7.6.6,0,0,0,.6.3.1.1,0,0,0,.1.1h.1v1h.2l-.4.4-.4.3H35.3a.1.1,0,0,1-.1.1Z" style="fill:#333"/><polygon points="36.8 43.5 38 45 36.8 46.5 35.6 45 36.8 43.5" style="fill:#d66142"/><polygon points="36.8 43.5 36.8 43.5 35.6 45 36.8 46.5 36.8 46.5 36.8 43.5" style="fill:#616161;opacity:0.2;mix-blend-mode:color-burn"/></g></g></svg>