<svg xmlns="http://www.w3.org/2000/svg" viewBox="0 0 39.8 55.7"><g style="isolation:isolate"><g id="e5ee8e04-a615-490e-9b2d-09067d283ddc" data-name="Layer 1"><path d="M4.4,55.7A4.2,4.2,0,0,1,.1,51.5V4.2A4.2,4.2,0,0,1,4.3,0H35.5a4.2,4.2,0,0,1,4.3,4.2V51.5a4.2,4.2,0,0,1-4.3,4.2Z" style="fill:#c9c9c9"/><path d="M4.8,55.6A4.2,4.2,0,0,1,.6,51.4V4.2A4.2,4.2,0,0,1,4.8,0H35.6a4.2,4.2,0,0,1,4.2,4.2V51.4a4.2,4.2,0,0,1-4.2,4.2Z" style="fill:#fff"/><path d="M3.5,7.4l-.4.4-.7.3-.3-.2c0-.1-.1-.1-.1-.2V4.5H1.7L2,3.9l.3-.2h.2l.3.2.2.3V7.5h.5Z" style="fill:#333"/><path d="M7.4,5.9a1.9,1.9,0,0,1-.2.7,1.7,1.7,0,0,1-.8.9l-.5.3a1.1,1.1,0,0,1-.8.2,1.4,1.4,0,0,1-1.2-.6,1.8,1.8,0,0,1-.4-1.3,1.9,1.9,0,0,1,.3-1l.4-.6a1.3,1.3,0,0,1,.7-.6l.8-.3a1.3,1.3,0,0,1,1.2.7A3,3,0,0,1,7.4,5.9Zm-1,.7a2.8,2.8,0,0,0-.1-.9L6,4.9l-.5-.6H5.1a.5.5,0,0,0-.5.3,1.2,1.2,0,0,0-.2.8v.5l.3.8.5.7.5.2a.5.5,0,0,0,.5-.3C6.4,7.1,6.4,6.8,6.4,6.6Z" style="fill:#333"/><path d="M37.2,48.7a.7.7,0,0,1,.3-.3,1.3,1.3,0,0,1,.8-.3c.1,0,.2,0,.2.1a.4.4,0,0,1,.1.3v3.3H39c0,.1,0,.1-.1.2l-.3.2-.3.2h-.5a.4.4,0,0,1-.1-.3V48.7h-.1c-.1,0-.1,0-.1.1h-.3Z" style="fill:#333"/><path d="M33.3,50.3a1.5,1.5,0,0,1,.1-.7,2.5,2.5,0,0,1,.8-1l.5-.3.8-.2a1.4,1.4,0,0,1,1.2.6,2.1,2.1,0,0,1,.4,1.4,4.4,4.4,0,0,1-.2,1l-.5.6-.6.6a1.6,1.6,0,0,1-.9.3,1.4,1.4,0,0,1-1.2-.8A2.4,2.4,0,0,1,33.3,50.3Zm.9-.7a2.8,2.8,0,0,0,.1.9,2.5,2.5,0,0,0,.4.7,1,1,0,0,0,.5.6h.3a.5.5,0,0,0,.5-.3,1.1,1.1,0,0,0,.3-.7,4.3,4.3,0,0,0-.1-.5,1.3,1.3,0,0,0-.3-.8,2.2,2.2,0,0,0-.5-.8h-.5c-.2,0-.4,0-.5.2A1.4,1.4,0,0,0,34.2,49.6Z" style="fill:#333"/><path d="M31.9,9.4c0-1-4.3-5.3-4.3-5.3s-4.3,4.4-4.3,5.3A2.6,2.6,0,0,0,25.9,12a2.3,2.3,0,0,0,1.4-.4l-1.7,2.8h4L28,11.6a2,2,0,0,0,1.3.4A2.6,2.6,0,0,0,31.9,9.4Z" style="fill:#333"/><path d="M31.9,9.4c0-1-4.3-5.3-4.3-5.3h0V14.4h2L28,11.6a2,2,0,0,0,1.3.4A2.6,2.6,0,0,0,31.9,9.4Z" style="fill:#616161;opacity:0.2;mix-blend-mode:color-burn"/><path d="M31.9,21.8c0-1-4.3-5.3-4.3-5.3s-4.3,4.4-4.3,5.3a2.6,2.6,0,0,0,2.6,2.6,3.3,3.3,0,0,0,1.4-.4l-1.7,2.8h4L28,24a2.8,2.8,0,0,0,1.3.4A2.6,2.6,0,0,0,31.9,21.8Z" style="fill:#333"/><path d="M31.9,21.8c0-1-4.3-5.3-4.3-5.3h0V26.8h2L28,24a2.8,2.8,0,0,0,1.3.4A2.6,2.6,0,0,0,31.9,21.8Z" style="fill:#616161;opacity:0.2;mix-blend-mode:color-burn"/><path d="M8.5,9.4c0-1,4.3-5.3,4.3-5.3s4.3,4.4,4.3,5.3A2.6,2.6,0,0,1,14.5,12a2.3,2.3,0,0,1-1.4-.4l1.7,2.8h-4l1.6-2.8a2,2,0,0,1-1.3.4A2.6,2.6,0,0,1,8.5,9.4Z" style="fill:#333"/><path d="M8.5,9.4c0-1,4.3-5.3,4.3-5.3h.1V14.4H10.8l1.6-2.8a2,2,0,0,1-1.3.4A2.6,2.6,0,0,1,8.5,9.4Z" style="fill:#616161;opacity:0.2;mix-blend-mode:color-burn"/><path d="M15.9,16.5c0-1,4.3-5.3,4.3-5.3s4.3,4.4,4.3,5.3a2.6,2.6,0,0,1-2.6,2.6,2.5,2.5,0,0,1-1.3-.4l1.6,2.8h-4l1.6-2.8a2.5,2.5,0,0,1-1.3.4A2.6,2.6,0,0,1,15.9,16.5Z" style="fill:#333"/><path d="M15.9,16.5c0-1,4.3-5.3,4.3-5.3h.1V21.5H18.2l1.6-2.8a2.5,2.5,0,0,1-1.3.4A2.6,2.6,0,0,1,15.9,16.5Z" style="fill:#616161;opacity:0.2;mix-blend-mode:color-burn"/><path d="M8.5,21.8c0-1,4.3-5.3,4.3-5.3s4.3,4.4,4.3,5.3a2.6,2.6,0,0,1-2.6,2.6,3.3,3.3,0,0,1-1.4-.4l1.7,2.8h-4L12.4,24a2.8,2.8,0,0,1-1.3.4A2.6,2.6,0,0,1,8.5,21.8Z" style="fill:#333"/><path d="M8.5,21.8c0-1,4.3-5.3,4.3-5.3h.1V26.8H10.8L12.4,24a2.8,2.8,0,0,1-1.3.4A2.6,2.6,0,0,1,8.5,21.8Z" style="fill:#616161;opacity:0.2;mix-blend-mode:color-burn"/><path d="M31.9,46.4c0,1-4.4,5.3-4.4,5.3s-4.2-4.4-4.2-5.2a2.7,2.7,0,0,1,2.6-2.7,2.8,2.8,0,0,1,1.3.4l-1.6-2.8h4L28,44.2a2.5,2.5,0,0,1,1.3-.4A2.6,2.6,0,0,1,31.9,46.4Z" style="fill:#333"/><path d="M31.9,46.4c0,1-4.4,5.3-4.4,5.3h0V41.4h2.1L28,44.2a2.5,2.5,0,0,1,1.3-.4A2.6,2.6,0,0,1,31.9,46.4Z" style="fill:#616161;opacity:0.2;mix-blend-mode:color-burn"/><path d="M31.9,34.1c0,1-4.4,5.3-4.4,5.3s-4.2-4.5-4.2-5.3a2.6,2.6,0,0,1,2.6-2.6,2.8,2.8,0,0,1,1.3.3l-1.6-2.7h4L28,31.8a2.5,2.5,0,0,1,1.3-.3A2.6,2.6,0,0,1,31.9,34.1Z" style="fill:#333"/><path d="M31.9,34.1c0,1-4.4,5.3-4.4,5.3h0V29.1h2.1L28,31.8a2.5,2.5,0,0,1,1.3-.3A2.6,2.6,0,0,1,31.9,34.1Z" style="fill:#616161;opacity:0.2;mix-blend-mode:color-burn"/><path d="M8.5,46.4c0,1,4.3,5.3,4.3,5.3s4.3-4.4,4.3-5.2a2.7,2.7,0,0,0-2.6-2.7,3.3,3.3,0,0,0-1.4.4l1.7-2.8h-4l1.6,2.8a2.8,2.8,0,0,0-1.3-.4A2.6,2.6,0,0,0,8.5,46.4Z" style="fill:#333"/><path d="M8.5,46.4c0,1,4.3,5.3,4.3,5.3h0V41.4h-2l1.6,2.8a2.8,2.8,0,0,0-1.3-.4A2.6,2.6,0,0,0,8.5,46.4Z" style="fill:#616161;opacity:0.2;mix-blend-mode:color-burn"/><path d="M15.9,39.3c0,1,4.3,5.3,4.3,5.3s4.3-4.5,4.3-5.3a2.6,2.6,0,0,0-2.6-2.6,2.3,2.3,0,0,0-1.4.4l1.7-2.8h-4L19.8,37a2.8,2.8,0,0,0-1.3-.3A2.5,2.5,0,0,0,15.9,39.3Z" style="fill:#333"/><path d="M15.9,39.3c0,1,4.3,5.3,4.3,5.3h0V34.3h-2L19.8,37a2.8,2.8,0,0,0-1.3-.3A2.5,2.5,0,0,0,15.9,39.3Z" style="fill:#616161;opacity:0.2;mix-blend-mode:color-burn"/><path d="M8.5,34.1c0,1,4.3,5.3,4.3,5.3s4.3-4.5,4.3-5.3a2.6,2.6,0,0,0-2.6-2.6,3.2,3.2,0,0,0-1.4.3l1.7-2.7h-4l1.6,2.7a2.8,2.8,0,0,0-1.3-.3A2.5,2.5,0,0,0,8.5,34.1Z" style="fill:#333"/><path d="M8.5,34.1c0,1,4.3,5.3,4.3,5.3h0V29.1h-2l1.6,2.7a2.8,2.8,0,0,0-1.3-.3A2.5,2.5,0,0,0,8.5,34.1Z" style="fill:#616161;opacity:0.2;mix-blend-mode:color-burn"/><path d="M5.2,11.3c0-.3-1.1-1.4-1.1-1.4a8.7,8.7,0,0,0-1.2,1.4.7.7,0,0,0,.7.7H4l-.5.7H4.6l-.4-.7h.3A.7.7,0,0,0,5.2,11.3Z" style="fill:#333"/><path d="M5.2,11.3c0-.3-1.1-1.4-1.1-1.4h0v2.7h.5l-.4-.7h.3A.7.7,0,0,0,5.2,11.3Z" style="fill:#616161;opacity:0.2;mix-blend-mode:color-burn"/><path d="M35.6,45a8.7,8.7,0,0,0,1.2,1.4A8.5,8.5,0,0,0,37.9,45a.7.7,0,0,0-.7-.7h-.4l.5-.8H36.2l.4.8h-.3A.7.7,0,0,0,35.6,45Z" style="fill:#333"/><path d="M35.6,45a8.7,8.7,0,0,0,1.2,1.4h0V43.6h-.6l.4.8h-.3A.7.7,0,0,0,35.6,45Z" style="fill:#616161;opacity:0.2;mix-blend-mode:color-burn"/></g></g></svg>