<svg xmlns="http://www.w3.org/2000/svg" viewBox="0 0 39.8 55.7"><g style="isolation:isolate"><g id="bf0e331a-b6fd-4b41-adf7-79cf55258c84" data-name="Layer 1"><path d="M4.4,55.7A4.2,4.2,0,0,1,.1,51.5V4.2A4.2,4.2,0,0,1,4.3,0H35.5a4.2,4.2,0,0,1,4.3,4.2V51.5a4.2,4.2,0,0,1-4.3,4.2Z" style="fill:#c9c9c9"/><path d="M4.8,55.6A4.2,4.2,0,0,1,.6,51.4V4.2A4.2,4.2,0,0,1,4.8,0H35.6a4.2,4.2,0,0,1,4.2,4.2V51.4a4.2,4.2,0,0,1-4.2,4.2Z" style="fill:#fff"/><path d="M5.5,3.6,5.2,4c-.2.2-.3.3-.5.3H4.3c-.2,0-.3.1-.3.2s0,.2.2.3l.5.2c.2.1.3.3.4.4a.9.9,0,0,1,.1.5,1.3,1.3,0,0,1-.1.6L4.8,7a2.9,2.9,0,0,1-.8.8,1.7,1.7,0,0,1-1,.3H2.5a.5.5,0,0,1-.3-.4A1,1,0,0,1,2.4,7l.5-.5a.4.4,0,0,1,.1.3v.3l.2.2h.4A.4.4,0,0,0,4,7.2c.2-.1.2-.3.2-.6A1.9,1.9,0,0,0,4,5.9a.9.9,0,0,0-.6-.3H3.1V5a1.1,1.1,0,0,0,.1-.5H3V4.2c0-.1.2-.2.3-.3l.5-.3H5.5Z" style="fill:#333"/><path d="M35.1,52.6l.3-.4.5-.4h.5c.2,0,.3-.1.3-.2a.2.2,0,0,0-.2-.2l-.6-.3-.4-.4c0-.1-.1-.3-.1-.4a1.4,1.4,0,0,1,.2-.7c0-.1.1-.2.2-.4a2.2,2.2,0,0,1,.9-.8l.9-.2h.6c.2.1.3.2.3.4a1.5,1.5,0,0,1-.3.6c-.2.3-.3.4-.4.4s-.1-.1-.1-.3-.1-.2-.1-.3h-.1l-.4-.2-.5.2a1.1,1.1,0,0,0-.2.6.9.9,0,0,0,.3.7.6.6,0,0,0,.6.3h.2v1.1h.1c0,.1-.1.2-.3.4a.6.6,0,0,1-.4.2H35.3a.1.1,0,0,1-.1.1Z" style="fill:#333"/><path d="M31.5,10.2c0-.9-4.2-5-4.2-5s-4.1,4.2-4.1,5a2.5,2.5,0,0,0,2.5,2.5,2.8,2.8,0,0,0,1.3-.3l-1.6,2.7h3.8l-1.5-2.7a2.5,2.5,0,0,0,1.3.4A2.6,2.6,0,0,0,31.5,10.2Z" style="fill:#333"/><path d="M31.5,10.2c0-.9-4.2-5-4.2-5h0v9.9h1.9l-1.5-2.7a2.5,2.5,0,0,0,1.3.4A2.6,2.6,0,0,0,31.5,10.2Z" style="fill:#616161;opacity:0.2;mix-blend-mode:color-burn"/><path d="M8.9,10.2c0-.9,4.2-5,4.2-5s4.1,4.2,4.1,5a2.5,2.5,0,0,1-2.5,2.5,2.8,2.8,0,0,1-1.3-.3L15,15.1H11.2l1.5-2.7a2.5,2.5,0,0,1-1.3.4A2.6,2.6,0,0,1,8.9,10.2Z" style="fill:#333"/><path d="M8.9,10.2c0-.9,4.2-5,4.2-5h0v9.9H11.2l1.5-2.7a2.5,2.5,0,0,1-1.3.4A2.6,2.6,0,0,1,8.9,10.2Z" style="fill:#616161;opacity:0.2;mix-blend-mode:color-burn"/><path d="M16,27.7c0-1,4.2-5.1,4.2-5.1s4.1,4.2,4.1,5a2.6,2.6,0,0,1-2.5,2.6,2.8,2.8,0,0,1-1.3-.4L22,32.5H18.2l1.6-2.7a2.8,2.8,0,0,1-1.3.4A2.5,2.5,0,0,1,16,27.7Z" style="fill:#333"/><path d="M16,27.7c0-1,4.2-5.1,4.2-5.1h0v9.9h-2l1.6-2.7a2.8,2.8,0,0,1-1.3.4A2.5,2.5,0,0,1,16,27.7Z" style="fill:#616161;opacity:0.2;mix-blend-mode:color-burn"/><path d="M31.5,45.9c0,.9-4.2,5.1-4.2,5.1s-4.1-4.3-4.1-5.1a2.5,2.5,0,0,1,2.5-2.5,3.1,3.1,0,0,1,1.3.3L25.4,41h3.8l-1.6,2.7a3.1,3.1,0,0,1,1.3-.3A2.6,2.6,0,0,1,31.5,45.9Z" style="fill:#333"/><path d="M31.5,45.9c0,.9-4.2,5.1-4.2,5.1h0V41h1.9l-1.6,2.7a3.1,3.1,0,0,1,1.3-.3A2.6,2.6,0,0,1,31.5,45.9Z" style="fill:#616161;opacity:0.2;mix-blend-mode:color-burn"/><path d="M8.9,45.9c0,.9,4.2,5.1,4.2,5.1s4.1-4.3,4.1-5.1a2.5,2.5,0,0,0-2.5-2.5,2.8,2.8,0,0,0-1.3.3L15,41H11.1l1.6,2.7a2.8,2.8,0,0,0-1.3-.3A2.5,2.5,0,0,0,8.9,45.9Z" style="fill:#333"/><path d="M8.9,45.9c0,.9,4.2,5.1,4.2,5.1h0V41h-2l1.6,2.7a2.8,2.8,0,0,0-1.3-.3A2.5,2.5,0,0,0,8.9,45.9Z" style="fill:#616161;opacity:0.2;mix-blend-mode:color-burn"/><path d="M4.9,11c0-.2-1.1-1.3-1.1-1.3S2.7,10.8,2.7,11a.7.7,0,0,0,.7.7h.3l-.4.7H4.4l-.5-.7h.4A.7.7,0,0,0,4.9,11Z" style="fill:#333"/><path d="M4.9,11c0-.2-1.1-1.3-1.1-1.3h0v2.6h.6l-.5-.7h.4A.7.7,0,0,0,4.9,11Z" style="fill:#616161;opacity:0.2;mix-blend-mode:color-burn"/><path d="M35.8,45.2c0,.2,1.1,1.3,1.1,1.3S38,45.4,38,45.2a.7.7,0,0,0-.7-.7H37l.4-.7h-1l.4.7h-.4A.7.7,0,0,0,35.8,45.2Z" style="fill:#333"/><path d="M35.8,45.2c0,.2,1.1,1.3,1.1,1.3h0V43.9h-.5l.4.7h-.4A.7.7,0,0,0,35.8,45.2Z" style="fill:#616161;opacity:0.2;mix-blend-mode:color-burn"/></g></g></svg>